<svg xmlns="http://www.w3.org/2000/svg" xmlns:xlink="http://www.w3.org/1999/xlink" width="1920" zoomAndPan="magnify" viewBox="0 0 1440 809.999993" height="1080" preserveAspectRatio="xMidYMid meet" version="1.0"><defs><g/><clipPath id="632e2913e8"><rect x="0" width="1440" y="0" height="810"/></clipPath><clipPath id="50378a4831"><path d="M 56.25 0 L 1383.75 0 C 1398.667969 0 1412.976562 5.925781 1423.523438 16.476562 C 1434.074219 27.023438 1440 41.332031 1440 56.25 L 1440 753.84375 C 1440 768.761719 1434.074219 783.070312 1423.523438 793.617188 C 1412.976562 804.167969 1398.667969 810.09375 1383.75 810.09375 L 56.25 810.09375 C 41.332031 810.09375 27.023438 804.167969 16.476562 793.617188 C 5.925781 783.070312 0 768.761719 0 753.84375 L 0 56.25 C 0 41.332031 5.925781 27.023438 16.476562 16.476562 C 27.023438 5.925781 41.332031 0 56.25 0 Z M 56.25 0 " clip-rule="nonzero"/></clipPath><clipPath id="441212d6fc"><path d="M 0 0 L 1440 0 L 1440 810 L 0 810 Z M 0 0 " clip-rule="nonzero"/></clipPath><clipPath id="bd908bd1cf"><path d="M 56.25 0 L 1383.75 0 C 1398.667969 0 1412.976562 5.925781 1423.523438 16.476562 C 1434.074219 27.023438 1440 41.332031 1440 56.25 L 1440 753.84375 C 1440 768.761719 1434.074219 783.070312 1423.523438 793.617188 C 1412.976562 804.167969 1398.667969 810.09375 1383.75 810.09375 L 56.25 810.09375 C 41.332031 810.09375 27.023438 804.167969 16.476562 793.617188 C 5.925781 783.070312 0 768.761719 0 753.84375 L 0 56.25 C 0 41.332031 5.925781 27.023438 16.476562 16.476562 C 27.023438 5.925781 41.332031 0 56.25 0 Z M 56.25 0 " clip-rule="nonzero"/></clipPath><clipPath id="e6daae6819"><rect x="0" width="1440" y="0" height="810"/></clipPath><clipPath id="f362f854c9"><path d="M 688 52 L 987.617188 52 L 987.617188 279 L 688 279 Z M 688 52 " clip-rule="nonzero"/></clipPath><clipPath id="4ab214baa3"><path d="M 452.117188 297 L 985 297 L 985 571.628906 L 452.117188 571.628906 Z M 452.117188 297 " clip-rule="nonzero"/></clipPath><clipPath id="c8a39380bb"><path d="M 452.117188 297 L 985 297 L 985 314 L 452.117188 314 Z M 452.117188 297 " clip-rule="nonzero"/></clipPath><clipPath id="a1767b0ae4"><path d="M 452.117188 99 L 569 99 L 569 192 L 452.117188 192 Z M 452.117188 99 " clip-rule="nonzero"/></clipPath></defs><rect x="-144" width="1728" fill="#ffffff" y="-80.999999" height="971.999992" fill-opacity="1"/><rect x="-144" width="1728" fill="#ffffff" y="-80.999999" height="971.999992" fill-opacity="1"/><g transform="matrix(1, 0, 0, 1, 0, 0.000000000000039746)"><g clip-path="url(#632e2913e8)"><path fill="#eae8e5" d="M 0 0 L 1439.648438 0 L 1439.648438 810 L 0 810 Z M 0 0 " fill-opacity="1" fill-rule="nonzero"/></g></g><g clip-path="url(#50378a4831)"><g transform="matrix(1, 0, 0, 1, 0, 0.000000000000039746)"><g clip-path="url(#e6daae6819)"><g clip-path="url(#441212d6fc)"><g clip-path="url(#bd908bd1cf)"><path fill="#00885f" d="M 0 0 L 1439.816406 0 L 1439.816406 810.09375 L 0 810.09375 Z M 0 0 " fill-opacity="1" fill-rule="nonzero"/></g></g></g></g></g><path fill="#ffffff" d="M 800.179688 217.003906 C 791.925781 217.003906 783.621094 216.128906 775.394531 214.339844 C 772.746094 213.765625 770.902344 213.265625 769.589844 212.761719 C 765.277344 211.113281 763.121094 206.28125 764.769531 201.96875 C 766.417969 197.65625 771.25 195.496094 775.5625 197.144531 C 775.59375 197.15625 776.351562 197.4375 778.941406 198 C 807.949219 204.300781 838.109375 197.410156 861.699219 179.097656 C 871.839844 171.222656 879.136719 164.121094 883.394531 157.984375 C 883.605469 157.6875 883.832031 157.328125 884.074219 156.914062 C 887.886719 150.429688 888.683594 142.5625 886.253906 135.316406 C 881.90625 122.367188 876.234375 105.335938 873.890625 97.757812 C 872.527344 93.347656 874.996094 88.664062 879.40625 87.300781 C 883.816406 85.933594 888.5 88.40625 889.863281 92.816406 C 892.28125 100.628906 898.570312 119.46875 902.105469 130 C 906.074219 141.839844 904.757812 154.738281 898.488281 165.386719 C 898.03125 166.164062 897.574219 166.882812 897.128906 167.523438 C 891.90625 175.050781 883.4375 183.390625 871.957031 192.300781 C 851.128906 208.472656 825.898438 217.003906 800.179688 217.003906 Z M 800.179688 217.003906 " fill-opacity="1" fill-rule="nonzero"/><path fill="#ffffff" d="M 884.445312 313.785156 C 882.464844 313.785156 880.480469 313.085938 878.886719 311.664062 L 856.203125 291.453125 C 854.425781 289.867188 853.40625 287.597656 853.40625 285.214844 L 853.40625 284.671875 C 853.40625 284.613281 853.40625 284.558594 853.40625 284.503906 L 854.171875 246.605469 C 854.261719 242.046875 857.988281 238.414062 862.527344 238.414062 C 862.582031 238.414062 862.640625 238.414062 862.699219 238.414062 C 867.3125 238.507812 870.980469 242.324219 870.886719 246.941406 L 870.191406 281.523438 L 890.007812 299.179688 C 893.457031 302.253906 893.761719 307.535156 890.6875 310.984375 C 889.039062 312.839844 886.746094 313.785156 884.445312 313.785156 Z M 884.445312 313.785156 " fill-opacity="1" fill-rule="nonzero"/><g clip-path="url(#f362f854c9)"><path fill="#ffffff" d="M 731.132812 278.089844 C 726.53125 278.089844 721.9375 277.792969 717.339844 277.203125 C 708.5 276.074219 700.835938 272.621094 694.570312 266.941406 C 687.457031 260.5 688.210938 253.757812 689.292969 250.3125 C 690.316406 247.039062 693.339844 241.292969 702.054688 239.746094 L 704.207031 239.363281 C 709.007812 238.515625 713.972656 237.636719 718.722656 236.585938 C 728.960938 234.324219 743.785156 229.914062 754.464844 217.8125 C 758.003906 213.320312 762.191406 206.625 766.910156 197.910156 C 776.4375 180.308594 788.609375 164.261719 803.078125 150.214844 C 813.824219 139.789062 822.039062 131.691406 827.496094 126.148438 C 838.859375 114.617188 850.171875 106.765625 862.089844 102.148438 C 869.703125 99.199219 873.335938 95.402344 875.980469 87.648438 C 882.621094 68.175781 897.707031 55.984375 918.457031 53.316406 C 918.6875 53.28125 918.917969 53.253906 919.152344 53.226562 L 919.359375 53.203125 C 919.386719 53.199219 919.417969 53.195312 919.445312 53.191406 C 937.75 51.140625 955.082031 61.714844 961.910156 78.648438 L 983.394531 91.25 C 986.234375 92.914062 987.832031 96.089844 987.476562 99.363281 C 987.121094 102.636719 984.882812 105.394531 981.75 106.414062 L 961.445312 113.019531 C 960.195312 115.527344 958.457031 119 957.214844 121.421875 C 952.503906 130.597656 949.902344 138.035156 951.492188 146.738281 C 952.554688 152.570312 953.160156 158.402344 953.640625 163.414062 C 955.242188 180.027344 952.046875 197.074219 944.644531 211.414062 C 936.480469 227.234375 923.675781 239.242188 907.613281 246.136719 C 895.234375 251.453125 881.539062 254.433594 866.90625 255.003906 C 850.957031 255.628906 832.328125 254.996094 814.890625 245.652344 C 814.765625 245.742188 814.613281 245.855469 814.433594 246.003906 C 808.007812 251.390625 801.6875 255.820312 795.109375 259.539062 C 773.125 271.964844 752.0625 278.089844 731.132812 278.089844 Z M 707.289062 255.796875 C 710.710938 258.429688 714.710938 260.011719 719.464844 260.617188 C 741.574219 263.453125 762.992188 258.484375 786.878906 244.984375 C 792.558594 241.773438 798.058594 237.914062 803.699219 233.1875 C 811.691406 226.496094 818.847656 228.761719 822.402344 230.707031 C 836.410156 238.355469 852.429688 238.835938 866.253906 238.296875 C 878.832031 237.804688 890.527344 235.273438 901.015625 230.773438 C 929.085938 218.71875 939.316406 189.0625 937 165.019531 C 936.546875 160.347656 935.988281 154.929688 935.042969 149.738281 C 932.46875 135.644531 937.027344 124.128906 942.339844 113.785156 C 944.394531 109.777344 947.996094 102.515625 948.03125 102.441406 C 949.03125 100.425781 950.796875 98.898438 952.9375 98.203125 L 958.894531 96.265625 L 950.984375 91.625 C 949.070312 90.554688 947.621094 88.75 947.011719 86.589844 C 943.480469 75.585938 932.722656 68.539062 921.332031 69.804688 L 921.109375 69.832031 C 920.992188 69.847656 920.871094 69.859375 920.753906 69.878906 C 920.714844 69.882812 920.671875 69.886719 920.632812 69.894531 C 906.109375 71.75 896.414062 79.539062 891.804688 93.046875 C 887.535156 105.578125 880.453125 112.964844 868.132812 117.738281 C 858.46875 121.484375 849.074219 128.074219 839.410156 137.882812 C 833.863281 143.515625 825.558594 151.703125 814.722656 162.214844 C 801.472656 175.078125 790.332031 189.765625 781.613281 205.871094 C 776.375 215.542969 771.605469 223.113281 767.4375 228.367188 C 767.355469 228.46875 767.269531 228.570312 767.179688 228.671875 C 753.253906 244.59375 734.914062 250.132812 722.328125 252.914062 C 717.289062 254.027344 712.207031 254.929688 707.289062 255.796875 Z M 707.289062 255.796875 " fill-opacity="1" fill-rule="nonzero"/></g><g clip-path="url(#4ab214baa3)"><path fill="#ffffff" d="M 718.722656 571.496094 C 695.367188 571.496094 672.191406 568.46875 649.835938 562.492188 C 628.144531 556.691406 607.222656 548.125 587.652344 537.027344 C 549.101562 515.164062 516.3125 483.722656 492.832031 446.101562 C 492.796875 446.042969 492.761719 445.988281 492.730469 445.929688 C 466.507812 403.835938 452.648438 355.257812 452.648438 305.421875 C 452.648438 300.804688 456.390625 297.0625 461.007812 297.0625 C 465.625 297.0625 469.367188 300.804688 469.367188 305.421875 C 469.367188 352.1875 482.386719 397.769531 507.019531 437.242188 C 507.050781 437.296875 507.085938 437.351562 507.117188 437.40625 C 553.0625 510.902344 632.152344 554.777344 718.722656 554.777344 C 750.429688 554.777344 781.3125 548.910156 810.515625 537.335938 C 862.644531 516.691406 906.8125 478.496094 934.898438 429.785156 C 934.929688 429.730469 934.960938 429.675781 934.992188 429.621094 C 955.253906 394.425781 966.570312 354.546875 967.9375 313.78125 L 795.585938 313.78125 C 790.96875 313.78125 787.226562 310.039062 787.226562 305.421875 C 787.226562 300.804688 790.96875 297.0625 795.585938 297.0625 L 976.4375 297.0625 C 981.054688 297.0625 984.796875 300.804688 984.796875 305.421875 C 984.796875 329.074219 981.691406 352.53125 975.566406 375.148438 C 969.640625 397.027344 960.894531 418.105469 949.578125 437.796875 C 949.546875 437.855469 949.515625 437.910156 949.484375 437.96875 C 934.585938 463.847656 915.570312 486.910156 892.960938 506.515625 C 870.214844 526.242188 844.546875 541.84375 816.671875 552.882812 C 785.503906 565.234375 752.546875 571.496094 718.722656 571.496094 Z M 718.722656 571.496094 " fill-opacity="1" fill-rule="nonzero"/></g><path fill="#ffffff" d="M 942.238281 442.15625 C 939.566406 442.15625 937.183594 440.902344 935.65625 438.949219 L 898.046875 393.332031 C 893.460938 387.765625 886.492188 385.273438 879.414062 386.65625 C 872.339844 388.039062 866.835938 392.96875 864.6875 399.839844 C 864.671875 399.890625 864.65625 399.941406 864.636719 399.992188 C 864.609375 400.074219 864.585938 400.15625 864.558594 400.238281 L 864.519531 400.371094 C 861.289062 410.625 853.574219 418.4375 843.347656 421.804688 C 833.113281 425.171875 822.25 423.464844 813.542969 417.117188 C 811.460938 415.597656 809.324219 414.03125 807.132812 412.425781 L 806.371094 411.867188 C 795.882812 404.167969 787.671875 394.402344 781.964844 382.839844 C 776.546875 371.863281 773.683594 359.570312 773.683594 347.285156 C 773.683594 330.363281 778.917969 314.191406 788.8125 300.519531 C 791.519531 296.78125 796.75 295.945312 800.488281 298.652344 C 804.230469 301.359375 805.066406 306.585938 802.359375 310.324219 C 794.539062 321.125 790.40625 333.90625 790.40625 347.285156 C 790.40625 367.695312 799.832031 386.324219 816.261719 398.386719 L 817.019531 398.941406 C 819.199219 400.539062 821.332031 402.101562 823.398438 403.609375 C 827.695312 406.742188 833.0625 407.585938 838.121094 405.921875 C 843.167969 404.261719 846.976562 400.40625 848.570312 395.34375 L 848.605469 395.234375 C 848.652344 395.082031 848.703125 394.929688 848.75 394.777344 C 850.78125 388.328125 854.503906 382.640625 859.511719 378.320312 C 864.234375 374.25 870.007812 371.460938 876.203125 370.246094 C 882.402344 369.035156 888.804688 369.445312 894.71875 371.4375 C 901.015625 373.5625 906.628906 377.453125 910.949219 382.695312 L 948.6875 428.476562 C 949.921875 429.972656 950.597656 431.851562 950.597656 433.792969 C 950.597656 438.410156 946.855469 442.15625 942.238281 442.15625 Z M 942.238281 442.15625 " fill-opacity="1" fill-rule="nonzero"/><path fill="#ffffff" d="M 813.585938 553.472656 C 812.03125 553.472656 810.457031 553.039062 809.050781 552.128906 L 756.03125 517.824219 C 737.003906 505.511719 725.488281 484.628906 725.222656 461.96875 C 725.074219 449.050781 720.074219 436.800781 711.144531 427.476562 C 702.214844 418.140625 690.195312 412.609375 677.300781 411.894531 C 676.148438 411.828125 674.984375 411.796875 673.722656 411.796875 C 655.023438 411.796875 637.320312 419.898438 625.105469 434.03125 C 618.996094 442.171875 609.6875 446.828125 599.507812 446.828125 C 587.5 446.828125 576.59375 440.226562 571.042969 429.59375 C 567.207031 422.238281 565.183594 413.96875 565.183594 405.675781 C 565.183594 402.6875 565.445312 399.679688 565.957031 396.742188 L 568.800781 380.496094 C 570.269531 372.148438 567.710938 363.886719 561.785156 357.828125 C 555.855469 351.765625 547.652344 349.023438 539.269531 350.300781 C 533.664062 351.160156 528.59375 353.761719 524.621094 357.816406 C 520.648438 361.871094 518.160156 366.988281 517.421875 372.613281 L 508.214844 442.761719 C 507.617188 447.339844 503.414062 450.566406 498.839844 449.960938 C 494.261719 449.359375 491.035156 445.164062 491.636719 440.585938 L 500.84375 370.441406 C 502.054688 361.191406 506.148438 352.78125 512.675781 346.113281 C 519.203125 339.453125 527.523438 335.183594 536.742188 333.773438 C 550.515625 331.671875 564 336.179688 573.738281 346.136719 C 583.476562 356.09375 587.679688 369.667969 585.273438 383.382812 L 582.425781 399.625 C 582.078125 401.613281 581.902344 403.648438 581.902344 405.675781 C 581.902344 411.289062 583.273438 416.882812 585.867188 421.859375 C 588.5625 427.023438 593.664062 430.109375 599.507812 430.109375 C 604.421875 430.109375 608.917969 427.832031 611.835938 423.855469 C 611.960938 423.6875 612.089844 423.523438 612.226562 423.367188 C 627.628906 405.386719 650.042969 395.078125 673.722656 395.078125 C 675.304688 395.078125 676.785156 395.117188 678.242188 395.199219 C 695.371094 396.148438 711.351562 403.507812 723.226562 415.914062 C 735.09375 428.3125 741.742188 444.601562 741.945312 461.773438 C 742.144531 478.820312 750.804688 494.523438 765.117188 503.789062 L 818.136719 538.089844 C 822.011719 540.601562 823.121094 545.777344 820.613281 549.652344 C 819.011719 552.125 816.328125 553.472656 813.585938 553.472656 Z M 813.585938 553.472656 " fill-opacity="1" fill-rule="nonzero"/><path fill="#ffffff" d="M 673.183594 361.742188 C 670.742188 361.742188 668.300781 361.507812 665.878906 361.027344 L 641.566406 356.199219 C 629.410156 353.792969 619.75 344.355469 616.351562 331.570312 L 615.699219 329.109375 C 614.441406 324.371094 611.511719 320.394531 607.667969 318.195312 C 604.320312 316.277344 601.355469 313.792969 598.839844 310.796875 C 595.875 307.257812 596.335938 301.984375 599.875 299.019531 C 603.410156 296.050781 608.683594 296.511719 611.652344 300.050781 C 612.894531 301.53125 614.347656 302.753906 615.96875 303.683594 C 623.667969 308.078125 629.460938 315.785156 631.859375 324.816406 L 632.511719 327.277344 C 634.230469 333.742188 639.058594 338.660156 644.816406 339.796875 L 669.132812 344.625 C 679.9375 346.769531 690.589844 340.273438 695.039062 328.835938 C 695.285156 328.199219 695.410156 327.535156 695.410156 326.859375 C 695.410156 324.84375 694.296875 323.003906 692.816406 322.582031 C 685.722656 320.558594 680.441406 314.851562 678.6875 307.320312 C 677.640625 302.820312 680.4375 298.328125 684.933594 297.28125 C 689.429688 296.234375 693.925781 299.027344 694.972656 303.527344 C 695.144531 304.261719 695.722656 306.023438 697.40625 306.503906 C 706.074219 308.976562 712.132812 317.347656 712.132812 326.859375 C 712.132812 329.613281 711.625 332.3125 710.625 334.890625 C 707.089844 343.976562 700.746094 351.589844 692.757812 356.332031 C 686.746094 359.898438 679.988281 361.742188 673.183594 361.742188 Z M 673.183594 361.742188 " fill-opacity="1" fill-rule="nonzero"/><g clip-path="url(#c8a39380bb)"><path fill="#ffffff" d="M 976.4375 313.785156 L 461.007812 313.785156 C 456.390625 313.785156 452.648438 310.039062 452.648438 305.421875 C 452.648438 300.804688 456.390625 297.0625 461.007812 297.0625 L 976.4375 297.0625 C 981.054688 297.0625 984.796875 300.804688 984.796875 305.421875 C 984.796875 310.039062 981.054688 313.785156 976.4375 313.785156 Z M 976.4375 313.785156 " fill-opacity="1" fill-rule="nonzero"/></g><path fill="#ffffff" d="M 623.648438 220.265625 C 614.734375 220.265625 605.875 216.902344 599.027344 210.734375 C 593.839844 206.082031 590.097656 200.085938 588.210938 193.394531 C 585.277344 183.503906 585.410156 174.097656 588.597656 165.429688 C 591.769531 156.796875 597.839844 149.320312 606.632812 143.203125 C 622.257812 132.335938 640.320312 127.371094 661.847656 128.023438 C 673.566406 128.378906 684.265625 130.738281 694.554688 135.230469 C 698.613281 137.003906 701.359375 140.84375 701.722656 145.25 C 702.089844 149.652344 700.011719 153.886719 696.304688 156.300781 L 696.265625 156.328125 C 687.226562 162.222656 680.917969 170.683594 673.605469 181.136719 C 672.636719 182.527344 671.675781 183.921875 670.714844 185.320312 C 665.8125 192.441406 660.746094 199.800781 654.238281 206.347656 C 647.152344 213.476562 639.070312 217.949219 630.210938 219.644531 C 628.039062 220.0625 625.84375 220.265625 623.648438 220.265625 Z M 658.1875 144.6875 C 641.773438 144.6875 628.003906 148.707031 616.179688 156.929688 C 604.425781 165.105469 600.414062 175.789062 604.253906 188.683594 C 604.269531 188.726562 604.28125 188.769531 604.292969 188.816406 C 605.316406 192.472656 607.359375 195.746094 610.195312 198.292969 C 610.199219 198.296875 610.203125 198.300781 610.210938 198.304688 C 614.878906 202.511719 621.179688 204.351562 627.066406 203.222656 C 632.636719 202.15625 637.644531 199.324219 642.378906 194.558594 C 647.828125 189.082031 652.253906 182.648438 656.941406 175.839844 C 657.925781 174.410156 658.910156 172.980469 659.90625 171.554688 C 666.199219 162.558594 672.214844 154.398438 680.019531 147.675781 C 674.097656 145.90625 667.925781 144.9375 661.339844 144.738281 C 660.277344 144.703125 659.226562 144.6875 658.1875 144.6875 Z M 687.171875 142.296875 C 687.167969 142.296875 687.164062 142.300781 687.160156 142.304688 Z M 687.171875 142.296875 " fill-opacity="1" fill-rule="nonzero"/><path fill="#ffffff" d="M 567.125 230.375 C 565.621094 230.375 564.097656 229.96875 562.722656 229.113281 C 558.800781 226.675781 557.597656 221.523438 560.035156 217.601562 C 568.230469 204.40625 579.78125 197.3125 594.40625 188.335938 C 604.671875 182.035156 617.445312 174.191406 632.667969 162.035156 C 636.277344 159.152344 641.539062 159.742188 644.417969 163.347656 C 647.300781 166.957031 646.710938 172.21875 643.101562 175.097656 C 627.074219 187.902344 613.808594 196.042969 603.152344 202.585938 C 589.421875 211.015625 580.347656 216.585938 574.234375 226.425781 C 572.652344 228.972656 569.921875 230.375 567.125 230.375 Z M 567.125 230.375 " fill-opacity="1" fill-rule="nonzero"/><g clip-path="url(#a1767b0ae4)"><path fill="#ffffff" d="M 530.582031 191.859375 C 528.390625 191.859375 526.191406 191.65625 524.019531 191.242188 C 515.164062 189.542969 507.078125 185.070312 499.996094 177.945312 C 493.484375 171.398438 488.417969 164.035156 483.519531 156.914062 C 482.554688 155.519531 481.59375 154.121094 480.625 152.734375 C 473.3125 142.28125 467.003906 133.816406 457.972656 127.925781 L 457.914062 127.886719 C 454.21875 125.484375 452.144531 121.25 452.507812 116.84375 C 452.871094 112.4375 455.617188 108.601562 459.675781 106.828125 C 469.964844 102.332031 480.664062 99.976562 492.382812 99.621094 C 513.914062 98.96875 531.972656 103.933594 547.597656 114.800781 C 556.390625 120.917969 562.460938 128.394531 565.632812 137.023438 C 568.824219 145.691406 568.953125 155.101562 566.019531 164.988281 C 564.132812 171.683594 560.390625 177.679688 555.199219 182.335938 C 548.351562 188.5 539.496094 191.859375 530.582031 191.859375 Z M 474.214844 119.269531 C 482.015625 125.992188 488.035156 134.152344 494.328125 143.152344 C 495.320312 144.574219 496.304688 146.003906 497.292969 147.4375 C 501.976562 154.246094 506.402344 160.675781 511.851562 166.15625 C 516.585938 170.917969 521.59375 173.75 527.164062 174.820312 C 533.050781 175.945312 539.351562 174.105469 544.023438 169.902344 C 544.027344 169.898438 544.03125 169.890625 544.035156 169.886719 C 546.875 167.34375 548.914062 164.066406 549.9375 160.410156 C 549.949219 160.367188 549.964844 160.324219 549.976562 160.277344 C 553.816406 147.386719 549.804688 136.703125 538.050781 128.527344 C 525.476562 119.78125 510.703125 115.789062 492.890625 116.332031 C 486.304688 116.53125 480.132812 117.5 474.214844 119.269531 Z M 474.214844 119.269531 " fill-opacity="1" fill-rule="nonzero"/></g><path fill="#ffffff" d="M 567.136719 313.863281 C 562.519531 313.863281 558.777344 310.121094 558.777344 305.503906 L 558.773438 196.609375 C 558.773438 189.609375 555.679688 183.03125 550.289062 178.554688 C 547.890625 176.566406 545.96875 174.960938 544.261719 173.539062 C 536.769531 167.292969 533.347656 164.441406 511.125 146.695312 C 507.519531 143.8125 506.929688 138.550781 509.8125 134.945312 C 512.691406 131.335938 517.953125 130.746094 521.5625 133.628906 C 543.921875 151.484375 547.382812 154.371094 554.96875 160.695312 C 556.667969 162.113281 558.582031 163.707031 560.964844 165.6875 C 570.199219 173.351562 575.496094 184.621094 575.496094 196.609375 L 575.496094 305.503906 C 575.496094 310.121094 571.753906 313.863281 567.136719 313.863281 Z M 567.136719 313.863281 " fill-opacity="1" fill-rule="nonzero"/><g fill="#ffffff" fill-opacity="1"><g transform="translate(444.328112, 722.292992)"><g><path d="M 43.828125 -32.40625 C 47.484375 -31.625 50.421875 -29.804688 52.640625 -26.953125 C 54.867188 -24.109375 55.984375 -20.851562 55.984375 -17.1875 C 55.984375 -11.90625 54.132812 -7.71875 50.4375 -4.625 C 46.75 -1.539062 41.609375 0 35.015625 0 L 5.578125 0 L 5.578125 -63.1875 L 34.015625 -63.1875 C 40.441406 -63.1875 45.46875 -61.710938 49.09375 -58.765625 C 52.726562 -55.828125 54.546875 -51.835938 54.546875 -46.796875 C 54.546875 -43.078125 53.566406 -39.988281 51.609375 -37.53125 C 49.660156 -35.070312 47.066406 -33.363281 43.828125 -32.40625 Z M 20.96875 -37.625 L 31.046875 -37.625 C 33.566406 -37.625 35.5 -38.175781 36.84375 -39.28125 C 38.195312 -40.394531 38.875 -42.03125 38.875 -44.1875 C 38.875 -46.351562 38.195312 -48.003906 36.84375 -49.140625 C 35.5 -50.273438 33.566406 -50.84375 31.046875 -50.84375 L 20.96875 -50.84375 Z M 32.3125 -12.421875 C 34.894531 -12.421875 36.890625 -13.003906 38.296875 -14.171875 C 39.703125 -15.347656 40.40625 -17.046875 40.40625 -19.265625 C 40.40625 -21.484375 39.671875 -23.222656 38.203125 -24.484375 C 36.734375 -25.742188 34.707031 -26.375 32.125 -26.375 L 20.96875 -26.375 L 20.96875 -12.421875 Z M 32.3125 -12.421875 "/></g></g></g><g fill="#ffffff" fill-opacity="1"><g transform="translate(503.638053, 722.292992)"><g><path d="M 13.3125 -55.4375 C 10.613281 -55.4375 8.410156 -56.226562 6.703125 -57.8125 C 4.992188 -59.40625 4.140625 -61.375 4.140625 -63.71875 C 4.140625 -66.113281 4.992188 -68.109375 6.703125 -69.703125 C 8.410156 -71.296875 10.613281 -72.09375 13.3125 -72.09375 C 15.957031 -72.09375 18.132812 -71.296875 19.84375 -69.703125 C 21.550781 -68.109375 22.40625 -66.113281 22.40625 -63.71875 C 22.40625 -61.375 21.550781 -59.40625 19.84375 -57.8125 C 18.132812 -56.226562 15.957031 -55.4375 13.3125 -55.4375 Z M 20.96875 -50.21875 L 20.96875 0 L 5.578125 0 L 5.578125 -50.21875 Z M 20.96875 -50.21875 "/></g></g></g><g fill="#ffffff" fill-opacity="1"><g transform="translate(530.188024, 722.292992)"><g><path d="M 28.4375 0.71875 C 23.519531 0.71875 19.09375 -0.328125 15.15625 -2.421875 C 11.226562 -4.523438 8.140625 -7.523438 5.890625 -11.421875 C 3.640625 -15.328125 2.515625 -19.890625 2.515625 -25.109375 C 2.515625 -30.265625 3.65625 -34.804688 5.9375 -38.734375 C 8.21875 -42.671875 11.335938 -45.6875 15.296875 -47.78125 C 19.253906 -49.882812 23.695312 -50.9375 28.625 -50.9375 C 33.539062 -50.9375 37.976562 -49.882812 41.9375 -47.78125 C 45.894531 -45.6875 49.015625 -42.671875 51.296875 -38.734375 C 53.578125 -34.804688 54.71875 -30.265625 54.71875 -25.109375 C 54.71875 -19.953125 53.5625 -15.40625 51.25 -11.46875 C 48.945312 -7.539062 45.796875 -4.523438 41.796875 -2.421875 C 37.804688 -0.328125 33.351562 0.71875 28.4375 0.71875 Z M 28.4375 -12.59375 C 31.375 -12.59375 33.878906 -13.671875 35.953125 -15.828125 C 38.023438 -17.992188 39.0625 -21.085938 39.0625 -25.109375 C 39.0625 -29.128906 38.054688 -32.21875 36.046875 -34.375 C 34.035156 -36.539062 31.5625 -37.625 28.625 -37.625 C 25.625 -37.625 23.132812 -36.554688 21.15625 -34.421875 C 19.175781 -32.296875 18.1875 -29.191406 18.1875 -25.109375 C 18.1875 -21.085938 19.160156 -17.992188 21.109375 -15.828125 C 23.054688 -13.671875 25.5 -12.59375 28.4375 -12.59375 Z M 28.4375 -12.59375 "/></g></g></g><g fill="#ffffff" fill-opacity="1"><g transform="translate(587.517966, 722.292992)"><g><path d="M 2.515625 -25.203125 C 2.515625 -30.359375 3.488281 -34.882812 5.4375 -38.78125 C 7.394531 -42.6875 10.050781 -45.6875 13.40625 -47.78125 C 16.769531 -49.882812 20.519531 -50.9375 24.65625 -50.9375 C 27.957031 -50.9375 30.972656 -50.242188 33.703125 -48.859375 C 36.429688 -47.484375 38.578125 -45.628906 40.140625 -43.296875 L 40.140625 -66.59375 L 55.53125 -66.59375 L 55.53125 0 L 40.140625 0 L 40.140625 -7.203125 C 38.703125 -4.796875 36.644531 -2.875 33.96875 -1.4375 C 31.300781 0 28.195312 0.71875 24.65625 0.71875 C 20.519531 0.71875 16.769531 -0.34375 13.40625 -2.46875 C 10.050781 -4.601562 7.394531 -7.632812 5.4375 -11.5625 C 3.488281 -15.488281 2.515625 -20.035156 2.515625 -25.203125 Z M 40.140625 -25.109375 C 40.140625 -28.953125 39.070312 -31.984375 36.9375 -34.203125 C 34.8125 -36.421875 32.21875 -37.53125 29.15625 -37.53125 C 26.09375 -37.53125 23.5 -36.429688 21.375 -34.234375 C 19.25 -32.046875 18.1875 -29.035156 18.1875 -25.203125 C 18.1875 -21.359375 19.25 -18.3125 21.375 -16.0625 C 23.5 -13.8125 26.09375 -12.6875 29.15625 -12.6875 C 32.21875 -12.6875 34.8125 -13.796875 36.9375 -16.015625 C 39.070312 -18.234375 40.140625 -21.265625 40.140625 -25.109375 Z M 40.140625 -25.109375 "/></g></g></g><g fill="#ffffff" fill-opacity="1"><g transform="translate(648.627891, 722.292992)"><g><path d="M 13.3125 -55.4375 C 10.613281 -55.4375 8.410156 -56.226562 6.703125 -57.8125 C 4.992188 -59.40625 4.140625 -61.375 4.140625 -63.71875 C 4.140625 -66.113281 4.992188 -68.109375 6.703125 -69.703125 C 8.410156 -71.296875 10.613281 -72.09375 13.3125 -72.09375 C 15.957031 -72.09375 18.132812 -71.296875 19.84375 -69.703125 C 21.550781 -68.109375 22.40625 -66.113281 22.40625 -63.71875 C 22.40625 -61.375 21.550781 -59.40625 19.84375 -57.8125 C 18.132812 -56.226562 15.957031 -55.4375 13.3125 -55.4375 Z M 20.96875 -50.21875 L 20.96875 0 L 5.578125 0 L 5.578125 -50.21875 Z M 20.96875 -50.21875 "/></g></g></g><g fill="#ffffff" fill-opacity="1"><g transform="translate(675.177862, 722.292992)"><g><path d="M 28.171875 -14.40625 L 39.0625 -50.21875 L 55.4375 -50.21875 L 37.625 0 L 18.625 0 L 0.8125 -50.21875 L 17.28125 -50.21875 Z M 28.171875 -14.40625 "/></g></g></g><g fill="#ffffff" fill-opacity="1"><g transform="translate(731.517809, 722.292992)"><g><path d="M 52.921875 -25.921875 C 52.921875 -24.484375 52.832031 -22.984375 52.65625 -21.421875 L 17.8125 -21.421875 C 18.0625 -18.296875 19.066406 -15.910156 20.828125 -14.265625 C 22.597656 -12.617188 24.773438 -11.796875 27.359375 -11.796875 C 31.203125 -11.796875 33.875 -13.414062 35.375 -16.65625 L 51.75 -16.65625 C 50.90625 -13.351562 49.390625 -10.378906 47.203125 -7.734375 C 45.015625 -5.097656 42.269531 -3.03125 38.96875 -1.53125 C 35.664062 -0.03125 31.976562 0.71875 27.90625 0.71875 C 22.976562 0.71875 18.59375 -0.328125 14.75 -2.421875 C 10.914062 -4.523438 7.914062 -7.523438 5.75 -11.421875 C 3.59375 -15.328125 2.515625 -19.890625 2.515625 -25.109375 C 2.515625 -30.328125 3.578125 -34.882812 5.703125 -38.78125 C 7.835938 -42.6875 10.828125 -45.6875 14.671875 -47.78125 C 18.515625 -49.882812 22.925781 -50.9375 27.90625 -50.9375 C 32.757812 -50.9375 37.078125 -49.914062 40.859375 -47.875 C 44.640625 -45.832031 47.59375 -42.921875 49.71875 -39.140625 C 51.851562 -35.367188 52.921875 -30.960938 52.921875 -25.921875 Z M 37.171875 -29.96875 C 37.171875 -32.613281 36.269531 -34.710938 34.46875 -36.265625 C 32.664062 -37.828125 30.414062 -38.609375 27.71875 -38.609375 C 25.132812 -38.609375 22.957031 -37.859375 21.1875 -36.359375 C 19.425781 -34.859375 18.332031 -32.726562 17.90625 -29.96875 Z M 37.171875 -29.96875 "/></g></g></g><g fill="#ffffff" fill-opacity="1"><g transform="translate(786.957771, 722.292992)"><g><path d="M 20.96875 -41.84375 C 22.769531 -44.601562 25.019531 -46.78125 27.71875 -48.375 C 30.414062 -49.96875 33.414062 -50.765625 36.71875 -50.765625 L 36.71875 -34.46875 L 32.484375 -34.46875 C 28.648438 -34.46875 25.769531 -33.640625 23.84375 -31.984375 C 21.925781 -30.335938 20.96875 -27.445312 20.96875 -23.3125 L 20.96875 0 L 5.578125 0 L 5.578125 -50.21875 L 20.96875 -50.21875 Z M 20.96875 -41.84375 "/></g></g></g><g fill="#ffffff" fill-opacity="1"><g transform="translate(825.477735, 722.292992)"><g><path d="M 26.015625 0.71875 C 21.628906 0.71875 17.726562 -0.03125 14.3125 -1.53125 C 10.894531 -3.03125 8.191406 -5.082031 6.203125 -7.6875 C 4.222656 -10.300781 3.113281 -13.226562 2.875 -16.46875 L 18.09375 -16.46875 C 18.269531 -14.726562 19.078125 -13.316406 20.515625 -12.234375 C 21.960938 -11.160156 23.734375 -10.625 25.828125 -10.625 C 27.742188 -10.625 29.226562 -11 30.28125 -11.75 C 31.332031 -12.5 31.859375 -13.472656 31.859375 -14.671875 C 31.859375 -16.109375 31.109375 -17.171875 29.609375 -17.859375 C 28.109375 -18.554688 25.675781 -19.320312 22.3125 -20.15625 C 18.71875 -21 15.71875 -21.882812 13.3125 -22.8125 C 10.914062 -23.738281 8.847656 -25.207031 7.109375 -27.21875 C 5.367188 -29.226562 4.5 -31.945312 4.5 -35.375 C 4.5 -38.25 5.289062 -40.867188 6.875 -43.234375 C 8.46875 -45.609375 10.8125 -47.484375 13.90625 -48.859375 C 17 -50.242188 20.675781 -50.9375 24.9375 -50.9375 C 31.226562 -50.9375 36.1875 -49.375 39.8125 -46.25 C 43.445312 -43.132812 45.535156 -39 46.078125 -33.84375 L 31.859375 -33.84375 C 31.617188 -35.582031 30.851562 -36.960938 29.5625 -37.984375 C 28.269531 -39.003906 26.578125 -39.515625 24.484375 -39.515625 C 22.679688 -39.515625 21.300781 -39.164062 20.34375 -38.46875 C 19.382812 -37.78125 18.90625 -36.835938 18.90625 -35.640625 C 18.90625 -34.203125 19.664062 -33.117188 21.1875 -32.390625 C 22.71875 -31.671875 25.101562 -30.953125 28.34375 -30.234375 C 32.070312 -29.273438 35.101562 -28.332031 37.4375 -27.40625 C 39.78125 -26.476562 41.835938 -24.976562 43.609375 -22.90625 C 45.378906 -20.832031 46.289062 -18.054688 46.34375 -14.578125 C 46.34375 -11.640625 45.519531 -9.015625 43.875 -6.703125 C 42.226562 -4.390625 39.859375 -2.570312 36.765625 -1.25 C 33.671875 0.0625 30.085938 0.71875 26.015625 0.71875 Z M 26.015625 0.71875 "/></g></g></g><g fill="#ffffff" fill-opacity="1"><g transform="translate(875.697657, 722.292992)"><g><path d="M 13.3125 -55.4375 C 10.613281 -55.4375 8.410156 -56.226562 6.703125 -57.8125 C 4.992188 -59.40625 4.140625 -61.375 4.140625 -63.71875 C 4.140625 -66.113281 4.992188 -68.109375 6.703125 -69.703125 C 8.410156 -71.296875 10.613281 -72.09375 13.3125 -72.09375 C 15.957031 -72.09375 18.132812 -71.296875 19.84375 -69.703125 C 21.550781 -68.109375 22.40625 -66.113281 22.40625 -63.71875 C 22.40625 -61.375 21.550781 -59.40625 19.84375 -57.8125 C 18.132812 -56.226562 15.957031 -55.4375 13.3125 -55.4375 Z M 20.96875 -50.21875 L 20.96875 0 L 5.578125 0 L 5.578125 -50.21875 Z M 20.96875 -50.21875 "/></g></g></g><g fill="#ffffff" fill-opacity="1"><g transform="translate(902.247674, 722.292992)"><g><path d="M 33.5625 -13.046875 L 33.5625 0 L 25.734375 0 C 20.160156 0 15.8125 -1.363281 12.6875 -4.09375 C 9.570312 -6.820312 8.015625 -11.273438 8.015625 -17.453125 L 8.015625 -37.4375 L 1.890625 -37.4375 L 1.890625 -50.21875 L 8.015625 -50.21875 L 8.015625 -62.453125 L 23.40625 -62.453125 L 23.40625 -50.21875 L 33.484375 -50.21875 L 33.484375 -37.4375 L 23.40625 -37.4375 L 23.40625 -17.28125 C 23.40625 -15.78125 23.765625 -14.695312 24.484375 -14.03125 C 25.203125 -13.375 26.398438 -13.046875 28.078125 -13.046875 Z M 33.5625 -13.046875 "/></g></g></g><g fill="#ffffff" fill-opacity="1"><g transform="translate(938.787605, 722.292992)"><g><path d="M 56.875 -50.21875 L 25.375 23.84375 L 8.8125 23.84375 L 20.34375 -1.703125 L -0.09375 -50.21875 L 17.09375 -50.21875 L 28.703125 -18.8125 L 40.234375 -50.21875 Z M 56.875 -50.21875 "/></g></g></g></svg>