<svg xmlns="http://www.w3.org/2000/svg" xmlns:xlink="http://www.w3.org/1999/xlink" width="1920" zoomAndPan="magnify" viewBox="0 0 1440 809.999993" height="1080" preserveAspectRatio="xMidYMid meet" version="1.0"><defs><g/><clipPath id="3cae30827c"><rect x="0" width="1440" y="0" height="810"/></clipPath><clipPath id="864c85d285"><path d="M 56.25 0 L 1383.75 0 C 1398.667969 0 1412.976562 5.925781 1423.523438 16.476562 C 1434.074219 27.023438 1440 41.332031 1440 56.25 L 1440 753.84375 C 1440 768.761719 1434.074219 783.070312 1423.523438 793.617188 C 1412.976562 804.167969 1398.667969 810.09375 1383.75 810.09375 L 56.25 810.09375 C 41.332031 810.09375 27.023438 804.167969 16.476562 793.617188 C 5.925781 783.070312 0 768.761719 0 753.84375 L 0 56.25 C 0 41.332031 5.925781 27.023438 16.476562 16.476562 C 27.023438 5.925781 41.332031 0 56.25 0 Z M 56.25 0 " clip-rule="nonzero"/></clipPath><clipPath id="20a63d5216"><path d="M 0 0 L 1440 0 L 1440 810 L 0 810 Z M 0 0 " clip-rule="nonzero"/></clipPath><clipPath id="3e3bdc2a95"><path d="M 56.25 0 L 1383.75 0 C 1398.667969 0 1412.976562 5.925781 1423.523438 16.476562 C 1434.074219 27.023438 1440 41.332031 1440 56.25 L 1440 753.84375 C 1440 768.761719 1434.074219 783.070312 1423.523438 793.617188 C 1412.976562 804.167969 1398.667969 810.09375 1383.75 810.09375 L 56.25 810.09375 C 41.332031 810.09375 27.023438 804.167969 16.476562 793.617188 C 5.925781 783.070312 0 768.761719 0 753.84375 L 0 56.25 C 0 41.332031 5.925781 27.023438 16.476562 16.476562 C 27.023438 5.925781 41.332031 0 56.25 0 Z M 56.25 0 " clip-rule="nonzero"/></clipPath><clipPath id="924491a9ba"><rect x="0" width="1440" y="0" height="810"/></clipPath><clipPath id="af96ff5555"><path d="M 549 51.128906 L 601 51.128906 L 601 143 L 549 143 Z M 549 51.128906 " clip-rule="nonzero"/></clipPath><clipPath id="ab8b75f52d"><path d="M 531.085938 229 L 1097.816406 229 L 1097.816406 571.628906 L 531.085938 571.628906 Z M 531.085938 229 " clip-rule="nonzero"/></clipPath></defs><rect x="-144" width="1728" fill="#ffffff" y="-80.999999" height="971.999992" fill-opacity="1"/><rect x="-144" width="1728" fill="#ffffff" y="-80.999999" height="971.999992" fill-opacity="1"/><g transform="matrix(1, 0, 0, 1, 0, 0.000000000000039746)"><g clip-path="url(#3cae30827c)"><path fill="#eae8e5" d="M 0 0 L 1439.648438 0 L 1439.648438 810 L 0 810 Z M 0 0 " fill-opacity="1" fill-rule="nonzero"/></g></g><g clip-path="url(#864c85d285)"><g transform="matrix(1, 0, 0, 1, 0, 0.000000000000039746)"><g clip-path="url(#924491a9ba)"><g clip-path="url(#20a63d5216)"><g clip-path="url(#3e3bdc2a95)"><path fill="#ff8035" d="M 0 0 L 1439.816406 0 L 1439.816406 810.09375 L 0 810.09375 Z M 0 0 " fill-opacity="1" fill-rule="nonzero"/></g></g></g></g></g><path fill="#ffffff" d="M 672.300781 238.898438 C 655.527344 202.335938 618.164062 176.847656 575.230469 176.847656 C 516.394531 176.847656 468.632812 224.609375 468.632812 283.441406 C 468.632812 322.417969 490.097656 357.4375 521.964844 375.75 C 544.972656 347.105469 579.1875 327.988281 617.425781 323.222656 C 628.492188 290.621094 647.613281 261.976562 672.300781 238.898438 " fill-opacity="1" fill-rule="nonzero"/><g clip-path="url(#af96ff5555)"><path fill="#ffffff" d="M 575.230469 142.699219 C 589.585938 142.699219 600.652344 131.5625 600.652344 117.207031 L 600.652344 76.621094 C 600.652344 62.332031 589.585938 51.195312 575.230469 51.195312 C 560.941406 51.195312 549.804688 62.332031 549.804688 76.621094 L 549.804688 117.207031 C 549.804688 130.757812 560.941406 142.699219 575.230469 142.699219 " fill-opacity="1" fill-rule="nonzero"/></g><path fill="#ffffff" d="M 439.183594 184.023438 C 444.011719 188.785156 450.386719 191.203125 457.496094 191.203125 C 464.671875 191.203125 470.242188 188.785156 475.808594 184.023438 C 486.140625 173.691406 486.140625 157.792969 475.808594 148.269531 L 447.164062 119.621094 C 436.832031 109.292969 420.933594 109.292969 411.410156 119.621094 C 401.011719 129.953125 401.011719 145.851562 411.410156 155.378906 L 439.183594 184.023438 " fill-opacity="1" fill-rule="nonzero"/><path fill="#ffffff" d="M 434.417969 283.441406 C 434.417969 269.152344 423.28125 258.019531 408.992188 258.019531 L 367.601562 258.019531 C 353.3125 258.019531 342.179688 269.152344 342.179688 283.441406 C 342.179688 297.796875 353.3125 308.933594 367.601562 308.933594 L 408.1875 308.933594 C 422.476562 308.933594 434.417969 297.796875 434.417969 283.441406 " fill-opacity="1" fill-rule="nonzero"/><path fill="#ffffff" d="M 439.183594 383.667969 L 410.605469 412.3125 C 400.273438 422.640625 400.273438 438.542969 410.605469 448.132812 C 415.367188 452.898438 421.738281 455.246094 428.851562 455.246094 C 435.222656 455.246094 441.597656 452.898438 447.164062 448.132812 L 475.808594 419.488281 C 486.140625 409.160156 486.140625 393.257812 475.808594 383.667969 C 465.480469 373.335938 449.578125 373.335938 439.183594 383.667969 " fill-opacity="1" fill-rule="nonzero"/><path fill="#ffffff" d="M 692.960938 191.203125 C 699.335938 191.203125 705.707031 188.785156 711.207031 184.023438 L 739.851562 155.378906 C 750.25 145.046875 750.25 129.148438 739.851562 119.621094 C 729.523438 109.292969 713.625 109.292969 704.097656 119.621094 L 675.453125 148.269531 C 665.121094 158.597656 665.121094 174.496094 675.453125 184.023438 C 680.214844 188.785156 686.589844 191.203125 692.960938 191.203125 " fill-opacity="1" fill-rule="nonzero"/><g clip-path="url(#ab8b75f52d)"><path fill="#ffffff" d="M 978.472656 332.75 C 970.554688 332.75 962.640625 333.554688 955.460938 335.164062 C 933.996094 273.917969 875.902344 229.371094 806.667969 229.371094 C 727.175781 229.371094 661.164062 288.207031 650.765625 365.417969 C 646.003906 364.613281 640.433594 363.808594 635.671875 363.808594 C 578.449219 363.808594 531.488281 410.703125 531.488281 467.992188 C 531.488281 525.28125 578.449219 572.171875 635.671875 572.171875 L 978.472656 572.171875 C 1044.550781 572.171875 1097.816406 518.910156 1097.816406 452.898438 C 1097.816406 386.886719 1044.550781 332.75 978.472656 332.75 " fill-opacity="1" fill-rule="nonzero"/></g><g fill="#ffffff" fill-opacity="1"><g transform="translate(384.433581, 677.293042)"><g><path d="M 2.96875 -31.6875 C 2.96875 -37.925781 4.316406 -43.488281 7.015625 -48.375 C 9.710938 -53.257812 13.476562 -57.066406 18.3125 -59.796875 C 23.144531 -62.535156 28.617188 -63.90625 34.734375 -63.90625 C 42.234375 -63.90625 48.65625 -61.921875 54 -57.953125 C 59.34375 -53.992188 62.910156 -48.597656 64.703125 -41.765625 L 47.796875 -41.765625 C 46.535156 -44.398438 44.75 -46.40625 42.4375 -47.78125 C 40.125 -49.164062 37.5 -49.859375 34.5625 -49.859375 C 29.820312 -49.859375 25.976562 -48.207031 23.03125 -44.90625 C 20.09375 -41.601562 18.625 -37.195312 18.625 -31.6875 C 18.625 -26.164062 20.09375 -21.753906 23.03125 -18.453125 C 25.976562 -15.148438 29.820312 -13.5 34.5625 -13.5 C 37.5 -13.5 40.125 -14.1875 42.4375 -15.5625 C 44.75 -16.945312 46.535156 -18.957031 47.796875 -21.59375 L 64.703125 -21.59375 C 62.910156 -14.757812 59.34375 -9.375 54 -5.4375 C 48.65625 -1.507812 42.234375 0.453125 34.734375 0.453125 C 28.617188 0.453125 23.144531 -0.910156 18.3125 -3.640625 C 13.476562 -6.367188 9.710938 -10.160156 7.015625 -15.015625 C 4.316406 -19.878906 2.96875 -25.4375 2.96875 -31.6875 Z M 2.96875 -31.6875 "/></g></g></g><g fill="#ffffff" fill-opacity="1"><g transform="translate(453.013511, 677.293042)"><g><path d="M 20.96875 -66.59375 L 20.96875 0 L 5.578125 0 L 5.578125 -66.59375 Z M 20.96875 -66.59375 "/></g></g></g><g fill="#ffffff" fill-opacity="1"><g transform="translate(479.563482, 677.293042)"><g><path d="M 13.3125 -55.4375 C 10.613281 -55.4375 8.410156 -56.226562 6.703125 -57.8125 C 4.992188 -59.40625 4.140625 -61.375 4.140625 -63.71875 C 4.140625 -66.113281 4.992188 -68.109375 6.703125 -69.703125 C 8.410156 -71.296875 10.613281 -72.09375 13.3125 -72.09375 C 15.957031 -72.09375 18.132812 -71.296875 19.84375 -69.703125 C 21.550781 -68.109375 22.40625 -66.113281 22.40625 -63.71875 C 22.40625 -61.375 21.550781 -59.40625 19.84375 -57.8125 C 18.132812 -56.226562 15.957031 -55.4375 13.3125 -55.4375 Z M 20.96875 -50.21875 L 20.96875 0 L 5.578125 0 L 5.578125 -50.21875 Z M 20.96875 -50.21875 "/></g></g></g><g fill="#ffffff" fill-opacity="1"><g transform="translate(506.113453, 677.293042)"><g><path d="M 69.65625 -50.765625 C 75.894531 -50.765625 80.859375 -48.875 84.546875 -45.09375 C 88.242188 -41.3125 90.09375 -36.0625 90.09375 -29.34375 L 90.09375 0 L 74.796875 0 L 74.796875 -27.265625 C 74.796875 -30.503906 73.9375 -33.007812 72.21875 -34.78125 C 70.507812 -36.550781 68.15625 -37.4375 65.15625 -37.4375 C 62.15625 -37.4375 59.800781 -36.550781 58.09375 -34.78125 C 56.382812 -33.007812 55.53125 -30.503906 55.53125 -27.265625 L 55.53125 0 L 40.234375 0 L 40.234375 -27.265625 C 40.234375 -30.503906 39.375 -33.007812 37.65625 -34.78125 C 35.945312 -36.550781 33.59375 -37.4375 30.59375 -37.4375 C 27.59375 -37.4375 25.238281 -36.550781 23.53125 -34.78125 C 21.820312 -33.007812 20.96875 -30.503906 20.96875 -27.265625 L 20.96875 0 L 5.578125 0 L 5.578125 -50.21875 L 20.96875 -50.21875 L 20.96875 -43.921875 C 22.53125 -46.015625 24.570312 -47.675781 27.09375 -48.90625 C 29.613281 -50.144531 32.460938 -50.765625 35.640625 -50.765625 C 39.421875 -50.765625 42.796875 -49.953125 45.765625 -48.328125 C 48.734375 -46.710938 51.054688 -44.40625 52.734375 -41.40625 C 54.472656 -44.164062 56.84375 -46.414062 59.84375 -48.15625 C 62.84375 -49.894531 66.113281 -50.765625 69.65625 -50.765625 Z M 69.65625 -50.765625 "/></g></g></g><g fill="#ffffff" fill-opacity="1"><g transform="translate(601.423347, 677.293042)"><g><path d="M 2.515625 -25.203125 C 2.515625 -30.359375 3.488281 -34.882812 5.4375 -38.78125 C 7.394531 -42.6875 10.050781 -45.6875 13.40625 -47.78125 C 16.769531 -49.882812 20.519531 -50.9375 24.65625 -50.9375 C 28.195312 -50.9375 31.300781 -50.21875 33.96875 -48.78125 C 36.644531 -47.34375 38.703125 -45.453125 40.140625 -43.109375 L 40.140625 -50.21875 L 55.53125 -50.21875 L 55.53125 0 L 40.140625 0 L 40.140625 -7.109375 C 38.640625 -4.765625 36.550781 -2.875 33.875 -1.4375 C 31.207031 0 28.101562 0.71875 24.5625 0.71875 C 20.488281 0.71875 16.769531 -0.34375 13.40625 -2.46875 C 10.050781 -4.601562 7.394531 -7.632812 5.4375 -11.5625 C 3.488281 -15.488281 2.515625 -20.035156 2.515625 -25.203125 Z M 40.140625 -25.109375 C 40.140625 -28.953125 39.070312 -31.984375 36.9375 -34.203125 C 34.8125 -36.421875 32.21875 -37.53125 29.15625 -37.53125 C 26.09375 -37.53125 23.5 -36.429688 21.375 -34.234375 C 19.25 -32.046875 18.1875 -29.035156 18.1875 -25.203125 C 18.1875 -21.359375 19.25 -18.3125 21.375 -16.0625 C 23.5 -13.8125 26.09375 -12.6875 29.15625 -12.6875 C 32.21875 -12.6875 34.8125 -13.796875 36.9375 -16.015625 C 39.070312 -18.234375 40.140625 -21.265625 40.140625 -25.109375 Z M 40.140625 -25.109375 "/></g></g></g><g fill="#ffffff" fill-opacity="1"><g transform="translate(662.533283, 677.293042)"><g><path d="M 33.5625 -13.046875 L 33.5625 0 L 25.734375 0 C 20.160156 0 15.8125 -1.363281 12.6875 -4.09375 C 9.570312 -6.820312 8.015625 -11.273438 8.015625 -17.453125 L 8.015625 -37.4375 L 1.890625 -37.4375 L 1.890625 -50.21875 L 8.015625 -50.21875 L 8.015625 -62.453125 L 23.40625 -62.453125 L 23.40625 -50.21875 L 33.484375 -50.21875 L 33.484375 -37.4375 L 23.40625 -37.4375 L 23.40625 -17.28125 C 23.40625 -15.78125 23.765625 -14.695312 24.484375 -14.03125 C 25.203125 -13.375 26.398438 -13.046875 28.078125 -13.046875 Z M 33.5625 -13.046875 "/></g></g></g><g fill="#ffffff" fill-opacity="1"><g transform="translate(699.073259, 677.293042)"><g><path d="M 52.921875 -25.921875 C 52.921875 -24.484375 52.832031 -22.984375 52.65625 -21.421875 L 17.8125 -21.421875 C 18.0625 -18.296875 19.066406 -15.910156 20.828125 -14.265625 C 22.597656 -12.617188 24.773438 -11.796875 27.359375 -11.796875 C 31.203125 -11.796875 33.875 -13.414062 35.375 -16.65625 L 51.75 -16.65625 C 50.90625 -13.351562 49.390625 -10.378906 47.203125 -7.734375 C 45.015625 -5.097656 42.269531 -3.03125 38.96875 -1.53125 C 35.664062 -0.03125 31.976562 0.71875 27.90625 0.71875 C 22.976562 0.71875 18.59375 -0.328125 14.75 -2.421875 C 10.914062 -4.523438 7.914062 -7.523438 5.75 -11.421875 C 3.59375 -15.328125 2.515625 -19.890625 2.515625 -25.109375 C 2.515625 -30.328125 3.578125 -34.882812 5.703125 -38.78125 C 7.835938 -42.6875 10.828125 -45.6875 14.671875 -47.78125 C 18.515625 -49.882812 22.925781 -50.9375 27.90625 -50.9375 C 32.757812 -50.9375 37.078125 -49.914062 40.859375 -47.875 C 44.640625 -45.832031 47.59375 -42.921875 49.71875 -39.140625 C 51.851562 -35.367188 52.921875 -30.960938 52.921875 -25.921875 Z M 37.171875 -29.96875 C 37.171875 -32.613281 36.269531 -34.710938 34.46875 -36.265625 C 32.664062 -37.828125 30.414062 -38.609375 27.71875 -38.609375 C 25.132812 -38.609375 22.957031 -37.859375 21.1875 -36.359375 C 19.425781 -34.859375 18.332031 -32.726562 17.90625 -29.96875 Z M 37.171875 -29.96875 "/></g></g></g><g fill="#ffffff" fill-opacity="1"><g transform="translate(754.513198, 677.293042)"><g/></g></g><g fill="#ffffff" fill-opacity="1"><g transform="translate(773.593199, 677.293042)"><g><path d="M 37.796875 0 L 24.65625 -23.84375 L 20.96875 -23.84375 L 20.96875 0 L 5.578125 0 L 5.578125 -63.1875 L 31.40625 -63.1875 C 36.382812 -63.1875 40.628906 -62.3125 44.140625 -60.5625 C 47.648438 -58.820312 50.273438 -56.4375 52.015625 -53.40625 C 53.753906 -50.382812 54.625 -47.015625 54.625 -43.296875 C 54.625 -39.085938 53.4375 -35.332031 51.0625 -32.03125 C 48.695312 -28.738281 45.207031 -26.398438 40.59375 -25.015625 L 55.171875 0 Z M 20.96875 -34.734375 L 30.515625 -34.734375 C 33.328125 -34.734375 35.4375 -35.421875 36.84375 -36.796875 C 38.257812 -38.179688 38.96875 -40.132812 38.96875 -42.65625 C 38.96875 -45.0625 38.257812 -46.953125 36.84375 -48.328125 C 35.4375 -49.710938 33.328125 -50.40625 30.515625 -50.40625 L 20.96875 -50.40625 Z M 20.96875 -34.734375 "/></g></g></g><g fill="#ffffff" fill-opacity="1"><g transform="translate(832.273142, 677.293042)"><g><path d="M 13.3125 -55.4375 C 10.613281 -55.4375 8.410156 -56.226562 6.703125 -57.8125 C 4.992188 -59.40625 4.140625 -61.375 4.140625 -63.71875 C 4.140625 -66.113281 4.992188 -68.109375 6.703125 -69.703125 C 8.410156 -71.296875 10.613281 -72.09375 13.3125 -72.09375 C 15.957031 -72.09375 18.132812 -71.296875 19.84375 -69.703125 C 21.550781 -68.109375 22.40625 -66.113281 22.40625 -63.71875 C 22.40625 -61.375 21.550781 -59.40625 19.84375 -57.8125 C 18.132812 -56.226562 15.957031 -55.4375 13.3125 -55.4375 Z M 20.96875 -50.21875 L 20.96875 0 L 5.578125 0 L 5.578125 -50.21875 Z M 20.96875 -50.21875 "/></g></g></g><g fill="#ffffff" fill-opacity="1"><g transform="translate(858.823113, 677.293042)"><g><path d="M 26.015625 0.71875 C 21.628906 0.71875 17.726562 -0.03125 14.3125 -1.53125 C 10.894531 -3.03125 8.191406 -5.082031 6.203125 -7.6875 C 4.222656 -10.300781 3.113281 -13.226562 2.875 -16.46875 L 18.09375 -16.46875 C 18.269531 -14.726562 19.078125 -13.316406 20.515625 -12.234375 C 21.960938 -11.160156 23.734375 -10.625 25.828125 -10.625 C 27.742188 -10.625 29.226562 -11 30.28125 -11.75 C 31.332031 -12.5 31.859375 -13.472656 31.859375 -14.671875 C 31.859375 -16.109375 31.109375 -17.171875 29.609375 -17.859375 C 28.109375 -18.554688 25.675781 -19.320312 22.3125 -20.15625 C 18.71875 -21 15.71875 -21.882812 13.3125 -22.8125 C 10.914062 -23.738281 8.847656 -25.207031 7.109375 -27.21875 C 5.367188 -29.226562 4.5 -31.945312 4.5 -35.375 C 4.5 -38.25 5.289062 -40.867188 6.875 -43.234375 C 8.46875 -45.609375 10.8125 -47.484375 13.90625 -48.859375 C 17 -50.242188 20.675781 -50.9375 24.9375 -50.9375 C 31.226562 -50.9375 36.1875 -49.375 39.8125 -46.25 C 43.445312 -43.132812 45.535156 -39 46.078125 -33.84375 L 31.859375 -33.84375 C 31.617188 -35.582031 30.851562 -36.960938 29.5625 -37.984375 C 28.269531 -39.003906 26.578125 -39.515625 24.484375 -39.515625 C 22.679688 -39.515625 21.300781 -39.164062 20.34375 -38.46875 C 19.382812 -37.78125 18.90625 -36.835938 18.90625 -35.640625 C 18.90625 -34.203125 19.664062 -33.117188 21.1875 -32.390625 C 22.71875 -31.671875 25.101562 -30.953125 28.34375 -30.234375 C 32.070312 -29.273438 35.101562 -28.332031 37.4375 -27.40625 C 39.78125 -26.476562 41.835938 -24.976562 43.609375 -22.90625 C 45.378906 -20.832031 46.289062 -18.054688 46.34375 -14.578125 C 46.34375 -11.640625 45.519531 -9.015625 43.875 -6.703125 C 42.226562 -4.390625 39.859375 -2.570312 36.765625 -1.25 C 33.671875 0.0585938 30.085938 0.71875 26.015625 0.71875 Z M 26.015625 0.71875 "/></g></g></g><g fill="#ffffff" fill-opacity="1"><g transform="translate(909.043036, 677.293042)"><g><path d="M 36.265625 0 L 20.96875 -21.0625 L 20.96875 0 L 5.578125 0 L 5.578125 -66.59375 L 20.96875 -66.59375 L 20.96875 -29.796875 L 36.1875 -50.21875 L 55.171875 -50.21875 L 34.296875 -25.015625 L 55.34375 0 Z M 36.265625 0 "/></g></g></g><g fill="#ffffff" fill-opacity="1"><g transform="translate(964.663013, 677.293042)"><g/></g></g><g fill="#ffffff" fill-opacity="1"><g transform="translate(983.742968, 677.293042)"><g><path d="M 53.90625 0 L 48.0625 -5.671875 C 42.238281 -1.234375 35.28125 0.984375 27.1875 0.984375 C 22.320312 0.984375 18.085938 0.191406 14.484375 -1.390625 C 10.890625 -2.984375 8.113281 -5.234375 6.15625 -8.140625 C 4.207031 -11.054688 3.234375 -14.460938 3.234375 -18.359375 C 3.234375 -22.316406 4.296875 -25.898438 6.421875 -29.109375 C 8.554688 -32.328125 11.753906 -34.953125 16.015625 -36.984375 C 14.460938 -38.910156 13.351562 -40.757812 12.6875 -42.53125 C 12.03125 -44.300781 11.703125 -46.234375 11.703125 -48.328125 C 11.703125 -51.328125 12.476562 -54.054688 14.03125 -56.515625 C 15.59375 -58.972656 17.859375 -60.90625 20.828125 -62.3125 C 23.804688 -63.726562 27.332031 -64.4375 31.40625 -64.4375 C 35.550781 -64.4375 39.0625 -63.6875 41.9375 -62.1875 C 44.820312 -60.6875 46.984375 -58.675781 48.421875 -56.15625 C 49.859375 -53.632812 50.519531 -50.875 50.40625 -47.875 L 35.90625 -47.875 C 35.96875 -49.5 35.5625 -50.742188 34.6875 -51.609375 C 33.820312 -52.484375 32.671875 -52.921875 31.234375 -52.921875 C 29.785156 -52.921875 28.582031 -52.5 27.625 -51.65625 C 26.664062 -50.820312 26.1875 -49.742188 26.1875 -48.421875 C 26.1875 -47.160156 26.59375 -45.835938 27.40625 -44.453125 C 28.21875 -43.078125 29.492188 -41.488281 31.234375 -39.6875 L 46.625 -24.65625 C 46.738281 -24.957031 46.898438 -25.316406 47.109375 -25.734375 C 47.328125 -26.160156 47.554688 -26.644531 47.796875 -27.1875 L 51.125 -32.84375 L 66.515625 -32.84375 L 62.1875 -25.015625 C 60.570312 -21.472656 58.710938 -18.113281 56.609375 -14.9375 L 71.8125 0 Z M 27.90625 -11.4375 C 31.925781 -11.4375 35.492188 -12.570312 38.609375 -14.84375 L 24.5625 -28.4375 C 20.25 -26.21875 18.09375 -23.21875 18.09375 -19.4375 C 18.09375 -17.15625 18.976562 -15.25 20.75 -13.71875 C 22.519531 -12.195312 24.90625 -11.4375 27.90625 -11.4375 Z M 27.90625 -11.4375 "/></g></g></g><g fill="#ffffff" fill-opacity="1"><g transform="translate(268.828118, 767.293037)"><g><path d="M 43.828125 -32.40625 C 47.484375 -31.625 50.421875 -29.804688 52.640625 -26.953125 C 54.867188 -24.109375 55.984375 -20.851562 55.984375 -17.1875 C 55.984375 -11.90625 54.132812 -7.71875 50.4375 -4.625 C 46.75 -1.539062 41.609375 0 35.015625 0 L 5.578125 0 L 5.578125 -63.1875 L 34.015625 -63.1875 C 40.441406 -63.1875 45.46875 -61.710938 49.09375 -58.765625 C 52.726562 -55.828125 54.546875 -51.835938 54.546875 -46.796875 C 54.546875 -43.078125 53.566406 -39.988281 51.609375 -37.53125 C 49.660156 -35.070312 47.066406 -33.363281 43.828125 -32.40625 Z M 20.96875 -37.625 L 31.046875 -37.625 C 33.566406 -37.625 35.5 -38.175781 36.84375 -39.28125 C 38.195312 -40.394531 38.875 -42.03125 38.875 -44.1875 C 38.875 -46.351562 38.195312 -48.003906 36.84375 -49.140625 C 35.5 -50.273438 33.566406 -50.84375 31.046875 -50.84375 L 20.96875 -50.84375 Z M 32.3125 -12.421875 C 34.894531 -12.421875 36.890625 -13.003906 38.296875 -14.171875 C 39.703125 -15.347656 40.40625 -17.046875 40.40625 -19.265625 C 40.40625 -21.484375 39.671875 -23.222656 38.203125 -24.484375 C 36.734375 -25.742188 34.707031 -26.375 32.125 -26.375 L 20.96875 -26.375 L 20.96875 -12.421875 Z M 32.3125 -12.421875 "/></g></g></g><g fill="#ffffff" fill-opacity="1"><g transform="translate(328.13806, 767.293037)"><g><path d="M 55.171875 -50.21875 L 55.171875 0 L 39.78125 0 L 39.78125 -6.84375 C 38.21875 -4.625 36.101562 -2.835938 33.4375 -1.484375 C 30.769531 -0.128906 27.8125 0.546875 24.5625 0.546875 C 20.726562 0.546875 17.335938 -0.304688 14.390625 -2.015625 C 11.453125 -3.734375 9.171875 -6.210938 7.546875 -9.453125 C 5.929688 -12.691406 5.125 -16.5 5.125 -20.875 L 5.125 -50.21875 L 20.4375 -50.21875 L 20.4375 -22.953125 C 20.4375 -19.585938 21.304688 -16.972656 23.046875 -15.109375 C 24.785156 -13.253906 27.125 -12.328125 30.0625 -12.328125 C 33.0625 -12.328125 35.429688 -13.253906 37.171875 -15.109375 C 38.910156 -16.972656 39.78125 -19.585938 39.78125 -22.953125 L 39.78125 -50.21875 Z M 55.171875 -50.21875 "/></g></g></g><g fill="#ffffff" fill-opacity="1"><g transform="translate(388.798004, 767.293037)"><g><path d="M 26.015625 0.71875 C 21.628906 0.71875 17.726562 -0.03125 14.3125 -1.53125 C 10.894531 -3.03125 8.191406 -5.082031 6.203125 -7.6875 C 4.222656 -10.300781 3.113281 -13.226562 2.875 -16.46875 L 18.09375 -16.46875 C 18.269531 -14.726562 19.078125 -13.316406 20.515625 -12.234375 C 21.960938 -11.160156 23.734375 -10.625 25.828125 -10.625 C 27.742188 -10.625 29.226562 -11 30.28125 -11.75 C 31.332031 -12.5 31.859375 -13.472656 31.859375 -14.671875 C 31.859375 -16.109375 31.109375 -17.171875 29.609375 -17.859375 C 28.109375 -18.554688 25.675781 -19.320312 22.3125 -20.15625 C 18.71875 -21 15.71875 -21.882812 13.3125 -22.8125 C 10.914062 -23.738281 8.847656 -25.207031 7.109375 -27.21875 C 5.367188 -29.226562 4.5 -31.945312 4.5 -35.375 C 4.5 -38.25 5.289062 -40.867188 6.875 -43.234375 C 8.46875 -45.609375 10.8125 -47.484375 13.90625 -48.859375 C 17 -50.242188 20.675781 -50.9375 24.9375 -50.9375 C 31.226562 -50.9375 36.1875 -49.375 39.8125 -46.25 C 43.445312 -43.132812 45.535156 -39 46.078125 -33.84375 L 31.859375 -33.84375 C 31.617188 -35.582031 30.851562 -36.960938 29.5625 -37.984375 C 28.269531 -39.003906 26.578125 -39.515625 24.484375 -39.515625 C 22.679688 -39.515625 21.300781 -39.164062 20.34375 -38.46875 C 19.382812 -37.78125 18.90625 -36.835938 18.90625 -35.640625 C 18.90625 -34.203125 19.664062 -33.117188 21.1875 -32.390625 C 22.71875 -31.671875 25.101562 -30.953125 28.34375 -30.234375 C 32.070312 -29.273438 35.101562 -28.332031 37.4375 -27.40625 C 39.78125 -26.476562 41.835938 -24.976562 43.609375 -22.90625 C 45.378906 -20.832031 46.289062 -18.054688 46.34375 -14.578125 C 46.34375 -11.640625 45.519531 -9.015625 43.875 -6.703125 C 42.226562 -4.390625 39.859375 -2.570312 36.765625 -1.25 C 33.671875 0.0585938 30.085938 0.71875 26.015625 0.71875 Z M 26.015625 0.71875 "/></g></g></g><g fill="#ffffff" fill-opacity="1"><g transform="translate(439.017948, 767.293037)"><g><path d="M 13.3125 -55.4375 C 10.613281 -55.4375 8.410156 -56.226562 6.703125 -57.8125 C 4.992188 -59.40625 4.140625 -61.375 4.140625 -63.71875 C 4.140625 -66.113281 4.992188 -68.109375 6.703125 -69.703125 C 8.410156 -71.296875 10.613281 -72.09375 13.3125 -72.09375 C 15.957031 -72.09375 18.132812 -71.296875 19.84375 -69.703125 C 21.550781 -68.109375 22.40625 -66.113281 22.40625 -63.71875 C 22.40625 -61.375 21.550781 -59.40625 19.84375 -57.8125 C 18.132812 -56.226562 15.957031 -55.4375 13.3125 -55.4375 Z M 20.96875 -50.21875 L 20.96875 0 L 5.578125 0 L 5.578125 -50.21875 Z M 20.96875 -50.21875 "/></g></g></g><g fill="#ffffff" fill-opacity="1"><g transform="translate(465.567931, 767.293037)"><g><path d="M 36.1875 -50.765625 C 42.0625 -50.765625 46.753906 -48.859375 50.265625 -45.046875 C 53.773438 -41.234375 55.53125 -36 55.53125 -29.34375 L 55.53125 0 L 40.234375 0 L 40.234375 -27.265625 C 40.234375 -30.628906 39.363281 -33.238281 37.625 -35.09375 C 35.882812 -36.957031 33.539062 -37.890625 30.59375 -37.890625 C 27.65625 -37.890625 25.316406 -36.957031 23.578125 -35.09375 C 21.835938 -33.238281 20.96875 -30.628906 20.96875 -27.265625 L 20.96875 0 L 5.578125 0 L 5.578125 -50.21875 L 20.96875 -50.21875 L 20.96875 -43.5625 C 22.53125 -45.78125 24.628906 -47.535156 27.265625 -48.828125 C 29.910156 -50.117188 32.882812 -50.765625 36.1875 -50.765625 Z M 36.1875 -50.765625 "/></g></g></g><g fill="#ffffff" fill-opacity="1"><g transform="translate(526.227863, 767.293037)"><g><path d="M 52.921875 -25.921875 C 52.921875 -24.484375 52.832031 -22.984375 52.65625 -21.421875 L 17.8125 -21.421875 C 18.0625 -18.296875 19.066406 -15.910156 20.828125 -14.265625 C 22.597656 -12.617188 24.773438 -11.796875 27.359375 -11.796875 C 31.203125 -11.796875 33.875 -13.414062 35.375 -16.65625 L 51.75 -16.65625 C 50.90625 -13.351562 49.390625 -10.378906 47.203125 -7.734375 C 45.015625 -5.097656 42.269531 -3.03125 38.96875 -1.53125 C 35.664062 -0.03125 31.976562 0.71875 27.90625 0.71875 C 22.976562 0.71875 18.59375 -0.328125 14.75 -2.421875 C 10.914062 -4.523438 7.914062 -7.523438 5.75 -11.421875 C 3.59375 -15.328125 2.515625 -19.890625 2.515625 -25.109375 C 2.515625 -30.328125 3.578125 -34.882812 5.703125 -38.78125 C 7.835938 -42.6875 10.828125 -45.6875 14.671875 -47.78125 C 18.515625 -49.882812 22.925781 -50.9375 27.90625 -50.9375 C 32.757812 -50.9375 37.078125 -49.914062 40.859375 -47.875 C 44.640625 -45.832031 47.59375 -42.921875 49.71875 -39.140625 C 51.851562 -35.367188 52.921875 -30.960938 52.921875 -25.921875 Z M 37.171875 -29.96875 C 37.171875 -32.613281 36.269531 -34.710938 34.46875 -36.265625 C 32.664062 -37.828125 30.414062 -38.609375 27.71875 -38.609375 C 25.132812 -38.609375 22.957031 -37.859375 21.1875 -36.359375 C 19.425781 -34.859375 18.332031 -32.726562 17.90625 -29.96875 Z M 37.171875 -29.96875 "/></g></g></g><g fill="#ffffff" fill-opacity="1"><g transform="translate(581.667824, 767.293037)"><g><path d="M 26.015625 0.71875 C 21.628906 0.71875 17.726562 -0.03125 14.3125 -1.53125 C 10.894531 -3.03125 8.191406 -5.082031 6.203125 -7.6875 C 4.222656 -10.300781 3.113281 -13.226562 2.875 -16.46875 L 18.09375 -16.46875 C 18.269531 -14.726562 19.078125 -13.316406 20.515625 -12.234375 C 21.960938 -11.160156 23.734375 -10.625 25.828125 -10.625 C 27.742188 -10.625 29.226562 -11 30.28125 -11.75 C 31.332031 -12.5 31.859375 -13.472656 31.859375 -14.671875 C 31.859375 -16.109375 31.109375 -17.171875 29.609375 -17.859375 C 28.109375 -18.554688 25.675781 -19.320312 22.3125 -20.15625 C 18.71875 -21 15.71875 -21.882812 13.3125 -22.8125 C 10.914062 -23.738281 8.847656 -25.207031 7.109375 -27.21875 C 5.367188 -29.226562 4.5 -31.945312 4.5 -35.375 C 4.5 -38.25 5.289062 -40.867188 6.875 -43.234375 C 8.46875 -45.609375 10.8125 -47.484375 13.90625 -48.859375 C 17 -50.242188 20.675781 -50.9375 24.9375 -50.9375 C 31.226562 -50.9375 36.1875 -49.375 39.8125 -46.25 C 43.445312 -43.132812 45.535156 -39 46.078125 -33.84375 L 31.859375 -33.84375 C 31.617188 -35.582031 30.851562 -36.960938 29.5625 -37.984375 C 28.269531 -39.003906 26.578125 -39.515625 24.484375 -39.515625 C 22.679688 -39.515625 21.300781 -39.164062 20.34375 -38.46875 C 19.382812 -37.78125 18.90625 -36.835938 18.90625 -35.640625 C 18.90625 -34.203125 19.664062 -33.117188 21.1875 -32.390625 C 22.71875 -31.671875 25.101562 -30.953125 28.34375 -30.234375 C 32.070312 -29.273438 35.101562 -28.332031 37.4375 -27.40625 C 39.78125 -26.476562 41.835938 -24.976562 43.609375 -22.90625 C 45.378906 -20.832031 46.289062 -18.054688 46.34375 -14.578125 C 46.34375 -11.640625 45.519531 -9.015625 43.875 -6.703125 C 42.226562 -4.390625 39.859375 -2.570312 36.765625 -1.25 C 33.671875 0.0585938 30.085938 0.71875 26.015625 0.71875 Z M 26.015625 0.71875 "/></g></g></g><g fill="#ffffff" fill-opacity="1"><g transform="translate(631.887747, 767.293037)"><g><path d="M 26.015625 0.71875 C 21.628906 0.71875 17.726562 -0.03125 14.3125 -1.53125 C 10.894531 -3.03125 8.191406 -5.082031 6.203125 -7.6875 C 4.222656 -10.300781 3.113281 -13.226562 2.875 -16.46875 L 18.09375 -16.46875 C 18.269531 -14.726562 19.078125 -13.316406 20.515625 -12.234375 C 21.960938 -11.160156 23.734375 -10.625 25.828125 -10.625 C 27.742188 -10.625 29.226562 -11 30.28125 -11.75 C 31.332031 -12.5 31.859375 -13.472656 31.859375 -14.671875 C 31.859375 -16.109375 31.109375 -17.171875 29.609375 -17.859375 C 28.109375 -18.554688 25.675781 -19.320312 22.3125 -20.15625 C 18.71875 -21 15.71875 -21.882812 13.3125 -22.8125 C 10.914062 -23.738281 8.847656 -25.207031 7.109375 -27.21875 C 5.367188 -29.226562 4.5 -31.945312 4.5 -35.375 C 4.5 -38.25 5.289062 -40.867188 6.875 -43.234375 C 8.46875 -45.609375 10.8125 -47.484375 13.90625 -48.859375 C 17 -50.242188 20.675781 -50.9375 24.9375 -50.9375 C 31.226562 -50.9375 36.1875 -49.375 39.8125 -46.25 C 43.445312 -43.132812 45.535156 -39 46.078125 -33.84375 L 31.859375 -33.84375 C 31.617188 -35.582031 30.851562 -36.960938 29.5625 -37.984375 C 28.269531 -39.003906 26.578125 -39.515625 24.484375 -39.515625 C 22.679688 -39.515625 21.300781 -39.164062 20.34375 -38.46875 C 19.382812 -37.78125 18.90625 -36.835938 18.90625 -35.640625 C 18.90625 -34.203125 19.664062 -33.117188 21.1875 -32.390625 C 22.71875 -31.671875 25.101562 -30.953125 28.34375 -30.234375 C 32.070312 -29.273438 35.101562 -28.332031 37.4375 -27.40625 C 39.78125 -26.476562 41.835938 -24.976562 43.609375 -22.90625 C 45.378906 -20.832031 46.289062 -18.054688 46.34375 -14.578125 C 46.34375 -11.640625 45.519531 -9.015625 43.875 -6.703125 C 42.226562 -4.390625 39.859375 -2.570312 36.765625 -1.25 C 33.671875 0.0585938 30.085938 0.71875 26.015625 0.71875 Z M 26.015625 0.71875 "/></g></g></g><g fill="#ffffff" fill-opacity="1"><g transform="translate(682.107715, 767.293037)"><g/></g></g><g fill="#ffffff" fill-opacity="1"><g transform="translate(701.18767, 767.293037)"><g><path d="M 37.796875 0 L 24.65625 -23.84375 L 20.96875 -23.84375 L 20.96875 0 L 5.578125 0 L 5.578125 -63.1875 L 31.40625 -63.1875 C 36.382812 -63.1875 40.628906 -62.3125 44.140625 -60.5625 C 47.648438 -58.820312 50.273438 -56.4375 52.015625 -53.40625 C 53.753906 -50.382812 54.625 -47.015625 54.625 -43.296875 C 54.625 -39.085938 53.4375 -35.332031 51.0625 -32.03125 C 48.695312 -28.738281 45.207031 -26.398438 40.59375 -25.015625 L 55.171875 0 Z M 20.96875 -34.734375 L 30.515625 -34.734375 C 33.328125 -34.734375 35.4375 -35.421875 36.84375 -36.796875 C 38.257812 -38.179688 38.96875 -40.132812 38.96875 -42.65625 C 38.96875 -45.0625 38.257812 -46.953125 36.84375 -48.328125 C 35.4375 -49.710938 33.328125 -50.40625 30.515625 -50.40625 L 20.96875 -50.40625 Z M 20.96875 -34.734375 "/></g></g></g><g fill="#ffffff" fill-opacity="1"><g transform="translate(759.867614, 767.293037)"><g><path d="M 52.921875 -25.921875 C 52.921875 -24.484375 52.832031 -22.984375 52.65625 -21.421875 L 17.8125 -21.421875 C 18.0625 -18.296875 19.066406 -15.910156 20.828125 -14.265625 C 22.597656 -12.617188 24.773438 -11.796875 27.359375 -11.796875 C 31.203125 -11.796875 33.875 -13.414062 35.375 -16.65625 L 51.75 -16.65625 C 50.90625 -13.351562 49.390625 -10.378906 47.203125 -7.734375 C 45.015625 -5.097656 42.269531 -3.03125 38.96875 -1.53125 C 35.664062 -0.03125 31.976562 0.71875 27.90625 0.71875 C 22.976562 0.71875 18.59375 -0.328125 14.75 -2.421875 C 10.914062 -4.523438 7.914062 -7.523438 5.75 -11.421875 C 3.59375 -15.328125 2.515625 -19.890625 2.515625 -25.109375 C 2.515625 -30.328125 3.578125 -34.882812 5.703125 -38.78125 C 7.835938 -42.6875 10.828125 -45.6875 14.671875 -47.78125 C 18.515625 -49.882812 22.925781 -50.9375 27.90625 -50.9375 C 32.757812 -50.9375 37.078125 -49.914062 40.859375 -47.875 C 44.640625 -45.832031 47.59375 -42.921875 49.71875 -39.140625 C 51.851562 -35.367188 52.921875 -30.960938 52.921875 -25.921875 Z M 37.171875 -29.96875 C 37.171875 -32.613281 36.269531 -34.710938 34.46875 -36.265625 C 32.664062 -37.828125 30.414062 -38.609375 27.71875 -38.609375 C 25.132812 -38.609375 22.957031 -37.859375 21.1875 -36.359375 C 19.425781 -34.859375 18.332031 -32.726562 17.90625 -29.96875 Z M 37.171875 -29.96875 "/></g></g></g><g fill="#ffffff" fill-opacity="1"><g transform="translate(815.307552, 767.293037)"><g><path d="M 26.015625 0.71875 C 21.628906 0.71875 17.726562 -0.03125 14.3125 -1.53125 C 10.894531 -3.03125 8.191406 -5.082031 6.203125 -7.6875 C 4.222656 -10.300781 3.113281 -13.226562 2.875 -16.46875 L 18.09375 -16.46875 C 18.269531 -14.726562 19.078125 -13.316406 20.515625 -12.234375 C 21.960938 -11.160156 23.734375 -10.625 25.828125 -10.625 C 27.742188 -10.625 29.226562 -11 30.28125 -11.75 C 31.332031 -12.5 31.859375 -13.472656 31.859375 -14.671875 C 31.859375 -16.109375 31.109375 -17.171875 29.609375 -17.859375 C 28.109375 -18.554688 25.675781 -19.320312 22.3125 -20.15625 C 18.71875 -21 15.71875 -21.882812 13.3125 -22.8125 C 10.914062 -23.738281 8.847656 -25.207031 7.109375 -27.21875 C 5.367188 -29.226562 4.5 -31.945312 4.5 -35.375 C 4.5 -38.25 5.289062 -40.867188 6.875 -43.234375 C 8.46875 -45.609375 10.8125 -47.484375 13.90625 -48.859375 C 17 -50.242188 20.675781 -50.9375 24.9375 -50.9375 C 31.226562 -50.9375 36.1875 -49.375 39.8125 -46.25 C 43.445312 -43.132812 45.535156 -39 46.078125 -33.84375 L 31.859375 -33.84375 C 31.617188 -35.582031 30.851562 -36.960938 29.5625 -37.984375 C 28.269531 -39.003906 26.578125 -39.515625 24.484375 -39.515625 C 22.679688 -39.515625 21.300781 -39.164062 20.34375 -38.46875 C 19.382812 -37.78125 18.90625 -36.835938 18.90625 -35.640625 C 18.90625 -34.203125 19.664062 -33.117188 21.1875 -32.390625 C 22.71875 -31.671875 25.101562 -30.953125 28.34375 -30.234375 C 32.070312 -29.273438 35.101562 -28.332031 37.4375 -27.40625 C 39.78125 -26.476562 41.835938 -24.976562 43.609375 -22.90625 C 45.378906 -20.832031 46.289062 -18.054688 46.34375 -14.578125 C 46.34375 -11.640625 45.519531 -9.015625 43.875 -6.703125 C 42.226562 -4.390625 39.859375 -2.570312 36.765625 -1.25 C 33.671875 0.0585938 30.085938 0.71875 26.015625 0.71875 Z M 26.015625 0.71875 "/></g></g></g><g fill="#ffffff" fill-opacity="1"><g transform="translate(865.527521, 767.293037)"><g><path d="M 13.3125 -55.4375 C 10.613281 -55.4375 8.410156 -56.226562 6.703125 -57.8125 C 4.992188 -59.40625 4.140625 -61.375 4.140625 -63.71875 C 4.140625 -66.113281 4.992188 -68.109375 6.703125 -69.703125 C 8.410156 -71.296875 10.613281 -72.09375 13.3125 -72.09375 C 15.957031 -72.09375 18.132812 -71.296875 19.84375 -69.703125 C 21.550781 -68.109375 22.40625 -66.113281 22.40625 -63.71875 C 22.40625 -61.375 21.550781 -59.40625 19.84375 -57.8125 C 18.132812 -56.226562 15.957031 -55.4375 13.3125 -55.4375 Z M 20.96875 -50.21875 L 20.96875 0 L 5.578125 0 L 5.578125 -50.21875 Z M 20.96875 -50.21875 "/></g></g></g><g fill="#ffffff" fill-opacity="1"><g transform="translate(892.077491, 767.293037)"><g><path d="M 20.96875 -66.59375 L 20.96875 0 L 5.578125 0 L 5.578125 -66.59375 Z M 20.96875 -66.59375 "/></g></g></g><g fill="#ffffff" fill-opacity="1"><g transform="translate(918.627462, 767.293037)"><g><path d="M 13.3125 -55.4375 C 10.613281 -55.4375 8.410156 -56.226562 6.703125 -57.8125 C 4.992188 -59.40625 4.140625 -61.375 4.140625 -63.71875 C 4.140625 -66.113281 4.992188 -68.109375 6.703125 -69.703125 C 8.410156 -71.296875 10.613281 -72.09375 13.3125 -72.09375 C 15.957031 -72.09375 18.132812 -71.296875 19.84375 -69.703125 C 21.550781 -68.109375 22.40625 -66.113281 22.40625 -63.71875 C 22.40625 -61.375 21.550781 -59.40625 19.84375 -57.8125 C 18.132812 -56.226562 15.957031 -55.4375 13.3125 -55.4375 Z M 20.96875 -50.21875 L 20.96875 0 L 5.578125 0 L 5.578125 -50.21875 Z M 20.96875 -50.21875 "/></g></g></g><g fill="#ffffff" fill-opacity="1"><g transform="translate(945.177433, 767.293037)"><g><path d="M 52.921875 -25.921875 C 52.921875 -24.484375 52.832031 -22.984375 52.65625 -21.421875 L 17.8125 -21.421875 C 18.0625 -18.296875 19.066406 -15.910156 20.828125 -14.265625 C 22.597656 -12.617188 24.773438 -11.796875 27.359375 -11.796875 C 31.203125 -11.796875 33.875 -13.414062 35.375 -16.65625 L 51.75 -16.65625 C 50.90625 -13.351562 49.390625 -10.378906 47.203125 -7.734375 C 45.015625 -5.097656 42.269531 -3.03125 38.96875 -1.53125 C 35.664062 -0.03125 31.976562 0.71875 27.90625 0.71875 C 22.976562 0.71875 18.59375 -0.328125 14.75 -2.421875 C 10.914062 -4.523438 7.914062 -7.523438 5.75 -11.421875 C 3.59375 -15.328125 2.515625 -19.890625 2.515625 -25.109375 C 2.515625 -30.328125 3.578125 -34.882812 5.703125 -38.78125 C 7.835938 -42.6875 10.828125 -45.6875 14.671875 -47.78125 C 18.515625 -49.882812 22.925781 -50.9375 27.90625 -50.9375 C 32.757812 -50.9375 37.078125 -49.914062 40.859375 -47.875 C 44.640625 -45.832031 47.59375 -42.921875 49.71875 -39.140625 C 51.851562 -35.367188 52.921875 -30.960938 52.921875 -25.921875 Z M 37.171875 -29.96875 C 37.171875 -32.613281 36.269531 -34.710938 34.46875 -36.265625 C 32.664062 -37.828125 30.414062 -38.609375 27.71875 -38.609375 C 25.132812 -38.609375 22.957031 -37.859375 21.1875 -36.359375 C 19.425781 -34.859375 18.332031 -32.726562 17.90625 -29.96875 Z M 37.171875 -29.96875 "/></g></g></g><g fill="#ffffff" fill-opacity="1"><g transform="translate(1000.617372, 767.293037)"><g><path d="M 36.1875 -50.765625 C 42.0625 -50.765625 46.753906 -48.859375 50.265625 -45.046875 C 53.773438 -41.234375 55.53125 -36 55.53125 -29.34375 L 55.53125 0 L 40.234375 0 L 40.234375 -27.265625 C 40.234375 -30.628906 39.363281 -33.238281 37.625 -35.09375 C 35.882812 -36.957031 33.539062 -37.890625 30.59375 -37.890625 C 27.65625 -37.890625 25.316406 -36.957031 23.578125 -35.09375 C 21.835938 -33.238281 20.96875 -30.628906 20.96875 -27.265625 L 20.96875 0 L 5.578125 0 L 5.578125 -50.21875 L 20.96875 -50.21875 L 20.96875 -43.5625 C 22.53125 -45.78125 24.628906 -47.535156 27.265625 -48.828125 C 29.910156 -50.117188 32.882812 -50.765625 36.1875 -50.765625 Z M 36.1875 -50.765625 "/></g></g></g><g fill="#ffffff" fill-opacity="1"><g transform="translate(1061.277327, 767.293037)"><g><path d="M 2.515625 -25.109375 C 2.515625 -30.328125 3.578125 -34.882812 5.703125 -38.78125 C 7.835938 -42.6875 10.8125 -45.6875 14.625 -47.78125 C 18.4375 -49.882812 22.800781 -50.9375 27.71875 -50.9375 C 34.019531 -50.9375 39.285156 -49.285156 43.515625 -45.984375 C 47.742188 -42.691406 50.519531 -38.046875 51.84375 -32.046875 L 35.453125 -32.046875 C 34.078125 -35.878906 31.410156 -37.796875 27.453125 -37.796875 C 24.628906 -37.796875 22.378906 -36.703125 20.703125 -34.515625 C 19.023438 -32.328125 18.1875 -29.191406 18.1875 -25.109375 C 18.1875 -21.023438 19.023438 -17.890625 20.703125 -15.703125 C 22.378906 -13.515625 24.628906 -12.421875 27.453125 -12.421875 C 31.410156 -12.421875 34.078125 -14.34375 35.453125 -18.1875 L 51.84375 -18.1875 C 50.519531 -12.300781 47.726562 -7.675781 43.46875 -4.3125 C 39.207031 -0.957031 33.957031 0.71875 27.71875 0.71875 C 22.800781 0.71875 18.4375 -0.328125 14.625 -2.421875 C 10.8125 -4.523438 7.835938 -7.523438 5.703125 -11.421875 C 3.578125 -15.328125 2.515625 -19.890625 2.515625 -25.109375 Z M 2.515625 -25.109375 "/></g></g></g><g fill="#ffffff" fill-opacity="1"><g transform="translate(1115.727306, 767.293037)"><g><path d="M 52.921875 -25.921875 C 52.921875 -24.484375 52.832031 -22.984375 52.65625 -21.421875 L 17.8125 -21.421875 C 18.0625 -18.296875 19.066406 -15.910156 20.828125 -14.265625 C 22.597656 -12.617188 24.773438 -11.796875 27.359375 -11.796875 C 31.203125 -11.796875 33.875 -13.414062 35.375 -16.65625 L 51.75 -16.65625 C 50.90625 -13.351562 49.390625 -10.378906 47.203125 -7.734375 C 45.015625 -5.097656 42.269531 -3.03125 38.96875 -1.53125 C 35.664062 -0.03125 31.976562 0.71875 27.90625 0.71875 C 22.976562 0.71875 18.59375 -0.328125 14.75 -2.421875 C 10.914062 -4.523438 7.914062 -7.523438 5.75 -11.421875 C 3.59375 -15.328125 2.515625 -19.890625 2.515625 -25.109375 C 2.515625 -30.328125 3.578125 -34.882812 5.703125 -38.78125 C 7.835938 -42.6875 10.828125 -45.6875 14.671875 -47.78125 C 18.515625 -49.882812 22.925781 -50.9375 27.90625 -50.9375 C 32.757812 -50.9375 37.078125 -49.914062 40.859375 -47.875 C 44.640625 -45.832031 47.59375 -42.921875 49.71875 -39.140625 C 51.851562 -35.367188 52.921875 -30.960938 52.921875 -25.921875 Z M 37.171875 -29.96875 C 37.171875 -32.613281 36.269531 -34.710938 34.46875 -36.265625 C 32.664062 -37.828125 30.414062 -38.609375 27.71875 -38.609375 C 25.132812 -38.609375 22.957031 -37.859375 21.1875 -36.359375 C 19.425781 -34.859375 18.332031 -32.726562 17.90625 -29.96875 Z M 37.171875 -29.96875 "/></g></g></g></svg>