<svg xmlns="http://www.w3.org/2000/svg" xmlns:xlink="http://www.w3.org/1999/xlink" width="1920" zoomAndPan="magnify" viewBox="0 0 1440 809.999993" height="1080" preserveAspectRatio="xMidYMid meet" version="1.0"><defs><g/><clipPath id="4b9f6fe83d"><rect x="0" width="1440" y="0" height="810"/></clipPath><clipPath id="d78831c62b"><path d="M 56.25 0 L 1383.75 0 C 1398.667969 0 1412.976562 5.925781 1423.523438 16.476562 C 1434.074219 27.023438 1440 41.332031 1440 56.25 L 1440 753.84375 C 1440 768.761719 1434.074219 783.070312 1423.523438 793.617188 C 1412.976562 804.167969 1398.667969 810.09375 1383.75 810.09375 L 56.25 810.09375 C 41.332031 810.09375 27.023438 804.167969 16.476562 793.617188 C 5.925781 783.070312 0 768.761719 0 753.84375 L 0 56.25 C 0 41.332031 5.925781 27.023438 16.476562 16.476562 C 27.023438 5.925781 41.332031 0 56.25 0 Z M 56.25 0 " clip-rule="nonzero"/></clipPath><clipPath id="30284739cd"><path d="M 0 0 L 1440 0 L 1440 810 L 0 810 Z M 0 0 " clip-rule="nonzero"/></clipPath><clipPath id="d016546bb9"><path d="M 56.25 0 L 1383.75 0 C 1398.667969 0 1412.976562 5.925781 1423.523438 16.476562 C 1434.074219 27.023438 1440 41.332031 1440 56.25 L 1440 753.84375 C 1440 768.761719 1434.074219 783.070312 1423.523438 793.617188 C 1412.976562 804.167969 1398.667969 810.09375 1383.75 810.09375 L 56.25 810.09375 C 41.332031 810.09375 27.023438 804.167969 16.476562 793.617188 C 5.925781 783.070312 0 768.761719 0 753.84375 L 0 56.25 C 0 41.332031 5.925781 27.023438 16.476562 16.476562 C 27.023438 5.925781 41.332031 0 56.25 0 Z M 56.25 0 " clip-rule="nonzero"/></clipPath><clipPath id="c9e4c5d93c"><rect x="0" width="1440" y="0" height="810"/></clipPath><clipPath id="7dcb75e6d9"><path d="M 459.820312 468 L 980.320312 468 L 980.320312 481 L 459.820312 481 Z M 459.820312 468 " clip-rule="nonzero"/></clipPath></defs><rect x="-144" width="1728" fill="#ffffff" y="-80.999999" height="971.999992" fill-opacity="1"/><rect x="-144" width="1728" fill="#ffffff" y="-80.999999" height="971.999992" fill-opacity="1"/><g transform="matrix(1, 0, 0, 1, 0, 0.000000000000039746)"><g clip-path="url(#4b9f6fe83d)"><path fill="#eae8e5" d="M 0 0 L 1439.648438 0 L 1439.648438 810 L 0 810 Z M 0 0 " fill-opacity="1" fill-rule="nonzero"/></g></g><g clip-path="url(#d78831c62b)"><g transform="matrix(1, 0, 0, 1, 0, 0.000000000000039746)"><g clip-path="url(#c9e4c5d93c)"><g clip-path="url(#30284739cd)"><g clip-path="url(#d016546bb9)"><path fill="#00885f" d="M 0 0 L 1439.816406 0 L 1439.816406 810.09375 L 0 810.09375 Z M 0 0 " fill-opacity="1" fill-rule="nonzero"/></g></g></g></g></g><g clip-path="url(#7dcb75e6d9)"><path fill="#ffffff" d="M 973.777344 480.648438 L 465.914062 480.648438 C 462.5625 480.648438 459.820312 477.902344 459.820312 474.550781 C 459.820312 470.890625 462.5625 468.148438 465.914062 468.148438 L 973.777344 468.148438 C 977.128906 468.148438 980.179688 470.890625 980.179688 474.550781 C 980.179688 477.902344 977.128906 480.648438 973.777344 480.648438 Z M 973.777344 480.648438 " fill-opacity="1" fill-rule="evenodd"/></g><path fill="#ffffff" d="M 768.925781 300.792969 L 750.023438 300.792969 C 746.671875 300.792969 743.929688 298.050781 743.929688 294.390625 C 743.929688 291.039062 746.671875 288.292969 750.023438 288.292969 L 768.925781 288.292969 C 772.582031 288.292969 775.328125 291.039062 775.328125 294.390625 C 775.328125 298.050781 772.582031 300.792969 768.925781 300.792969 Z M 768.925781 300.792969 " fill-opacity="1" fill-rule="evenodd"/><path fill="#ffffff" d="M 823.1875 341.03125 L 803.980469 341.03125 C 800.628906 341.03125 797.882812 338.289062 797.882812 334.933594 C 797.882812 331.277344 800.628906 328.53125 803.980469 328.53125 L 823.1875 328.53125 C 826.539062 328.53125 829.28125 331.277344 829.28125 334.933594 C 829.28125 338.289062 826.539062 341.03125 823.1875 341.03125 Z M 823.1875 341.03125 " fill-opacity="1" fill-rule="evenodd"/><path fill="#ffffff" d="M 877.144531 381.574219 L 858.242188 381.574219 C 854.890625 381.574219 851.839844 378.527344 851.839844 375.171875 C 851.839844 371.820312 854.890625 369.078125 858.242188 369.078125 L 877.144531 369.078125 C 880.496094 369.078125 883.238281 371.820312 883.238281 375.171875 C 883.238281 378.527344 880.496094 381.574219 877.144531 381.574219 Z M 877.144531 381.574219 " fill-opacity="1" fill-rule="evenodd"/><path fill="#ffffff" d="M 931.402344 285.246094 L 912.199219 285.246094 C 908.847656 285.246094 906.101562 282.503906 906.101562 278.84375 C 906.101562 275.492188 908.847656 272.746094 912.199219 272.746094 L 931.402344 272.746094 C 934.757812 272.746094 937.5 275.492188 937.5 278.84375 C 937.5 282.503906 934.757812 285.246094 931.402344 285.246094 Z M 931.402344 285.246094 " fill-opacity="1" fill-rule="evenodd"/><path fill="#ffffff" d="M 760.390625 244.398438 C 779.289062 244.398438 795.140625 233.117188 795.140625 219.097656 C 795.140625 214.828125 793.921875 211.171875 791.484375 208.121094 C 790.570312 206.292969 789.957031 204.464844 790.570312 202.632812 C 791.179688 200.804688 792.398438 199.28125 794.226562 198.671875 C 799.714844 196.234375 804.285156 193.183594 807.945312 189.527344 C 809.773438 187.394531 812.820312 187.085938 815.261719 188.308594 C 820.746094 191.050781 827.757812 192.574219 834.464844 192.574219 C 853.671875 192.574219 869.21875 181.296875 869.21875 167.273438 C 869.21875 153.25 853.671875 141.972656 834.464844 141.972656 C 822.578125 141.972656 811.601562 146.238281 804.894531 153.859375 C 803.066406 155.996094 800.019531 156.605469 797.578125 155.382812 C 791.789062 152.335938 785.082031 150.8125 778.070312 150.8125 C 769.230469 150.8125 760.695312 153.25 753.988281 157.824219 C 751.246094 159.652344 747.890625 159.042969 746.0625 156.910156 C 739.355469 149.898438 728.6875 145.628906 716.796875 145.628906 C 702.46875 145.628906 689.058594 152.335938 683.875 162.699219 C 682.960938 164.835938 680.523438 166.359375 678.082031 166.054688 C 675.949219 166.054688 673.511719 164.53125 672.597656 162.394531 C 668.328125 151.726562 654.609375 144.410156 639.367188 144.410156 C 620.164062 144.410156 604.617188 155.6875 604.617188 169.40625 C 604.617188 177.027344 608.882812 182.515625 612.542969 185.5625 C 614.675781 187.394531 615.285156 190.136719 614.371094 192.574219 C 613.457031 194.707031 611.019531 196.539062 608.578125 196.539062 L 604.617188 196.539062 C 585.414062 196.539062 569.5625 207.816406 569.5625 221.535156 C 569.5625 225.191406 570.476562 228.242188 572 230.679688 C 572.914062 232.507812 573.21875 234.640625 572.304688 236.472656 C 571.085938 238.300781 569.5625 239.519531 567.425781 239.824219 C 551.574219 242.261719 539.6875 252.628906 539.6875 264.515625 L 539.992188 266.039062 L 649.734375 266.039062 C 654.914062 264.210938 659.488281 261.46875 663.144531 257.808594 C 665.28125 255.675781 668.632812 255.371094 671.070312 257.199219 C 677.777344 262.078125 686.617188 264.820312 695.765625 264.820312 C 712.53125 264.820312 727.46875 255.675781 730.210938 243.179688 C 730.820312 241.347656 732.039062 239.824219 733.867188 239.214844 C 735.699219 238.300781 737.527344 238.605469 739.355469 239.519531 C 745.148438 242.570312 752.464844 244.398438 760.390625 244.398438 Z M 760.390625 244.398438 " fill-opacity="1" fill-rule="evenodd"/><path fill="#ffffff" d="M 508.289062 278.234375 L 649.429688 278.234375 L 649.429688 303.535156 L 508.289062 303.535156 Z M 508.289062 278.234375 " fill-opacity="1" fill-rule="evenodd"/><path fill="#ffffff" d="M 508.289062 315.730469 L 649.429688 315.730469 L 649.429688 335.847656 L 508.289062 335.847656 Z M 508.289062 315.730469 " fill-opacity="1" fill-rule="evenodd"/><path fill="#ffffff" d="M 651.257812 348.347656 L 506.765625 348.347656 L 464.390625 468.453125 C 465 468.148438 465.609375 468.148438 465.914062 468.148438 L 693.324219 468.148438 Z M 651.257812 348.347656 " fill-opacity="1" fill-rule="evenodd"/><path fill="#ffffff" d="M 740.269531 341.640625 L 740.269531 468.148438 L 781.117188 468.148438 L 781.117188 374.867188 C 781.117188 374.5625 781.117188 373.953125 781.117188 373.648438 C 781.117188 373.34375 781.117188 373.039062 781.117188 372.429688 L 781.117188 341.640625 Z M 740.269531 341.640625 " fill-opacity="1" fill-rule="evenodd"/><path fill="#ffffff" d="M 793.617188 380.050781 L 834.464844 380.050781 L 834.464844 468.148438 L 793.617188 468.148438 Z M 793.617188 380.050781 " fill-opacity="1" fill-rule="evenodd"/><path fill="#ffffff" d="M 846.964844 422.421875 L 888.117188 422.421875 L 888.117188 468.148438 L 846.964844 468.148438 Z M 846.964844 422.421875 " fill-opacity="1" fill-rule="evenodd"/><path fill="#ffffff" d="M 900.613281 325.179688 L 941.464844 325.179688 L 941.464844 468.148438 L 900.613281 468.148438 Z M 900.613281 325.179688 " fill-opacity="1" fill-rule="evenodd"/><g fill="#ffffff" fill-opacity="1"><g transform="translate(374.487292, 722.29304)"><g><path d="M 2.96875 -31.6875 C 2.96875 -37.925781 4.316406 -43.488281 7.015625 -48.375 C 9.710938 -53.257812 13.476562 -57.066406 18.3125 -59.796875 C 23.144531 -62.535156 28.617188 -63.90625 34.734375 -63.90625 C 42.234375 -63.90625 48.65625 -61.921875 54 -57.953125 C 59.34375 -53.992188 62.910156 -48.597656 64.703125 -41.765625 L 47.796875 -41.765625 C 46.535156 -44.398438 44.75 -46.40625 42.4375 -47.78125 C 40.125 -49.164062 37.5 -49.859375 34.5625 -49.859375 C 29.820312 -49.859375 25.976562 -48.207031 23.03125 -44.90625 C 20.09375 -41.601562 18.625 -37.195312 18.625 -31.6875 C 18.625 -26.164062 20.09375 -21.753906 23.03125 -18.453125 C 25.976562 -15.148438 29.820312 -13.5 34.5625 -13.5 C 37.5 -13.5 40.125 -14.1875 42.4375 -15.5625 C 44.75 -16.945312 46.535156 -18.957031 47.796875 -21.59375 L 64.703125 -21.59375 C 62.910156 -14.757812 59.34375 -9.375 54 -5.4375 C 48.65625 -1.507812 42.234375 0.453125 34.734375 0.453125 C 28.617188 0.453125 23.144531 -0.910156 18.3125 -3.640625 C 13.476562 -6.367188 9.710938 -10.160156 7.015625 -15.015625 C 4.316406 -19.878906 2.96875 -25.4375 2.96875 -31.6875 Z M 2.96875 -31.6875 "/></g></g></g><g fill="#ffffff" fill-opacity="1"><g transform="translate(443.067222, 722.29304)"><g><path d="M 20.96875 -66.59375 L 20.96875 0 L 5.578125 0 L 5.578125 -66.59375 Z M 20.96875 -66.59375 "/></g></g></g><g fill="#ffffff" fill-opacity="1"><g transform="translate(469.617193, 722.29304)"><g><path d="M 13.3125 -55.4375 C 10.613281 -55.4375 8.410156 -56.226562 6.703125 -57.8125 C 4.992188 -59.40625 4.140625 -61.375 4.140625 -63.71875 C 4.140625 -66.113281 4.992188 -68.109375 6.703125 -69.703125 C 8.410156 -71.296875 10.613281 -72.09375 13.3125 -72.09375 C 15.957031 -72.09375 18.132812 -71.296875 19.84375 -69.703125 C 21.550781 -68.109375 22.40625 -66.113281 22.40625 -63.71875 C 22.40625 -61.375 21.550781 -59.40625 19.84375 -57.8125 C 18.132812 -56.226562 15.957031 -55.4375 13.3125 -55.4375 Z M 20.96875 -50.21875 L 20.96875 0 L 5.578125 0 L 5.578125 -50.21875 Z M 20.96875 -50.21875 "/></g></g></g><g fill="#ffffff" fill-opacity="1"><g transform="translate(496.167164, 722.29304)"><g><path d="M 69.65625 -50.765625 C 75.894531 -50.765625 80.859375 -48.875 84.546875 -45.09375 C 88.242188 -41.3125 90.09375 -36.0625 90.09375 -29.34375 L 90.09375 0 L 74.796875 0 L 74.796875 -27.265625 C 74.796875 -30.503906 73.9375 -33.007812 72.21875 -34.78125 C 70.507812 -36.550781 68.15625 -37.4375 65.15625 -37.4375 C 62.15625 -37.4375 59.800781 -36.550781 58.09375 -34.78125 C 56.382812 -33.007812 55.53125 -30.503906 55.53125 -27.265625 L 55.53125 0 L 40.234375 0 L 40.234375 -27.265625 C 40.234375 -30.503906 39.375 -33.007812 37.65625 -34.78125 C 35.945312 -36.550781 33.59375 -37.4375 30.59375 -37.4375 C 27.59375 -37.4375 25.238281 -36.550781 23.53125 -34.78125 C 21.820312 -33.007812 20.96875 -30.503906 20.96875 -27.265625 L 20.96875 0 L 5.578125 0 L 5.578125 -50.21875 L 20.96875 -50.21875 L 20.96875 -43.921875 C 22.53125 -46.015625 24.570312 -47.675781 27.09375 -48.90625 C 29.613281 -50.144531 32.460938 -50.765625 35.640625 -50.765625 C 39.421875 -50.765625 42.796875 -49.953125 45.765625 -48.328125 C 48.734375 -46.710938 51.054688 -44.40625 52.734375 -41.40625 C 54.472656 -44.164062 56.84375 -46.414062 59.84375 -48.15625 C 62.84375 -49.894531 66.113281 -50.765625 69.65625 -50.765625 Z M 69.65625 -50.765625 "/></g></g></g><g fill="#ffffff" fill-opacity="1"><g transform="translate(591.477058, 722.29304)"><g><path d="M 2.515625 -25.203125 C 2.515625 -30.359375 3.488281 -34.882812 5.4375 -38.78125 C 7.394531 -42.6875 10.050781 -45.6875 13.40625 -47.78125 C 16.769531 -49.882812 20.519531 -50.9375 24.65625 -50.9375 C 28.195312 -50.9375 31.300781 -50.21875 33.96875 -48.78125 C 36.644531 -47.34375 38.703125 -45.453125 40.140625 -43.109375 L 40.140625 -50.21875 L 55.53125 -50.21875 L 55.53125 0 L 40.140625 0 L 40.140625 -7.109375 C 38.640625 -4.765625 36.550781 -2.875 33.875 -1.4375 C 31.207031 0 28.101562 0.71875 24.5625 0.71875 C 20.488281 0.71875 16.769531 -0.34375 13.40625 -2.46875 C 10.050781 -4.601562 7.394531 -7.632812 5.4375 -11.5625 C 3.488281 -15.488281 2.515625 -20.035156 2.515625 -25.203125 Z M 40.140625 -25.109375 C 40.140625 -28.953125 39.070312 -31.984375 36.9375 -34.203125 C 34.8125 -36.421875 32.21875 -37.53125 29.15625 -37.53125 C 26.09375 -37.53125 23.5 -36.429688 21.375 -34.234375 C 19.25 -32.046875 18.1875 -29.035156 18.1875 -25.203125 C 18.1875 -21.359375 19.25 -18.3125 21.375 -16.0625 C 23.5 -13.8125 26.09375 -12.6875 29.15625 -12.6875 C 32.21875 -12.6875 34.8125 -13.796875 36.9375 -16.015625 C 39.070312 -18.234375 40.140625 -21.265625 40.140625 -25.109375 Z M 40.140625 -25.109375 "/></g></g></g><g fill="#ffffff" fill-opacity="1"><g transform="translate(652.586994, 722.29304)"><g><path d="M 33.5625 -13.046875 L 33.5625 0 L 25.734375 0 C 20.160156 0 15.8125 -1.363281 12.6875 -4.09375 C 9.570312 -6.820312 8.015625 -11.273438 8.015625 -17.453125 L 8.015625 -37.4375 L 1.890625 -37.4375 L 1.890625 -50.21875 L 8.015625 -50.21875 L 8.015625 -62.453125 L 23.40625 -62.453125 L 23.40625 -50.21875 L 33.484375 -50.21875 L 33.484375 -37.4375 L 23.40625 -37.4375 L 23.40625 -17.28125 C 23.40625 -15.78125 23.765625 -14.695312 24.484375 -14.03125 C 25.203125 -13.375 26.398438 -13.046875 28.078125 -13.046875 Z M 33.5625 -13.046875 "/></g></g></g><g fill="#ffffff" fill-opacity="1"><g transform="translate(689.12697, 722.29304)"><g><path d="M 52.921875 -25.921875 C 52.921875 -24.484375 52.832031 -22.984375 52.65625 -21.421875 L 17.8125 -21.421875 C 18.0625 -18.296875 19.066406 -15.910156 20.828125 -14.265625 C 22.597656 -12.617188 24.773438 -11.796875 27.359375 -11.796875 C 31.203125 -11.796875 33.875 -13.414062 35.375 -16.65625 L 51.75 -16.65625 C 50.90625 -13.351562 49.390625 -10.378906 47.203125 -7.734375 C 45.015625 -5.097656 42.269531 -3.03125 38.96875 -1.53125 C 35.664062 -0.03125 31.976562 0.71875 27.90625 0.71875 C 22.976562 0.71875 18.59375 -0.328125 14.75 -2.421875 C 10.914062 -4.523438 7.914062 -7.523438 5.75 -11.421875 C 3.59375 -15.328125 2.515625 -19.890625 2.515625 -25.109375 C 2.515625 -30.328125 3.578125 -34.882812 5.703125 -38.78125 C 7.835938 -42.6875 10.828125 -45.6875 14.671875 -47.78125 C 18.515625 -49.882812 22.925781 -50.9375 27.90625 -50.9375 C 32.757812 -50.9375 37.078125 -49.914062 40.859375 -47.875 C 44.640625 -45.832031 47.59375 -42.921875 49.71875 -39.140625 C 51.851562 -35.367188 52.921875 -30.960938 52.921875 -25.921875 Z M 37.171875 -29.96875 C 37.171875 -32.613281 36.269531 -34.710938 34.46875 -36.265625 C 32.664062 -37.828125 30.414062 -38.609375 27.71875 -38.609375 C 25.132812 -38.609375 22.957031 -37.859375 21.1875 -36.359375 C 19.425781 -34.859375 18.332031 -32.726562 17.90625 -29.96875 Z M 37.171875 -29.96875 "/></g></g></g><g fill="#ffffff" fill-opacity="1"><g transform="translate(744.566909, 722.29304)"><g/></g></g><g fill="#ffffff" fill-opacity="1"><g transform="translate(763.64691, 722.29304)"><g><path d="M 44.90625 -11.15625 L 21.328125 -11.15625 L 17.546875 0 L 1.4375 0 L 24.296875 -63.1875 L 42.125 -63.1875 L 64.984375 0 L 48.6875 0 Z M 40.953125 -23.046875 L 33.125 -46.171875 L 25.375 -23.046875 Z M 40.953125 -23.046875 "/></g></g></g><g fill="#ffffff" fill-opacity="1"><g transform="translate(829.976816, 722.29304)"><g><path d="M 2.515625 -25.109375 C 2.515625 -30.328125 3.578125 -34.882812 5.703125 -38.78125 C 7.835938 -42.6875 10.8125 -45.6875 14.625 -47.78125 C 18.4375 -49.882812 22.800781 -50.9375 27.71875 -50.9375 C 34.019531 -50.9375 39.285156 -49.285156 43.515625 -45.984375 C 47.742188 -42.691406 50.519531 -38.046875 51.84375 -32.046875 L 35.453125 -32.046875 C 34.078125 -35.878906 31.410156 -37.796875 27.453125 -37.796875 C 24.628906 -37.796875 22.378906 -36.703125 20.703125 -34.515625 C 19.023438 -32.328125 18.1875 -29.191406 18.1875 -25.109375 C 18.1875 -21.023438 19.023438 -17.890625 20.703125 -15.703125 C 22.378906 -13.515625 24.628906 -12.421875 27.453125 -12.421875 C 31.410156 -12.421875 34.078125 -14.34375 35.453125 -18.1875 L 51.84375 -18.1875 C 50.519531 -12.300781 47.726562 -7.675781 43.46875 -4.3125 C 39.207031 -0.957031 33.957031 0.71875 27.71875 0.71875 C 22.800781 0.71875 18.4375 -0.328125 14.625 -2.421875 C 10.8125 -4.523438 7.835938 -7.523438 5.703125 -11.421875 C 3.578125 -15.328125 2.515625 -19.890625 2.515625 -25.109375 Z M 2.515625 -25.109375 "/></g></g></g><g fill="#ffffff" fill-opacity="1"><g transform="translate(884.42675, 722.29304)"><g><path d="M 33.5625 -13.046875 L 33.5625 0 L 25.734375 0 C 20.160156 0 15.8125 -1.363281 12.6875 -4.09375 C 9.570312 -6.820312 8.015625 -11.273438 8.015625 -17.453125 L 8.015625 -37.4375 L 1.890625 -37.4375 L 1.890625 -50.21875 L 8.015625 -50.21875 L 8.015625 -62.453125 L 23.40625 -62.453125 L 23.40625 -50.21875 L 33.484375 -50.21875 L 33.484375 -37.4375 L 23.40625 -37.4375 L 23.40625 -17.28125 C 23.40625 -15.78125 23.765625 -14.695312 24.484375 -14.03125 C 25.203125 -13.375 26.398438 -13.046875 28.078125 -13.046875 Z M 33.5625 -13.046875 "/></g></g></g><g fill="#ffffff" fill-opacity="1"><g transform="translate(920.966726, 722.29304)"><g><path d="M 13.3125 -55.4375 C 10.613281 -55.4375 8.410156 -56.226562 6.703125 -57.8125 C 4.992188 -59.40625 4.140625 -61.375 4.140625 -63.71875 C 4.140625 -66.113281 4.992188 -68.109375 6.703125 -69.703125 C 8.410156 -71.296875 10.613281 -72.09375 13.3125 -72.09375 C 15.957031 -72.09375 18.132812 -71.296875 19.84375 -69.703125 C 21.550781 -68.109375 22.40625 -66.113281 22.40625 -63.71875 C 22.40625 -61.375 21.550781 -59.40625 19.84375 -57.8125 C 18.132812 -56.226562 15.957031 -55.4375 13.3125 -55.4375 Z M 20.96875 -50.21875 L 20.96875 0 L 5.578125 0 L 5.578125 -50.21875 Z M 20.96875 -50.21875 "/></g></g></g><g fill="#ffffff" fill-opacity="1"><g transform="translate(947.516697, 722.29304)"><g><path d="M 28.4375 0.71875 C 23.519531 0.71875 19.09375 -0.328125 15.15625 -2.421875 C 11.226562 -4.523438 8.140625 -7.523438 5.890625 -11.421875 C 3.640625 -15.328125 2.515625 -19.890625 2.515625 -25.109375 C 2.515625 -30.265625 3.65625 -34.804688 5.9375 -38.734375 C 8.21875 -42.671875 11.335938 -45.6875 15.296875 -47.78125 C 19.253906 -49.882812 23.695312 -50.9375 28.625 -50.9375 C 33.539062 -50.9375 37.976562 -49.882812 41.9375 -47.78125 C 45.894531 -45.6875 49.015625 -42.671875 51.296875 -38.734375 C 53.578125 -34.804688 54.71875 -30.265625 54.71875 -25.109375 C 54.71875 -19.953125 53.5625 -15.40625 51.25 -11.46875 C 48.945312 -7.539062 45.796875 -4.523438 41.796875 -2.421875 C 37.804688 -0.328125 33.351562 0.71875 28.4375 0.71875 Z M 28.4375 -12.59375 C 31.375 -12.59375 33.878906 -13.671875 35.953125 -15.828125 C 38.023438 -17.992188 39.0625 -21.085938 39.0625 -25.109375 C 39.0625 -29.128906 38.054688 -32.21875 36.046875 -34.375 C 34.035156 -36.539062 31.5625 -37.625 28.625 -37.625 C 25.625 -37.625 23.132812 -36.554688 21.15625 -34.421875 C 19.175781 -32.296875 18.1875 -29.191406 18.1875 -25.109375 C 18.1875 -21.085938 19.160156 -17.992188 21.109375 -15.828125 C 23.054688 -13.671875 25.5 -12.59375 28.4375 -12.59375 Z M 28.4375 -12.59375 "/></g></g></g><g fill="#ffffff" fill-opacity="1"><g transform="translate(1004.84665, 722.29304)"><g><path d="M 36.1875 -50.765625 C 42.0625 -50.765625 46.753906 -48.859375 50.265625 -45.046875 C 53.773438 -41.234375 55.53125 -36 55.53125 -29.34375 L 55.53125 0 L 40.234375 0 L 40.234375 -27.265625 C 40.234375 -30.628906 39.363281 -33.238281 37.625 -35.09375 C 35.882812 -36.957031 33.539062 -37.890625 30.59375 -37.890625 C 27.65625 -37.890625 25.316406 -36.957031 23.578125 -35.09375 C 21.835938 -33.238281 20.96875 -30.628906 20.96875 -27.265625 L 20.96875 0 L 5.578125 0 L 5.578125 -50.21875 L 20.96875 -50.21875 L 20.96875 -43.5625 C 22.53125 -45.78125 24.628906 -47.535156 27.265625 -48.828125 C 29.910156 -50.117188 32.882812 -50.765625 36.1875 -50.765625 Z M 36.1875 -50.765625 "/></g></g></g></svg>