<svg xmlns="http://www.w3.org/2000/svg" xmlns:xlink="http://www.w3.org/1999/xlink" width="1920" zoomAndPan="magnify" viewBox="0 0 1440 809.999993" height="1080" preserveAspectRatio="xMidYMid meet" version="1.0"><defs><g/><clipPath id="d731eff91a"><rect x="0" width="1440" y="0" height="810"/></clipPath><clipPath id="6e9a51b7e2"><path d="M 56.25 0 L 1383.75 0 C 1398.667969 0 1412.976562 5.925781 1423.523438 16.476562 C 1434.074219 27.023438 1440 41.332031 1440 56.25 L 1440 753.84375 C 1440 768.761719 1434.074219 783.070312 1423.523438 793.617188 C 1412.976562 804.167969 1398.667969 810.09375 1383.75 810.09375 L 56.25 810.09375 C 41.332031 810.09375 27.023438 804.167969 16.476562 793.617188 C 5.925781 783.070312 0 768.761719 0 753.84375 L 0 56.25 C 0 41.332031 5.925781 27.023438 16.476562 16.476562 C 27.023438 5.925781 41.332031 0 56.25 0 Z M 56.25 0 " clip-rule="nonzero"/></clipPath><clipPath id="52a2c27c7f"><path d="M 0 0 L 1440 0 L 1440 810 L 0 810 Z M 0 0 " clip-rule="nonzero"/></clipPath><clipPath id="ce4ef5e165"><path d="M 56.25 0 L 1383.75 0 C 1398.667969 0 1412.976562 5.925781 1423.523438 16.476562 C 1434.074219 27.023438 1440 41.332031 1440 56.25 L 1440 753.84375 C 1440 768.761719 1434.074219 783.070312 1423.523438 793.617188 C 1412.976562 804.167969 1398.667969 810.09375 1383.75 810.09375 L 56.25 810.09375 C 41.332031 810.09375 27.023438 804.167969 16.476562 793.617188 C 5.925781 783.070312 0 768.761719 0 753.84375 L 0 56.25 C 0 41.332031 5.925781 27.023438 16.476562 16.476562 C 27.023438 5.925781 41.332031 0 56.25 0 Z M 56.25 0 " clip-rule="nonzero"/></clipPath><clipPath id="f6762f8253"><rect x="0" width="1440" y="0" height="810"/></clipPath><clipPath id="9e13283a60"><path d="M 726 143 L 980.320312 143 L 980.320312 353 L 726 353 Z M 726 143 " clip-rule="nonzero"/></clipPath><clipPath id="20ccc3de06"><path d="M 804 474 L 902 474 L 902 571.628906 L 804 571.628906 Z M 804 474 " clip-rule="nonzero"/></clipPath><clipPath id="c9e6f2d7ca"><path d="M 804 51.128906 L 902 51.128906 L 902 149 L 804 149 Z M 804 51.128906 " clip-rule="nonzero"/></clipPath><clipPath id="b94740307c"><path d="M 679 317 L 980.320312 317 L 980.320312 480 L 679 480 Z M 679 317 " clip-rule="nonzero"/></clipPath><clipPath id="eace35a2b6"><path d="M 459.820312 317 L 714 317 L 714 480 L 459.820312 480 Z M 459.820312 317 " clip-rule="nonzero"/></clipPath><clipPath id="f883ae7f18"><path d="M 538 474 L 636 474 L 636 571.628906 L 538 571.628906 Z M 538 474 " clip-rule="nonzero"/></clipPath><clipPath id="d7dcafa9a4"><path d="M 538 51.128906 L 636 51.128906 L 636 149 L 538 149 Z M 538 51.128906 " clip-rule="nonzero"/></clipPath><clipPath id="8c1989daa7"><path d="M 459.820312 143 L 761 143 L 761 353 L 459.820312 353 Z M 459.820312 143 " clip-rule="nonzero"/></clipPath></defs><rect x="-144" width="1728" fill="#ffffff" y="-80.999999" height="971.999992" fill-opacity="1"/><rect x="-144" width="1728" fill="#ffffff" y="-80.999999" height="971.999992" fill-opacity="1"/><g transform="matrix(1, 0, 0, 1, 0, 0.000000000000039746)"><g clip-path="url(#d731eff91a)"><path fill="#eae8e5" d="M 0 0 L 1439.648438 0 L 1439.648438 810 L 0 810 Z M 0 0 " fill-opacity="1" fill-rule="nonzero"/></g></g><g clip-path="url(#6e9a51b7e2)"><g transform="matrix(1, 0, 0, 1, 0, 0.000000000000039746)"><g clip-path="url(#f6762f8253)"><g clip-path="url(#52a2c27c7f)"><g clip-path="url(#ce4ef5e165)"><path fill="#24a8ff" d="M 0 0 L 1439.816406 0 L 1439.816406 810.09375 L 0 810.09375 Z M 0 0 " fill-opacity="1" fill-rule="nonzero"/></g></g></g></g></g><path fill="#ffffff" d="M 767.566406 243.429688 C 767.25 243.910156 766.925781 244.375 766.582031 244.835938 C 766.921875 244.375 767.25 243.910156 767.566406 243.429688 Z M 767.566406 243.429688 " fill-opacity="1" fill-rule="nonzero"/><path fill="#ffffff" d="M 766.582031 244.835938 C 766.925781 244.375 767.25 243.910156 767.566406 243.429688 C 767.25 243.910156 766.921875 244.375 766.582031 244.835938 Z M 742.265625 202.550781 C 742.613281 202.621094 742.957031 202.695312 743.300781 202.78125 C 742.949219 202.699219 742.613281 202.617188 742.265625 202.550781 Z M 743.300781 202.78125 C 743.648438 202.867188 743.984375 202.960938 744.324219 203.046875 C 743.988281 202.96875 743.648438 202.863281 743.300781 202.78125 Z M 759.738281 220.519531 C 759.796875 220.871094 759.84375 221.226562 759.886719 221.585938 C 759.847656 221.226562 759.796875 220.871094 759.738281 220.519531 Z M 766.582031 244.835938 C 766.925781 244.375 767.25 243.910156 767.566406 243.429688 C 767.25 243.910156 766.921875 244.375 766.582031 244.835938 Z M 766.582031 244.835938 C 766.925781 244.375 767.25 243.910156 767.566406 243.429688 C 767.25 243.910156 766.921875 244.375 766.582031 244.835938 Z M 766.582031 244.835938 C 766.925781 244.375 767.25 243.910156 767.566406 243.429688 C 767.25 243.910156 766.921875 244.375 766.582031 244.835938 Z M 766.582031 244.835938 C 766.925781 244.375 767.25 243.910156 767.566406 243.429688 C 767.25 243.910156 766.921875 244.375 766.582031 244.835938 Z M 766.582031 244.835938 " fill-opacity="1" fill-rule="nonzero"/><path fill="#ffffff" d="M 742.265625 202.550781 C 742.613281 202.617188 742.960938 202.695312 743.300781 202.78125 C 742.949219 202.699219 742.613281 202.621094 742.265625 202.550781 Z M 742.265625 202.550781 " fill-opacity="1" fill-rule="nonzero"/><path fill="#ffffff" d="M 743.300781 202.78125 C 743.648438 202.863281 743.988281 202.957031 744.324219 203.046875 C 743.984375 202.96875 743.648438 202.867188 743.300781 202.78125 Z M 743.300781 202.78125 " fill-opacity="1" fill-rule="nonzero"/><path fill="#ffffff" d="M 759.886719 221.582031 C 759.84375 221.226562 759.796875 220.871094 759.738281 220.515625 C 759.796875 220.871094 759.847656 221.226562 759.886719 221.582031 Z M 759.886719 221.582031 " fill-opacity="1" fill-rule="nonzero"/><g clip-path="url(#9e13283a60)"><path fill="#ffffff" d="M 980.179688 176.710938 L 980.179688 304.636719 L 884.355469 304.636719 C 883.855469 304.636719 883.355469 304.667969 882.859375 304.730469 C 882.363281 304.792969 881.875 304.886719 881.390625 305.007812 C 880.90625 305.132812 880.429688 305.285156 879.964844 305.46875 C 879.5 305.652344 879.046875 305.863281 878.609375 306.101562 C 878.167969 306.339844 877.746094 306.605469 877.339844 306.898438 C 876.933594 307.191406 876.546875 307.507812 876.183594 307.847656 C 875.816406 308.1875 875.472656 308.550781 875.152344 308.933594 C 874.828125 309.316406 874.53125 309.71875 874.261719 310.136719 C 873.992188 310.558594 873.746094 310.992188 873.53125 311.445312 C 873.3125 311.894531 873.125 312.355469 872.96875 312.832031 C 872.808594 313.304688 872.679688 313.785156 872.582031 314.277344 C 872.480469 314.765625 872.414062 315.261719 872.378906 315.761719 C 872.339844 316.257812 872.335938 316.757812 872.359375 317.257812 C 872.386719 317.757812 872.441406 318.253906 872.53125 318.746094 C 872.617188 319.238281 872.734375 319.722656 872.882812 320.199219 C 873.03125 320.675781 873.207031 321.144531 873.414062 321.597656 C 873.597656 322.015625 873.769531 322.433594 873.925781 322.859375 C 874.085938 323.285156 874.230469 323.714844 874.363281 324.148438 C 874.492188 324.582031 874.609375 325.019531 874.714844 325.460938 C 874.820312 325.902344 874.910156 326.347656 874.988281 326.792969 C 875.0625 327.242188 875.125 327.691406 875.175781 328.140625 C 875.222656 328.59375 875.257812 329.042969 875.277344 329.496094 C 875.300781 329.949219 875.304688 330.402344 875.296875 330.859375 C 875.289062 331.3125 875.269531 331.765625 875.234375 332.214844 C 875.199219 332.667969 875.148438 333.121094 875.085938 333.570312 C 875.019531 334.019531 874.941406 334.464844 874.851562 334.910156 C 874.761719 335.351562 874.65625 335.792969 874.535156 336.230469 C 874.417969 336.667969 874.285156 337.101562 874.140625 337.53125 C 873.992188 337.960938 873.832031 338.386719 873.660156 338.808594 C 873.488281 339.226562 873.304688 339.640625 873.105469 340.046875 C 872.910156 340.457031 872.699219 340.859375 872.476562 341.253906 C 872.253906 341.648438 872.015625 342.035156 871.769531 342.417969 C 871.523438 342.796875 871.265625 343.167969 870.996094 343.535156 C 870.722656 343.898438 870.441406 344.253906 870.152344 344.601562 C 869.859375 344.949219 869.554688 345.285156 869.242188 345.613281 C 868.929688 345.941406 868.605469 346.261719 868.273438 346.566406 C 867.941406 346.875 867.597656 347.171875 867.246094 347.460938 C 866.894531 347.746094 866.535156 348.023438 866.167969 348.289062 C 865.796875 348.550781 865.421875 348.804688 865.035156 349.046875 C 864.652344 349.285156 864.261719 349.515625 863.863281 349.730469 C 863.464844 349.949219 863.058594 350.152344 862.648438 350.34375 C 862.238281 350.535156 861.820312 350.714844 861.398438 350.878906 C 860.976562 351.046875 860.546875 351.199219 860.117188 351.335938 C 859.683594 351.476562 859.25 351.601562 858.808594 351.714844 C 858.371094 351.824219 857.925781 351.921875 857.480469 352.007812 C 857.035156 352.09375 856.585938 352.164062 856.136719 352.21875 C 855.6875 352.277344 855.234375 352.320312 854.785156 352.347656 C 854.332031 352.375 853.878906 352.390625 853.425781 352.390625 L 853.242188 352.390625 C 852.53125 352.382812 851.820312 352.339844 851.113281 352.261719 C 850.402344 352.1875 849.699219 352.074219 849.003906 351.929688 C 848.304688 351.785156 847.617188 351.605469 846.9375 351.390625 C 846.257812 351.179688 845.589844 350.933594 844.933594 350.65625 C 844.277344 350.378906 843.636719 350.070312 843.011719 349.730469 C 842.386719 349.390625 841.777344 349.019531 841.1875 348.621094 C 840.597656 348.222656 840.027344 347.796875 839.480469 347.339844 C 838.933594 346.886719 838.40625 346.40625 837.90625 345.898438 C 837.40625 345.394531 836.929688 344.863281 836.480469 344.3125 C 836.027344 343.761719 835.605469 343.1875 835.210938 342.59375 C 834.816406 342 834.453125 341.390625 834.117188 340.761719 C 833.785156 340.132812 833.480469 339.488281 833.207031 338.832031 C 832.9375 338.171875 832.695312 337.503906 832.492188 336.820312 C 832.285156 336.140625 832.109375 335.449219 831.96875 334.75 C 831.832031 334.054688 831.726562 333.351562 831.65625 332.640625 C 831.582031 331.933594 831.546875 331.222656 831.542969 330.507812 C 831.539062 327.378906 832.175781 324.386719 833.464844 321.535156 C 833.667969 321.078125 833.839844 320.613281 833.984375 320.136719 C 834.128906 319.660156 834.246094 319.175781 834.328125 318.683594 C 834.414062 318.191406 834.46875 317.699219 834.492188 317.199219 C 834.515625 316.703125 834.503906 316.207031 834.464844 315.707031 C 834.429688 315.210938 834.359375 314.71875 834.257812 314.230469 C 834.15625 313.742188 834.027344 313.261719 833.867188 312.789062 C 833.707031 312.316406 833.519531 311.855469 833.300781 311.410156 C 833.082031 310.960938 832.839844 310.527344 832.566406 310.109375 C 832.296875 309.691406 832 309.289062 831.679688 308.910156 C 831.359375 308.527344 831.015625 308.167969 830.648438 307.828125 C 830.28125 307.492188 829.894531 307.175781 829.492188 306.886719 C 829.085938 306.597656 828.664062 306.332031 828.226562 306.09375 C 827.789062 305.855469 827.335938 305.644531 826.875 305.464844 C 826.410156 305.28125 825.933594 305.128906 825.453125 305.007812 C 824.96875 304.886719 824.480469 304.792969 823.984375 304.730469 C 823.492188 304.667969 822.996094 304.636719 822.496094 304.636719 L 726.667969 304.636719 L 726.667969 257.347656 C 728.230469 257.886719 729.824219 258.3125 731.445312 258.625 C 733.066406 258.9375 734.703125 259.136719 736.351562 259.21875 C 738 259.300781 739.648438 259.269531 741.292969 259.121094 C 742.9375 258.972656 744.566406 258.710938 746.171875 258.332031 C 747.78125 257.957031 749.355469 257.46875 750.894531 256.871094 C 752.433594 256.273438 753.925781 255.570312 755.363281 254.765625 C 756.804688 253.957031 758.183594 253.050781 759.496094 252.050781 C 760.8125 251.050781 762.046875 249.964844 763.210938 248.789062 C 763.414062 248.582031 763.613281 248.371094 763.8125 248.160156 C 763.972656 247.996094 764.125 247.828125 764.277344 247.65625 L 764.480469 247.433594 C 764.644531 247.253906 764.808594 247.070312 764.96875 246.871094 C 765.089844 246.730469 765.207031 246.585938 765.324219 246.445312 C 765.441406 246.300781 765.535156 246.195312 765.636719 246.066406 C 765.777344 245.890625 765.917969 245.710938 766.058594 245.535156 C 766.234375 245.304688 766.40625 245.078125 766.574219 244.84375 C 766.917969 244.382812 767.242188 243.917969 767.554688 243.4375 C 767.714844 243.199219 767.867188 242.960938 768.019531 242.722656 C 768.320312 242.238281 768.613281 241.75 768.890625 241.253906 C 769.070312 240.929688 769.25 240.605469 769.425781 240.273438 C 769.503906 240.125 769.582031 239.972656 769.660156 239.820312 C 769.761719 239.613281 769.863281 239.410156 769.960938 239.199219 C 770.03125 239.054688 770.101562 238.90625 770.167969 238.757812 C 770.234375 238.609375 770.308594 238.457031 770.371094 238.308594 C 770.394531 238.257812 770.417969 238.214844 770.4375 238.164062 C 770.527344 237.953125 770.617188 237.742188 770.703125 237.535156 C 770.722656 237.484375 770.746094 237.433594 770.765625 237.382812 C 770.84375 237.183594 770.925781 236.988281 771 236.789062 C 771.121094 236.476562 771.238281 236.160156 771.351562 235.847656 C 771.417969 235.660156 771.480469 235.472656 771.542969 235.285156 C 771.605469 235.09375 771.65625 234.945312 771.710938 234.773438 C 771.765625 234.601562 771.824219 234.414062 771.878906 234.242188 C 771.957031 233.972656 772.027344 233.726562 772.101562 233.46875 C 772.101562 233.421875 772.128906 233.378906 772.136719 233.332031 C 772.195312 233.113281 772.253906 232.894531 772.308594 232.675781 C 772.308594 232.636719 772.332031 232.597656 772.339844 232.554688 C 772.402344 232.289062 772.464844 232.023438 772.523438 231.757812 C 772.582031 231.488281 772.628906 231.269531 772.675781 231.023438 C 772.695312 230.9375 772.710938 230.855469 772.726562 230.753906 C 772.761719 230.578125 772.792969 230.402344 772.824219 230.222656 L 772.871094 229.953125 C 772.914062 229.714844 772.953125 229.472656 772.988281 229.226562 C 773.023438 228.980469 773.058594 228.714844 773.089844 228.453125 C 773.105469 228.363281 773.113281 228.269531 773.121094 228.1875 C 773.140625 228.050781 773.15625 227.90625 773.167969 227.769531 C 773.179688 227.628906 773.199219 227.480469 773.210938 227.339844 C 773.210938 227.300781 773.210938 227.265625 773.210938 227.234375 C 773.242188 226.921875 773.261719 226.613281 773.28125 226.304688 C 773.28125 226.160156 773.300781 226.011719 773.304688 225.871094 C 773.304688 225.808594 773.304688 225.75 773.304688 225.6875 C 773.304688 225.472656 773.324219 225.253906 773.328125 225.035156 C 773.328125 224.984375 773.328125 224.929688 773.328125 224.875 C 773.328125 224.609375 773.328125 224.34375 773.328125 224.058594 C 773.328125 223.90625 773.328125 223.75 773.328125 223.597656 C 773.320312 222.90625 773.289062 222.210938 773.238281 221.519531 C 773.191406 220.828125 773.121094 220.140625 773.027344 219.449219 C 772.9375 218.761719 772.828125 218.078125 772.695312 217.398438 C 772.566406 216.71875 772.414062 216.039062 772.242188 215.367188 C 772.070312 214.695312 771.882812 214.027344 771.671875 213.367188 C 771.460938 212.707031 771.230469 212.054688 770.980469 211.40625 C 770.730469 210.757812 770.464844 210.117188 770.175781 209.488281 C 769.890625 208.855469 769.585938 208.234375 769.261719 207.621094 C 768.9375 207.007812 768.597656 206.402344 768.238281 205.808594 C 767.878906 205.214844 767.503906 204.632812 767.109375 204.0625 C 766.714844 203.492188 766.304688 202.933594 765.878906 202.386719 C 765.453125 201.839844 765.007812 201.304688 764.550781 200.785156 C 764.09375 200.261719 763.621094 199.757812 763.132812 199.265625 C 762.644531 198.769531 762.140625 198.292969 761.625 197.828125 C 761.109375 197.367188 760.578125 196.917969 760.035156 196.488281 C 759.492188 196.054688 758.9375 195.640625 758.371094 195.242188 C 757.804688 194.839844 757.226562 194.460938 756.636719 194.09375 C 756.046875 193.730469 755.445312 193.382812 754.835938 193.050781 C 754.226562 192.722656 753.605469 192.410156 752.976562 192.117188 C 752.347656 191.824219 751.710938 191.550781 751.066406 191.296875 C 750.421875 191.039062 749.769531 190.804688 749.113281 190.585938 C 748.453125 190.371094 747.789062 190.171875 747.117188 189.996094 C 746.449219 189.816406 745.773438 189.660156 745.09375 189.523438 C 744.414062 189.382812 743.730469 189.265625 743.042969 189.167969 C 742.355469 189.070312 741.667969 188.996094 740.976562 188.9375 C 740.285156 188.882812 739.59375 188.84375 738.898438 188.828125 C 738.207031 188.8125 737.511719 188.816406 736.820312 188.84375 C 736.125 188.867188 735.433594 188.914062 734.742188 188.980469 C 734.054688 189.046875 733.363281 189.132812 732.679688 189.238281 C 731.992188 189.34375 731.3125 189.472656 730.632812 189.617188 C 729.957031 189.765625 729.285156 189.929688 728.617188 190.117188 C 727.949219 190.304688 727.285156 190.511719 726.628906 190.734375 L 726.628906 176.714844 C 726.632812 175.625 726.683594 174.539062 726.792969 173.453125 C 726.902344 172.371094 727.0625 171.292969 727.277344 170.226562 C 727.488281 169.160156 727.753906 168.101562 728.070312 167.0625 C 728.386719 166.019531 728.753906 164.996094 729.171875 163.988281 C 729.589844 162.980469 730.054688 162 730.570312 161.039062 C 731.085938 160.078125 731.644531 159.144531 732.25 158.238281 C 732.855469 157.332031 733.503906 156.460938 734.195312 155.617188 C 734.886719 154.773438 735.617188 153.96875 736.386719 153.199219 C 737.15625 152.429688 737.964844 151.699219 738.804688 151.007812 C 739.648438 150.316406 740.519531 149.667969 741.425781 149.0625 C 742.332031 148.457031 743.265625 147.894531 744.226562 147.382812 C 745.1875 146.867188 746.167969 146.402344 747.175781 145.984375 C 748.183594 145.566406 749.207031 145.199219 750.25 144.882812 C 751.292969 144.566406 752.347656 144.300781 753.414062 144.085938 C 754.484375 143.875 755.558594 143.714844 756.644531 143.605469 C 757.726562 143.496094 758.8125 143.441406 759.902344 143.441406 L 809.75 143.441406 C 809.914062 143.605469 810.082031 143.773438 810.246094 143.933594 L 810.660156 144.332031 C 810.847656 144.515625 811.039062 144.691406 811.226562 144.867188 C 811.238281 144.882812 811.253906 144.894531 811.269531 144.90625 C 811.433594 145.0625 811.601562 145.21875 811.769531 145.371094 L 811.886719 145.476562 L 812.421875 145.945312 C 812.621094 146.121094 812.816406 146.292969 813.015625 146.476562 C 813.21875 146.664062 813.414062 146.820312 813.613281 146.988281 L 813.707031 147.066406 C 813.941406 147.261719 814.175781 147.457031 814.414062 147.648438 C 814.5625 147.773438 814.714844 147.894531 814.867188 148.015625 C 815.59375 148.597656 816.328125 149.15625 817.082031 149.703125 C 817.347656 149.898438 817.613281 150.085938 817.882812 150.277344 L 818.433594 150.660156 C 818.578125 150.757812 818.722656 150.855469 818.871094 150.953125 C 819.015625 151.050781 819.214844 151.1875 819.402344 151.304688 C 819.640625 151.460938 819.878906 151.613281 820.117188 151.765625 L 820.878906 152.246094 C 821.144531 152.410156 821.414062 152.574219 821.679688 152.734375 C 822.046875 152.953125 822.414062 153.171875 822.789062 153.382812 L 823.164062 153.59375 C 823.351562 153.699219 823.542969 153.804688 823.730469 153.90625 C 823.921875 154.007812 824.175781 154.148438 824.394531 154.269531 C 825.316406 154.753906 826.25 155.21875 827.199219 155.664062 L 827.984375 156.027344 C 829.976562 156.921875 832.011719 157.710938 834.085938 158.390625 C 836.164062 159.070312 838.269531 159.640625 840.402344 160.097656 C 842.539062 160.554688 844.691406 160.898438 846.863281 161.128906 C 849.039062 161.359375 851.214844 161.476562 853.398438 161.476562 C 855.585938 161.476562 857.761719 161.359375 859.933594 161.128906 C 862.105469 160.898438 864.261719 160.554688 866.394531 160.097656 C 868.53125 159.640625 870.636719 159.070312 872.714844 158.390625 C 874.789062 157.710938 876.824219 156.921875 878.816406 156.027344 L 879.601562 155.664062 C 880.550781 155.21875 881.484375 154.753906 882.402344 154.269531 C 882.625 154.148438 882.847656 154.03125 883.066406 153.90625 C 883.289062 153.785156 883.445312 153.699219 883.636719 153.59375 L 884.011719 153.382812 C 884.382812 153.171875 884.753906 152.953125 885.121094 152.734375 C 885.386719 152.574219 885.652344 152.410156 885.921875 152.246094 L 886.679688 151.765625 C 886.921875 151.613281 887.160156 151.460938 887.398438 151.304688 C 887.574219 151.1875 887.746094 151.070312 887.929688 150.953125 C 888.113281 150.835938 888.222656 150.757812 888.363281 150.660156 L 888.917969 150.277344 C 889.183594 150.085938 889.453125 149.898438 889.71875 149.703125 C 890.46875 149.171875 891.207031 148.597656 891.933594 148.015625 C 892.085938 147.894531 892.238281 147.773438 892.386719 147.648438 C 892.625 147.457031 892.859375 147.265625 893.089844 147.066406 L 893.1875 146.988281 C 893.386719 146.820312 893.585938 146.648438 893.78125 146.476562 C 893.980469 146.308594 894.179688 146.132812 894.378906 145.945312 L 894.910156 145.476562 L 895.027344 145.371094 C 895.195312 145.21875 895.363281 145.0625 895.53125 144.90625 C 895.546875 144.894531 895.5625 144.882812 895.574219 144.867188 C 895.761719 144.691406 895.953125 144.515625 896.136719 144.332031 L 896.550781 143.933594 C 896.71875 143.773438 896.886719 143.605469 897.050781 143.441406 L 946.898438 143.441406 C 947.988281 143.441406 949.074219 143.496094 950.160156 143.605469 C 951.242188 143.710938 952.320312 143.871094 953.386719 144.085938 C 954.457031 144.300781 955.511719 144.5625 956.554688 144.878906 C 957.597656 145.199219 958.621094 145.566406 959.628906 145.980469 C 960.632812 146.398438 961.617188 146.863281 962.578125 147.378906 C 963.539062 147.890625 964.472656 148.453125 965.378906 149.058594 C 966.285156 149.664062 967.160156 150.3125 968 151.003906 C 968.84375 151.695312 969.648438 152.425781 970.417969 153.195312 C 971.191406 153.964844 971.921875 154.769531 972.613281 155.613281 C 973.304688 156.453125 973.953125 157.328125 974.558594 158.234375 C 975.164062 159.140625 975.722656 160.074219 976.238281 161.035156 C 976.75 161.996094 977.21875 162.976562 977.632812 163.984375 C 978.050781 164.992188 978.417969 166.015625 978.738281 167.058594 C 979.054688 168.097656 979.320312 169.15625 979.53125 170.222656 C 979.746094 171.292969 979.90625 172.367188 980.015625 173.453125 C 980.121094 174.535156 980.175781 175.621094 980.179688 176.710938 Z M 980.179688 176.710938 " fill-opacity="1" fill-rule="nonzero"/></g><g clip-path="url(#20ccc3de06)"><path fill="#ffffff" d="M 889.277344 490.34375 C 891.296875 492.554688 893.09375 494.933594 894.671875 497.476562 C 896.246094 500.023438 897.578125 502.691406 898.65625 505.484375 C 899.738281 508.277344 900.554688 511.144531 901.101562 514.085938 C 901.648438 517.03125 901.921875 520 901.917969 522.996094 C 901.917969 549.734375 880.164062 571.488281 853.425781 571.488281 C 826.683594 571.488281 804.929688 549.734375 804.929688 522.996094 C 804.929688 520.5625 805.109375 518.144531 805.476562 515.738281 C 805.839844 513.332031 806.382812 510.96875 807.101562 508.648438 C 807.820312 506.324219 808.710938 504.066406 809.769531 501.878906 C 810.828125 499.6875 812.042969 497.589844 813.417969 495.582031 C 814.792969 493.578125 816.3125 491.683594 817.972656 489.90625 C 819.628906 488.128906 821.414062 486.484375 823.320312 484.976562 C 825.226562 483.464844 827.238281 482.105469 829.347656 480.898438 C 831.460938 479.691406 833.648438 478.648438 835.917969 477.769531 C 838.183594 476.894531 840.507812 476.191406 842.878906 475.660156 C 845.253906 475.132812 847.65625 474.785156 850.082031 474.617188 C 852.507812 474.449219 854.933594 474.464844 857.355469 474.660156 C 859.78125 474.859375 862.175781 475.234375 864.542969 475.792969 C 866.910156 476.351562 869.222656 477.082031 871.480469 477.988281 C 873.738281 478.894531 875.914062 479.964844 878.011719 481.195312 C 880.109375 482.429688 882.101562 483.8125 883.988281 485.34375 C 885.878906 486.878906 887.640625 488.542969 889.277344 490.34375 Z M 889.277344 490.34375 " fill-opacity="1" fill-rule="nonzero"/></g><g clip-path="url(#c9e6f2d7ca)"><path fill="#ffffff" d="M 817.570312 132.277344 C 815.550781 130.066406 813.753906 127.6875 812.175781 125.140625 C 810.601562 122.597656 809.273438 119.925781 808.191406 117.136719 C 807.109375 114.34375 806.296875 111.476562 805.746094 108.53125 C 805.199219 105.585938 804.925781 102.617188 804.929688 99.625 C 804.929688 72.882812 826.683594 51.128906 853.425781 51.128906 C 880.164062 51.128906 901.917969 72.882812 901.917969 99.625 C 901.917969 102.058594 901.738281 104.476562 901.371094 106.878906 C 901.007812 109.285156 900.46875 111.648438 899.746094 113.972656 C 899.027344 116.296875 898.136719 118.550781 897.078125 120.742188 C 896.019531 122.929688 894.804688 125.027344 893.429688 127.035156 C 892.054688 129.042969 890.535156 130.933594 888.875 132.710938 C 887.21875 134.488281 885.433594 136.132812 883.527344 137.644531 C 881.621094 139.152344 879.609375 140.511719 877.5 141.71875 C 875.386719 142.925781 873.199219 143.96875 870.929688 144.847656 C 868.664062 145.726562 866.339844 146.429688 863.96875 146.957031 C 861.59375 147.488281 859.191406 147.835938 856.765625 148.003906 C 854.339844 148.171875 851.914062 148.15625 849.492188 147.957031 C 847.066406 147.761719 844.671875 147.382812 842.304688 146.824219 C 839.9375 146.269531 837.625 145.535156 835.367188 144.628906 C 833.109375 143.726562 830.933594 142.65625 828.835938 141.421875 C 826.738281 140.1875 824.746094 138.804688 822.859375 137.273438 C 820.96875 135.742188 819.207031 134.074219 817.570312 132.277344 Z M 817.570312 132.277344 " fill-opacity="1" fill-rule="nonzero"/></g><g clip-path="url(#b94740307c)"><path fill="#ffffff" d="M 886.355469 317.980469 L 980.179688 317.980469 L 980.179688 445.902344 C 980.175781 446.992188 980.121094 448.078125 980.015625 449.164062 C 979.90625 450.246094 979.746094 451.324219 979.53125 452.390625 C 979.320312 453.460938 979.054688 454.515625 978.738281 455.558594 C 978.417969 456.601562 978.050781 457.625 977.632812 458.628906 C 977.21875 459.636719 976.75 460.621094 976.238281 461.582031 C 975.722656 462.542969 975.164062 463.472656 974.558594 464.378906 C 973.953125 465.285156 973.304688 466.160156 972.613281 467 C 971.921875 467.84375 971.191406 468.648438 970.421875 469.421875 C 969.648438 470.191406 968.84375 470.921875 968.003906 471.613281 C 967.160156 472.304688 966.285156 472.953125 965.378906 473.558594 C 964.476562 474.164062 963.542969 474.722656 962.582031 475.238281 C 961.621094 475.75 960.636719 476.214844 959.632812 476.632812 C 958.625 477.050781 957.601562 477.417969 956.558594 477.734375 C 955.515625 478.054688 954.460938 478.316406 953.394531 478.53125 C 952.324219 478.746094 951.25 478.90625 950.164062 479.011719 C 949.082031 479.121094 947.992188 479.175781 946.90625 479.175781 L 897.058594 479.175781 C 896.894531 479.011719 896.726562 478.847656 896.558594 478.6875 L 896.148438 478.285156 L 895.746094 477.90625 L 895.28125 477.46875 C 894.34375 476.609375 893.386719 475.78125 892.40625 474.984375 C 892.273438 474.875 892.136719 474.765625 892.011719 474.664062 C 891.777344 474.476562 891.539062 474.289062 891.300781 474.105469 L 890.941406 473.835938 C 890.542969 473.53125 890.140625 473.230469 889.738281 472.9375 C 889.46875 472.746094 889.203125 472.558594 888.9375 472.367188 C 888.667969 472.179688 888.425781 472.011719 888.167969 471.832031 L 888.078125 471.773438 L 887.464844 471.359375 C 886.964844 471.035156 886.460938 470.710938 885.949219 470.394531 C 885.683594 470.230469 885.417969 470.066406 885.148438 469.902344 C 884.472656 469.5 883.789062 469.109375 883.097656 468.734375 C 882.867188 468.605469 882.636719 468.480469 882.402344 468.355469 C 881.492188 467.875 880.570312 467.417969 879.632812 466.976562 L 878.84375 466.613281 C 876.851562 465.71875 874.816406 464.929688 872.742188 464.25 C 870.667969 463.570312 868.5625 463 866.425781 462.542969 C 864.289062 462.085938 862.136719 461.742188 859.964844 461.511719 C 857.792969 461.28125 855.613281 461.164062 853.429688 461.164062 C 851.246094 461.164062 849.066406 461.28125 846.894531 461.511719 C 844.722656 461.742188 842.570312 462.085938 840.433594 462.542969 C 838.296875 463 836.191406 463.570312 834.117188 464.25 C 832.039062 464.929688 830.007812 465.71875 828.015625 466.613281 L 827.226562 466.976562 C 826.289062 467.414062 825.367188 467.875 824.457031 468.355469 C 824.222656 468.480469 823.988281 468.605469 823.761719 468.734375 C 823.066406 469.109375 822.382812 469.5 821.707031 469.902344 C 821.441406 470.066406 821.175781 470.230469 820.90625 470.394531 C 820.398438 470.710938 819.894531 471.03125 819.394531 471.359375 L 818.777344 471.773438 L 818.691406 471.832031 C 818.421875 472.007812 818.175781 472.1875 817.921875 472.367188 C 817.667969 472.546875 817.386719 472.746094 817.121094 472.9375 C 816.714844 473.230469 816.316406 473.53125 815.917969 473.835938 L 815.558594 474.105469 C 815.316406 474.289062 815.082031 474.476562 814.847656 474.664062 C 814.71875 474.765625 814.582031 474.875 814.453125 474.984375 C 813.472656 475.78125 812.511719 476.609375 811.578125 477.46875 L 811.113281 477.90625 L 810.710938 478.285156 L 810.296875 478.6875 C 810.132812 478.847656 809.964844 479.011719 809.800781 479.175781 L 759.953125 479.175781 C 758.863281 479.175781 757.773438 479.121094 756.691406 479.015625 C 755.605469 478.90625 754.53125 478.746094 753.460938 478.535156 C 752.394531 478.320312 751.335938 478.054688 750.296875 477.738281 C 749.253906 477.421875 748.226562 477.054688 747.222656 476.636719 C 746.214844 476.21875 745.230469 475.753906 744.269531 475.242188 C 743.308594 474.726562 742.375 474.167969 741.46875 473.5625 C 740.566406 472.957031 739.691406 472.308594 738.847656 471.617188 C 738.007812 470.925781 737.199219 470.195312 736.429688 469.425781 C 735.660156 468.65625 734.925781 467.847656 734.234375 467.007812 C 733.542969 466.164062 732.894531 465.289062 732.289062 464.386719 C 731.683594 463.480469 731.125 462.546875 730.609375 461.585938 C 730.097656 460.625 729.628906 459.640625 729.214844 458.636719 C 728.796875 457.628906 728.429688 456.605469 728.109375 455.5625 C 727.792969 454.519531 727.527344 453.464844 727.316406 452.394531 C 727.101562 451.328125 726.941406 450.25 726.832031 449.167969 C 726.726562 448.082031 726.671875 446.996094 726.667969 445.90625 L 726.667969 429.960938 C 726.667969 429.472656 726.640625 428.980469 726.578125 428.496094 C 726.519531 428.007812 726.429688 427.527344 726.3125 427.050781 C 726.191406 426.574219 726.042969 426.105469 725.867188 425.648438 C 725.691406 425.1875 725.488281 424.742188 725.257812 424.308594 C 725.023438 423.878906 724.769531 423.460938 724.484375 423.058594 C 724.203125 422.65625 723.898438 422.273438 723.570312 421.910156 C 723.238281 421.546875 722.890625 421.203125 722.519531 420.882812 C 722.148438 420.558594 721.757812 420.261719 721.347656 419.988281 C 720.941406 419.714844 720.519531 419.46875 720.082031 419.246094 C 719.640625 419.023438 719.191406 418.832031 718.730469 418.664062 C 718.269531 418.5 717.796875 418.359375 717.320312 418.253906 C 716.839844 418.144531 716.355469 418.066406 715.867188 418.015625 C 715.378906 417.964844 714.890625 417.945312 714.398438 417.957031 C 713.910156 417.96875 713.421875 418.007812 712.933594 418.078125 C 712.449219 418.148438 711.96875 418.25 711.496094 418.378906 C 711.023438 418.507812 710.558594 418.667969 710.105469 418.851562 C 707.34375 419.976562 704.472656 420.511719 701.496094 420.453125 C 689.773438 420.265625 680.121094 410.582031 679.972656 398.859375 C 679.96875 398.410156 679.976562 397.960938 680 397.511719 C 680.019531 397.0625 680.058594 396.613281 680.105469 396.167969 C 680.15625 395.722656 680.21875 395.277344 680.296875 394.832031 C 680.375 394.390625 680.464844 393.949219 680.570312 393.511719 C 680.675781 393.078125 680.792969 392.644531 680.921875 392.214844 C 681.054688 391.785156 681.199219 391.359375 681.355469 390.9375 C 681.511719 390.515625 681.683594 390.101562 681.863281 389.6875 C 682.046875 389.277344 682.242188 388.875 682.449219 388.476562 C 682.65625 388.078125 682.878906 387.683594 683.109375 387.300781 C 683.339844 386.914062 683.585938 386.539062 683.839844 386.167969 C 684.09375 385.796875 684.359375 385.4375 684.636719 385.082031 C 684.914062 384.730469 685.203125 384.382812 685.5 384.046875 C 685.800781 383.710938 686.109375 383.386719 686.425781 383.070312 C 686.746094 382.75 687.074219 382.445312 687.410156 382.148438 C 687.75 381.851562 688.09375 381.566406 688.449219 381.289062 C 688.804688 381.015625 689.167969 380.75 689.539062 380.496094 C 689.910156 380.246094 690.289062 380.003906 690.675781 379.773438 C 691.0625 379.542969 691.457031 379.324219 691.855469 379.121094 C 692.253906 378.914062 692.660156 378.722656 693.070312 378.539062 C 693.484375 378.359375 693.898438 378.191406 694.320312 378.039062 C 694.742188 377.882812 695.171875 377.742188 695.601562 377.613281 C 696.03125 377.484375 696.464844 377.367188 696.902344 377.265625 C 697.339844 377.164062 697.78125 377.074219 698.222656 377 C 698.667969 376.925781 699.113281 376.863281 699.558594 376.816406 C 700.007812 376.769531 700.453125 376.734375 700.902344 376.714844 C 701.351562 376.695312 701.800781 376.691406 702.25 376.699219 C 702.699219 376.707031 703.148438 376.726562 703.597656 376.761719 C 704.042969 376.796875 704.492188 376.847656 704.9375 376.910156 C 705.378906 376.972656 705.824219 377.050781 706.261719 377.140625 C 706.703125 377.230469 707.140625 377.332031 707.574219 377.449219 C 708.007812 377.566406 708.4375 377.699219 708.863281 377.839844 C 709.289062 377.984375 709.710938 378.140625 710.128906 378.308594 C 710.582031 378.496094 711.046875 378.652344 711.519531 378.78125 C 711.992188 378.910156 712.472656 379.007812 712.957031 379.078125 C 713.441406 379.148438 713.929688 379.1875 714.421875 379.199219 C 714.910156 379.207031 715.398438 379.1875 715.886719 379.136719 C 716.375 379.085938 716.859375 379.007812 717.335938 378.898438 C 717.816406 378.789062 718.285156 378.652344 718.746094 378.484375 C 719.207031 378.320312 719.65625 378.125 720.09375 377.902344 C 720.53125 377.679688 720.953125 377.433594 721.359375 377.160156 C 721.765625 376.886719 722.15625 376.589844 722.527344 376.269531 C 722.898438 375.945312 723.246094 375.605469 723.574219 375.242188 C 723.90625 374.875 724.210938 374.492188 724.492188 374.09375 C 724.773438 373.691406 725.03125 373.273438 725.261719 372.839844 C 725.492188 372.410156 725.695312 371.964844 725.871094 371.503906 C 726.046875 371.046875 726.195312 370.582031 726.3125 370.105469 C 726.433594 369.628906 726.523438 369.148438 726.582031 368.660156 C 726.640625 368.175781 726.671875 367.6875 726.671875 367.195312 L 726.671875 317.980469 L 820.496094 317.980469 C 820.246094 318.640625 820.015625 319.308594 819.804688 319.984375 C 819.589844 320.660156 819.402344 321.339844 819.230469 322.027344 C 819.058594 322.710938 818.910156 323.402344 818.78125 324.097656 C 818.652344 324.792969 818.546875 325.492188 818.457031 326.191406 C 818.371094 326.894531 818.308594 327.597656 818.261719 328.304688 C 818.21875 329.011719 818.195312 329.714844 818.195312 330.421875 C 818.191406 331.128906 818.210938 331.835938 818.253906 332.542969 C 818.292969 333.25 818.355469 333.953125 818.4375 334.65625 C 818.519531 335.355469 818.625 336.054688 818.75 336.75 C 818.875 337.449219 819.023438 338.140625 819.1875 338.824219 C 819.355469 339.511719 819.542969 340.195312 819.75 340.871094 C 819.960938 341.546875 820.1875 342.214844 820.433594 342.878906 C 820.683594 343.539062 820.953125 344.191406 821.238281 344.839844 C 821.527344 345.484375 821.832031 346.121094 822.160156 346.75 C 822.484375 347.375 822.828125 347.992188 823.191406 348.601562 C 823.554688 349.207031 823.9375 349.800781 824.335938 350.386719 C 824.734375 350.96875 825.152344 351.539062 825.585938 352.097656 C 826.019531 352.65625 826.46875 353.203125 826.933594 353.734375 C 827.398438 354.265625 827.882812 354.785156 828.378906 355.285156 C 828.875 355.789062 829.386719 356.277344 829.914062 356.746094 C 830.441406 357.21875 830.980469 357.675781 831.535156 358.113281 C 832.089844 358.554688 832.65625 358.976562 833.238281 359.378906 C 833.816406 359.785156 834.40625 360.171875 835.011719 360.542969 C 835.613281 360.910156 836.226562 361.261719 836.851562 361.59375 C 837.472656 361.929688 838.109375 362.242188 838.75 362.535156 C 839.394531 362.832031 840.042969 363.105469 840.703125 363.359375 C 841.363281 363.617188 842.03125 363.851562 842.703125 364.066406 C 843.375 364.28125 844.054688 364.476562 844.742188 364.648438 C 845.425781 364.824219 846.117188 364.976562 846.8125 365.109375 C 847.503906 365.242188 848.203125 365.355469 848.90625 365.445312 C 849.605469 365.535156 850.308594 365.605469 851.015625 365.652344 C 851.71875 365.699219 852.425781 365.726562 853.132812 365.734375 L 853.425781 365.734375 C 872.71875 365.734375 888.492188 350.121094 888.648438 330.796875 C 888.691406 326.382812 887.925781 322.109375 886.355469 317.980469 Z M 886.355469 317.980469 " fill-opacity="1" fill-rule="nonzero"/></g><g clip-path="url(#eace35a2b6)"><path fill="#ffffff" d="M 713.328125 431.890625 L 713.328125 445.90625 C 713.324219 446.996094 713.269531 448.082031 713.164062 449.167969 C 713.054688 450.25 712.894531 451.328125 712.679688 452.394531 C 712.46875 453.460938 712.203125 454.519531 711.886719 455.558594 C 711.570312 456.601562 711.203125 457.625 710.785156 458.632812 C 710.367188 459.636719 709.902344 460.621094 709.386719 461.582031 C 708.871094 462.542969 708.3125 463.476562 707.707031 464.382812 C 707.101562 465.285156 706.453125 466.160156 705.761719 467.003906 C 705.070312 467.84375 704.339844 468.652344 703.570312 469.421875 C 702.800781 470.191406 701.996094 470.921875 701.152344 471.613281 C 700.308594 472.304688 699.4375 472.953125 698.53125 473.558594 C 697.625 474.164062 696.691406 474.722656 695.730469 475.238281 C 694.773438 475.75 693.789062 476.214844 692.78125 476.632812 C 691.777344 477.050781 690.75 477.417969 689.710938 477.734375 C 688.667969 478.054688 687.613281 478.316406 686.542969 478.53125 C 685.476562 478.746094 684.398438 478.90625 683.316406 479.011719 C 682.230469 479.121094 681.144531 479.175781 680.054688 479.175781 L 630.207031 479.175781 C 630.042969 479.011719 629.875 478.847656 629.710938 478.6875 L 629.296875 478.285156 C 628.574219 477.597656 627.839844 476.925781 627.089844 476.273438 C 626.761719 475.984375 626.425781 475.703125 626.089844 475.421875 C 625.914062 475.277344 625.734375 475.125 625.558594 474.984375 C 625.417969 474.867188 625.28125 474.753906 625.140625 474.644531 C 624.792969 474.378906 624.445312 474.09375 624.09375 473.828125 C 623.902344 473.679688 623.714844 473.535156 623.519531 473.394531 C 623.328125 473.253906 623.101562 473.082031 622.886719 472.925781 C 621.820312 472.160156 620.738281 471.421875 619.636719 470.71875 L 619.101562 470.386719 C 618.835938 470.222656 618.566406 470.058594 618.300781 469.894531 L 617.625 469.5 C 617.398438 469.363281 617.167969 469.230469 616.941406 469.105469 C 616.714844 468.980469 616.480469 468.839844 616.25 468.726562 C 616.015625 468.609375 615.789062 468.472656 615.554688 468.347656 C 615.316406 468.222656 615.089844 468.101562 614.855469 467.984375 C 614.617188 467.863281 614.382812 467.742188 614.148438 467.625 C 613.910156 467.507812 613.675781 467.394531 613.433594 467.277344 L 612.78125 466.96875 L 611.996094 466.605469 C 610.003906 465.710938 607.96875 464.921875 605.894531 464.242188 C 603.820312 463.5625 601.710938 462.992188 599.578125 462.535156 C 597.441406 462.078125 595.289062 461.730469 593.117188 461.503906 C 590.941406 461.273438 588.765625 461.15625 586.582031 461.15625 C 584.398438 461.15625 582.21875 461.273438 580.046875 461.503906 C 577.875 461.734375 575.71875 462.078125 573.585938 462.535156 C 571.449219 462.992188 569.34375 463.5625 567.269531 464.242188 C 565.191406 464.921875 563.160156 465.710938 561.164062 466.605469 L 560.378906 466.96875 L 559.726562 467.277344 C 559.488281 467.394531 559.25 467.507812 559.015625 467.625 C 558.78125 467.742188 558.542969 467.863281 558.308594 467.984375 C 558.074219 468.101562 557.839844 468.226562 557.609375 468.347656 C 557.375 468.472656 557.140625 468.597656 556.914062 468.726562 C 556.683594 468.851562 556.449219 468.992188 556.222656 469.105469 C 555.992188 469.222656 555.765625 469.375 555.539062 469.5 L 554.859375 469.894531 C 554.59375 470.058594 554.328125 470.222656 554.058594 470.386719 L 553.527344 470.71875 C 552.417969 471.429688 551.335938 472.167969 550.273438 472.925781 C 550.058594 473.082031 549.847656 473.238281 549.640625 473.394531 C 549.433594 473.550781 549.257812 473.679688 549.070312 473.828125 C 548.71875 474.09375 548.367188 474.359375 548.019531 474.644531 C 547.882812 474.757812 547.742188 474.867188 547.605469 474.984375 C 547.421875 475.125 547.246094 475.277344 547.070312 475.421875 C 546.734375 475.703125 546.402344 475.988281 546.070312 476.273438 C 545.320312 476.925781 544.585938 477.597656 543.867188 478.285156 L 543.453125 478.6875 C 543.285156 478.847656 543.117188 479.011719 542.953125 479.175781 L 493.089844 479.175781 C 492 479.175781 490.914062 479.121094 489.828125 479.011719 C 488.746094 478.90625 487.667969 478.746094 486.601562 478.53125 C 485.53125 478.316406 484.476562 478.050781 483.4375 477.734375 C 482.394531 477.417969 481.371094 477.050781 480.363281 476.632812 C 479.355469 476.214844 478.375 475.75 477.414062 475.238281 C 476.453125 474.722656 475.519531 474.164062 474.613281 473.558594 C 473.707031 472.953125 472.835938 472.304688 471.992188 471.613281 C 471.152344 470.921875 470.34375 470.191406 469.574219 469.417969 C 468.804688 468.648438 468.074219 467.84375 467.382812 467 C 466.691406 466.160156 466.042969 465.285156 465.4375 464.378906 C 464.832031 463.472656 464.273438 462.542969 463.757812 461.582031 C 463.246094 460.621094 462.777344 459.636719 462.359375 458.628906 C 461.945312 457.625 461.578125 456.601562 461.257812 455.558594 C 460.941406 454.515625 460.675781 453.460938 460.464844 452.390625 C 460.25 451.324219 460.089844 450.246094 459.980469 449.164062 C 459.875 448.078125 459.820312 446.992188 459.820312 445.902344 L 459.820312 317.980469 L 553.644531 317.980469 C 553.390625 318.644531 553.160156 319.316406 552.949219 319.992188 C 552.738281 320.667969 552.546875 321.351562 552.375 322.042969 C 552.207031 322.730469 552.054688 323.425781 551.929688 324.121094 C 551.800781 324.820312 551.691406 325.523438 551.605469 326.226562 C 551.519531 326.929688 551.457031 327.636719 551.414062 328.347656 C 551.371094 329.054688 551.347656 329.765625 551.347656 330.472656 C 551.347656 331.183594 551.371094 331.890625 551.410156 332.601562 C 551.453125 333.308594 551.519531 334.015625 551.605469 334.71875 C 551.6875 335.425781 551.796875 336.125 551.921875 336.824219 C 552.050781 337.523438 552.199219 338.214844 552.371094 338.90625 C 552.539062 339.59375 552.730469 340.277344 552.941406 340.957031 C 553.152344 341.632812 553.382812 342.304688 553.632812 342.96875 C 553.886719 343.632812 554.15625 344.289062 554.449219 344.933594 C 554.738281 345.582031 555.050781 346.21875 555.378906 346.847656 C 555.707031 347.476562 556.058594 348.09375 556.425781 348.703125 C 556.792969 349.308594 557.175781 349.90625 557.578125 350.488281 C 557.980469 351.074219 558.402344 351.644531 558.839844 352.203125 C 559.277344 352.761719 559.730469 353.308594 560.203125 353.839844 C 560.671875 354.371094 561.160156 354.886719 561.660156 355.390625 C 562.164062 355.890625 562.679688 356.378906 563.210938 356.847656 C 563.742188 357.320312 564.285156 357.773438 564.84375 358.210938 C 565.402344 358.648438 565.976562 359.070312 566.558594 359.472656 C 567.144531 359.875 567.738281 360.261719 568.347656 360.628906 C 568.953125 360.996094 569.570312 361.34375 570.199219 361.675781 C 570.828125 362.003906 571.464844 362.316406 572.113281 362.605469 C 572.761719 362.898438 573.414062 363.167969 574.078125 363.421875 C 574.742188 363.671875 575.414062 363.90625 576.089844 364.117188 C 576.769531 364.328125 577.453125 364.515625 578.140625 364.6875 C 578.832031 364.855469 579.523438 365.007812 580.222656 365.132812 C 580.921875 365.261719 581.621094 365.367188 582.324219 365.453125 C 583.03125 365.539062 583.738281 365.605469 584.445312 365.648438 C 585.152344 365.691406 585.863281 365.710938 586.574219 365.710938 C 587.28125 365.710938 587.992188 365.691406 588.699219 365.648438 C 589.410156 365.605469 590.113281 365.539062 590.820312 365.453125 C 591.523438 365.367188 592.226562 365.261719 592.921875 365.132812 C 593.621094 365.007812 594.316406 364.855469 595.003906 364.6875 C 595.695312 364.515625 596.378906 364.328125 597.054688 364.117188 C 597.730469 363.90625 598.402344 363.671875 599.066406 363.421875 C 599.730469 363.167969 600.386719 362.898438 601.03125 362.605469 C 601.679688 362.316406 602.316406 362.003906 602.945312 361.675781 C 603.574219 361.34375 604.191406 360.996094 604.800781 360.628906 C 605.40625 360.261719 606.003906 359.875 606.585938 359.472656 C 607.171875 359.070312 607.742188 358.648438 608.300781 358.210938 C 608.859375 357.773438 609.40625 357.320312 609.9375 356.847656 C 610.464844 356.378906 610.984375 355.890625 611.484375 355.390625 C 611.988281 354.886719 612.472656 354.371094 612.945312 353.839844 C 613.414062 353.308594 613.867188 352.761719 614.304688 352.203125 C 614.742188 351.644531 615.164062 351.074219 615.566406 350.488281 C 615.96875 349.90625 616.355469 349.308594 616.722656 348.703125 C 617.089844 348.09375 617.4375 347.476562 617.765625 346.847656 C 618.097656 346.21875 618.40625 345.582031 618.699219 344.933594 C 618.988281 344.289062 619.261719 343.632812 619.511719 342.96875 C 619.761719 342.304688 619.996094 341.632812 620.207031 340.957031 C 620.417969 340.277344 620.605469 339.59375 620.777344 338.90625 C 620.945312 338.214844 621.09375 337.523438 621.222656 336.824219 C 621.351562 336.125 621.457031 335.425781 621.542969 334.71875 C 621.628906 334.015625 621.691406 333.308594 621.734375 332.601562 C 621.777344 331.890625 621.796875 331.183594 621.796875 330.472656 C 621.796875 329.765625 621.773438 329.054688 621.730469 328.347656 C 621.6875 327.636719 621.625 326.929688 621.539062 326.226562 C 621.453125 325.523438 621.347656 324.820312 621.21875 324.121094 C 621.089844 323.425781 620.941406 322.730469 620.769531 322.042969 C 620.601562 321.351562 620.410156 320.667969 620.199219 319.992188 C 619.984375 319.316406 619.753906 318.644531 619.503906 317.980469 L 713.328125 317.980469 L 713.328125 365.269531 C 712.667969 365.042969 712 364.835938 711.328125 364.648438 C 710.65625 364.460938 709.976562 364.292969 709.296875 364.148438 C 708.613281 364 707.925781 363.871094 707.238281 363.765625 C 706.546875 363.660156 705.855469 363.574219 705.160156 363.507812 C 704.464844 363.445312 703.769531 363.398438 703.070312 363.375 C 702.375 363.351562 701.675781 363.351562 700.976562 363.367188 C 700.28125 363.386719 699.582031 363.425781 698.886719 363.484375 C 698.191406 363.542969 697.5 363.621094 696.808594 363.722656 C 696.117188 363.824219 695.429688 363.945312 694.746094 364.085938 C 694.0625 364.226562 693.382812 364.386719 692.710938 364.570312 C 692.035156 364.75 691.367188 364.953125 690.707031 365.175781 C 690.042969 365.394531 689.390625 365.636719 688.742188 365.894531 C 688.09375 366.15625 687.453125 366.4375 686.824219 366.734375 C 686.191406 367.03125 685.570312 367.347656 684.957031 367.683594 C 684.347656 368.019531 683.746094 368.375 683.152344 368.742188 C 682.5625 369.113281 681.980469 369.503906 681.414062 369.910156 C 680.84375 370.3125 680.289062 370.738281 679.746094 371.175781 C 679.203125 371.613281 678.675781 372.066406 678.15625 372.539062 C 677.640625 373.007812 677.140625 373.492188 676.652344 373.992188 C 676.164062 374.492188 675.695312 375.007812 675.238281 375.535156 C 674.78125 376.0625 674.339844 376.601562 673.914062 377.15625 C 673.492188 377.710938 673.082031 378.277344 672.691406 378.855469 C 672.300781 379.433594 671.929688 380.023438 671.570312 380.625 C 671.214844 381.226562 670.878906 381.835938 670.558594 382.457031 C 670.238281 383.078125 669.9375 383.707031 669.65625 384.34375 C 669.375 384.984375 669.113281 385.628906 668.867188 386.285156 C 668.625 386.9375 668.398438 387.597656 668.195312 388.265625 C 667.992188 388.933594 667.808594 389.605469 667.640625 390.285156 C 667.476562 390.964844 667.332031 391.644531 667.210938 392.332031 C 667.085938 393.019531 666.984375 393.710938 666.898438 394.402344 C 666.816406 395.097656 666.753906 395.792969 666.714844 396.488281 C 666.671875 397.183594 666.652344 397.882812 666.652344 398.582031 C 666.652344 399.277344 666.671875 399.976562 666.714844 400.671875 C 666.753906 401.371094 666.816406 402.066406 666.898438 402.757812 C 666.984375 403.449219 667.085938 404.140625 667.210938 404.828125 C 667.332031 405.515625 667.476562 406.199219 667.640625 406.875 C 667.808594 407.554688 667.992188 408.226562 668.195312 408.894531 C 668.398438 409.5625 668.625 410.222656 668.867188 410.878906 C 669.113281 411.53125 669.375 412.179688 669.65625 412.816406 C 669.9375 413.453125 670.238281 414.085938 670.558594 414.703125 C 670.878906 415.324219 671.214844 415.9375 671.570312 416.535156 C 671.929688 417.136719 672.300781 417.726562 672.691406 418.304688 C 673.082031 418.882812 673.492188 419.449219 673.914062 420.003906 C 674.339844 420.558594 674.78125 421.097656 675.238281 421.625 C 675.695312 422.15625 676.164062 422.667969 676.652344 423.167969 C 677.140625 423.667969 677.640625 424.152344 678.15625 424.625 C 678.675781 425.09375 679.203125 425.546875 679.746094 425.984375 C 680.289062 426.425781 680.84375 426.847656 681.414062 427.253906 C 681.980469 427.65625 682.5625 428.046875 683.152344 428.417969 C 683.746094 428.789062 684.347656 429.140625 684.957031 429.476562 C 685.570312 429.8125 686.191406 430.128906 686.824219 430.425781 C 687.453125 430.726562 688.09375 431.003906 688.742188 431.265625 C 689.390625 431.523438 690.042969 431.765625 690.707031 431.988281 C 691.367188 432.207031 692.035156 432.410156 692.710938 432.589844 C 693.382812 432.773438 694.0625 432.933594 694.746094 433.074219 C 695.429688 433.21875 696.117188 433.339844 696.808594 433.4375 C 697.5 433.539062 698.191406 433.617188 698.886719 433.679688 C 699.582031 433.738281 700.28125 433.777344 700.976562 433.792969 C 701.675781 433.8125 702.375 433.808594 703.070312 433.785156 C 703.769531 433.761719 704.464844 433.714844 705.160156 433.652344 C 705.855469 433.585938 706.546875 433.5 707.238281 433.394531 C 707.925781 433.289062 708.613281 433.160156 709.296875 433.015625 C 709.976562 432.867188 710.65625 432.699219 711.328125 432.511719 C 712 432.324219 712.667969 432.117188 713.328125 431.890625 Z M 713.328125 431.890625 " fill-opacity="1" fill-rule="nonzero"/></g><g clip-path="url(#f883ae7f18)"><path fill="#ffffff" d="M 622.425781 490.34375 C 624.445312 492.554688 626.242188 494.933594 627.820312 497.476562 C 629.394531 500.023438 630.726562 502.691406 631.804688 505.484375 C 632.886719 508.277344 633.703125 511.144531 634.25 514.085938 C 634.796875 517.03125 635.070312 520 635.066406 522.996094 C 635.066406 549.734375 613.3125 571.488281 586.574219 571.488281 C 559.832031 571.488281 538.078125 549.734375 538.078125 522.996094 C 538.078125 520.5625 538.261719 518.144531 538.625 515.738281 C 538.988281 513.332031 539.53125 510.96875 540.25 508.648438 C 540.96875 506.324219 541.859375 504.066406 542.917969 501.878906 C 543.976562 499.6875 545.195312 497.589844 546.570312 495.582031 C 547.945312 493.578125 549.460938 491.683594 551.121094 489.90625 C 552.78125 488.128906 554.5625 486.484375 556.46875 484.976562 C 558.375 483.464844 560.386719 482.105469 562.496094 480.898438 C 564.609375 479.691406 566.796875 478.648438 569.066406 477.769531 C 571.335938 476.894531 573.65625 476.191406 576.03125 475.660156 C 578.402344 475.132812 580.804688 474.785156 583.230469 474.617188 C 585.65625 474.449219 588.082031 474.464844 590.507812 474.660156 C 592.929688 474.859375 595.324219 475.234375 597.695312 475.792969 C 600.0625 476.351562 602.375 477.082031 604.628906 477.988281 C 606.886719 478.894531 609.066406 479.964844 611.160156 481.195312 C 613.257812 482.429688 615.25 483.8125 617.136719 485.34375 C 619.027344 486.878906 620.789062 488.542969 622.425781 490.34375 Z M 622.425781 490.34375 " fill-opacity="1" fill-rule="nonzero"/></g><g clip-path="url(#d7dcafa9a4)"><path fill="#ffffff" d="M 550.71875 132.277344 C 548.699219 130.066406 546.902344 127.6875 545.324219 125.140625 C 543.75 122.597656 542.421875 119.925781 541.339844 117.132812 C 540.257812 114.34375 539.445312 111.476562 538.894531 108.53125 C 538.347656 105.585938 538.074219 102.617188 538.078125 99.625 C 538.078125 72.882812 559.832031 51.128906 586.574219 51.128906 C 613.3125 51.128906 635.066406 72.882812 635.066406 99.625 C 635.066406 102.058594 634.886719 104.476562 634.523438 106.878906 C 634.15625 109.285156 633.617188 111.648438 632.894531 113.972656 C 632.175781 116.296875 631.289062 118.550781 630.226562 120.742188 C 629.167969 122.929688 627.953125 125.027344 626.578125 127.035156 C 625.203125 129.042969 623.683594 130.933594 622.027344 132.710938 C 620.367188 134.488281 618.582031 136.132812 616.675781 137.644531 C 614.769531 139.152344 612.761719 140.511719 610.648438 141.71875 C 608.539062 142.925781 606.347656 143.96875 604.078125 144.847656 C 601.8125 145.726562 599.492188 146.429688 597.117188 146.957031 C 594.742188 147.488281 592.34375 147.835938 589.914062 148.003906 C 587.488281 148.171875 585.0625 148.15625 582.640625 147.957031 C 580.214844 147.761719 577.820312 147.382812 575.453125 146.824219 C 573.085938 146.269531 570.773438 145.535156 568.515625 144.628906 C 566.257812 143.726562 564.082031 142.65625 561.984375 141.421875 C 559.886719 140.1875 557.894531 138.804688 556.007812 137.273438 C 554.121094 135.742188 552.355469 134.074219 550.71875 132.277344 Z M 550.71875 132.277344 " fill-opacity="1" fill-rule="nonzero"/></g><g clip-path="url(#8c1989daa7)"><path fill="#ffffff" d="M 555.640625 304.636719 L 459.820312 304.636719 L 459.820312 176.714844 C 459.820312 175.625 459.875 174.539062 459.984375 173.453125 C 460.089844 172.371094 460.25 171.292969 460.464844 170.226562 C 460.679688 169.160156 460.945312 168.101562 461.261719 167.0625 C 461.578125 166.019531 461.945312 164.996094 462.363281 163.988281 C 462.78125 162.980469 463.246094 162 463.757812 161.039062 C 464.273438 160.078125 464.832031 159.144531 465.4375 158.238281 C 466.042969 157.332031 466.691406 156.460938 467.382812 155.617188 C 468.074219 154.773438 468.804688 153.96875 469.574219 153.199219 C 470.347656 152.429688 471.152344 151.699219 471.996094 151.007812 C 472.835938 150.316406 473.710938 149.667969 474.617188 149.0625 C 475.523438 148.457031 476.453125 147.894531 477.414062 147.382812 C 478.375 146.867188 479.359375 146.402344 480.367188 145.984375 C 481.371094 145.566406 482.394531 145.199219 483.4375 144.882812 C 484.480469 144.566406 485.535156 144.300781 486.605469 144.085938 C 487.671875 143.875 488.75 143.714844 489.832031 143.605469 C 490.917969 143.496094 492.003906 143.441406 493.09375 143.441406 L 542.9375 143.441406 C 543.101562 143.605469 543.269531 143.773438 543.4375 143.933594 L 543.851562 144.332031 C 544.28125 144.746094 544.714844 145.148438 545.15625 145.546875 L 545.601562 145.945312 C 545.796875 146.121094 545.996094 146.292969 546.195312 146.476562 C 546.394531 146.664062 546.589844 146.820312 546.789062 146.988281 L 546.886719 147.066406 C 547.121094 147.261719 547.355469 147.457031 547.589844 147.648438 L 548.015625 147.992188 C 548.75 148.582031 549.5 149.152344 550.261719 149.703125 C 550.527344 149.898438 550.792969 150.085938 551.058594 150.277344 C 551.386719 150.503906 551.71875 150.730469 552.046875 150.953125 C 552.222656 151.070312 552.394531 151.1875 552.582031 151.304688 C 552.820312 151.460938 553.054688 151.613281 553.296875 151.765625 L 554.058594 152.246094 C 554.324219 152.410156 554.589844 152.574219 554.859375 152.734375 C 555.226562 152.953125 555.59375 153.171875 555.96875 153.382812 L 556.339844 153.59375 L 556.910156 153.90625 C 557.132812 154.03125 557.351562 154.148438 557.574219 154.269531 C 558.492188 154.753906 559.429688 155.21875 560.375 155.664062 L 561.164062 156.027344 C 563.15625 156.921875 565.191406 157.710938 567.265625 158.390625 C 569.339844 159.070312 571.445312 159.640625 573.582031 160.097656 C 575.71875 160.554688 577.871094 160.898438 580.042969 161.128906 C 582.214844 161.359375 584.394531 161.476562 586.578125 161.476562 C 588.761719 161.476562 590.941406 161.359375 593.113281 161.128906 C 595.285156 160.898438 597.4375 160.554688 599.574219 160.097656 C 601.710938 159.640625 603.816406 159.070312 605.890625 158.390625 C 607.96875 157.710938 610 156.921875 611.992188 156.027344 L 612.78125 155.664062 C 613.726562 155.21875 614.664062 154.753906 615.582031 154.269531 C 615.804688 154.148438 616.023438 154.03125 616.246094 153.90625 L 616.816406 153.59375 L 617.1875 153.382812 C 617.5625 153.171875 617.929688 152.953125 618.296875 152.734375 C 618.566406 152.574219 618.832031 152.410156 619.097656 152.246094 L 619.859375 151.765625 C 620.101562 151.613281 620.335938 151.460938 620.574219 151.304688 C 620.75 151.1875 620.925781 151.070312 621.109375 150.953125 C 621.441406 150.730469 621.769531 150.503906 622.097656 150.277344 C 622.363281 150.085938 622.628906 149.898438 622.898438 149.703125 C 623.320312 149.398438 623.742188 149.085938 624.160156 148.761719 C 624.488281 148.511719 624.816406 148.253906 625.136719 147.992188 C 625.28125 147.882812 625.421875 147.765625 625.566406 147.648438 C 625.800781 147.457031 626.039062 147.265625 626.269531 147.066406 L 626.367188 146.988281 C 626.566406 146.820312 626.761719 146.648438 626.960938 146.476562 C 627.160156 146.308594 627.359375 146.132812 627.554688 145.945312 L 628 145.546875 C 628.441406 145.148438 628.875 144.746094 629.304688 144.332031 L 629.71875 143.933594 C 629.886719 143.773438 630.054688 143.605469 630.21875 143.441406 L 680.0625 143.441406 C 681.152344 143.441406 682.238281 143.5 683.324219 143.605469 C 684.40625 143.714844 685.484375 143.875 686.550781 144.089844 C 687.617188 144.304688 688.675781 144.570312 689.714844 144.886719 C 690.757812 145.203125 691.78125 145.570312 692.789062 145.988281 C 693.792969 146.40625 694.777344 146.871094 695.738281 147.386719 C 696.695312 147.898438 697.628906 148.460938 698.535156 149.066406 C 699.441406 149.671875 700.3125 150.320312 701.15625 151.011719 C 701.996094 151.703125 702.804688 152.433594 703.574219 153.203125 C 704.34375 153.972656 705.074219 154.777344 705.765625 155.621094 C 706.457031 156.460938 707.105469 157.335938 707.710938 158.242188 C 708.316406 159.148438 708.875 160.082031 709.386719 161.039062 C 709.902344 162 710.367188 162.984375 710.785156 163.992188 C 711.203125 164.996094 711.570312 166.019531 711.886719 167.0625 C 712.203125 168.105469 712.46875 169.160156 712.679688 170.226562 C 712.894531 171.296875 713.054688 172.371094 713.164062 173.457031 C 713.269531 174.539062 713.324219 175.625 713.328125 176.714844 L 713.328125 192.65625 C 713.328125 193.148438 713.355469 193.636719 713.417969 194.125 C 713.476562 194.613281 713.566406 195.09375 713.6875 195.570312 C 713.804688 196.046875 713.953125 196.511719 714.128906 196.972656 C 714.304688 197.429688 714.507812 197.875 714.742188 198.308594 C 714.972656 198.742188 715.226562 199.160156 715.511719 199.5625 C 715.792969 199.960938 716.097656 200.34375 716.429688 200.710938 C 716.757812 201.074219 717.109375 201.417969 717.480469 201.738281 C 717.851562 202.058594 718.238281 202.355469 718.648438 202.628906 C 719.054688 202.902344 719.476562 203.152344 719.917969 203.371094 C 720.355469 203.59375 720.804688 203.789062 721.265625 203.953125 C 721.726562 204.121094 722.199219 204.257812 722.675781 204.367188 C 723.15625 204.476562 723.640625 204.554688 724.128906 204.605469 C 724.617188 204.652344 725.105469 204.671875 725.597656 204.660156 C 726.089844 204.652344 726.578125 204.609375 727.0625 204.539062 C 727.546875 204.46875 728.027344 204.367188 728.5 204.238281 C 728.976562 204.109375 729.4375 203.953125 729.894531 203.765625 L 730.328125 203.59375 C 730.625 203.480469 730.925781 203.371094 731.226562 203.273438 C 731.328125 203.238281 731.429688 203.203125 731.535156 203.171875 C 731.703125 203.121094 731.871094 203.066406 732.039062 203.019531 L 732.117188 202.996094 C 732.238281 202.960938 732.363281 202.925781 732.488281 202.894531 L 732.582031 202.867188 C 732.804688 202.808594 733.027344 202.753906 733.253906 202.703125 L 733.28125 202.703125 C 733.40625 202.671875 733.546875 202.644531 733.667969 202.621094 L 733.6875 202.621094 L 733.769531 202.605469 L 734.113281 202.539062 L 734.355469 202.492188 L 734.535156 202.464844 L 734.75 202.429688 C 734.820312 202.429688 734.890625 202.40625 734.960938 202.398438 L 735.496094 202.328125 C 735.695312 202.304688 735.902344 202.28125 736.109375 202.261719 C 736.3125 202.246094 736.515625 202.230469 736.714844 202.214844 C 736.96875 202.199219 737.222656 202.1875 737.476562 202.179688 L 737.789062 202.179688 C 738.023438 202.179688 738.257812 202.179688 738.496094 202.179688 C 738.691406 202.179688 738.886719 202.179688 739.082031 202.199219 C 739.277344 202.21875 739.417969 202.199219 739.589844 202.226562 C 739.757812 202.253906 739.921875 202.25 740.085938 202.265625 C 740.304688 202.285156 740.527344 202.304688 740.746094 202.335938 L 741.148438 202.386719 L 741.222656 202.386719 L 741.734375 202.464844 C 741.910156 202.496094 742.085938 202.527344 742.265625 202.5625 C 742.617188 202.632812 742.960938 202.707031 743.304688 202.792969 C 743.648438 202.878906 743.988281 202.96875 744.328125 203.058594 L 744.832031 203.214844 C 745.164062 203.324219 745.492188 203.441406 745.820312 203.566406 C 745.9375 203.609375 746.054688 203.65625 746.171875 203.703125 C 746.542969 203.855469 746.90625 204.011719 747.269531 204.179688 C 747.425781 204.25 747.582031 204.328125 747.738281 204.40625 C 747.890625 204.484375 748.050781 204.5625 748.203125 204.644531 C 748.355469 204.726562 748.507812 204.804688 748.660156 204.890625 C 748.960938 205.058594 749.261719 205.234375 749.554688 205.421875 C 749.65625 205.484375 749.753906 205.546875 749.851562 205.609375 C 750.058594 205.742188 750.265625 205.875 750.46875 206.019531 L 750.847656 206.285156 C 751.058594 206.433594 751.261719 206.589844 751.464844 206.75 C 751.570312 206.828125 751.671875 206.910156 751.777344 206.996094 C 751.84375 207.042969 751.902344 207.09375 751.96875 207.148438 C 752.136719 207.285156 752.304688 207.429688 752.472656 207.574219 C 752.636719 207.71875 752.777344 207.839844 752.929688 207.988281 C 753.007812 208.058594 753.085938 208.128906 753.160156 208.203125 C 753.308594 208.34375 753.457031 208.488281 753.605469 208.636719 C 753.753906 208.78125 753.871094 208.917969 754.015625 209.0625 C 754.160156 209.207031 754.214844 209.269531 754.308594 209.378906 L 754.328125 209.398438 C 754.425781 209.503906 754.519531 209.609375 754.613281 209.714844 C 755.046875 210.214844 755.457031 210.726562 755.847656 211.261719 L 756.015625 211.5 C 756.265625 211.855469 756.507812 212.214844 756.738281 212.585938 C 756.8125 212.703125 756.886719 212.824219 756.957031 212.945312 C 757.03125 213.066406 757.101562 213.1875 757.171875 213.3125 C 757.238281 213.433594 757.308594 213.554688 757.375 213.679688 C 757.53125 213.964844 757.679688 214.253906 757.824219 214.542969 C 757.898438 214.6875 757.964844 214.835938 758.03125 214.980469 C 758.03125 214.988281 758.03125 214.992188 758.03125 214.996094 C 758.097656 215.140625 758.160156 215.28125 758.222656 215.425781 C 758.453125 215.957031 758.667969 216.492188 758.855469 217.050781 C 758.886719 217.128906 758.910156 217.207031 758.933594 217.285156 C 758.964844 217.386719 759 217.484375 759.03125 217.585938 C 759.183594 218.066406 759.316406 218.558594 759.4375 219.054688 C 759.460938 219.15625 759.484375 219.257812 759.503906 219.359375 C 759.527344 219.460938 759.546875 219.550781 759.566406 219.644531 C 759.628906 219.933594 759.683594 220.226562 759.734375 220.519531 C 759.792969 220.875 759.839844 221.230469 759.882812 221.589844 C 759.933594 222.058594 759.972656 222.527344 759.992188 223 C 760.015625 223.472656 760.023438 223.941406 760.015625 224.414062 C 760.003906 224.886719 759.980469 225.355469 759.941406 225.828125 C 759.902344 226.296875 759.851562 226.765625 759.78125 227.234375 C 759.710938 227.699219 759.628906 228.164062 759.527344 228.625 C 759.429688 229.085938 759.316406 229.542969 759.1875 230 C 759.058594 230.453125 758.914062 230.902344 758.753906 231.347656 C 758.597656 231.792969 758.425781 232.230469 758.238281 232.664062 C 758.054688 233.097656 757.851562 233.523438 757.640625 233.945312 C 757.425781 234.367188 757.199219 234.78125 756.957031 235.1875 C 756.714844 235.59375 756.464844 235.988281 756.195312 236.378906 C 755.929688 236.769531 755.652344 237.148438 755.359375 237.519531 C 755.070312 237.894531 754.765625 238.253906 754.453125 238.605469 C 754.136719 238.957031 753.8125 239.300781 753.476562 239.632812 C 753.140625 239.960938 752.792969 240.28125 752.4375 240.589844 C 752.078125 240.898438 751.710938 241.195312 751.335938 241.480469 C 750.960938 241.765625 750.574219 242.039062 750.179688 242.296875 C 749.785156 242.558594 749.386719 242.804688 748.976562 243.039062 C 748.566406 243.273438 748.148438 243.492188 747.722656 243.699219 C 747.300781 243.90625 746.871094 244.101562 746.433594 244.277344 C 745.996094 244.457031 745.554688 244.625 745.109375 244.773438 C 744.660156 244.925781 744.207031 245.058594 743.753906 245.183594 C 743.296875 245.304688 742.835938 245.410156 742.375 245.5 C 741.910156 245.59375 741.445312 245.667969 740.976562 245.730469 C 740.507812 245.792969 740.039062 245.839844 739.570312 245.871094 C 739.097656 245.902344 738.628906 245.917969 738.15625 245.917969 C 737.683594 245.917969 737.210938 245.90625 736.742188 245.875 C 736.269531 245.84375 735.800781 245.800781 735.332031 245.742188 C 734.863281 245.679688 734.398438 245.605469 733.933594 245.515625 C 733.472656 245.425781 733.011719 245.320312 732.554688 245.199219 C 732.097656 245.078125 731.648438 244.945312 731.199219 244.796875 C 730.75 244.648438 730.308594 244.484375 729.871094 244.304688 C 729.417969 244.121094 728.953125 243.964844 728.480469 243.835938 C 728.007812 243.707031 727.527344 243.609375 727.042969 243.539062 C 726.558594 243.46875 726.070312 243.429688 725.578125 243.417969 C 725.089844 243.410156 724.601562 243.429688 724.113281 243.476562 C 723.625 243.527344 723.140625 243.609375 722.664062 243.71875 C 722.183594 243.828125 721.714844 243.964844 721.253906 244.132812 C 720.792969 244.296875 720.34375 244.492188 719.90625 244.714844 C 719.46875 244.933594 719.046875 245.183594 718.640625 245.457031 C 718.230469 245.730469 717.84375 246.027344 717.472656 246.347656 C 717.101562 246.667969 716.753906 247.011719 716.421875 247.375 C 716.09375 247.738281 715.789062 248.121094 715.507812 248.523438 C 715.226562 248.925781 714.96875 249.34375 714.738281 249.773438 C 714.507812 250.207031 714.304688 250.652344 714.128906 251.109375 C 713.953125 251.566406 713.804688 252.035156 713.6875 252.511719 C 713.566406 252.988281 713.476562 253.46875 713.417969 253.953125 C 713.355469 254.441406 713.328125 254.929688 713.328125 255.421875 L 713.328125 304.636719 L 617.503906 304.636719 C 617.003906 304.636719 616.507812 304.667969 616.011719 304.730469 C 615.519531 304.792969 615.03125 304.886719 614.546875 305.007812 C 614.0625 305.128906 613.589844 305.28125 613.125 305.464844 C 612.660156 305.644531 612.210938 305.855469 611.773438 306.09375 C 611.332031 306.332031 610.910156 306.597656 610.507812 306.886719 C 610.101562 307.175781 609.714844 307.492188 609.351562 307.832031 C 608.984375 308.167969 608.640625 308.527344 608.320312 308.910156 C 607.996094 309.292969 607.703125 309.691406 607.429688 310.109375 C 607.160156 310.527344 606.914062 310.960938 606.695312 311.410156 C 606.480469 311.859375 606.289062 312.320312 606.128906 312.789062 C 605.96875 313.261719 605.839844 313.742188 605.738281 314.230469 C 605.640625 314.71875 605.570312 315.214844 605.53125 315.710938 C 605.492188 316.207031 605.484375 316.703125 605.507812 317.203125 C 605.53125 317.699219 605.585938 318.195312 605.667969 318.6875 C 605.753906 319.179688 605.867188 319.664062 606.015625 320.140625 C 606.160156 320.617188 606.332031 321.082031 606.535156 321.539062 C 606.722656 321.953125 606.894531 322.371094 607.054688 322.796875 C 607.214844 323.222656 607.363281 323.652344 607.496094 324.085938 C 607.628906 324.523438 607.746094 324.960938 607.851562 325.402344 C 607.957031 325.84375 608.050781 326.289062 608.128906 326.734375 C 608.207031 327.183594 608.269531 327.632812 608.320312 328.085938 C 608.371094 328.535156 608.40625 328.988281 608.429688 329.441406 C 608.449219 329.894531 608.457031 330.351562 608.453125 330.804688 C 608.445312 331.257812 608.425781 331.710938 608.390625 332.164062 C 608.355469 332.617188 608.308594 333.070312 608.246094 333.519531 C 608.183594 333.96875 608.105469 334.417969 608.015625 334.863281 C 607.925781 335.308594 607.820312 335.75 607.703125 336.1875 C 607.582031 336.628906 607.453125 337.0625 607.304688 337.492188 C 607.160156 337.921875 607.003906 338.347656 606.832031 338.769531 C 606.660156 339.191406 606.476562 339.605469 606.277344 340.015625 C 606.078125 340.421875 605.871094 340.824219 605.648438 341.222656 C 605.425781 341.617188 605.1875 342.007812 604.941406 342.386719 C 604.695312 342.769531 604.4375 343.144531 604.167969 343.507812 C 603.898438 343.875 603.617188 344.230469 603.324219 344.578125 C 603.03125 344.925781 602.726562 345.265625 602.414062 345.59375 C 602.101562 345.921875 601.777344 346.242188 601.445312 346.550781 C 601.109375 346.859375 600.769531 347.15625 600.417969 347.445312 C 600.066406 347.730469 599.703125 348.007812 599.335938 348.273438 C 598.964844 348.539062 598.589844 348.789062 598.203125 349.03125 C 597.820312 349.273438 597.425781 349.503906 597.027344 349.71875 C 596.628906 349.9375 596.222656 350.140625 595.8125 350.332031 C 595.398438 350.527344 594.984375 350.703125 594.558594 350.871094 C 594.136719 351.035156 593.707031 351.1875 593.277344 351.328125 C 592.84375 351.46875 592.40625 351.59375 591.96875 351.703125 C 591.527344 351.816406 591.082031 351.914062 590.636719 352 C 590.191406 352.082031 589.742188 352.152344 589.292969 352.210938 C 588.839844 352.265625 588.386719 352.308594 587.933594 352.335938 C 587.480469 352.367188 587.027344 352.378906 586.574219 352.378906 C 586.117188 352.378906 585.664062 352.367188 585.210938 352.335938 C 584.757812 352.308594 584.304688 352.265625 583.855469 352.210938 C 583.402344 352.152344 582.957031 352.082031 582.507812 352 C 582.0625 351.914062 581.617188 351.816406 581.179688 351.703125 C 580.738281 351.59375 580.300781 351.46875 579.871094 351.328125 C 579.4375 351.1875 579.007812 351.035156 578.585938 350.871094 C 578.164062 350.703125 577.746094 350.527344 577.332031 350.332031 C 576.921875 350.140625 576.515625 349.9375 576.117188 349.71875 C 575.71875 349.503906 575.328125 349.273438 574.941406 349.03125 C 574.554688 348.789062 574.179688 348.539062 573.808594 348.273438 C 573.441406 348.007812 573.082031 347.730469 572.730469 347.445312 C 572.378906 347.15625 572.035156 346.859375 571.703125 346.550781 C 571.367188 346.242188 571.042969 345.921875 570.730469 345.59375 C 570.417969 345.265625 570.113281 344.925781 569.824219 344.578125 C 569.53125 344.230469 569.25 343.875 568.980469 343.507812 C 568.707031 343.144531 568.449219 342.769531 568.203125 342.386719 C 567.957031 342.007812 567.722656 341.617188 567.5 341.222656 C 567.277344 340.824219 567.066406 340.421875 566.867188 340.015625 C 566.671875 339.605469 566.488281 339.191406 566.316406 338.769531 C 566.144531 338.347656 565.984375 337.921875 565.839844 337.492188 C 565.695312 337.0625 565.5625 336.628906 565.445312 336.1875 C 565.324219 335.75 565.222656 335.308594 565.132812 334.863281 C 565.039062 334.417969 564.964844 333.96875 564.902344 333.519531 C 564.839844 333.070312 564.789062 332.617188 564.753906 332.164062 C 564.71875 331.710938 564.699219 331.257812 564.691406 330.804688 C 564.6875 330.351562 564.695312 329.894531 564.714844 329.441406 C 564.738281 328.988281 564.773438 328.535156 564.824219 328.085938 C 564.875 327.632812 564.9375 327.183594 565.015625 326.734375 C 565.09375 326.289062 565.1875 325.84375 565.292969 325.402344 C 565.398438 324.960938 565.519531 324.523438 565.652344 324.085938 C 565.785156 323.652344 565.929688 323.222656 566.089844 322.796875 C 566.25 322.371094 566.421875 321.953125 566.609375 321.539062 C 566.8125 321.082031 566.988281 320.617188 567.132812 320.140625 C 567.277344 319.664062 567.390625 319.179688 567.476562 318.6875 C 567.558594 318.195312 567.613281 317.703125 567.636719 317.203125 C 567.660156 316.707031 567.652344 316.207031 567.613281 315.710938 C 567.574219 315.214844 567.503906 314.722656 567.40625 314.234375 C 567.304688 313.746094 567.175781 313.265625 567.015625 312.792969 C 566.855469 312.320312 566.664062 311.859375 566.449219 311.410156 C 566.230469 310.960938 565.984375 310.53125 565.714844 310.109375 C 565.441406 309.691406 565.148438 309.292969 564.824219 308.914062 C 564.503906 308.53125 564.160156 308.171875 563.792969 307.832031 C 563.429688 307.496094 563.042969 307.179688 562.636719 306.890625 C 562.234375 306.597656 561.8125 306.335938 561.371094 306.097656 C 560.933594 305.859375 560.484375 305.648438 560.019531 305.46875 C 559.554688 305.285156 559.082031 305.132812 558.597656 305.011719 C 558.117188 304.886719 557.625 304.796875 557.132812 304.734375 C 556.636719 304.671875 556.140625 304.640625 555.640625 304.640625 Z M 555.640625 304.636719 " fill-opacity="1" fill-rule="nonzero"/></g><g fill="#ffffff" fill-opacity="1"><g transform="translate(468.304671, 677.293042)"><g><path d="M 29.25 -63.1875 C 35.90625 -63.1875 41.722656 -61.863281 46.703125 -59.21875 C 51.691406 -56.582031 55.550781 -52.878906 58.28125 -48.109375 C 61.007812 -43.335938 62.375 -37.832031 62.375 -31.59375 C 62.375 -25.40625 61.007812 -19.910156 58.28125 -15.109375 C 55.550781 -10.316406 51.679688 -6.597656 46.671875 -3.953125 C 41.660156 -1.316406 35.851562 0 29.25 0 L 5.578125 0 L 5.578125 -63.1875 Z M 28.265625 -13.3125 C 34.078125 -13.3125 38.601562 -14.898438 41.84375 -18.078125 C 45.082031 -21.265625 46.703125 -25.769531 46.703125 -31.59375 C 46.703125 -37.40625 45.082031 -41.929688 41.84375 -45.171875 C 38.601562 -48.421875 34.078125 -50.046875 28.265625 -50.046875 L 20.96875 -50.046875 L 20.96875 -13.3125 Z M 28.265625 -13.3125 "/></g></g></g><g fill="#ffffff" fill-opacity="1"><g transform="translate(533.734603, 677.293042)"><g><path d="M 13.3125 -55.4375 C 10.613281 -55.4375 8.410156 -56.226562 6.703125 -57.8125 C 4.992188 -59.40625 4.140625 -61.375 4.140625 -63.71875 C 4.140625 -66.113281 4.992188 -68.109375 6.703125 -69.703125 C 8.410156 -71.296875 10.613281 -72.09375 13.3125 -72.09375 C 15.957031 -72.09375 18.132812 -71.296875 19.84375 -69.703125 C 21.550781 -68.109375 22.40625 -66.113281 22.40625 -63.71875 C 22.40625 -61.375 21.550781 -59.40625 19.84375 -57.8125 C 18.132812 -56.226562 15.957031 -55.4375 13.3125 -55.4375 Z M 20.96875 -50.21875 L 20.96875 0 L 5.578125 0 L 5.578125 -50.21875 Z M 20.96875 -50.21875 "/></g></g></g><g fill="#ffffff" fill-opacity="1"><g transform="translate(560.284574, 677.293042)"><g><path d="M 28.171875 -14.40625 L 39.0625 -50.21875 L 55.4375 -50.21875 L 37.625 0 L 18.625 0 L 0.8125 -50.21875 L 17.28125 -50.21875 Z M 28.171875 -14.40625 "/></g></g></g><g fill="#ffffff" fill-opacity="1"><g transform="translate(616.624522, 677.293042)"><g><path d="M 52.921875 -25.921875 C 52.921875 -24.484375 52.832031 -22.984375 52.65625 -21.421875 L 17.8125 -21.421875 C 18.0625 -18.296875 19.066406 -15.910156 20.828125 -14.265625 C 22.597656 -12.617188 24.773438 -11.796875 27.359375 -11.796875 C 31.203125 -11.796875 33.875 -13.414062 35.375 -16.65625 L 51.75 -16.65625 C 50.90625 -13.351562 49.390625 -10.378906 47.203125 -7.734375 C 45.015625 -5.097656 42.269531 -3.03125 38.96875 -1.53125 C 35.664062 -0.03125 31.976562 0.71875 27.90625 0.71875 C 22.976562 0.71875 18.59375 -0.328125 14.75 -2.421875 C 10.914062 -4.523438 7.914062 -7.523438 5.75 -11.421875 C 3.59375 -15.328125 2.515625 -19.890625 2.515625 -25.109375 C 2.515625 -30.328125 3.578125 -34.882812 5.703125 -38.78125 C 7.835938 -42.6875 10.828125 -45.6875 14.671875 -47.78125 C 18.515625 -49.882812 22.925781 -50.9375 27.90625 -50.9375 C 32.757812 -50.9375 37.078125 -49.914062 40.859375 -47.875 C 44.640625 -45.832031 47.59375 -42.921875 49.71875 -39.140625 C 51.851562 -35.367188 52.921875 -30.960938 52.921875 -25.921875 Z M 37.171875 -29.96875 C 37.171875 -32.613281 36.269531 -34.710938 34.46875 -36.265625 C 32.664062 -37.828125 30.414062 -38.609375 27.71875 -38.609375 C 25.132812 -38.609375 22.957031 -37.859375 21.1875 -36.359375 C 19.425781 -34.859375 18.332031 -32.726562 17.90625 -29.96875 Z M 37.171875 -29.96875 "/></g></g></g><g fill="#ffffff" fill-opacity="1"><g transform="translate(672.064472, 677.293042)"><g><path d="M 20.96875 -41.84375 C 22.769531 -44.601562 25.019531 -46.78125 27.71875 -48.375 C 30.414062 -49.96875 33.414062 -50.765625 36.71875 -50.765625 L 36.71875 -34.46875 L 32.484375 -34.46875 C 28.648438 -34.46875 25.769531 -33.640625 23.84375 -31.984375 C 21.925781 -30.335938 20.96875 -27.445312 20.96875 -23.3125 L 20.96875 0 L 5.578125 0 L 5.578125 -50.21875 L 20.96875 -50.21875 Z M 20.96875 -41.84375 "/></g></g></g><g fill="#ffffff" fill-opacity="1"><g transform="translate(710.584436, 677.293042)"><g><path d="M 26.015625 0.71875 C 21.628906 0.71875 17.726562 -0.03125 14.3125 -1.53125 C 10.894531 -3.03125 8.191406 -5.082031 6.203125 -7.6875 C 4.222656 -10.300781 3.113281 -13.226562 2.875 -16.46875 L 18.09375 -16.46875 C 18.269531 -14.726562 19.078125 -13.316406 20.515625 -12.234375 C 21.960938 -11.160156 23.734375 -10.625 25.828125 -10.625 C 27.742188 -10.625 29.226562 -11 30.28125 -11.75 C 31.332031 -12.5 31.859375 -13.472656 31.859375 -14.671875 C 31.859375 -16.109375 31.109375 -17.171875 29.609375 -17.859375 C 28.109375 -18.554688 25.675781 -19.320312 22.3125 -20.15625 C 18.71875 -21 15.71875 -21.882812 13.3125 -22.8125 C 10.914062 -23.738281 8.847656 -25.207031 7.109375 -27.21875 C 5.367188 -29.226562 4.5 -31.945312 4.5 -35.375 C 4.5 -38.25 5.289062 -40.867188 6.875 -43.234375 C 8.46875 -45.609375 10.8125 -47.484375 13.90625 -48.859375 C 17 -50.242188 20.675781 -50.9375 24.9375 -50.9375 C 31.226562 -50.9375 36.1875 -49.375 39.8125 -46.25 C 43.445312 -43.132812 45.535156 -39 46.078125 -33.84375 L 31.859375 -33.84375 C 31.617188 -35.582031 30.851562 -36.960938 29.5625 -37.984375 C 28.269531 -39.003906 26.578125 -39.515625 24.484375 -39.515625 C 22.679688 -39.515625 21.300781 -39.164062 20.34375 -38.46875 C 19.382812 -37.78125 18.90625 -36.835938 18.90625 -35.640625 C 18.90625 -34.203125 19.664062 -33.117188 21.1875 -32.390625 C 22.71875 -31.671875 25.101562 -30.953125 28.34375 -30.234375 C 32.070312 -29.273438 35.101562 -28.332031 37.4375 -27.40625 C 39.78125 -26.476562 41.835938 -24.976562 43.609375 -22.90625 C 45.378906 -20.832031 46.289062 -18.054688 46.34375 -14.578125 C 46.34375 -11.640625 45.519531 -9.015625 43.875 -6.703125 C 42.226562 -4.390625 39.859375 -2.570312 36.765625 -1.25 C 33.671875 0.0585938 30.085938 0.71875 26.015625 0.71875 Z M 26.015625 0.71875 "/></g></g></g><g fill="#ffffff" fill-opacity="1"><g transform="translate(760.804381, 677.293042)"><g><path d="M 13.3125 -55.4375 C 10.613281 -55.4375 8.410156 -56.226562 6.703125 -57.8125 C 4.992188 -59.40625 4.140625 -61.375 4.140625 -63.71875 C 4.140625 -66.113281 4.992188 -68.109375 6.703125 -69.703125 C 8.410156 -71.296875 10.613281 -72.09375 13.3125 -72.09375 C 15.957031 -72.09375 18.132812 -71.296875 19.84375 -69.703125 C 21.550781 -68.109375 22.40625 -66.113281 22.40625 -63.71875 C 22.40625 -61.375 21.550781 -59.40625 19.84375 -57.8125 C 18.132812 -56.226562 15.957031 -55.4375 13.3125 -55.4375 Z M 20.96875 -50.21875 L 20.96875 0 L 5.578125 0 L 5.578125 -50.21875 Z M 20.96875 -50.21875 "/></g></g></g><g fill="#ffffff" fill-opacity="1"><g transform="translate(787.354352, 677.293042)"><g><path d="M 33.5625 -13.046875 L 33.5625 0 L 25.734375 0 C 20.160156 0 15.8125 -1.363281 12.6875 -4.09375 C 9.570312 -6.820312 8.015625 -11.273438 8.015625 -17.453125 L 8.015625 -37.4375 L 1.890625 -37.4375 L 1.890625 -50.21875 L 8.015625 -50.21875 L 8.015625 -62.453125 L 23.40625 -62.453125 L 23.40625 -50.21875 L 33.484375 -50.21875 L 33.484375 -37.4375 L 23.40625 -37.4375 L 23.40625 -17.28125 C 23.40625 -15.78125 23.765625 -14.695312 24.484375 -14.03125 C 25.203125 -13.375 26.398438 -13.046875 28.078125 -13.046875 Z M 33.5625 -13.046875 "/></g></g></g><g fill="#ffffff" fill-opacity="1"><g transform="translate(823.894328, 677.293042)"><g><path d="M 56.875 -50.21875 L 25.375 23.84375 L 8.8125 23.84375 L 20.34375 -1.703125 L -0.09375 -50.21875 L 17.09375 -50.21875 L 28.703125 -18.8125 L 40.234375 -50.21875 Z M 56.875 -50.21875 "/></g></g></g><g fill="#ffffff" fill-opacity="1"><g transform="translate(880.774254, 677.293042)"><g/></g></g><g fill="#ffffff" fill-opacity="1"><g transform="translate(899.854255, 677.293042)"><g><path d="M 53.90625 0 L 48.0625 -5.671875 C 42.238281 -1.234375 35.28125 0.984375 27.1875 0.984375 C 22.320312 0.984375 18.085938 0.191406 14.484375 -1.390625 C 10.890625 -2.984375 8.113281 -5.234375 6.15625 -8.140625 C 4.207031 -11.054688 3.234375 -14.460938 3.234375 -18.359375 C 3.234375 -22.316406 4.296875 -25.898438 6.421875 -29.109375 C 8.554688 -32.328125 11.753906 -34.953125 16.015625 -36.984375 C 14.460938 -38.910156 13.351562 -40.757812 12.6875 -42.53125 C 12.03125 -44.300781 11.703125 -46.234375 11.703125 -48.328125 C 11.703125 -51.328125 12.476562 -54.054688 14.03125 -56.515625 C 15.59375 -58.972656 17.859375 -60.90625 20.828125 -62.3125 C 23.804688 -63.726562 27.332031 -64.4375 31.40625 -64.4375 C 35.550781 -64.4375 39.0625 -63.6875 41.9375 -62.1875 C 44.820312 -60.6875 46.984375 -58.675781 48.421875 -56.15625 C 49.859375 -53.632812 50.519531 -50.875 50.40625 -47.875 L 35.90625 -47.875 C 35.96875 -49.5 35.5625 -50.742188 34.6875 -51.609375 C 33.820312 -52.484375 32.671875 -52.921875 31.234375 -52.921875 C 29.785156 -52.921875 28.582031 -52.5 27.625 -51.65625 C 26.664062 -50.820312 26.1875 -49.742188 26.1875 -48.421875 C 26.1875 -47.160156 26.59375 -45.835938 27.40625 -44.453125 C 28.21875 -43.078125 29.492188 -41.488281 31.234375 -39.6875 L 46.625 -24.65625 C 46.738281 -24.957031 46.898438 -25.316406 47.109375 -25.734375 C 47.328125 -26.160156 47.554688 -26.644531 47.796875 -27.1875 L 51.125 -32.84375 L 66.515625 -32.84375 L 62.1875 -25.015625 C 60.570312 -21.472656 58.710938 -18.113281 56.609375 -14.9375 L 71.8125 0 Z M 27.90625 -11.4375 C 31.925781 -11.4375 35.492188 -12.570312 38.609375 -14.84375 L 24.5625 -28.4375 C 20.25 -26.21875 18.09375 -23.21875 18.09375 -19.4375 C 18.09375 -17.15625 18.976562 -15.25 20.75 -13.71875 C 22.519531 -12.195312 24.90625 -11.4375 27.90625 -11.4375 Z M 27.90625 -11.4375 "/></g></g></g><g fill="#ffffff" fill-opacity="1"><g transform="translate(298.078117, 767.293037)"><g><path d="M 20.96875 -50.84375 L 20.96875 -38.0625 L 41.578125 -38.0625 L 41.578125 -26.1875 L 20.96875 -26.1875 L 20.96875 -12.328125 L 44.28125 -12.328125 L 44.28125 0 L 5.578125 0 L 5.578125 -63.1875 L 44.28125 -63.1875 L 44.28125 -50.84375 Z M 20.96875 -50.84375 "/></g></g></g><g fill="#ffffff" fill-opacity="1"><g transform="translate(346.768067, 767.293037)"><g><path d="M 2.515625 -25.015625 C 2.515625 -29.992188 3.550781 -34.429688 5.625 -38.328125 C 7.695312 -42.234375 10.488281 -45.28125 14 -47.46875 C 17.507812 -49.664062 21.332031 -50.765625 25.46875 -50.765625 C 28.644531 -50.765625 31.492188 -50.207031 34.015625 -49.09375 C 36.535156 -47.988281 38.578125 -46.441406 40.140625 -44.453125 L 40.140625 -50.21875 L 55.53125 -50.21875 L 55.53125 23.9375 L 40.140625 23.9375 L 40.140625 -6.296875 C 38.398438 -4.203125 36.285156 -2.523438 33.796875 -1.265625 C 31.304688 -0.00390625 28.472656 0.625 25.296875 0.625 C 21.210938 0.625 17.429688 -0.453125 13.953125 -2.609375 C 10.472656 -4.765625 7.695312 -7.789062 5.625 -11.6875 C 3.550781 -15.59375 2.515625 -20.035156 2.515625 -25.015625 Z M 40.140625 -25.109375 C 40.140625 -27.804688 39.613281 -30.070312 38.5625 -31.90625 C 37.507812 -33.738281 36.144531 -35.117188 34.46875 -36.046875 C 32.789062 -36.972656 31.019531 -37.4375 29.15625 -37.4375 C 27.351562 -37.4375 25.613281 -36.972656 23.9375 -36.046875 C 22.257812 -35.117188 20.878906 -33.722656 19.796875 -31.859375 C 18.722656 -29.992188 18.1875 -27.710938 18.1875 -25.015625 C 18.1875 -22.316406 18.722656 -20.050781 19.796875 -18.21875 C 20.878906 -16.394531 22.257812 -15.015625 23.9375 -14.078125 C 25.613281 -13.148438 27.351562 -12.6875 29.15625 -12.6875 C 30.957031 -12.6875 32.710938 -13.148438 34.421875 -14.078125 C 36.128906 -15.015625 37.507812 -16.410156 38.5625 -18.265625 C 39.613281 -20.128906 40.140625 -22.410156 40.140625 -25.109375 Z M 40.140625 -25.109375 "/></g></g></g><g fill="#ffffff" fill-opacity="1"><g transform="translate(407.878003, 767.293037)"><g><path d="M 55.171875 -50.21875 L 55.171875 0 L 39.78125 0 L 39.78125 -6.84375 C 38.21875 -4.625 36.101562 -2.835938 33.4375 -1.484375 C 30.769531 -0.128906 27.8125 0.546875 24.5625 0.546875 C 20.726562 0.546875 17.335938 -0.304688 14.390625 -2.015625 C 11.453125 -3.734375 9.171875 -6.210938 7.546875 -9.453125 C 5.929688 -12.691406 5.125 -16.5 5.125 -20.875 L 5.125 -50.21875 L 20.4375 -50.21875 L 20.4375 -22.953125 C 20.4375 -19.585938 21.304688 -16.972656 23.046875 -15.109375 C 24.785156 -13.253906 27.125 -12.328125 30.0625 -12.328125 C 33.0625 -12.328125 35.429688 -13.253906 37.171875 -15.109375 C 38.910156 -16.972656 39.78125 -19.585938 39.78125 -22.953125 L 39.78125 -50.21875 Z M 55.171875 -50.21875 "/></g></g></g><g fill="#ffffff" fill-opacity="1"><g transform="translate(468.537947, 767.293037)"><g><path d="M 2.515625 -25.203125 C 2.515625 -30.359375 3.488281 -34.882812 5.4375 -38.78125 C 7.394531 -42.6875 10.050781 -45.6875 13.40625 -47.78125 C 16.769531 -49.882812 20.519531 -50.9375 24.65625 -50.9375 C 28.195312 -50.9375 31.300781 -50.21875 33.96875 -48.78125 C 36.644531 -47.34375 38.703125 -45.453125 40.140625 -43.109375 L 40.140625 -50.21875 L 55.53125 -50.21875 L 55.53125 0 L 40.140625 0 L 40.140625 -7.109375 C 38.640625 -4.765625 36.550781 -2.875 33.875 -1.4375 C 31.207031 0 28.101562 0.71875 24.5625 0.71875 C 20.488281 0.71875 16.769531 -0.34375 13.40625 -2.46875 C 10.050781 -4.601562 7.394531 -7.632812 5.4375 -11.5625 C 3.488281 -15.488281 2.515625 -20.035156 2.515625 -25.203125 Z M 40.140625 -25.109375 C 40.140625 -28.953125 39.070312 -31.984375 36.9375 -34.203125 C 34.8125 -36.421875 32.21875 -37.53125 29.15625 -37.53125 C 26.09375 -37.53125 23.5 -36.429688 21.375 -34.234375 C 19.25 -32.046875 18.1875 -29.035156 18.1875 -25.203125 C 18.1875 -21.359375 19.25 -18.3125 21.375 -16.0625 C 23.5 -13.8125 26.09375 -12.6875 29.15625 -12.6875 C 32.21875 -12.6875 34.8125 -13.796875 36.9375 -16.015625 C 39.070312 -18.234375 40.140625 -21.265625 40.140625 -25.109375 Z M 40.140625 -25.109375 "/></g></g></g><g fill="#ffffff" fill-opacity="1"><g transform="translate(529.647883, 767.293037)"><g><path d="M 20.96875 -66.59375 L 20.96875 0 L 5.578125 0 L 5.578125 -66.59375 Z M 20.96875 -66.59375 "/></g></g></g><g fill="#ffffff" fill-opacity="1"><g transform="translate(556.197854, 767.293037)"><g/></g></g><g fill="#ffffff" fill-opacity="1"><g transform="translate(575.277832, 767.293037)"><g><path d="M 35.453125 0.625 C 29.515625 0.625 24.070312 -0.753906 19.125 -3.515625 C 14.175781 -6.273438 10.242188 -10.128906 7.328125 -15.078125 C 4.421875 -20.023438 2.96875 -25.585938 2.96875 -31.765625 C 2.96875 -37.953125 4.421875 -43.503906 7.328125 -48.421875 C 10.242188 -53.335938 14.175781 -57.175781 19.125 -59.9375 C 24.070312 -62.695312 29.515625 -64.078125 35.453125 -64.078125 C 41.398438 -64.078125 46.847656 -62.695312 51.796875 -59.9375 C 56.742188 -57.175781 60.640625 -53.335938 63.484375 -48.421875 C 66.335938 -43.503906 67.765625 -37.953125 67.765625 -31.765625 C 67.765625 -25.585938 66.320312 -20.023438 63.4375 -15.078125 C 60.5625 -10.128906 56.664062 -6.273438 51.75 -3.515625 C 46.832031 -0.753906 41.398438 0.625 35.453125 0.625 Z M 35.453125 -13.40625 C 40.492188 -13.40625 44.53125 -15.082031 47.5625 -18.4375 C 50.59375 -21.800781 52.109375 -26.242188 52.109375 -31.765625 C 52.109375 -37.347656 50.59375 -41.800781 47.5625 -45.125 C 44.53125 -48.457031 40.492188 -50.125 35.453125 -50.125 C 30.359375 -50.125 26.296875 -48.472656 23.265625 -45.171875 C 20.234375 -41.878906 18.71875 -37.410156 18.71875 -31.765625 C 18.71875 -26.191406 20.234375 -21.738281 23.265625 -18.40625 C 26.296875 -15.070312 30.359375 -13.40625 35.453125 -13.40625 Z M 35.453125 -13.40625 "/></g></g></g><g fill="#ffffff" fill-opacity="1"><g transform="translate(646.017766, 767.293037)"><g><path d="M 20.96875 -43.109375 C 22.46875 -45.453125 24.535156 -47.34375 27.171875 -48.78125 C 29.816406 -50.21875 32.910156 -50.9375 36.453125 -50.9375 C 40.585938 -50.9375 44.332031 -49.882812 47.6875 -47.78125 C 51.050781 -45.6875 53.707031 -42.6875 55.65625 -38.78125 C 57.613281 -34.882812 58.59375 -30.359375 58.59375 -25.203125 C 58.59375 -20.035156 57.613281 -15.488281 55.65625 -11.5625 C 53.707031 -7.632812 51.050781 -4.601562 47.6875 -2.46875 C 44.332031 -0.34375 40.585938 0.71875 36.453125 0.71875 C 32.972656 0.71875 29.894531 0 27.21875 -1.4375 C 24.550781 -2.875 22.46875 -4.734375 20.96875 -7.015625 L 20.96875 23.9375 L 5.578125 23.9375 L 5.578125 -50.21875 L 20.96875 -50.21875 Z M 42.9375 -25.203125 C 42.9375 -29.035156 41.867188 -32.046875 39.734375 -34.234375 C 37.609375 -36.429688 34.984375 -37.53125 31.859375 -37.53125 C 28.796875 -37.53125 26.195312 -36.421875 24.0625 -34.203125 C 21.9375 -31.984375 20.875 -28.953125 20.875 -25.109375 C 20.875 -21.265625 21.9375 -18.234375 24.0625 -16.015625 C 26.195312 -13.796875 28.796875 -12.6875 31.859375 -12.6875 C 34.921875 -12.6875 37.53125 -13.8125 39.6875 -16.0625 C 41.851562 -18.3125 42.9375 -21.359375 42.9375 -25.203125 Z M 42.9375 -25.203125 "/></g></g></g><g fill="#ffffff" fill-opacity="1"><g transform="translate(707.127702, 767.293037)"><g><path d="M 20.96875 -43.109375 C 22.46875 -45.453125 24.535156 -47.34375 27.171875 -48.78125 C 29.816406 -50.21875 32.910156 -50.9375 36.453125 -50.9375 C 40.585938 -50.9375 44.332031 -49.882812 47.6875 -47.78125 C 51.050781 -45.6875 53.707031 -42.6875 55.65625 -38.78125 C 57.613281 -34.882812 58.59375 -30.359375 58.59375 -25.203125 C 58.59375 -20.035156 57.613281 -15.488281 55.65625 -11.5625 C 53.707031 -7.632812 51.050781 -4.601562 47.6875 -2.46875 C 44.332031 -0.34375 40.585938 0.71875 36.453125 0.71875 C 32.972656 0.71875 29.894531 0 27.21875 -1.4375 C 24.550781 -2.875 22.46875 -4.734375 20.96875 -7.015625 L 20.96875 23.9375 L 5.578125 23.9375 L 5.578125 -50.21875 L 20.96875 -50.21875 Z M 42.9375 -25.203125 C 42.9375 -29.035156 41.867188 -32.046875 39.734375 -34.234375 C 37.609375 -36.429688 34.984375 -37.53125 31.859375 -37.53125 C 28.796875 -37.53125 26.195312 -36.421875 24.0625 -34.203125 C 21.9375 -31.984375 20.875 -28.953125 20.875 -25.109375 C 20.875 -21.265625 21.9375 -18.234375 24.0625 -16.015625 C 26.195312 -13.796875 28.796875 -12.6875 31.859375 -12.6875 C 34.921875 -12.6875 37.53125 -13.8125 39.6875 -16.0625 C 41.851562 -18.3125 42.9375 -21.359375 42.9375 -25.203125 Z M 42.9375 -25.203125 "/></g></g></g><g fill="#ffffff" fill-opacity="1"><g transform="translate(768.237638, 767.293037)"><g><path d="M 28.4375 0.71875 C 23.519531 0.71875 19.09375 -0.328125 15.15625 -2.421875 C 11.226562 -4.523438 8.140625 -7.523438 5.890625 -11.421875 C 3.640625 -15.328125 2.515625 -19.890625 2.515625 -25.109375 C 2.515625 -30.265625 3.65625 -34.804688 5.9375 -38.734375 C 8.21875 -42.671875 11.335938 -45.6875 15.296875 -47.78125 C 19.253906 -49.882812 23.695312 -50.9375 28.625 -50.9375 C 33.539062 -50.9375 37.976562 -49.882812 41.9375 -47.78125 C 45.894531 -45.6875 49.015625 -42.671875 51.296875 -38.734375 C 53.578125 -34.804688 54.71875 -30.265625 54.71875 -25.109375 C 54.71875 -19.953125 53.5625 -15.40625 51.25 -11.46875 C 48.945312 -7.539062 45.796875 -4.523438 41.796875 -2.421875 C 37.804688 -0.328125 33.351562 0.71875 28.4375 0.71875 Z M 28.4375 -12.59375 C 31.375 -12.59375 33.878906 -13.671875 35.953125 -15.828125 C 38.023438 -17.992188 39.0625 -21.085938 39.0625 -25.109375 C 39.0625 -29.128906 38.054688 -32.21875 36.046875 -34.375 C 34.035156 -36.539062 31.5625 -37.625 28.625 -37.625 C 25.625 -37.625 23.132812 -36.554688 21.15625 -34.421875 C 19.175781 -32.296875 18.1875 -29.191406 18.1875 -25.109375 C 18.1875 -21.085938 19.160156 -17.992188 21.109375 -15.828125 C 23.054688 -13.671875 25.5 -12.59375 28.4375 -12.59375 Z M 28.4375 -12.59375 "/></g></g></g><g fill="#ffffff" fill-opacity="1"><g transform="translate(825.567591, 767.293037)"><g><path d="M 20.96875 -41.84375 C 22.769531 -44.601562 25.019531 -46.78125 27.71875 -48.375 C 30.414062 -49.96875 33.414062 -50.765625 36.71875 -50.765625 L 36.71875 -34.46875 L 32.484375 -34.46875 C 28.648438 -34.46875 25.769531 -33.640625 23.84375 -31.984375 C 21.925781 -30.335938 20.96875 -27.445312 20.96875 -23.3125 L 20.96875 0 L 5.578125 0 L 5.578125 -50.21875 L 20.96875 -50.21875 Z M 20.96875 -41.84375 "/></g></g></g><g fill="#ffffff" fill-opacity="1"><g transform="translate(864.087532, 767.293037)"><g><path d="M 33.5625 -13.046875 L 33.5625 0 L 25.734375 0 C 20.160156 0 15.8125 -1.363281 12.6875 -4.09375 C 9.570312 -6.820312 8.015625 -11.273438 8.015625 -17.453125 L 8.015625 -37.4375 L 1.890625 -37.4375 L 1.890625 -50.21875 L 8.015625 -50.21875 L 8.015625 -62.453125 L 23.40625 -62.453125 L 23.40625 -50.21875 L 33.484375 -50.21875 L 33.484375 -37.4375 L 23.40625 -37.4375 L 23.40625 -17.28125 C 23.40625 -15.78125 23.765625 -14.695312 24.484375 -14.03125 C 25.203125 -13.375 26.398438 -13.046875 28.078125 -13.046875 Z M 33.5625 -13.046875 "/></g></g></g><g fill="#ffffff" fill-opacity="1"><g transform="translate(900.627508, 767.293037)"><g><path d="M 55.171875 -50.21875 L 55.171875 0 L 39.78125 0 L 39.78125 -6.84375 C 38.21875 -4.625 36.101562 -2.835938 33.4375 -1.484375 C 30.769531 -0.128906 27.8125 0.546875 24.5625 0.546875 C 20.726562 0.546875 17.335938 -0.304688 14.390625 -2.015625 C 11.453125 -3.734375 9.171875 -6.210938 7.546875 -9.453125 C 5.929688 -12.691406 5.125 -16.5 5.125 -20.875 L 5.125 -50.21875 L 20.4375 -50.21875 L 20.4375 -22.953125 C 20.4375 -19.585938 21.304688 -16.972656 23.046875 -15.109375 C 24.785156 -13.253906 27.125 -12.328125 30.0625 -12.328125 C 33.0625 -12.328125 35.429688 -13.253906 37.171875 -15.109375 C 38.910156 -16.972656 39.78125 -19.585938 39.78125 -22.953125 L 39.78125 -50.21875 Z M 55.171875 -50.21875 "/></g></g></g><g fill="#ffffff" fill-opacity="1"><g transform="translate(961.287463, 767.293037)"><g><path d="M 36.1875 -50.765625 C 42.0625 -50.765625 46.753906 -48.859375 50.265625 -45.046875 C 53.773438 -41.234375 55.53125 -36 55.53125 -29.34375 L 55.53125 0 L 40.234375 0 L 40.234375 -27.265625 C 40.234375 -30.628906 39.363281 -33.238281 37.625 -35.09375 C 35.882812 -36.957031 33.539062 -37.890625 30.59375 -37.890625 C 27.65625 -37.890625 25.316406 -36.957031 23.578125 -35.09375 C 21.835938 -33.238281 20.96875 -30.628906 20.96875 -27.265625 L 20.96875 0 L 5.578125 0 L 5.578125 -50.21875 L 20.96875 -50.21875 L 20.96875 -43.5625 C 22.53125 -45.78125 24.628906 -47.535156 27.265625 -48.828125 C 29.910156 -50.117188 32.882812 -50.765625 36.1875 -50.765625 Z M 36.1875 -50.765625 "/></g></g></g><g fill="#ffffff" fill-opacity="1"><g transform="translate(1021.947372, 767.293037)"><g><path d="M 13.3125 -55.4375 C 10.613281 -55.4375 8.410156 -56.226562 6.703125 -57.8125 C 4.992188 -59.40625 4.140625 -61.375 4.140625 -63.71875 C 4.140625 -66.113281 4.992188 -68.109375 6.703125 -69.703125 C 8.410156 -71.296875 10.613281 -72.09375 13.3125 -72.09375 C 15.957031 -72.09375 18.132812 -71.296875 19.84375 -69.703125 C 21.550781 -68.109375 22.40625 -66.113281 22.40625 -63.71875 C 22.40625 -61.375 21.550781 -59.40625 19.84375 -57.8125 C 18.132812 -56.226562 15.957031 -55.4375 13.3125 -55.4375 Z M 20.96875 -50.21875 L 20.96875 0 L 5.578125 0 L 5.578125 -50.21875 Z M 20.96875 -50.21875 "/></g></g></g><g fill="#ffffff" fill-opacity="1"><g transform="translate(1048.497389, 767.293037)"><g><path d="M 33.5625 -13.046875 L 33.5625 0 L 25.734375 0 C 20.160156 0 15.8125 -1.363281 12.6875 -4.09375 C 9.570312 -6.820312 8.015625 -11.273438 8.015625 -17.453125 L 8.015625 -37.4375 L 1.890625 -37.4375 L 1.890625 -50.21875 L 8.015625 -50.21875 L 8.015625 -62.453125 L 23.40625 -62.453125 L 23.40625 -50.21875 L 33.484375 -50.21875 L 33.484375 -37.4375 L 23.40625 -37.4375 L 23.40625 -17.28125 C 23.40625 -15.78125 23.765625 -14.695312 24.484375 -14.03125 C 25.203125 -13.375 26.398438 -13.046875 28.078125 -13.046875 Z M 33.5625 -13.046875 "/></g></g></g><g fill="#ffffff" fill-opacity="1"><g transform="translate(1085.037365, 767.293037)"><g><path d="M 56.875 -50.21875 L 25.375 23.84375 L 8.8125 23.84375 L 20.34375 -1.703125 L -0.09375 -50.21875 L 17.09375 -50.21875 L 28.703125 -18.8125 L 40.234375 -50.21875 Z M 56.875 -50.21875 "/></g></g></g></svg>