<svg xmlns="http://www.w3.org/2000/svg" xmlns:xlink="http://www.w3.org/1999/xlink" width="1920" zoomAndPan="magnify" viewBox="0 0 1440 809.999993" height="1080" preserveAspectRatio="xMidYMid meet" version="1.0"><defs><g/><clipPath id="14d2cf5324"><rect x="0" width="1440" y="0" height="810"/></clipPath><clipPath id="4757c9245d"><path d="M 56.25 0 L 1383.75 0 C 1398.667969 0 1412.976562 5.925781 1423.523438 16.476562 C 1434.074219 27.023438 1440 41.332031 1440 56.25 L 1440 753.84375 C 1440 768.761719 1434.074219 783.070312 1423.523438 793.617188 C 1412.976562 804.167969 1398.667969 810.09375 1383.75 810.09375 L 56.25 810.09375 C 41.332031 810.09375 27.023438 804.167969 16.476562 793.617188 C 5.925781 783.070312 0 768.761719 0 753.84375 L 0 56.25 C 0 41.332031 5.925781 27.023438 16.476562 16.476562 C 27.023438 5.925781 41.332031 0 56.25 0 Z M 56.25 0 " clip-rule="nonzero"/></clipPath><clipPath id="04ca980df2"><path d="M 0 0 L 1440 0 L 1440 810 L 0 810 Z M 0 0 " clip-rule="nonzero"/></clipPath><clipPath id="441f2cc977"><path d="M 56.25 0 L 1383.75 0 C 1398.667969 0 1412.976562 5.925781 1423.523438 16.476562 C 1434.074219 27.023438 1440 41.332031 1440 56.25 L 1440 753.84375 C 1440 768.761719 1434.074219 783.070312 1423.523438 793.617188 C 1412.976562 804.167969 1398.667969 810.09375 1383.75 810.09375 L 56.25 810.09375 C 41.332031 810.09375 27.023438 804.167969 16.476562 793.617188 C 5.925781 783.070312 0 768.761719 0 753.84375 L 0 56.25 C 0 41.332031 5.925781 27.023438 16.476562 16.476562 C 27.023438 5.925781 41.332031 0 56.25 0 Z M 56.25 0 " clip-rule="nonzero"/></clipPath><clipPath id="362e3815b4"><rect x="0" width="1440" y="0" height="810"/></clipPath><clipPath id="c479fdf7cf"><path d="M 475 51.128906 L 656 51.128906 L 656 231 L 475 231 Z M 475 51.128906 " clip-rule="nonzero"/></clipPath><clipPath id="7ff3b441fc"><path d="M 408.871094 239 L 660 239 L 660 478 L 408.871094 478 Z M 408.871094 239 " clip-rule="nonzero"/></clipPath><clipPath id="f4c3725137"><path d="M 783 51.128906 L 963 51.128906 L 963 231 L 783 231 Z M 783 51.128906 " clip-rule="nonzero"/></clipPath><clipPath id="ac28a54ed4"><path d="M 786 239 L 1031.371094 239 L 1031.371094 477 L 786 477 Z M 786 239 " clip-rule="nonzero"/></clipPath><clipPath id="fb7291088c"><path d="M 566 333 L 882 333 L 882 571.628906 L 566 571.628906 Z M 566 333 " clip-rule="nonzero"/></clipPath></defs><rect x="-144" width="1728" fill="#ffffff" y="-80.999999" height="971.999992" fill-opacity="1"/><rect x="-144" width="1728" fill="#ffffff" y="-80.999999" height="971.999992" fill-opacity="1"/><g transform="matrix(1, 0, 0, 1, 0, 0.000000000000039746)"><g clip-path="url(#14d2cf5324)"><path fill="#eae8e5" d="M 0 0 L 1439.648438 0 L 1439.648438 810 L 0 810 Z M 0 0 " fill-opacity="1" fill-rule="nonzero"/></g></g><g clip-path="url(#4757c9245d)"><g transform="matrix(1, 0, 0, 1, 0, 0.000000000000039746)"><g clip-path="url(#362e3815b4)"><g clip-path="url(#04ca980df2)"><g clip-path="url(#441f2cc977)"><path fill="#24a8ff" d="M 0 0 L 1439.816406 0 L 1439.816406 810.09375 L 0 810.09375 Z M 0 0 " fill-opacity="1" fill-rule="nonzero"/></g></g></g></g></g><g clip-path="url(#c479fdf7cf)"><path fill="#ffffff" d="M 565.734375 230.980469 C 570.550781 230.988281 575.339844 230.609375 580.097656 229.84375 C 584.851562 229.078125 589.515625 227.9375 594.089844 226.421875 C 598.660156 224.902344 603.082031 223.027344 607.351562 220.792969 C 611.621094 218.5625 615.679688 216 619.535156 213.113281 C 620.734375 207.394531 622.394531 201.816406 624.515625 196.375 C 626.636719 190.929688 629.191406 185.699219 632.179688 180.679688 C 635.164062 175.660156 638.546875 170.921875 642.320312 166.464844 C 646.09375 162.003906 650.207031 157.886719 654.664062 154.109375 C 655.285156 149.800781 655.59375 145.472656 655.59375 141.121094 C 655.59375 139.648438 655.558594 138.179688 655.488281 136.710938 C 655.414062 135.242188 655.308594 133.777344 655.164062 132.3125 C 655.019531 130.847656 654.839844 129.390625 654.621094 127.933594 C 654.40625 126.480469 654.15625 125.03125 653.867188 123.589844 C 653.582031 122.144531 653.261719 120.710938 652.902344 119.285156 C 652.546875 117.859375 652.152344 116.441406 651.726562 115.035156 C 651.300781 113.628906 650.839844 112.230469 650.34375 110.847656 C 649.847656 109.460938 649.316406 108.089844 648.753906 106.730469 C 648.191406 105.371094 647.597656 104.027344 646.96875 102.699219 C 646.339844 101.371094 645.679688 100.058594 644.984375 98.761719 C 644.292969 97.460938 643.566406 96.183594 642.8125 94.921875 C 642.054688 93.660156 641.269531 92.417969 640.453125 91.195312 C 639.632812 89.972656 638.789062 88.769531 637.910156 87.589844 C 637.035156 86.410156 636.132812 85.25 635.199219 84.113281 C 634.265625 82.976562 633.304688 81.863281 632.316406 80.773438 C 631.328125 79.683594 630.316406 78.617188 629.277344 77.578125 C 628.234375 76.539062 627.171875 75.523438 626.082031 74.539062 C 624.992188 73.550781 623.878906 72.589844 622.742188 71.65625 C 621.605469 70.722656 620.445312 69.820312 619.265625 68.941406 C 618.082031 68.066406 616.882812 67.21875 615.660156 66.402344 C 614.4375 65.585938 613.195312 64.800781 611.933594 64.042969 C 610.671875 63.289062 609.390625 62.5625 608.09375 61.871094 C 606.796875 61.175781 605.484375 60.515625 604.15625 59.886719 C 602.824219 59.257812 601.480469 58.664062 600.125 58.097656 C 598.765625 57.535156 597.394531 57.007812 596.007812 56.511719 C 594.625 56.015625 593.226562 55.554688 591.820312 55.128906 C 590.414062 54.703125 588.996094 54.308594 587.570312 53.953125 C 586.144531 53.59375 584.707031 53.273438 583.265625 52.984375 C 581.824219 52.699219 580.375 52.449219 578.921875 52.230469 C 577.464844 52.015625 576.007812 51.835938 574.542969 51.691406 C 573.078125 51.546875 571.613281 51.441406 570.144531 51.367188 C 568.675781 51.296875 567.207031 51.257812 565.734375 51.257812 C 564.265625 51.257812 562.792969 51.296875 561.324219 51.367188 C 559.855469 51.441406 558.390625 51.546875 556.925781 51.691406 C 555.464844 51.835938 554.003906 52.015625 552.550781 52.230469 C 551.09375 52.449219 549.648438 52.699219 548.203125 52.984375 C 546.761719 53.273438 545.328125 53.59375 543.902344 53.953125 C 542.472656 54.308594 541.058594 54.703125 539.648438 55.128906 C 538.242188 55.554688 536.847656 56.015625 535.460938 56.511719 C 534.078125 57.007812 532.707031 57.535156 531.347656 58.097656 C 529.988281 58.664062 528.644531 59.257812 527.316406 59.886719 C 525.984375 60.515625 524.671875 61.175781 523.375 61.871094 C 522.078125 62.5625 520.800781 63.289062 519.539062 64.042969 C 518.277344 64.800781 517.035156 65.585938 515.8125 66.402344 C 514.589844 67.21875 513.386719 68.066406 512.207031 68.941406 C 511.023438 69.820312 509.863281 70.722656 508.726562 71.65625 C 507.589844 72.589844 506.476562 73.550781 505.386719 74.539062 C 504.300781 75.523438 503.234375 76.539062 502.195312 77.578125 C 501.15625 78.617188 500.140625 79.683594 499.152344 80.773438 C 498.164062 81.863281 497.203125 82.976562 496.273438 84.113281 C 495.339844 85.25 494.433594 86.410156 493.558594 87.589844 C 492.683594 88.769531 491.835938 89.972656 491.019531 91.195312 C 490.203125 92.417969 489.414062 93.660156 488.660156 94.921875 C 487.902344 96.183594 487.179688 97.460938 486.484375 98.761719 C 485.792969 100.058594 485.132812 101.371094 484.503906 102.699219 C 483.875 104.027344 483.277344 105.371094 482.714844 106.730469 C 482.152344 108.089844 481.621094 109.460938 481.128906 110.847656 C 480.632812 112.230469 480.171875 113.628906 479.742188 115.035156 C 479.316406 116.441406 478.925781 117.859375 478.566406 119.285156 C 478.210938 120.710938 477.886719 122.144531 477.601562 123.589844 C 477.316406 125.03125 477.0625 126.480469 476.847656 127.933594 C 476.632812 129.390625 476.453125 130.847656 476.308594 132.3125 C 476.164062 133.773438 476.054688 135.242188 475.984375 136.710938 C 475.910156 138.179688 475.875 139.648438 475.875 141.121094 C 475.875 142.589844 475.910156 144.058594 475.984375 145.527344 C 476.054688 146.996094 476.164062 148.464844 476.308594 149.925781 C 476.453125 151.390625 476.632812 152.851562 476.847656 154.304688 C 477.0625 155.757812 477.316406 157.207031 477.601562 158.652344 C 477.886719 160.09375 478.210938 161.527344 478.566406 162.953125 C 478.925781 164.378906 479.316406 165.796875 479.742188 167.203125 C 480.171875 168.613281 480.632812 170.007812 481.128906 171.394531 C 481.621094 172.777344 482.152344 174.148438 482.714844 175.507812 C 483.277344 176.867188 483.875 178.210938 484.503906 179.539062 C 485.132812 180.871094 485.792969 182.183594 486.484375 183.480469 C 487.179688 184.777344 487.902344 186.054688 488.660156 187.316406 C 489.414062 188.578125 490.203125 189.820312 491.019531 191.042969 C 491.835938 192.265625 492.683594 193.46875 493.558594 194.648438 C 494.433594 195.832031 495.339844 196.988281 496.273438 198.125 C 497.203125 199.261719 498.164062 200.375 499.152344 201.464844 C 500.140625 202.554688 501.15625 203.621094 502.195312 204.660156 C 503.234375 205.699219 504.300781 206.714844 505.386719 207.703125 C 506.476562 208.691406 507.589844 209.648438 508.726562 210.582031 C 509.863281 211.515625 511.023438 212.421875 512.207031 213.296875 C 513.386719 214.171875 514.589844 215.019531 515.8125 215.835938 C 517.035156 216.652344 518.277344 217.441406 519.539062 218.195312 C 520.800781 218.953125 522.078125 219.675781 523.375 220.371094 C 524.671875 221.0625 525.984375 221.722656 527.316406 222.351562 C 528.644531 222.980469 529.988281 223.578125 531.347656 224.140625 C 532.707031 224.703125 534.078125 225.230469 535.460938 225.726562 C 536.847656 226.222656 538.242188 226.683594 539.648438 227.109375 C 541.058594 227.539062 542.472656 227.929688 543.902344 228.285156 C 545.328125 228.644531 546.761719 228.964844 548.203125 229.253906 C 549.648438 229.539062 551.09375 229.792969 552.550781 230.007812 C 554.003906 230.222656 555.464844 230.402344 556.925781 230.546875 C 558.390625 230.691406 559.855469 230.800781 561.324219 230.871094 C 562.792969 230.945312 564.265625 230.980469 565.734375 230.980469 Z M 565.734375 230.980469 " fill-opacity="1" fill-rule="nonzero"/></g><g clip-path="url(#7ff3b441fc)"><path fill="#ffffff" d="M 660 319.570312 C 656.886719 317.257812 653.910156 314.78125 651.066406 312.140625 C 648.226562 309.5 645.535156 306.710938 643.003906 303.773438 C 640.46875 300.839844 638.101562 297.773438 635.902344 294.574219 C 633.707031 291.378906 631.691406 288.070312 629.859375 284.652344 C 628.023438 281.234375 626.382812 277.726562 624.9375 274.125 C 623.488281 270.527344 622.246094 266.859375 621.199219 263.125 C 620.15625 259.386719 619.320312 255.605469 618.695312 251.777344 C 618.066406 247.949219 617.652344 244.097656 617.445312 240.226562 C 613.058594 239.734375 608.660156 239.488281 604.246094 239.492188 L 528.320312 239.492188 C 526.367188 239.492188 524.410156 239.539062 522.460938 239.632812 C 520.507812 239.730469 518.558594 239.875 516.613281 240.066406 C 514.667969 240.257812 512.726562 240.496094 510.792969 240.785156 C 508.859375 241.070312 506.933594 241.40625 505.015625 241.785156 C 503.101562 242.167969 501.191406 242.59375 499.296875 243.070312 C 497.398438 243.546875 495.515625 244.066406 493.644531 244.632812 C 491.777344 245.203125 489.917969 245.816406 488.078125 246.472656 C 486.238281 247.132812 484.414062 247.835938 482.609375 248.582031 C 480.804688 249.332031 479.015625 250.125 477.25 250.960938 C 475.480469 251.796875 473.738281 252.671875 472.011719 253.59375 C 470.289062 254.515625 468.589844 255.480469 466.910156 256.484375 C 465.234375 257.488281 463.582031 258.535156 461.957031 259.621094 C 460.332031 260.707031 458.734375 261.832031 457.164062 262.996094 C 455.59375 264.160156 454.054688 265.363281 452.542969 266.605469 C 451.03125 267.84375 449.550781 269.121094 448.101562 270.433594 C 446.65625 271.746094 445.238281 273.09375 443.855469 274.476562 C 442.476562 275.859375 441.128906 277.273438 439.816406 278.722656 C 438.5 280.171875 437.226562 281.652344 435.984375 283.164062 C 434.746094 284.671875 433.542969 286.214844 432.378906 287.785156 C 431.214844 289.355469 430.089844 290.953125 429.003906 292.578125 C 427.917969 294.203125 426.871094 295.855469 425.867188 297.53125 C 424.859375 299.207031 423.898438 300.90625 422.976562 302.632812 C 422.054688 304.355469 421.175781 306.101562 420.339844 307.867188 C 419.503906 309.636719 418.710938 311.421875 417.964844 313.230469 C 417.214844 315.035156 416.511719 316.859375 415.855469 318.699219 C 415.195312 320.539062 414.582031 322.394531 414.015625 324.265625 C 413.449219 326.136719 412.925781 328.019531 412.449219 329.914062 C 411.976562 331.8125 411.546875 333.71875 411.167969 335.636719 C 410.785156 337.554688 410.449219 339.480469 410.164062 341.414062 C 409.878906 343.347656 409.636719 345.285156 409.445312 347.230469 C 409.253906 349.175781 409.109375 351.125 409.015625 353.078125 C 408.917969 355.03125 408.871094 356.984375 408.871094 358.941406 L 408.871094 449.023438 C 408.871094 449.023438 478.875 473.910156 550.320312 477.34375 L 550.320312 452.496094 C 550.320312 450.550781 550.367188 448.605469 550.453125 446.660156 C 550.539062 444.71875 550.667969 442.777344 550.835938 440.839844 C 551.007812 438.902344 551.21875 436.96875 551.472656 435.039062 C 551.726562 433.109375 552.019531 431.1875 552.355469 429.269531 C 552.691406 427.355469 553.070312 425.445312 553.488281 423.546875 C 553.90625 421.648438 554.363281 419.757812 554.863281 417.875 C 555.363281 415.996094 555.902344 414.128906 556.480469 412.269531 C 557.0625 410.414062 557.679688 408.570312 558.339844 406.738281 C 559 404.910156 559.699219 403.09375 560.433594 401.292969 C 561.171875 399.492188 561.949219 397.707031 562.761719 395.941406 C 563.578125 394.175781 564.429688 392.425781 565.316406 390.695312 C 566.207031 388.964844 567.132812 387.253906 568.097656 385.5625 C 569.058594 383.875 570.058594 382.203125 571.09375 380.558594 C 572.128906 378.910156 573.195312 377.285156 574.300781 375.683594 C 575.40625 374.082031 576.542969 372.503906 577.71875 370.953125 C 578.890625 369.402344 580.09375 367.875 581.332031 366.375 C 582.570312 364.871094 583.839844 363.398438 585.144531 361.953125 C 586.445312 360.507812 587.777344 359.089844 589.140625 357.703125 C 590.5 356.3125 591.894531 354.953125 593.316406 353.625 C 594.734375 352.296875 596.183594 351 597.660156 349.734375 C 599.140625 348.464844 600.640625 347.234375 602.171875 346.03125 C 603.703125 344.828125 605.257812 343.660156 606.835938 342.527344 C 608.417969 341.390625 610.023438 340.292969 611.648438 339.226562 C 613.277344 338.160156 614.925781 337.128906 616.597656 336.136719 C 618.269531 335.140625 619.964844 334.183594 621.675781 333.261719 C 623.390625 332.339844 625.121094 331.453125 626.875 330.605469 C 628.625 329.757812 630.394531 328.949219 632.179688 328.179688 C 633.964844 327.40625 635.765625 326.675781 637.585938 325.980469 C 639.402344 325.289062 641.234375 324.632812 643.082031 324.019531 C 644.925781 323.402344 646.785156 322.828125 648.65625 322.292969 C 650.523438 321.757812 652.40625 321.265625 654.296875 320.808594 C 656.191406 320.355469 658.089844 319.945312 660 319.570312 Z M 660 319.570312 " fill-opacity="1" fill-rule="nonzero"/></g><g clip-path="url(#f4c3725137)"><path fill="#ffffff" d="M 827.726562 218.710938 C 829.136719 219.535156 830.570312 220.324219 832.027344 221.070312 C 833.484375 221.816406 834.957031 222.523438 836.449219 223.191406 C 837.945312 223.855469 839.457031 224.484375 840.984375 225.066406 C 842.511719 225.652344 844.054688 226.191406 845.613281 226.691406 C 847.167969 227.191406 848.738281 227.648438 850.320312 228.0625 C 851.902344 228.476562 853.496094 228.847656 855.097656 229.175781 C 856.703125 229.5 858.3125 229.785156 859.929688 230.023438 C 861.546875 230.261719 863.171875 230.457031 864.800781 230.609375 C 866.429688 230.757812 868.0625 230.863281 869.695312 230.925781 C 871.332031 230.988281 872.964844 231.003906 874.601562 230.976562 C 876.238281 230.949219 877.871094 230.875 879.5 230.757812 C 881.132812 230.640625 882.761719 230.480469 884.382812 230.273438 C 886.003906 230.066406 887.621094 229.816406 889.230469 229.523438 C 890.839844 229.230469 892.441406 228.890625 894.03125 228.511719 C 895.621094 228.128906 897.199219 227.703125 898.765625 227.234375 C 900.335938 226.769531 901.886719 226.257812 903.425781 225.703125 C 904.96875 225.152344 906.492188 224.558594 907.996094 223.921875 C 909.503906 223.285156 910.992188 222.609375 912.464844 221.894531 C 913.933594 221.175781 915.382812 220.417969 916.8125 219.621094 C 918.242188 218.828125 919.648438 217.992188 921.03125 217.117188 C 922.414062 216.246094 923.773438 215.335938 925.105469 214.386719 C 926.4375 213.441406 927.746094 212.457031 929.023438 211.4375 C 930.304688 210.421875 931.554688 209.367188 932.777344 208.28125 C 934 207.195312 935.191406 206.074219 936.355469 204.921875 C 937.515625 203.769531 938.644531 202.585938 939.742188 201.375 C 940.835938 200.160156 941.898438 198.917969 942.929688 197.644531 C 943.957031 196.375 944.949219 195.074219 945.910156 193.75 C 946.867188 192.421875 947.789062 191.074219 948.671875 189.695312 C 949.554688 188.320312 950.402344 186.921875 951.210938 185.5 C 952.015625 184.074219 952.785156 182.632812 953.515625 181.167969 C 954.242188 179.703125 954.929688 178.21875 955.578125 176.71875 C 956.226562 175.214844 956.832031 173.699219 957.398438 172.164062 C 957.964844 170.628906 958.484375 169.078125 958.964844 167.515625 C 959.445312 165.953125 959.882812 164.375 960.277344 162.789062 C 960.671875 161.199219 961.023438 159.605469 961.332031 157.996094 C 961.636719 156.390625 961.898438 154.777344 962.117188 153.15625 C 962.339844 151.535156 962.511719 149.910156 962.644531 148.277344 C 962.773438 146.648438 962.859375 145.015625 962.898438 143.378906 C 962.941406 141.746094 962.9375 140.109375 962.886719 138.472656 C 962.839844 136.839844 962.746094 135.207031 962.609375 133.578125 C 962.472656 131.945312 962.289062 130.320312 962.0625 128.703125 C 961.835938 127.082031 961.566406 125.46875 961.253906 123.863281 C 960.9375 122.257812 960.582031 120.664062 960.179688 119.078125 C 959.777344 117.492188 959.335938 115.917969 958.847656 114.355469 C 958.359375 112.796875 957.828125 111.25 957.257812 109.714844 C 956.6875 108.183594 956.074219 106.667969 955.417969 105.167969 C 954.765625 103.667969 954.070312 102.1875 953.332031 100.726562 C 952.597656 99.265625 951.824219 97.828125 951.007812 96.410156 C 950.195312 94.988281 949.34375 93.59375 948.453125 92.222656 C 947.5625 90.847656 946.636719 89.503906 945.671875 88.179688 C 944.707031 86.859375 943.707031 85.566406 942.675781 84.296875 C 941.640625 83.03125 940.570312 81.792969 939.46875 80.585938 C 938.367188 79.375 937.234375 78.199219 936.066406 77.050781 C 934.898438 75.902344 933.703125 74.789062 932.476562 73.707031 C 931.25 72.628906 929.992188 71.582031 928.707031 70.566406 C 927.425781 69.554688 926.113281 68.578125 924.773438 67.636719 C 923.4375 66.695312 922.074219 65.789062 920.6875 64.925781 C 919.300781 64.058594 917.890625 63.230469 916.457031 62.4375 C 915.027344 61.648438 913.574219 60.898438 912.101562 60.1875 C 910.625 59.476562 909.136719 58.808594 907.625 58.179688 C 906.113281 57.550781 904.589844 56.960938 903.046875 56.417969 C 901.503906 55.871094 899.949219 55.367188 898.378906 54.90625 C 896.808594 54.445312 895.230469 54.027344 893.636719 53.65625 C 892.042969 53.28125 890.445312 52.949219 888.832031 52.664062 C 887.222656 52.375 885.605469 52.132812 883.980469 51.933594 C 882.359375 51.734375 880.730469 51.582031 879.097656 51.472656 C 877.464844 51.359375 875.832031 51.296875 874.195312 51.277344 C 872.5625 51.253906 870.925781 51.277344 869.292969 51.347656 C 867.65625 51.417969 866.027344 51.53125 864.398438 51.6875 C 862.769531 51.84375 861.148438 52.046875 859.53125 52.292969 C 857.914062 52.539062 856.304688 52.832031 854.703125 53.164062 C 853.101562 53.5 851.511719 53.875 849.929688 54.296875 C 848.351562 54.71875 846.78125 55.183594 845.226562 55.691406 C 843.671875 56.195312 842.132812 56.746094 840.605469 57.335938 C 839.082031 57.925781 837.574219 58.558594 836.082031 59.234375 C 834.589844 59.90625 833.121094 60.621094 831.667969 61.371094 C 830.214844 62.125 828.785156 62.917969 827.378906 63.75 C 825.96875 64.582031 824.585938 65.453125 823.222656 66.359375 C 821.863281 67.265625 820.527344 68.210938 819.21875 69.191406 C 817.910156 70.171875 816.625 71.1875 815.371094 72.234375 C 814.117188 73.285156 812.894531 74.371094 811.699219 75.488281 C 810.503906 76.605469 809.339844 77.753906 808.207031 78.933594 C 807.078125 80.113281 805.976562 81.324219 804.910156 82.566406 C 803.84375 83.804688 802.8125 85.074219 801.816406 86.371094 C 800.820312 87.667969 799.859375 88.992188 798.933594 90.339844 C 798.011719 91.691406 797.125 93.066406 796.273438 94.460938 C 795.425781 95.859375 794.613281 97.28125 793.84375 98.722656 C 793.070312 100.164062 792.339844 101.625 791.644531 103.109375 C 790.953125 104.589844 790.304688 106.089844 789.691406 107.609375 C 789.082031 109.125 788.515625 110.660156 787.988281 112.207031 C 787.460938 113.757812 786.976562 115.320312 786.535156 116.894531 C 786.09375 118.46875 785.699219 120.054688 785.34375 121.652344 C 784.988281 123.25 784.675781 124.855469 784.410156 126.46875 C 784.144531 128.082031 783.921875 129.703125 783.742188 131.328125 C 783.5625 132.953125 783.429688 134.582031 783.339844 136.214844 C 783.25 137.847656 783.207031 139.484375 783.207031 141.121094 C 783.207031 143.371094 783.292969 145.625 783.46875 147.839844 C 786.410156 149.882812 789.242188 152.070312 791.960938 154.398438 C 794.679688 156.730469 797.273438 159.191406 799.746094 161.785156 C 802.214844 164.382812 804.546875 167.09375 806.742188 169.921875 C 808.9375 172.753906 810.984375 175.6875 812.878906 178.726562 C 814.777344 181.765625 816.515625 184.890625 818.097656 188.105469 C 819.675781 191.320312 821.089844 194.605469 822.335938 197.964844 C 823.582031 201.320312 824.65625 204.734375 825.558594 208.203125 C 826.457031 211.667969 827.179688 215.171875 827.726562 218.710938 Z M 827.726562 218.710938 " fill-opacity="1" fill-rule="nonzero"/></g><g clip-path="url(#ac28a54ed4)"><path fill="#ffffff" d="M 911.550781 239.492188 L 835.652344 239.492188 C 833.375 239.492188 831.097656 239.554688 828.847656 239.691406 C 828.664062 243.574219 828.265625 247.4375 827.65625 251.277344 C 827.046875 255.117188 826.230469 258.914062 825.203125 262.664062 C 824.175781 266.417969 822.945312 270.097656 821.507812 273.714844 C 820.074219 277.328125 818.445312 280.851562 816.625 284.289062 C 814.800781 287.722656 812.792969 291.046875 810.605469 294.261719 C 808.414062 297.476562 806.054688 300.558594 803.527344 303.511719 C 800.996094 306.46875 798.3125 309.273438 795.472656 311.929688 C 792.632812 314.585938 789.65625 317.082031 786.542969 319.410156 C 788.460938 319.769531 790.375 320.175781 792.277344 320.617188 C 794.183594 321.0625 796.078125 321.546875 797.960938 322.074219 C 799.84375 322.601562 801.714844 323.167969 803.570312 323.773438 C 805.429688 324.382812 807.273438 325.027344 809.105469 325.714844 C 810.933594 326.402344 812.75 327.128906 814.550781 327.894531 C 816.347656 328.660156 818.128906 329.460938 819.894531 330.304688 C 821.660156 331.148438 823.402344 332.027344 825.128906 332.945312 C 826.855469 333.863281 828.5625 334.816406 830.246094 335.808594 C 831.933594 336.800781 833.59375 337.828125 835.234375 338.890625 C 836.875 339.957031 838.492188 341.054688 840.085938 342.1875 C 841.679688 343.320312 843.246094 344.488281 844.789062 345.691406 C 846.332031 346.890625 847.847656 348.125 849.335938 349.390625 C 850.824219 350.660156 852.285156 351.957031 853.71875 353.289062 C 855.152344 354.617188 856.554688 355.976562 857.929688 357.367188 C 859.304688 358.757812 860.648438 360.179688 861.960938 361.628906 C 863.273438 363.078125 864.554688 364.554688 865.804688 366.058594 C 867.050781 367.5625 868.269531 369.09375 869.449219 370.648438 C 870.632812 372.207031 871.78125 373.789062 872.894531 375.394531 C 874.011719 377 875.089844 378.628906 876.132812 380.28125 C 877.175781 381.9375 878.183594 383.609375 879.15625 385.308594 C 880.128906 387.003906 881.0625 388.722656 881.957031 390.457031 C 882.855469 392.195312 883.714844 393.953125 884.535156 395.726562 C 885.359375 397.5 886.140625 399.292969 886.882812 401.097656 C 887.628906 402.90625 888.332031 404.730469 888.996094 406.570312 C 889.660156 408.40625 890.285156 410.257812 890.871094 412.125 C 891.457031 413.992188 892 415.867188 892.503906 417.757812 C 893.007812 419.648438 893.46875 421.546875 893.890625 423.453125 C 894.3125 425.363281 894.695312 427.28125 895.03125 429.207031 C 895.371094 431.132812 895.667969 433.0625 895.921875 435.003906 C 896.175781 436.941406 896.390625 438.882812 896.5625 440.832031 C 896.734375 442.777344 896.863281 444.730469 896.949219 446.683594 C 897.035156 448.636719 897.078125 450.589844 897.082031 452.546875 L 897.082031 476.921875 C 965.851562 472.21875 1031.074219 449.050781 1031.074219 449.050781 L 1031.074219 358.964844 C 1031.074219 357.007812 1031.027344 355.054688 1030.933594 353.101562 C 1030.835938 351.148438 1030.695312 349.195312 1030.503906 347.25 C 1030.3125 345.304688 1030.070312 343.363281 1029.785156 341.429688 C 1029.5 339.492188 1029.164062 337.566406 1028.78125 335.648438 C 1028.402344 333.730469 1027.972656 331.824219 1027.5 329.925781 C 1027.023438 328.027344 1026.5 326.144531 1025.933594 324.269531 C 1025.367188 322.398438 1024.753906 320.542969 1024.09375 318.703125 C 1023.433594 316.859375 1022.730469 315.035156 1021.984375 313.230469 C 1021.234375 311.421875 1020.441406 309.632812 1019.605469 307.867188 C 1018.769531 306.097656 1017.890625 304.351562 1016.96875 302.625 C 1016.046875 300.902344 1015.082031 299.199219 1014.078125 297.523438 C 1013.070312 295.84375 1012.023438 294.191406 1010.9375 292.566406 C 1009.851562 290.941406 1008.726562 289.34375 1007.558594 287.773438 C 1006.394531 286.199219 1005.191406 284.660156 1003.949219 283.148438 C 1002.710938 281.636719 1001.429688 280.15625 1000.117188 278.707031 C 998.804688 277.257812 997.457031 275.839844 996.070312 274.457031 C 994.6875 273.078125 993.273438 271.726562 991.824219 270.414062 C 990.375 269.101562 988.890625 267.824219 987.378906 266.585938 C 985.867188 265.34375 984.324219 264.140625 982.753906 262.976562 C 981.183594 261.8125 979.585938 260.6875 977.957031 259.601562 C 976.332031 258.515625 974.679688 257.46875 973 256.464844 C 971.324219 255.460938 969.621094 254.496094 967.894531 253.574219 C 966.171875 252.652344 964.425781 251.773438 962.65625 250.9375 C 960.886719 250.105469 959.097656 249.3125 957.292969 248.5625 C 955.484375 247.816406 953.660156 247.113281 951.816406 246.457031 C 949.976562 245.796875 948.117188 245.183594 946.246094 244.617188 C 944.375 244.050781 942.492188 243.53125 940.59375 243.054688 C 938.695312 242.582031 936.789062 242.15625 934.867188 241.773438 C 932.949219 241.394531 931.023438 241.058594 929.089844 240.773438 C 927.152344 240.488281 925.214844 240.25 923.265625 240.058594 C 921.320312 239.867188 919.371094 239.726562 917.417969 239.632812 C 915.460938 239.535156 913.507812 239.488281 911.550781 239.492188 Z M 911.550781 239.492188 " fill-opacity="1" fill-rule="nonzero"/></g><path fill="#ffffff" d="M 633.671875 243.148438 C 633.917969 245.808594 634.285156 248.453125 634.769531 251.082031 C 635.253906 253.710938 635.855469 256.3125 636.570312 258.886719 C 637.285156 261.464844 638.117188 264 639.058594 266.5 C 640.003906 269.003906 641.054688 271.457031 642.21875 273.863281 C 643.382812 276.269531 644.648438 278.621094 646.023438 280.914062 C 647.394531 283.207031 648.867188 285.433594 650.4375 287.59375 C 652.011719 289.757812 653.675781 291.84375 655.433594 293.855469 C 657.191406 295.871094 659.035156 297.800781 660.964844 299.648438 C 662.898438 301.496094 664.90625 303.253906 666.996094 304.921875 C 669.082031 306.59375 671.238281 308.164062 673.46875 309.640625 C 675.695312 311.117188 677.988281 312.488281 680.335938 313.761719 C 682.6875 315.03125 685.09375 316.195312 687.546875 317.25 C 690.003906 318.308594 692.5 319.253906 695.039062 320.085938 C 697.578125 320.917969 700.148438 321.636719 702.753906 322.242188 C 705.355469 322.84375 707.984375 323.332031 710.628906 323.699219 C 713.277344 324.066406 715.933594 324.316406 718.605469 324.449219 C 719.476562 324.511719 720.359375 324.523438 721.242188 324.546875 L 723.121094 324.546875 C 724.519531 324.550781 725.917969 324.519531 727.3125 324.453125 C 728.710938 324.390625 730.105469 324.292969 731.496094 324.164062 C 732.890625 324.035156 734.277344 323.875 735.660156 323.679688 C 737.046875 323.484375 738.425781 323.257812 739.800781 323 C 741.171875 322.742188 742.539062 322.453125 743.902344 322.128906 C 745.261719 321.804688 746.613281 321.453125 747.957031 321.066406 C 749.300781 320.679688 750.636719 320.265625 751.960938 319.816406 C 753.285156 319.367188 754.597656 318.890625 755.898438 318.382812 C 757.203125 317.871094 758.492188 317.332031 759.769531 316.761719 C 761.046875 316.191406 762.308594 315.59375 763.558594 314.964844 C 764.804688 314.335938 766.039062 313.679688 767.257812 312.992188 C 768.476562 312.308594 769.675781 311.59375 770.863281 310.851562 C 772.046875 310.109375 773.214844 309.339844 774.363281 308.542969 C 775.511719 307.746094 776.640625 306.921875 777.75 306.074219 C 778.863281 305.222656 779.953125 304.347656 781.019531 303.449219 C 782.089844 302.546875 783.136719 301.621094 784.164062 300.671875 C 785.191406 299.722656 786.195312 298.75 787.175781 297.753906 C 788.15625 296.757812 789.113281 295.738281 790.046875 294.699219 C 790.980469 293.65625 791.886719 292.59375 792.773438 291.511719 C 793.65625 290.429688 794.511719 289.324219 795.34375 288.199219 C 796.175781 287.078125 796.980469 285.933594 797.761719 284.773438 C 798.539062 283.613281 799.289062 282.433594 800.015625 281.238281 C 800.738281 280.042969 801.433594 278.828125 802.101562 277.601562 C 802.765625 276.371094 803.40625 275.128906 804.015625 273.867188 C 804.621094 272.609375 805.203125 271.339844 805.75 270.050781 C 806.300781 268.765625 806.820312 267.46875 807.308594 266.160156 C 807.796875 264.847656 808.253906 263.527344 808.683594 262.199219 C 809.109375 260.867188 809.503906 259.527344 809.871094 258.175781 C 810.234375 256.824219 810.566406 255.46875 810.867188 254.101562 C 811.167969 252.738281 811.4375 251.367188 811.675781 249.988281 C 811.910156 248.609375 812.117188 247.226562 812.289062 245.839844 C 812.460938 244.453125 812.601562 243.0625 812.707031 241.667969 C 812.90625 239.367188 812.996094 237.027344 812.996094 234.6875 C 813.003906 223.316406 810.929688 212.335938 806.773438 201.753906 C 802.703125 191.449219 796.925781 182.21875 789.441406 174.054688 C 787.921875 172.394531 786.34375 170.796875 784.707031 169.253906 C 783.070312 167.714844 781.378906 166.238281 779.628906 164.824219 C 777.878906 163.410156 776.082031 162.066406 774.230469 160.785156 C 772.382812 159.507812 770.488281 158.300781 768.546875 157.164062 C 766.609375 156.027344 764.628906 154.964844 762.609375 153.980469 C 760.589844 152.992188 758.535156 152.082031 756.445312 151.246094 C 754.359375 150.414062 752.242188 149.660156 750.097656 148.984375 C 747.953125 148.308594 745.785156 147.714844 743.597656 147.203125 C 741.40625 146.691406 739.203125 146.261719 736.980469 145.917969 C 734.757812 145.570312 732.527344 145.308594 730.285156 145.128906 C 728.042969 144.949219 725.800781 144.855469 723.550781 144.84375 C 721.304688 144.835938 719.058594 144.910156 716.816406 145.066406 C 714.570312 145.226562 712.339844 145.464844 710.113281 145.792969 C 707.890625 146.117188 705.679688 146.527344 703.484375 147.019531 C 701.292969 147.511719 699.121094 148.082031 696.96875 148.738281 C 694.816406 149.390625 692.695312 150.125 690.597656 150.941406 C 688.503906 151.753906 686.441406 152.644531 684.410156 153.613281 C 682.382812 154.582031 680.394531 155.628906 678.441406 156.746094 C 676.492188 157.863281 674.585938 159.054688 672.726562 160.316406 C 670.863281 161.574219 669.050781 162.90625 667.289062 164.300781 C 665.53125 165.699219 663.824219 167.160156 662.171875 168.6875 C 660.519531 170.210938 658.925781 171.796875 657.394531 173.441406 C 655.859375 175.085938 654.390625 176.785156 652.988281 178.542969 C 651.582031 180.296875 650.246094 182.101562 648.972656 183.957031 C 647.703125 185.8125 646.507812 187.714844 645.378906 189.660156 C 644.253906 191.605469 643.199219 193.589844 642.222656 195.613281 C 641.242188 197.636719 640.34375 199.695312 639.519531 201.789062 C 638.695312 203.878906 637.953125 206 637.289062 208.148438 C 636.621094 210.296875 636.039062 212.464844 635.539062 214.65625 C 635.035156 216.847656 634.617188 219.054688 634.28125 221.28125 C 633.945312 223.503906 633.695312 225.734375 633.527344 227.976562 C 633.355469 230.21875 633.273438 232.464844 633.273438 234.710938 C 633.261719 237.53125 633.394531 240.34375 633.671875 243.148438 Z M 633.671875 243.148438 " fill-opacity="1" fill-rule="nonzero"/><g clip-path="url(#fb7291088c)"><path fill="#ffffff" d="M 762.105469 333.082031 L 684.1875 333.082031 C 682.25 333.109375 680.3125 333.179688 678.378906 333.300781 C 676.441406 333.417969 674.511719 333.585938 672.582031 333.796875 C 670.65625 334.011719 668.734375 334.273438 666.820312 334.578125 C 664.90625 334.886719 663 335.238281 661.101562 335.636719 C 659.207031 336.039062 657.320312 336.484375 655.441406 336.976562 C 653.566406 337.464844 651.703125 338.003906 649.855469 338.585938 C 648.003906 339.167969 646.171875 339.792969 644.351562 340.464844 C 642.53125 341.136719 640.730469 341.851562 638.949219 342.613281 C 637.164062 343.371094 635.398438 344.171875 633.652344 345.019531 C 631.910156 345.863281 630.183594 346.75 628.484375 347.679688 C 626.78125 348.609375 625.101562 349.578125 623.449219 350.589844 C 621.792969 351.601562 620.164062 352.652344 618.5625 353.742188 C 616.957031 354.832031 615.382812 355.960938 613.832031 357.128906 C 612.285156 358.292969 610.765625 359.5 609.273438 360.738281 C 607.785156 361.980469 606.324219 363.257812 604.898438 364.570312 C 603.46875 365.878906 602.074219 367.226562 600.714844 368.605469 C 599.351562 369.984375 598.023438 371.398438 596.730469 372.84375 C 595.4375 374.289062 594.179688 375.761719 592.957031 377.269531 C 591.734375 378.773438 590.550781 380.308594 589.402344 381.871094 C 588.257812 383.4375 587.148438 385.027344 586.078125 386.644531 C 585.011719 388.261719 583.980469 389.902344 582.992188 391.570312 C 582.003906 393.238281 581.054688 394.929688 580.148438 396.644531 C 579.238281 398.355469 578.375 400.09375 577.550781 401.847656 C 576.730469 403.605469 575.949219 405.378906 575.214844 407.171875 C 574.476562 408.964844 573.785156 410.777344 573.136719 412.605469 C 572.488281 414.433594 571.886719 416.273438 571.328125 418.132812 C 570.769531 419.988281 570.257812 421.859375 569.789062 423.738281 C 569.324219 425.621094 568.902344 427.511719 568.527344 429.414062 C 568.152344 431.316406 567.824219 433.230469 567.539062 435.148438 C 567.257812 437.066406 567.023438 438.988281 566.835938 440.917969 C 566.648438 442.847656 566.503906 444.78125 566.410156 446.71875 C 566.316406 448.65625 566.269531 450.59375 566.269531 452.53125 L 566.269531 542.617188 C 566.269531 542.617188 647.085938 571.359375 723.667969 571.359375 C 800.253906 571.359375 881.066406 542.640625 881.066406 542.640625 L 881.066406 452.558594 C 881.066406 450.609375 881.019531 448.660156 880.925781 446.710938 C 880.832031 444.761719 880.6875 442.820312 880.496094 440.878906 C 880.308594 438.9375 880.070312 437.003906 879.785156 435.074219 C 879.5 433.144531 879.167969 431.222656 878.789062 429.308594 C 878.410156 427.398438 877.984375 425.496094 877.511719 423.601562 C 877.039062 421.710938 876.519531 419.832031 875.957031 417.964844 C 875.390625 416.097656 874.78125 414.246094 874.128906 412.410156 C 873.472656 410.574219 872.773438 408.753906 872.027344 406.949219 C 871.285156 405.148438 870.496094 403.363281 869.664062 401.601562 C 868.835938 399.835938 867.960938 398.09375 867.042969 396.375 C 866.125 394.652344 865.167969 392.953125 864.167969 391.28125 C 863.167969 389.605469 862.128906 387.957031 861.046875 386.335938 C 859.964844 384.710938 858.847656 383.117188 857.6875 381.546875 C 856.527344 379.980469 855.332031 378.441406 854.097656 376.929688 C 852.863281 375.421875 851.59375 373.941406 850.285156 372.492188 C 848.980469 371.046875 847.636719 369.632812 846.261719 368.25 C 844.886719 366.867188 843.476562 365.519531 842.035156 364.207031 C 840.59375 362.894531 839.121094 361.617188 837.617188 360.378906 C 836.113281 359.136719 834.578125 357.933594 833.015625 356.769531 C 831.449219 355.601562 829.859375 354.476562 828.242188 353.386719 C 826.621094 352.300781 824.976562 351.253906 823.308594 350.246094 C 821.636719 349.238281 819.945312 348.273438 818.226562 347.347656 C 816.511719 346.425781 814.773438 345.542969 813.011719 344.703125 C 811.25 343.863281 809.472656 343.070312 807.671875 342.316406 C 805.871094 341.566406 804.054688 340.859375 802.222656 340.195312 C 800.386719 339.53125 798.539062 338.914062 796.675781 338.34375 C 794.808594 337.769531 792.933594 337.246094 791.042969 336.765625 C 789.152344 336.285156 787.253906 335.851562 785.339844 335.460938 C 783.429688 335.074219 781.511719 334.734375 779.582031 334.441406 C 777.65625 334.148438 775.722656 333.902344 773.78125 333.703125 C 771.839844 333.503906 769.898438 333.355469 767.949219 333.25 C 766.003906 333.148438 764.054688 333.09375 762.105469 333.082031 Z M 762.105469 333.082031 " fill-opacity="1" fill-rule="nonzero"/></g><g fill="#ffffff" fill-opacity="1"><g transform="translate(160.784177, 722.292992)"><g><path d="M 20.96875 -50.84375 L 20.96875 -38.0625 L 41.578125 -38.0625 L 41.578125 -26.1875 L 20.96875 -26.1875 L 20.96875 -12.328125 L 44.28125 -12.328125 L 44.28125 0 L 5.578125 0 L 5.578125 -63.1875 L 44.28125 -63.1875 L 44.28125 -50.84375 Z M 20.96875 -50.84375 "/></g></g></g><g fill="#ffffff" fill-opacity="1"><g transform="translate(209.474128, 722.292992)"><g><path d="M 69.65625 -50.765625 C 75.894531 -50.765625 80.859375 -48.875 84.546875 -45.09375 C 88.242188 -41.3125 90.09375 -36.0625 90.09375 -29.34375 L 90.09375 0 L 74.796875 0 L 74.796875 -27.265625 C 74.796875 -30.503906 73.9375 -33.007812 72.21875 -34.78125 C 70.507812 -36.550781 68.15625 -37.4375 65.15625 -37.4375 C 62.15625 -37.4375 59.800781 -36.550781 58.09375 -34.78125 C 56.382812 -33.007812 55.53125 -30.503906 55.53125 -27.265625 L 55.53125 0 L 40.234375 0 L 40.234375 -27.265625 C 40.234375 -30.503906 39.375 -33.007812 37.65625 -34.78125 C 35.945312 -36.550781 33.59375 -37.4375 30.59375 -37.4375 C 27.59375 -37.4375 25.238281 -36.550781 23.53125 -34.78125 C 21.820312 -33.007812 20.96875 -30.503906 20.96875 -27.265625 L 20.96875 0 L 5.578125 0 L 5.578125 -50.21875 L 20.96875 -50.21875 L 20.96875 -43.921875 C 22.53125 -46.015625 24.570312 -47.675781 27.09375 -48.90625 C 29.613281 -50.144531 32.460938 -50.765625 35.640625 -50.765625 C 39.421875 -50.765625 42.796875 -49.953125 45.765625 -48.328125 C 48.734375 -46.710938 51.054688 -44.40625 52.734375 -41.40625 C 54.472656 -44.164062 56.84375 -46.414062 59.84375 -48.15625 C 62.84375 -49.894531 66.113281 -50.765625 69.65625 -50.765625 Z M 69.65625 -50.765625 "/></g></g></g><g fill="#ffffff" fill-opacity="1"><g transform="translate(304.784033, 722.292992)"><g><path d="M 20.96875 -43.109375 C 22.46875 -45.453125 24.535156 -47.34375 27.171875 -48.78125 C 29.816406 -50.21875 32.910156 -50.9375 36.453125 -50.9375 C 40.585938 -50.9375 44.332031 -49.882812 47.6875 -47.78125 C 51.050781 -45.6875 53.707031 -42.6875 55.65625 -38.78125 C 57.613281 -34.882812 58.59375 -30.359375 58.59375 -25.203125 C 58.59375 -20.035156 57.613281 -15.488281 55.65625 -11.5625 C 53.707031 -7.632812 51.050781 -4.601562 47.6875 -2.46875 C 44.332031 -0.34375 40.585938 0.71875 36.453125 0.71875 C 32.972656 0.71875 29.894531 0 27.21875 -1.4375 C 24.550781 -2.875 22.46875 -4.734375 20.96875 -7.015625 L 20.96875 23.9375 L 5.578125 23.9375 L 5.578125 -50.21875 L 20.96875 -50.21875 Z M 42.9375 -25.203125 C 42.9375 -29.035156 41.867188 -32.046875 39.734375 -34.234375 C 37.609375 -36.429688 34.984375 -37.53125 31.859375 -37.53125 C 28.796875 -37.53125 26.195312 -36.421875 24.0625 -34.203125 C 21.9375 -31.984375 20.875 -28.953125 20.875 -25.109375 C 20.875 -21.265625 21.9375 -18.234375 24.0625 -16.015625 C 26.195312 -13.796875 28.796875 -12.6875 31.859375 -12.6875 C 34.921875 -12.6875 37.53125 -13.8125 39.6875 -16.0625 C 41.851562 -18.3125 42.9375 -21.359375 42.9375 -25.203125 Z M 42.9375 -25.203125 "/></g></g></g><g fill="#ffffff" fill-opacity="1"><g transform="translate(365.893969, 722.292992)"><g><path d="M 20.96875 -66.59375 L 20.96875 0 L 5.578125 0 L 5.578125 -66.59375 Z M 20.96875 -66.59375 "/></g></g></g><g fill="#ffffff" fill-opacity="1"><g transform="translate(392.44394, 722.292992)"><g><path d="M 28.4375 0.71875 C 23.519531 0.71875 19.09375 -0.328125 15.15625 -2.421875 C 11.226562 -4.523438 8.140625 -7.523438 5.890625 -11.421875 C 3.640625 -15.328125 2.515625 -19.890625 2.515625 -25.109375 C 2.515625 -30.265625 3.65625 -34.804688 5.9375 -38.734375 C 8.21875 -42.671875 11.335938 -45.6875 15.296875 -47.78125 C 19.253906 -49.882812 23.695312 -50.9375 28.625 -50.9375 C 33.539062 -50.9375 37.976562 -49.882812 41.9375 -47.78125 C 45.894531 -45.6875 49.015625 -42.671875 51.296875 -38.734375 C 53.578125 -34.804688 54.71875 -30.265625 54.71875 -25.109375 C 54.71875 -19.953125 53.5625 -15.40625 51.25 -11.46875 C 48.945312 -7.539062 45.796875 -4.523438 41.796875 -2.421875 C 37.804688 -0.328125 33.351562 0.71875 28.4375 0.71875 Z M 28.4375 -12.59375 C 31.375 -12.59375 33.878906 -13.671875 35.953125 -15.828125 C 38.023438 -17.992188 39.0625 -21.085938 39.0625 -25.109375 C 39.0625 -29.128906 38.054688 -32.21875 36.046875 -34.375 C 34.035156 -36.539062 31.5625 -37.625 28.625 -37.625 C 25.625 -37.625 23.132812 -36.554688 21.15625 -34.421875 C 19.175781 -32.296875 18.1875 -29.191406 18.1875 -25.109375 C 18.1875 -21.085938 19.160156 -17.992188 21.109375 -15.828125 C 23.054688 -13.671875 25.5 -12.59375 28.4375 -12.59375 Z M 28.4375 -12.59375 "/></g></g></g><g fill="#ffffff" fill-opacity="1"><g transform="translate(449.773893, 722.292992)"><g><path d="M 56.875 -50.21875 L 25.375 23.84375 L 8.8125 23.84375 L 20.34375 -1.703125 L -0.09375 -50.21875 L 17.09375 -50.21875 L 28.703125 -18.8125 L 40.234375 -50.21875 Z M 56.875 -50.21875 "/></g></g></g><g fill="#ffffff" fill-opacity="1"><g transform="translate(506.653819, 722.292992)"><g><path d="M 69.65625 -50.765625 C 75.894531 -50.765625 80.859375 -48.875 84.546875 -45.09375 C 88.242188 -41.3125 90.09375 -36.0625 90.09375 -29.34375 L 90.09375 0 L 74.796875 0 L 74.796875 -27.265625 C 74.796875 -30.503906 73.9375 -33.007812 72.21875 -34.78125 C 70.507812 -36.550781 68.15625 -37.4375 65.15625 -37.4375 C 62.15625 -37.4375 59.800781 -36.550781 58.09375 -34.78125 C 56.382812 -33.007812 55.53125 -30.503906 55.53125 -27.265625 L 55.53125 0 L 40.234375 0 L 40.234375 -27.265625 C 40.234375 -30.503906 39.375 -33.007812 37.65625 -34.78125 C 35.945312 -36.550781 33.59375 -37.4375 30.59375 -37.4375 C 27.59375 -37.4375 25.238281 -36.550781 23.53125 -34.78125 C 21.820312 -33.007812 20.96875 -30.503906 20.96875 -27.265625 L 20.96875 0 L 5.578125 0 L 5.578125 -50.21875 L 20.96875 -50.21875 L 20.96875 -43.921875 C 22.53125 -46.015625 24.570312 -47.675781 27.09375 -48.90625 C 29.613281 -50.144531 32.460938 -50.765625 35.640625 -50.765625 C 39.421875 -50.765625 42.796875 -49.953125 45.765625 -48.328125 C 48.734375 -46.710938 51.054688 -44.40625 52.734375 -41.40625 C 54.472656 -44.164062 56.84375 -46.414062 59.84375 -48.15625 C 62.84375 -49.894531 66.113281 -50.765625 69.65625 -50.765625 Z M 69.65625 -50.765625 "/></g></g></g><g fill="#ffffff" fill-opacity="1"><g transform="translate(601.963735, 722.292992)"><g><path d="M 52.921875 -25.921875 C 52.921875 -24.484375 52.832031 -22.984375 52.65625 -21.421875 L 17.8125 -21.421875 C 18.0625 -18.296875 19.066406 -15.910156 20.828125 -14.265625 C 22.597656 -12.617188 24.773438 -11.796875 27.359375 -11.796875 C 31.203125 -11.796875 33.875 -13.414062 35.375 -16.65625 L 51.75 -16.65625 C 50.90625 -13.351562 49.390625 -10.378906 47.203125 -7.734375 C 45.015625 -5.097656 42.269531 -3.03125 38.96875 -1.53125 C 35.664062 -0.03125 31.976562 0.71875 27.90625 0.71875 C 22.976562 0.71875 18.59375 -0.328125 14.75 -2.421875 C 10.914062 -4.523438 7.914062 -7.523438 5.75 -11.421875 C 3.59375 -15.328125 2.515625 -19.890625 2.515625 -25.109375 C 2.515625 -30.328125 3.578125 -34.882812 5.703125 -38.78125 C 7.835938 -42.6875 10.828125 -45.6875 14.671875 -47.78125 C 18.515625 -49.882812 22.925781 -50.9375 27.90625 -50.9375 C 32.757812 -50.9375 37.078125 -49.914062 40.859375 -47.875 C 44.640625 -45.832031 47.59375 -42.921875 49.71875 -39.140625 C 51.851562 -35.367188 52.921875 -30.960938 52.921875 -25.921875 Z M 37.171875 -29.96875 C 37.171875 -32.613281 36.269531 -34.710938 34.46875 -36.265625 C 32.664062 -37.828125 30.414062 -38.609375 27.71875 -38.609375 C 25.132812 -38.609375 22.957031 -37.859375 21.1875 -36.359375 C 19.425781 -34.859375 18.332031 -32.726562 17.90625 -29.96875 Z M 37.171875 -29.96875 "/></g></g></g><g fill="#ffffff" fill-opacity="1"><g transform="translate(657.403674, 722.292992)"><g><path d="M 36.1875 -50.765625 C 42.0625 -50.765625 46.753906 -48.859375 50.265625 -45.046875 C 53.773438 -41.234375 55.53125 -36 55.53125 -29.34375 L 55.53125 0 L 40.234375 0 L 40.234375 -27.265625 C 40.234375 -30.628906 39.363281 -33.238281 37.625 -35.09375 C 35.882812 -36.957031 33.539062 -37.890625 30.59375 -37.890625 C 27.65625 -37.890625 25.316406 -36.957031 23.578125 -35.09375 C 21.835938 -33.238281 20.96875 -30.628906 20.96875 -27.265625 L 20.96875 0 L 5.578125 0 L 5.578125 -50.21875 L 20.96875 -50.21875 L 20.96875 -43.5625 C 22.53125 -45.78125 24.628906 -47.535156 27.265625 -48.828125 C 29.910156 -50.117188 32.882812 -50.765625 36.1875 -50.765625 Z M 36.1875 -50.765625 "/></g></g></g><g fill="#ffffff" fill-opacity="1"><g transform="translate(718.063629, 722.292992)"><g><path d="M 33.5625 -13.046875 L 33.5625 0 L 25.734375 0 C 20.160156 0 15.8125 -1.363281 12.6875 -4.09375 C 9.570312 -6.820312 8.015625 -11.273438 8.015625 -17.453125 L 8.015625 -37.4375 L 1.890625 -37.4375 L 1.890625 -50.21875 L 8.015625 -50.21875 L 8.015625 -62.453125 L 23.40625 -62.453125 L 23.40625 -50.21875 L 33.484375 -50.21875 L 33.484375 -37.4375 L 23.40625 -37.4375 L 23.40625 -17.28125 C 23.40625 -15.78125 23.765625 -14.695312 24.484375 -14.03125 C 25.203125 -13.375 26.398438 -13.046875 28.078125 -13.046875 Z M 33.5625 -13.046875 "/></g></g></g><g fill="#ffffff" fill-opacity="1"><g transform="translate(754.603605, 722.292992)"><g/></g></g><g fill="#ffffff" fill-opacity="1"><g transform="translate(773.68356, 722.292992)"><g><path d="M 2.96875 -31.6875 C 2.96875 -37.925781 4.316406 -43.488281 7.015625 -48.375 C 9.710938 -53.257812 13.476562 -57.066406 18.3125 -59.796875 C 23.144531 -62.535156 28.617188 -63.90625 34.734375 -63.90625 C 42.234375 -63.90625 48.65625 -61.921875 54 -57.953125 C 59.34375 -53.992188 62.910156 -48.597656 64.703125 -41.765625 L 47.796875 -41.765625 C 46.535156 -44.398438 44.75 -46.40625 42.4375 -47.78125 C 40.125 -49.164062 37.5 -49.859375 34.5625 -49.859375 C 29.820312 -49.859375 25.976562 -48.207031 23.03125 -44.90625 C 20.09375 -41.601562 18.625 -37.195312 18.625 -31.6875 C 18.625 -26.164062 20.09375 -21.753906 23.03125 -18.453125 C 25.976562 -15.148438 29.820312 -13.5 34.5625 -13.5 C 37.5 -13.5 40.125 -14.1875 42.4375 -15.5625 C 44.75 -16.945312 46.535156 -18.957031 47.796875 -21.59375 L 64.703125 -21.59375 C 62.910156 -14.757812 59.34375 -9.375 54 -5.4375 C 48.65625 -1.507812 42.234375 0.453125 34.734375 0.453125 C 28.617188 0.453125 23.144531 -0.910156 18.3125 -3.640625 C 13.476562 -6.367188 9.710938 -10.160156 7.015625 -15.015625 C 4.316406 -19.878906 2.96875 -25.4375 2.96875 -31.6875 Z M 2.96875 -31.6875 "/></g></g></g><g fill="#ffffff" fill-opacity="1"><g transform="translate(842.263512, 722.292992)"><g><path d="M 28.4375 0.71875 C 23.519531 0.71875 19.09375 -0.328125 15.15625 -2.421875 C 11.226562 -4.523438 8.140625 -7.523438 5.890625 -11.421875 C 3.640625 -15.328125 2.515625 -19.890625 2.515625 -25.109375 C 2.515625 -30.265625 3.65625 -34.804688 5.9375 -38.734375 C 8.21875 -42.671875 11.335938 -45.6875 15.296875 -47.78125 C 19.253906 -49.882812 23.695312 -50.9375 28.625 -50.9375 C 33.539062 -50.9375 37.976562 -49.882812 41.9375 -47.78125 C 45.894531 -45.6875 49.015625 -42.671875 51.296875 -38.734375 C 53.578125 -34.804688 54.71875 -30.265625 54.71875 -25.109375 C 54.71875 -19.953125 53.5625 -15.40625 51.25 -11.46875 C 48.945312 -7.539062 45.796875 -4.523438 41.796875 -2.421875 C 37.804688 -0.328125 33.351562 0.71875 28.4375 0.71875 Z M 28.4375 -12.59375 C 31.375 -12.59375 33.878906 -13.671875 35.953125 -15.828125 C 38.023438 -17.992188 39.0625 -21.085938 39.0625 -25.109375 C 39.0625 -29.128906 38.054688 -32.21875 36.046875 -34.375 C 34.035156 -36.539062 31.5625 -37.625 28.625 -37.625 C 25.625 -37.625 23.132812 -36.554688 21.15625 -34.421875 C 19.175781 -32.296875 18.1875 -29.191406 18.1875 -25.109375 C 18.1875 -21.085938 19.160156 -17.992188 21.109375 -15.828125 C 23.054688 -13.671875 25.5 -12.59375 28.4375 -12.59375 Z M 28.4375 -12.59375 "/></g></g></g><g fill="#ffffff" fill-opacity="1"><g transform="translate(899.593465, 722.292992)"><g><path d="M 36.1875 -50.765625 C 42.0625 -50.765625 46.753906 -48.859375 50.265625 -45.046875 C 53.773438 -41.234375 55.53125 -36 55.53125 -29.34375 L 55.53125 0 L 40.234375 0 L 40.234375 -27.265625 C 40.234375 -30.628906 39.363281 -33.238281 37.625 -35.09375 C 35.882812 -36.957031 33.539062 -37.890625 30.59375 -37.890625 C 27.65625 -37.890625 25.316406 -36.957031 23.578125 -35.09375 C 21.835938 -33.238281 20.96875 -30.628906 20.96875 -27.265625 L 20.96875 0 L 5.578125 0 L 5.578125 -50.21875 L 20.96875 -50.21875 L 20.96875 -43.5625 C 22.53125 -45.78125 24.628906 -47.535156 27.265625 -48.828125 C 29.910156 -50.117188 32.882812 -50.765625 36.1875 -50.765625 Z M 36.1875 -50.765625 "/></g></g></g><g fill="#ffffff" fill-opacity="1"><g transform="translate(960.253374, 722.292992)"><g><path d="M 2.515625 -25.203125 C 2.515625 -30.359375 3.488281 -34.882812 5.4375 -38.78125 C 7.394531 -42.6875 10.050781 -45.6875 13.40625 -47.78125 C 16.769531 -49.882812 20.519531 -50.9375 24.65625 -50.9375 C 27.957031 -50.9375 30.972656 -50.242188 33.703125 -48.859375 C 36.429688 -47.484375 38.578125 -45.628906 40.140625 -43.296875 L 40.140625 -66.59375 L 55.53125 -66.59375 L 55.53125 0 L 40.140625 0 L 40.140625 -7.203125 C 38.703125 -4.796875 36.644531 -2.875 33.96875 -1.4375 C 31.300781 0 28.195312 0.71875 24.65625 0.71875 C 20.519531 0.71875 16.769531 -0.34375 13.40625 -2.46875 C 10.050781 -4.601562 7.394531 -7.632812 5.4375 -11.5625 C 3.488281 -15.488281 2.515625 -20.035156 2.515625 -25.203125 Z M 40.140625 -25.109375 C 40.140625 -28.953125 39.070312 -31.984375 36.9375 -34.203125 C 34.8125 -36.421875 32.21875 -37.53125 29.15625 -37.53125 C 26.09375 -37.53125 23.5 -36.429688 21.375 -34.234375 C 19.25 -32.046875 18.1875 -29.035156 18.1875 -25.203125 C 18.1875 -21.359375 19.25 -18.3125 21.375 -16.0625 C 23.5 -13.8125 26.09375 -12.6875 29.15625 -12.6875 C 32.21875 -12.6875 34.8125 -13.796875 36.9375 -16.015625 C 39.070312 -18.234375 40.140625 -21.265625 40.140625 -25.109375 Z M 40.140625 -25.109375 "/></g></g></g><g fill="#ffffff" fill-opacity="1"><g transform="translate(1021.363356, 722.292992)"><g><path d="M 13.3125 -55.4375 C 10.613281 -55.4375 8.410156 -56.226562 6.703125 -57.8125 C 4.992188 -59.40625 4.140625 -61.375 4.140625 -63.71875 C 4.140625 -66.113281 4.992188 -68.109375 6.703125 -69.703125 C 8.410156 -71.296875 10.613281 -72.09375 13.3125 -72.09375 C 15.957031 -72.09375 18.132812 -71.296875 19.84375 -69.703125 C 21.550781 -68.109375 22.40625 -66.113281 22.40625 -63.71875 C 22.40625 -61.375 21.550781 -59.40625 19.84375 -57.8125 C 18.132812 -56.226562 15.957031 -55.4375 13.3125 -55.4375 Z M 20.96875 -50.21875 L 20.96875 0 L 5.578125 0 L 5.578125 -50.21875 Z M 20.96875 -50.21875 "/></g></g></g><g fill="#ffffff" fill-opacity="1"><g transform="translate(1047.913281, 722.292992)"><g><path d="M 33.5625 -13.046875 L 33.5625 0 L 25.734375 0 C 20.160156 0 15.8125 -1.363281 12.6875 -4.09375 C 9.570312 -6.820312 8.015625 -11.273438 8.015625 -17.453125 L 8.015625 -37.4375 L 1.890625 -37.4375 L 1.890625 -50.21875 L 8.015625 -50.21875 L 8.015625 -62.453125 L 23.40625 -62.453125 L 23.40625 -50.21875 L 33.484375 -50.21875 L 33.484375 -37.4375 L 23.40625 -37.4375 L 23.40625 -17.28125 C 23.40625 -15.78125 23.765625 -14.695312 24.484375 -14.03125 C 25.203125 -13.375 26.398438 -13.046875 28.078125 -13.046875 Z M 33.5625 -13.046875 "/></g></g></g><g fill="#ffffff" fill-opacity="1"><g transform="translate(1084.453258, 722.292992)"><g><path d="M 13.3125 -55.4375 C 10.613281 -55.4375 8.410156 -56.226562 6.703125 -57.8125 C 4.992188 -59.40625 4.140625 -61.375 4.140625 -63.71875 C 4.140625 -66.113281 4.992188 -68.109375 6.703125 -69.703125 C 8.410156 -71.296875 10.613281 -72.09375 13.3125 -72.09375 C 15.957031 -72.09375 18.132812 -71.296875 19.84375 -69.703125 C 21.550781 -68.109375 22.40625 -66.113281 22.40625 -63.71875 C 22.40625 -61.375 21.550781 -59.40625 19.84375 -57.8125 C 18.132812 -56.226562 15.957031 -55.4375 13.3125 -55.4375 Z M 20.96875 -50.21875 L 20.96875 0 L 5.578125 0 L 5.578125 -50.21875 Z M 20.96875 -50.21875 "/></g></g></g><g fill="#ffffff" fill-opacity="1"><g transform="translate(1111.003183, 722.292992)"><g><path d="M 28.4375 0.71875 C 23.519531 0.71875 19.09375 -0.328125 15.15625 -2.421875 C 11.226562 -4.523438 8.140625 -7.523438 5.890625 -11.421875 C 3.640625 -15.328125 2.515625 -19.890625 2.515625 -25.109375 C 2.515625 -30.265625 3.65625 -34.804688 5.9375 -38.734375 C 8.21875 -42.671875 11.335938 -45.6875 15.296875 -47.78125 C 19.253906 -49.882812 23.695312 -50.9375 28.625 -50.9375 C 33.539062 -50.9375 37.976562 -49.882812 41.9375 -47.78125 C 45.894531 -45.6875 49.015625 -42.671875 51.296875 -38.734375 C 53.578125 -34.804688 54.71875 -30.265625 54.71875 -25.109375 C 54.71875 -19.953125 53.5625 -15.40625 51.25 -11.46875 C 48.945312 -7.539062 45.796875 -4.523438 41.796875 -2.421875 C 37.804688 -0.328125 33.351562 0.71875 28.4375 0.71875 Z M 28.4375 -12.59375 C 31.375 -12.59375 33.878906 -13.671875 35.953125 -15.828125 C 38.023438 -17.992188 39.0625 -21.085938 39.0625 -25.109375 C 39.0625 -29.128906 38.054688 -32.21875 36.046875 -34.375 C 34.035156 -36.539062 31.5625 -37.625 28.625 -37.625 C 25.625 -37.625 23.132812 -36.554688 21.15625 -34.421875 C 19.175781 -32.296875 18.1875 -29.191406 18.1875 -25.109375 C 18.1875 -21.085938 19.160156 -17.992188 21.109375 -15.828125 C 23.054688 -13.671875 25.5 -12.59375 28.4375 -12.59375 Z M 28.4375 -12.59375 "/></g></g></g><g fill="#ffffff" fill-opacity="1"><g transform="translate(1168.333136, 722.292992)"><g><path d="M 36.1875 -50.765625 C 42.0625 -50.765625 46.753906 -48.859375 50.265625 -45.046875 C 53.773438 -41.234375 55.53125 -36 55.53125 -29.34375 L 55.53125 0 L 40.234375 0 L 40.234375 -27.265625 C 40.234375 -30.628906 39.363281 -33.238281 37.625 -35.09375 C 35.882812 -36.957031 33.539062 -37.890625 30.59375 -37.890625 C 27.65625 -37.890625 25.316406 -36.957031 23.578125 -35.09375 C 21.835938 -33.238281 20.96875 -30.628906 20.96875 -27.265625 L 20.96875 0 L 5.578125 0 L 5.578125 -50.21875 L 20.96875 -50.21875 L 20.96875 -43.5625 C 22.53125 -45.78125 24.628906 -47.535156 27.265625 -48.828125 C 29.910156 -50.117188 32.882812 -50.765625 36.1875 -50.765625 Z M 36.1875 -50.765625 "/></g></g></g><g fill="#ffffff" fill-opacity="1"><g transform="translate(1228.993137, 722.292992)"><g><path d="M 26.015625 0.71875 C 21.628906 0.71875 17.726562 -0.03125 14.3125 -1.53125 C 10.894531 -3.03125 8.191406 -5.082031 6.203125 -7.6875 C 4.222656 -10.300781 3.113281 -13.226562 2.875 -16.46875 L 18.09375 -16.46875 C 18.269531 -14.726562 19.078125 -13.316406 20.515625 -12.234375 C 21.960938 -11.160156 23.734375 -10.625 25.828125 -10.625 C 27.742188 -10.625 29.226562 -11 30.28125 -11.75 C 31.332031 -12.5 31.859375 -13.472656 31.859375 -14.671875 C 31.859375 -16.109375 31.109375 -17.171875 29.609375 -17.859375 C 28.109375 -18.554688 25.675781 -19.320312 22.3125 -20.15625 C 18.71875 -21 15.71875 -21.882812 13.3125 -22.8125 C 10.914062 -23.738281 8.847656 -25.207031 7.109375 -27.21875 C 5.367188 -29.226562 4.5 -31.945312 4.5 -35.375 C 4.5 -38.25 5.289062 -40.867188 6.875 -43.234375 C 8.46875 -45.609375 10.8125 -47.484375 13.90625 -48.859375 C 17 -50.242188 20.675781 -50.9375 24.9375 -50.9375 C 31.226562 -50.9375 36.1875 -49.375 39.8125 -46.25 C 43.445312 -43.132812 45.535156 -39 46.078125 -33.84375 L 31.859375 -33.84375 C 31.617188 -35.582031 30.851562 -36.960938 29.5625 -37.984375 C 28.269531 -39.003906 26.578125 -39.515625 24.484375 -39.515625 C 22.679688 -39.515625 21.300781 -39.164062 20.34375 -38.46875 C 19.382812 -37.78125 18.90625 -36.835938 18.90625 -35.640625 C 18.90625 -34.203125 19.664062 -33.117188 21.1875 -32.390625 C 22.71875 -31.671875 25.101562 -30.953125 28.34375 -30.234375 C 32.070312 -29.273438 35.101562 -28.332031 37.4375 -27.40625 C 39.78125 -26.476562 41.835938 -24.976562 43.609375 -22.90625 C 45.378906 -20.832031 46.289062 -18.054688 46.34375 -14.578125 C 46.34375 -11.640625 45.519531 -9.015625 43.875 -6.703125 C 42.226562 -4.390625 39.859375 -2.570312 36.765625 -1.25 C 33.671875 0.0585938 30.085938 0.71875 26.015625 0.71875 Z M 26.015625 0.71875 "/></g></g></g></svg>