<svg xmlns="http://www.w3.org/2000/svg" xmlns:xlink="http://www.w3.org/1999/xlink" width="1920" zoomAndPan="magnify" viewBox="0 0 1440 809.999993" height="1080" preserveAspectRatio="xMidYMid meet" version="1.0"><defs><clipPath id="586b40eb09"><rect x="0" width="1440" y="0" height="810"/></clipPath></defs><rect x="-144" width="1728" fill="#ffffff" y="-80.999999" height="971.999992" fill-opacity="1"/><rect x="-144" width="1728" fill="#ffffff" y="-80.999999" height="971.999992" fill-opacity="1"/><g transform="matrix(1, 0, 0, 1, 0, 0.000000000000039746)"><g clip-path="url(#586b40eb09)"><path fill="#00885f" d="M 0 0 L 1439.648438 0 L 1439.648438 810 L 0 810 Z M 0 0 " fill-opacity="1" fill-rule="nonzero"/></g></g><path fill="#ffffff" d="M 1128.746094 280.824219 C 1151.101562 223.695312 1165.398438 163.285156 1174.097656 100.558594 C 1175.652344 89.515625 1168.414062 81.867188 1156.871094 81.457031 C 1150.074219 81.222656 1143.25 82.101562 1136.421875 82.601562 C 1078.472656 86.90625 1020.789062 92.796875 964.097656 105.746094 C 954.578125 107.914062 945.113281 110.285156 935.652344 112.863281 C 870.789062 130.648438 804.460938 146.820312 744.753906 178.78125 C 704.207031 200.519531 667.320312 231.691406 643.035156 271.097656 C 626.511719 297.933594 618.132812 328.285156 617.632812 359.71875 C 617.253906 385.96875 618.101562 424.230469 632.457031 447.199219 C 632.488281 451.152344 631.8125 454.347656 630.203125 456.28125 C 612.859375 477.023438 597.125 501.867188 582.390625 531.777344 L 582.273438 532.011719 L 582.183594 532.277344 C 580.367188 537.636719 577.964844 544.171875 575.652344 550.5 C 574.859375 552.753906 574.011719 555.039062 573.160156 557.382812 C 571.609375 552.636719 569.9375 547.980469 568.152344 543.410156 C 565.542969 536.847656 562.527344 530.226562 559.859375 524.394531 C 556.199219 516.425781 551.042969 507.578125 550.046875 498.351562 C 548.933594 488.242188 553.445312 477.8125 554.734375 467.792969 C 563.757812 398.859375 556.023438 331.886719 532.175781 266.410156 C 516.792969 224.191406 489.546875 192.757812 451.753906 169.4375 C 414.371094 146.351562 373.414062 132.023438 331.8125 119.015625 C 320.535156 116.058594 309.3125 112.894531 297.976562 110.167969 C 288.367188 107.882812 281.628906 112.953125 280.71875 122.53125 C 276.355469 169.730469 271.34375 216.898438 267.652344 264.183594 C 263.933594 312.230469 264.664062 360.101562 277.175781 407.207031 C 287.019531 444.328125 304.65625 475.851562 337.820312 497.121094 C 370.191406 517.832031 405.789062 529.375 443.699219 533.828125 C 472.058594 537.167969 500.445312 537.402344 528.542969 531.925781 C 534.460938 545.429688 539.117188 558.9375 541.929688 573.46875 C 544.070312 584.777344 545.445312 596.378906 546.765625 607.628906 C 551.277344 646.035156 539.234375 660.859375 538.445312 698.535156 C 538.179688 711.074219 543.335938 721.007812 552.183594 725.109375 C 560.710938 729.0625 570.875 727.042969 580.105469 719.570312 C 593.230469 708.964844 597.214844 692.472656 598.796875 676.417969 C 600.320312 660.65625 599.675781 665.578125 601.460938 649.875 C 606.121094 608.300781 616.199219 566.933594 635.035156 529.40625 C 644.792969 509.980469 657.710938 492.375 671.980469 476.027344 C 686.246094 459.738281 701.453125 444.648438 714.871094 427.628906 C 730.71875 407.621094 751.988281 390.042969 770.503906 372.519531 C 808.003906 337.042969 847.175781 303.324219 887.957031 271.683594 C 928.09375 240.539062 969.839844 211.417969 1013.082031 184.757812 C 957.476562 235.707031 893.992188 291.398438 833.433594 350.050781 C 779.03125 402.726562 687.359375 519.003906 669.898438 541.328125 C 668.726562 542.824219 669.578125 545.019531 671.453125 545.3125 C 675.496094 545.988281 679.773438 547.511719 683.023438 547.246094 C 703.972656 550.03125 723.101562 549.824219 744.285156 549.53125 C 771.121094 549.09375 797.957031 549.414062 824.734375 547.363281 C 824.996094 547.363281 825.261719 547.363281 825.496094 547.335938 C 906.765625 541.035156 976.199219 510.070312 1029.898438 447.199219 C 1073.523438 396.074219 1105.515625 340.265625 1128.746094 280.824219 " fill-opacity="1" fill-rule="nonzero"/></svg>