<svg xmlns="http://www.w3.org/2000/svg" xmlns:xlink="http://www.w3.org/1999/xlink" width="1920" zoomAndPan="magnify" viewBox="0 0 1440 809.999993" height="1080" preserveAspectRatio="xMidYMid meet" version="1.0"><defs><g/><clipPath id="04845190c4"><rect x="0" width="1440" y="0" height="810"/></clipPath><clipPath id="cb8259fd8d"><path d="M 56.25 0 L 1383.75 0 C 1398.667969 0 1412.976562 5.925781 1423.523438 16.476562 C 1434.074219 27.023438 1440 41.332031 1440 56.25 L 1440 753.84375 C 1440 768.761719 1434.074219 783.070312 1423.523438 793.617188 C 1412.976562 804.167969 1398.667969 810.09375 1383.75 810.09375 L 56.25 810.09375 C 41.332031 810.09375 27.023438 804.167969 16.476562 793.617188 C 5.925781 783.070312 0 768.761719 0 753.84375 L 0 56.25 C 0 41.332031 5.925781 27.023438 16.476562 16.476562 C 27.023438 5.925781 41.332031 0 56.25 0 Z M 56.25 0 " clip-rule="nonzero"/></clipPath><clipPath id="00803708ca"><path d="M 0 0 L 1440 0 L 1440 810 L 0 810 Z M 0 0 " clip-rule="nonzero"/></clipPath><clipPath id="c3c666179a"><path d="M 56.25 0 L 1383.75 0 C 1398.667969 0 1412.976562 5.925781 1423.523438 16.476562 C 1434.074219 27.023438 1440 41.332031 1440 56.25 L 1440 753.84375 C 1440 768.761719 1434.074219 783.070312 1423.523438 793.617188 C 1412.976562 804.167969 1398.667969 810.09375 1383.75 810.09375 L 56.25 810.09375 C 41.332031 810.09375 27.023438 804.167969 16.476562 793.617188 C 5.925781 783.070312 0 768.761719 0 753.84375 L 0 56.25 C 0 41.332031 5.925781 27.023438 16.476562 16.476562 C 27.023438 5.925781 41.332031 0 56.25 0 Z M 56.25 0 " clip-rule="nonzero"/></clipPath><clipPath id="b65986080b"><rect x="0" width="1440" y="0" height="810"/></clipPath><clipPath id="5c9d3c9581"><path d="M 267 51.128906 L 1173 51.128906 L 1173 571.628906 L 267 571.628906 Z M 267 51.128906 " clip-rule="nonzero"/></clipPath></defs><rect x="-144" width="1728" fill="#ffffff" y="-80.999999" height="971.999992" fill-opacity="1"/><rect x="-144" width="1728" fill="#ffffff" y="-80.999999" height="971.999992" fill-opacity="1"/><g transform="matrix(1, 0, 0, 1, 0, 0.000000000000039746)"><g clip-path="url(#04845190c4)"><path fill="#eae8e5" d="M 0 0 L 1439.648438 0 L 1439.648438 810 L 0 810 Z M 0 0 " fill-opacity="1" fill-rule="nonzero"/></g></g><g clip-path="url(#cb8259fd8d)"><g transform="matrix(1, 0, 0, 1, 0, 0.000000000000039746)"><g clip-path="url(#b65986080b)"><g clip-path="url(#00803708ca)"><g clip-path="url(#c3c666179a)"><path fill="#ff8035" d="M 0 0 L 1439.816406 0 L 1439.816406 810.09375 L 0 810.09375 Z M 0 0 " fill-opacity="1" fill-rule="nonzero"/></g></g></g></g></g><g clip-path="url(#5c9d3c9581)"><path fill="#ffffff" d="M 1050.605469 51.734375 L 1005.742188 77.679688 C 1004.769531 78.238281 1004.105469 79.121094 1003.816406 80.097656 C 1003.527344 81.082031 1003.609375 82.195312 1004.121094 83.207031 L 1119.066406 308.460938 C 1119.359375 309.035156 1119.679688 309.472656 1120.015625 309.757812 L 1120.015625 309.804688 C 1120.371094 310.105469 1120.859375 310.359375 1121.453125 310.546875 C 1122.003906 310.722656 1122.574219 310.785156 1123.152344 310.738281 C 1123.609375 310.699219 1124.128906 310.53125 1124.683594 310.242188 C 1132.917969 305.953125 1141.972656 301.316406 1150.777344 296.847656 C 1160.167969 292.082031 1166.359375 288.972656 1170.625 286.847656 C 1171.230469 286.546875 1171.683594 286.222656 1171.96875 285.894531 C 1172.261719 285.5625 1172.515625 285.066406 1172.722656 284.433594 C 1172.921875 283.824219 1173.003906 283.265625 1172.96875 282.78125 C 1172.933594 282.324219 1172.765625 281.804688 1172.476562 281.226562 L 1056.386719 53.457031 L 1056.421875 53.4375 C 1056.128906 52.859375 1055.78125 52.40625 1055.398438 52.085938 C 1055.039062 51.789062 1054.53125 51.539062 1053.894531 51.351562 C 1053.292969 51.175781 1052.710938 51.117188 1052.183594 51.179688 C 1051.675781 51.238281 1051.140625 51.425781 1050.605469 51.734375 Z M 320.9375 308.460938 L 435.878906 83.210938 C 436.394531 82.195312 436.472656 81.082031 436.183594 80.101562 C 435.898438 79.125 435.234375 78.246094 434.261719 77.683594 L 389.394531 51.734375 L 389.410156 51.714844 C 388.898438 51.421875 388.355469 51.242188 387.816406 51.179688 C 387.292969 51.117188 386.710938 51.175781 386.109375 51.351562 C 385.472656 51.539062 384.964844 51.789062 384.605469 52.085938 C 384.21875 52.40625 383.867188 52.863281 383.574219 53.4375 L 383.609375 53.457031 L 267.519531 281.226562 C 267.230469 281.800781 267.0625 282.324219 267.03125 282.777344 C 266.992188 283.265625 267.078125 283.824219 267.277344 284.433594 C 267.484375 285.070312 267.742188 285.566406 268.027344 285.894531 C 268.3125 286.222656 268.769531 286.546875 269.371094 286.847656 C 273.640625 288.972656 279.828125 292.078125 289.21875 296.847656 C 298.046875 301.324219 307.097656 305.964844 315.316406 310.242188 C 315.875 310.53125 316.394531 310.699219 316.847656 310.738281 C 317.425781 310.785156 318.003906 310.722656 318.546875 310.546875 C 319.089844 310.375 319.578125 310.105469 319.988281 309.757812 L 320.011719 309.785156 C 320.308594 309.519531 320.625 309.070312 320.9375 308.460938 Z M 776.75 512.492188 C 775.71875 515.964844 774.292969 519.367188 772.4375 522.675781 L 772.4375 522.679688 L 760.941406 543.175781 L 760.945312 543.179688 C 761.613281 543.722656 762.320312 544.246094 763.078125 544.734375 L 779.492188 555.292969 C 784.648438 558.609375 790.71875 559.507812 796.335938 558.289062 C 801.9375 557.078125 807.078125 553.746094 810.382812 548.605469 L 810.429688 548.535156 C 813.714844 543.398438 814.601562 537.347656 813.390625 531.746094 C 812.453125 527.402344 810.242188 523.339844 806.902344 520.203125 C 806.328125 519.796875 805.808594 519.351562 805.332031 518.859375 C 804.835938 518.472656 804.308594 518.105469 803.769531 517.757812 L 803.195312 517.359375 L 778.730469 501.710938 L 778.726562 501.777344 L 778.726562 501.808594 L 778.710938 502 L 778.703125 502.089844 L 778.6875 502.28125 L 778.679688 502.378906 L 778.675781 502.390625 L 778.671875 502.46875 L 778.660156 502.566406 L 778.65625 502.660156 L 778.644531 502.757812 L 778.636719 502.847656 L 778.625 502.945312 L 778.621094 503 L 778.617188 503.039062 L 778.585938 503.324219 L 778.578125 503.417969 L 778.566406 503.511719 L 778.558594 503.609375 L 778.554688 503.613281 L 778.511719 503.988281 L 778.503906 504.082031 L 778.492188 504.179688 L 778.484375 504.222656 L 778.480469 504.269531 L 778.46875 504.367188 L 778.433594 504.648438 L 778.421875 504.746094 L 778.40625 504.835938 L 778.40625 504.839844 L 778.394531 504.9375 L 778.382812 505.027344 L 778.367188 505.125 L 778.355469 505.21875 L 778.339844 505.316406 L 778.328125 505.40625 L 778.320312 505.445312 L 778.316406 505.503906 L 778.296875 505.597656 L 778.285156 505.691406 L 778.269531 505.785156 L 778.257812 505.878906 L 778.242188 505.976562 L 778.226562 506.054688 L 778.226562 506.070312 L 778.195312 506.257812 L 778.179688 506.355469 L 778.132812 506.636719 L 778.125 506.667969 L 778.113281 506.730469 L 778.097656 506.828125 L 778.0625 507.015625 L 778.046875 507.109375 L 778.015625 507.273438 L 777.996094 507.390625 L 777.976562 507.488281 L 777.957031 507.582031 L 777.941406 507.675781 L 777.921875 507.769531 L 777.898438 507.882812 L 777.875 508.007812 L 777.824219 508.246094 L 777.777344 508.480469 L 777.773438 508.488281 L 777.726562 508.71875 L 777.675781 508.953125 L 777.644531 509.097656 L 777.621094 509.191406 L 777.566406 509.425781 L 777.511719 509.664062 L 777.5 509.703125 L 777.453125 509.902344 L 777.394531 510.136719 L 777.355469 510.308594 L 777.339844 510.375 L 777.277344 510.609375 L 777.214844 510.847656 L 777.199219 510.914062 L 777.152344 511.082031 L 777.089844 511.316406 L 777.035156 511.515625 L 777.023438 511.550781 L 776.820312 512.257812 Z M 704 484.316406 L 682.671875 522.359375 L 678.433594 529.921875 C 674.6875 536.609375 674.011719 544.246094 675.957031 551.140625 C 677.890625 558.023438 682.445312 564.179688 689.128906 567.925781 L 689.207031 567.96875 C 695.878906 571.683594 703.480469 572.339844 710.351562 570.40625 C 717.234375 568.46875 723.390625 563.917969 727.136719 557.230469 L 737.191406 539.292969 L 737.320312 539.054688 L 752.703125 511.625 L 752.703125 511.621094 C 753.40625 510.367188 754 509.082031 754.492188 507.773438 L 754.503906 507.753906 L 754.546875 507.625 L 754.59375 507.496094 L 754.613281 507.445312 L 754.640625 507.371094 L 754.683594 507.242188 L 754.726562 507.117188 L 754.730469 507.113281 L 754.773438 506.980469 L 754.816406 506.851562 L 754.839844 506.789062 L 754.859375 506.722656 L 754.902344 506.59375 L 754.941406 506.464844 L 754.945312 506.457031 L 754.984375 506.332031 L 755.023438 506.203125 L 755.046875 506.125 L 755.0625 506.070312 L 755.101562 505.941406 L 755.175781 505.679688 L 755.214844 505.550781 L 755.242188 505.460938 L 755.25 505.417969 L 755.320312 505.152344 C 755.472656 504.582031 755.605469 504.007812 755.710938 503.4375 C 756.28125 500.535156 756.371094 497.5625 756.015625 494.652344 L 755.960938 494.078125 C 755.78125 492.839844 755.519531 491.613281 755.183594 490.40625 C 753.289062 483.683594 748.910156 477.660156 742.480469 473.890625 C 742.160156 473.730469 741.851562 473.558594 741.550781 473.371094 C 734.972656 469.84375 727.527344 469.242188 720.785156 471.140625 C 714.007812 473.046875 707.941406 477.484375 704.179688 484.003906 Z M 635.996094 459.824219 L 643.71875 446.050781 C 646.988281 440.230469 652.347656 436.257812 658.351562 434.570312 C 664.214844 432.917969 670.683594 433.433594 676.40625 436.488281 C 676.703125 436.675781 677.011719 436.847656 677.328125 437.003906 C 682.894531 440.296875 686.695312 445.527344 688.335938 451.363281 C 690.027344 457.375 689.4375 464.03125 686.175781 469.859375 L 684.269531 473.257812 L 662.941406 511.300781 L 662.941406 511.304688 L 662.894531 511.390625 L 662.882812 511.410156 L 662.84375 511.480469 L 662.832031 511.5 L 662.816406 511.527344 L 662.800781 511.550781 L 662.785156 511.578125 L 662.773438 511.605469 L 662.757812 511.632812 L 662.304688 512.359375 L 662.324219 512.375 L 662.304688 512.40625 L 661.554688 513.488281 L 661.558594 513.492188 C 661.351562 513.785156 661.15625 514.097656 660.980469 514.417969 L 647.738281 538.039062 C 647.53125 538.371094 647.332031 538.710938 647.15625 539.0625 C 643.871094 544.625 638.636719 548.425781 632.804688 550.066406 C 626.941406 551.714844 620.472656 551.203125 614.75 548.144531 C 614.445312 547.957031 614.132812 547.777344 613.808594 547.617188 C 608.25 544.332031 604.457031 539.105469 602.816406 533.273438 C 601.125 527.261719 601.710938 520.605469 604.976562 514.777344 L 615.699219 495.652344 C 622.011719 486.21875 628.425781 474.113281 634.410156 462.824219 Z M 401.957031 328.769531 L 401.980469 328.785156 Z M 573.480469 410.519531 L 548.390625 455.28125 L 548.347656 455.355469 C 547.589844 456.710938 546.777344 458.019531 545.910156 459.277344 L 531.277344 485.371094 C 527.53125 492.0625 526.863281 499.695312 528.804688 506.59375 C 530.738281 513.472656 535.292969 519.625 541.980469 523.375 C 548.667969 527.121094 556.300781 527.792969 563.199219 525.855469 C 570.082031 523.917969 576.234375 519.363281 579.984375 512.679688 L 594.890625 486.089844 C 595.136719 485.652344 595.410156 485.234375 595.703125 484.839844 L 596.371094 483.871094 L 608.480469 462.273438 C 608.90625 461.515625 609.332031 460.792969 609.734375 460.152344 L 609.753906 460.164062 C 610.035156 459.71875 610.324219 459.28125 610.621094 458.847656 L 616.554688 448.253906 C 618.730469 444.160156 620.800781 440.300781 622.621094 437.054688 C 626.371094 430.367188 627.039062 422.730469 625.097656 415.835938 C 623.207031 409.121094 618.820312 403.09375 612.394531 399.324219 C 612.074219 399.164062 611.765625 398.992188 611.464844 398.804688 C 604.886719 395.273438 597.441406 394.671875 590.703125 396.570312 C 583.980469 398.464844 577.957031 402.84375 574.1875 409.265625 C 574.023438 409.589844 573.847656 409.90625 573.660156 410.207031 L 573.621094 410.269531 Z M 486.808594 404.6875 L 486.953125 404.4375 L 505.480469 371.382812 L 505.484375 371.378906 L 505.660156 371.070312 L 505.683594 371.027344 L 505.890625 370.675781 L 505.996094 370.5 L 506.027344 370.453125 L 506.101562 370.328125 L 506.207031 370.152344 L 506.210938 370.152344 L 506.316406 369.984375 L 506.40625 369.851562 L 506.425781 369.8125 L 506.539062 369.644531 C 508.644531 366.460938 511.324219 363.835938 514.351562 361.824219 L 514.371094 361.808594 L 514.898438 361.46875 L 514.917969 361.460938 L 515.078125 361.359375 L 515.207031 361.285156 L 515.253906 361.25 L 516.335938 360.625 L 516.371094 360.609375 L 516.890625 360.332031 L 516.964844 360.292969 L 517.078125 360.234375 L 517.261719 360.140625 L 517.269531 360.140625 L 517.449219 360.046875 L 517.570312 359.988281 L 517.632812 359.957031 L 517.824219 359.867188 L 517.871094 359.84375 L 518.011719 359.777344 L 518.175781 359.703125 L 518.199219 359.691406 L 518.390625 359.609375 L 518.480469 359.566406 L 518.582031 359.519531 L 518.769531 359.441406 L 518.789062 359.429688 L 518.964844 359.355469 L 519.101562 359.300781 L 519.15625 359.277344 L 519.347656 359.199219 L 519.410156 359.175781 L 519.542969 359.125 L 519.726562 359.050781 L 519.734375 359.046875 L 519.929688 358.972656 L 520.035156 358.933594 L 520.121094 358.902344 L 520.320312 358.832031 L 520.351562 358.816406 L 520.515625 358.761719 L 520.667969 358.707031 L 520.710938 358.6875 L 520.910156 358.625 L 520.984375 358.597656 L 521.105469 358.558594 L 521.304688 358.492188 L 521.503906 358.433594 L 521.625 358.394531 L 521.703125 358.371094 L 521.902344 358.3125 L 521.945312 358.296875 L 522.101562 358.253906 L 522.265625 358.203125 L 522.300781 358.195312 L 522.5 358.140625 L 522.589844 358.113281 L 522.902344 358.035156 L 522.914062 358.03125 L 523.105469 357.984375 L 523.238281 357.953125 L 523.308594 357.933594 L 523.507812 357.886719 L 523.5625 357.871094 L 523.710938 357.839844 L 523.886719 357.800781 L 523.914062 357.792969 L 524.121094 357.753906 L 524.214844 357.730469 L 524.320312 357.710938 L 524.527344 357.667969 L 524.546875 357.664062 L 524.730469 357.628906 L 524.875 357.601562 L 524.933594 357.589844 L 525.140625 357.554688 L 525.203125 357.542969 L 525.347656 357.519531 L 525.535156 357.488281 L 525.550781 357.488281 L 525.757812 357.457031 L 526.171875 357.398438 L 526.195312 357.394531 L 526.375 357.371094 L 526.53125 357.351562 L 526.582031 357.34375 L 526.863281 357.3125 L 527.078125 357.285156 C 532.566406 356.726562 538.269531 357.78125 543.410156 360.640625 L 543.488281 360.6875 C 550.175781 364.433594 554.726562 370.585938 556.664062 377.46875 C 558.578125 384.265625 557.953125 391.78125 554.347656 398.398438 L 554.183594 398.6875 L 554.140625 398.761719 L 554.023438 398.972656 L 553.902344 399.1875 L 553.785156 399.398438 L 553.664062 399.613281 C 551.253906 403.898438 548.4375 408.824219 545.632812 413.714844 C 542.925781 418.449219 540.242188 423.128906 537.117188 428.710938 L 526.761719 447.175781 C 522.996094 452.296875 517.679688 455.824219 511.832031 457.472656 C 505.089844 459.367188 497.644531 458.769531 491.070312 455.242188 C 490.777344 455.058594 490.46875 454.882812 490.152344 454.726562 C 483.714844 450.957031 479.328125 444.929688 477.4375 438.207031 C 475.492188 431.308594 476.167969 423.675781 479.914062 416.988281 Z M 943.730469 347.765625 L 969.144531 364.289062 C 970.558594 367.96875 971.203125 371.929688 971.007812 375.890625 C 970.78125 380.574219 969.367188 385.253906 966.675781 389.457031 C 962.570312 395.875 956.15625 400.050781 949.160156 401.589844 C 942.3125 403.089844 934.933594 402.089844 928.605469 398.246094 L 928.109375 397.910156 L 918.324219 391.644531 L 918.324219 391.640625 L 892.832031 375.324219 L 891.527344 374.351562 L 891.476562 374.316406 L 891.484375 374.304688 C 890.664062 373.722656 889.949219 373.230469 889.355469 372.851562 L 888.695312 372.460938 L 881.34375 367.753906 L 880.78125 367.367188 L 855.003906 350.867188 C 849.75 347.496094 842.753906 349.019531 839.382812 354.273438 C 836.011719 359.523438 837.539062 366.519531 842.789062 369.890625 L 868.382812 386.273438 C 868.839844 386.628906 869.277344 386.957031 869.6875 387.246094 C 870.375 387.742188 871.101562 388.242188 871.871094 388.726562 L 871.859375 388.746094 L 907.152344 411.335938 C 913.007812 415.453125 916.828125 421.550781 918.28125 428.179688 C 919.824219 435.222656 918.722656 442.828125 914.597656 449.277344 C 910.492188 455.695312 904.082031 459.863281 897.089844 461.402344 C 890.238281 462.902344 882.855469 461.902344 876.527344 458.0625 L 876.035156 457.726562 L 857.894531 446.113281 L 854.53125 443.949219 L 854.523438 443.957031 L 853.707031 443.433594 L 852.894531 442.910156 C 836.167969 432.085938 822.777344 423.582031 809.386719 415.074219 L 785.464844 399.894531 C 780.210938 396.546875 773.234375 398.089844 769.890625 403.34375 C 766.542969 408.597656 768.089844 415.574219 773.339844 418.917969 L 797.261719 434.183594 C 806.460938 440.027344 815.671875 445.875 824.179688 451.308594 C 824.460938 451.53125 824.757812 451.746094 825.066406 451.945312 L 845.683594 465.140625 L 858.730469 473.535156 C 863.871094 476.835938 867.199219 481.976562 868.414062 487.582031 C 869.589844 493.015625 868.785156 498.878906 865.730469 503.921875 C 865.5 504.234375 865.289062 504.558594 865.097656 504.894531 C 861.789062 509.765625 856.796875 512.929688 851.367188 514.109375 C 845.933594 515.285156 840.070312 514.480469 835.035156 511.425781 C 834.675781 511.171875 834.308594 510.9375 833.933594 510.726562 L 820.667969 502.195312 C 819.203125 500.957031 817.640625 499.796875 815.984375 498.734375 L 815.320312 498.339844 L 769.949219 469.3125 C 765.703125 463.121094 760.023438 457.789062 753.0625 453.886719 L 752.953125 453.828125 C 740.855469 447.085938 727.097656 445.875 714.679688 449.371094 C 713.527344 449.695312 712.382812 450.0625 711.253906 450.46875 C 710.964844 448.707031 710.582031 446.96875 710.101562 445.257812 C 706.84375 433.671875 699.179688 423.320312 687.90625 417 L 687.78125 416.929688 C 676.546875 410.671875 663.773438 409.558594 652.246094 412.800781 C 650.78125 413.214844 649.335938 413.699219 647.917969 414.25 C 647.636719 412.726562 647.28125 411.21875 646.863281 409.730469 C 643.355469 397.265625 635.101562 386.117188 622.976562 379.320312 L 622.867188 379.261719 C 610.765625 372.515625 597.011719 371.304688 584.59375 374.804688 C 582.898438 375.28125 581.230469 375.84375 579.59375 376.496094 C 579.292969 374.765625 578.90625 373.054688 578.429688 371.363281 C 574.980469 359.105469 566.945312 348.125 555.152344 341.300781 C 554.761719 341.046875 554.351562 340.820312 553.941406 340.621094 C 543.984375 335.214844 532.9375 333.527344 522.449219 335.09375 L 522.078125 335.148438 L 521.988281 335.160156 L 521.707031 335.207031 C 521.089844 335.3125 520.476562 335.421875 519.863281 335.546875 L 519.636719 335.589844 L 519.496094 335.621094 L 519.128906 335.699219 C 518.328125 335.875 517.527344 336.070312 516.734375 336.28125 L 516.578125 336.324219 L 516.21875 336.425781 L 516.160156 336.4375 C 505.363281 339.476562 495.558594 346.074219 488.707031 355.671875 L 488.5 355.960938 L 488.496094 355.96875 L 487.875 356.871094 L 487.773438 357.015625 L 487.671875 357.175781 L 487.46875 357.484375 L 487.425781 357.554688 L 487.269531 357.792969 L 487.078125 358.097656 L 487.070312 358.101562 L 486.875 358.417969 L 486.738281 358.644531 L 486.683594 358.726562 L 486.492188 359.046875 L 486.398438 359.195312 L 486.304688 359.363281 L 486.113281 359.679688 L 486.074219 359.757812 L 485.929688 360.003906 L 485.75 360.324219 L 485.75 360.328125 L 474.367188 380.632812 L 469.398438 375.859375 L 441.5 349.066406 C 440.648438 348.25 439.703125 347.589844 438.703125 347.09375 L 438.710938 347.078125 L 401.980469 328.785156 L 350.472656 300.378906 L 449.179688 106.933594 C 499.957031 145.703125 542.421875 137.738281 585.320312 129.6875 C 618.332031 123.492188 651.65625 117.242188 688.632812 136.832031 L 698.09375 142.535156 L 576.796875 215.699219 L 576.679688 215.769531 L 576.570312 215.839844 L 576.457031 215.910156 L 576.457031 215.914062 L 576.347656 215.984375 L 576.34375 215.984375 L 576.238281 216.058594 L 576.234375 216.0625 L 576.128906 216.136719 L 576.125 216.136719 L 576.019531 216.210938 L 576.015625 216.210938 L 575.914062 216.289062 L 575.910156 216.289062 L 575.808594 216.367188 L 575.804688 216.371094 L 575.707031 216.445312 L 575.703125 216.449219 L 575.601562 216.527344 L 575.597656 216.53125 L 575.5 216.609375 L 575.496094 216.613281 L 575.402344 216.691406 L 575.394531 216.699219 L 575.300781 216.773438 L 575.292969 216.78125 L 575.203125 216.859375 L 575.195312 216.863281 L 575.105469 216.945312 L 575.097656 216.949219 L 575.007812 217.03125 L 575.003906 217.039062 L 574.914062 217.117188 L 574.90625 217.128906 L 574.820312 217.207031 L 574.8125 217.214844 L 574.726562 217.296875 L 574.535156 217.488281 L 574.457031 217.570312 L 574.445312 217.582031 L 574.371094 217.664062 L 574.359375 217.671875 L 574.285156 217.757812 L 574.273438 217.765625 L 574.195312 217.851562 L 574.1875 217.863281 L 574.113281 217.945312 L 574.101562 217.960938 L 574.03125 218.042969 L 574.019531 218.054688 L 573.945312 218.140625 L 573.9375 218.152344 L 573.867188 218.238281 L 573.855469 218.25 L 573.789062 218.335938 L 573.777344 218.351562 L 573.707031 218.433594 L 573.699219 218.449219 L 573.632812 218.535156 L 573.621094 218.554688 L 573.554688 218.636719 L 573.542969 218.652344 L 573.480469 218.738281 L 573.472656 218.753906 L 573.40625 218.84375 L 573.398438 218.859375 L 573.335938 218.945312 L 573.324219 218.964844 L 573.265625 219.046875 L 573.253906 219.066406 L 573.195312 219.152344 L 573.183594 219.171875 L 573.128906 219.257812 L 573.113281 219.277344 L 573.058594 219.367188 L 573.046875 219.382812 L 572.992188 219.472656 L 572.980469 219.492188 L 572.929688 219.578125 L 572.914062 219.601562 L 572.863281 219.6875 L 572.851562 219.707031 L 572.804688 219.796875 L 572.789062 219.816406 L 572.742188 219.90625 L 572.730469 219.925781 L 572.679688 220.011719 L 572.667969 220.039062 L 572.625 220.125 L 572.609375 220.148438 L 572.566406 220.234375 L 572.554688 220.261719 L 572.507812 220.347656 L 572.496094 220.375 L 572.441406 220.484375 L 572.398438 220.574219 L 572.390625 220.597656 L 572.347656 220.683594 L 572.335938 220.714844 L 572.246094 220.914062 L 572.234375 220.941406 L 572.199219 221.027344 L 572.1875 221.058594 L 572.152344 221.144531 L 572.140625 221.171875 L 572.105469 221.257812 L 572.09375 221.292969 L 572.0625 221.375 L 572.050781 221.40625 L 572.015625 221.492188 L 572.007812 221.527344 L 571.976562 221.609375 L 571.964844 221.640625 L 571.933594 221.726562 L 571.894531 221.84375 L 571.886719 221.878906 L 571.855469 221.960938 L 571.847656 221.996094 C 571.601562 222.65625 571.367188 223.316406 571.15625 223.964844 L 571.152344 223.972656 L 570.988281 224.472656 L 570.945312 224.621094 L 570.554688 225.867188 L 570.539062 225.925781 L 570.527344 225.96875 L 570.382812 226.464844 L 570.351562 226.574219 L 570.242188 226.964844 L 570.171875 227.21875 L 570.105469 227.460938 L 569.996094 227.867188 L 569.976562 227.953125 C 569.808594 228.613281 569.648438 229.269531 569.503906 229.925781 L 569.398438 230.414062 L 569.390625 230.433594 C 567.894531 237.46875 567.886719 244.226562 569.363281 250.710938 L 569.367188 250.734375 L 569.472656 251.191406 L 569.582031 251.644531 L 569.644531 251.890625 L 569.699219 252.097656 L 569.796875 252.476562 L 569.816406 252.546875 C 572.429688 262.265625 578.296875 271.039062 587.386719 278.851562 L 587.90625 279.269531 C 592.714844 283.328125 598.398438 287.117188 604.96875 290.632812 C 605.804688 291.078125 606.667969 291.40625 607.542969 291.625 L 607.539062 291.652344 C 621.5625 295.179688 635.253906 295.96875 648.585938 294.035156 C 661.960938 292.089844 674.871094 287.425781 687.308594 280.046875 L 687.496094 279.929688 C 712.109375 265.65625 735.511719 257.511719 757.675781 255.519531 C 779.367188 253.570312 800.148438 257.5 819.988281 267.308594 Z M 757.140625 232.925781 C 782.738281 230.871094 807.183594 235.636719 830.441406 247.230469 C 831.082031 247.546875 831.675781 247.914062 832.222656 248.328125 L 879.117188 278.820312 L 879.152344 278.84375 L 899.429688 292.027344 L 975.417969 218.636719 L 975.625 218.429688 L 975.652344 218.40625 L 986.046875 208.367188 L 912.8125 132.261719 L 912.625 132.070312 L 888.261719 106.75 L 867.246094 126.972656 L 867.050781 127.160156 L 866.851562 127.347656 L 862.824219 131.226562 Z M 835.40625 126.265625 C 808.601562 122.042969 781.179688 121.046875 751.367188 136.832031 L 620.542969 215.734375 L 592.046875 232.921875 L 591.917969 233.394531 L 591.878906 233.550781 L 591.746094 234.089844 L 591.726562 234.175781 L 591.691406 234.324219 L 591.65625 234.484375 C 590.992188 237.417969 590.773438 240.21875 590.996094 242.875 L 591.011719 243.042969 L 591.035156 243.289062 L 591.042969 243.320312 L 591.058594 243.496094 L 591.070312 243.601562 L 591.082031 243.699219 L 591.105469 243.878906 L 591.109375 243.90625 L 591.136719 244.109375 L 591.140625 244.15625 L 591.167969 244.3125 L 591.183594 244.433594 L 591.199219 244.519531 L 591.226562 244.707031 L 591.230469 244.722656 L 591.265625 244.925781 C 591.375 245.53125 591.507812 246.128906 591.667969 246.710938 C 593.074219 251.945312 596.546875 256.945312 602.070312 261.6875 L 602.652344 262.222656 C 605.871094 264.90625 609.75 267.507812 614.289062 270.019531 C 625 272.558594 635.382812 273.105469 645.402344 271.652344 C 655.78125 270.140625 665.917969 266.449219 675.808594 260.585938 L 676.15625 260.390625 C 689.449219 252.675781 702.527344 246.5625 715.394531 242.042969 C 715.808594 241.453125 716.28125 240.894531 716.820312 240.378906 L 727.804688 229.808594 Z M 990.816406 106.929688 L 1090.050781 301.390625 L 984.570312 347.378906 C 984.332031 347.210938 984.085938 347.054688 983.835938 346.90625 L 972.152344 339.3125 L 1034.238281 279.34375 C 1038.734375 275.019531 1038.871094 267.867188 1034.546875 263.375 L 999.414062 226.863281 L 1009.832031 216.796875 C 1014.328125 212.472656 1014.464844 205.324219 1010.140625 200.828125 L 943.328125 131.402344 C 948.894531 129.828125 954.527344 127.816406 960.230469 125.285156 C 970.171875 120.882812 980.347656 114.898438 990.816406 106.929688 Z M 919.453125 165.265625 C 915.945312 161.871094 911.492188 159.128906 906.664062 157.273438 C 905.558594 156.847656 904.421875 156.464844 903.269531 156.128906 L 903.269531 153.605469 C 903.269531 147.351562 898.195312 142.277344 891.941406 142.277344 C 885.6875 142.277344 880.617188 147.351562 880.617188 153.605469 L 880.617188 156.023438 C 876.070312 157.46875 871.863281 159.917969 868.375 163.519531 C 865.785156 166.191406 863.640625 169.480469 862.125 173.441406 C 859.476562 180.335938 859.632812 187.375 862.683594 193.808594 C 865.359375 199.476562 870.207031 204.398438 877.214844 207.9375 C 882.023438 210.367188 887.253906 211.734375 892.398438 213.074219 C 895.507812 213.886719 898.585938 214.691406 901.03125 215.675781 C 903.121094 216.519531 904.046875 217.351562 904.066406 217.992188 C 904.082031 218.652344 903.742188 219.515625 903.109375 220.429688 C 902.207031 221.734375 900.757812 222.949219 898.882812 223.867188 C 897.046875 224.761719 894.867188 225.308594 892.40625 225.351562 L 891.941406 225.34375 L 891.554688 225.351562 C 886.925781 225.222656 881.375 223.34375 875.300781 218.785156 C 870.316406 215.050781 863.242188 216.0625 859.507812 221.042969 C 855.769531 226.027344 856.78125 233.097656 861.765625 236.835938 C 868.203125 241.667969 874.5625 244.734375 880.617188 246.40625 L 880.617188 248.617188 C 880.617188 254.871094 885.6875 259.945312 891.941406 259.945312 C 898.195312 259.945312 903.269531 254.871094 903.269531 248.617188 L 903.269531 246.371094 C 905.207031 245.789062 907.054688 245.0625 908.789062 244.214844 C 914.191406 241.578125 918.613281 237.703125 921.691406 233.261719 C 925.03125 228.433594 926.8125 222.859375 926.628906 217.285156 C 926.328125 208.039062 921.089844 199.414062 909.4375 194.707031 C 905.847656 193.257812 901.976562 192.242188 898.0625 191.222656 C 894.148438 190.203125 890.164062 189.160156 887.394531 187.761719 C 885.097656 186.605469 883.683594 185.363281 883.121094 184.167969 C 882.769531 183.425781 882.792969 182.492188 883.175781 181.492188 C 883.519531 180.59375 884.003906 179.855469 884.566406 179.269531 C 885.792969 178 887.691406 177.304688 889.828125 177.082031 C 890.25 177.035156 890.675781 177.011719 891.105469 177 C 891.382812 177.023438 891.660156 177.027344 891.941406 177.027344 L 892.453125 177.015625 C 894.5 177.125 896.585938 177.585938 898.523438 178.328125 C 900.589844 179.125 902.40625 180.203125 903.703125 181.460938 C 908.171875 185.804688 915.328125 185.707031 919.675781 181.238281 C 924.019531 176.769531 923.921875 169.613281 919.453125 165.265625 Z M 952.71875 326.675781 L 918.863281 304.660156 L 983.164062 242.554688 L 1010.453125 270.914062 Z M 952.71875 326.675781 " fill-opacity="1" fill-rule="evenodd"/></g><g fill="#ffffff" fill-opacity="1"><g transform="translate(355.716784, 677.293042)"><g><path d="M 43.828125 -32.40625 C 47.484375 -31.625 50.421875 -29.804688 52.640625 -26.953125 C 54.867188 -24.109375 55.984375 -20.851562 55.984375 -17.1875 C 55.984375 -11.90625 54.132812 -7.71875 50.4375 -4.625 C 46.75 -1.539062 41.609375 0 35.015625 0 L 5.578125 0 L 5.578125 -63.1875 L 34.015625 -63.1875 C 40.441406 -63.1875 45.46875 -61.710938 49.09375 -58.765625 C 52.726562 -55.828125 54.546875 -51.835938 54.546875 -46.796875 C 54.546875 -43.078125 53.566406 -39.988281 51.609375 -37.53125 C 49.660156 -35.070312 47.066406 -33.363281 43.828125 -32.40625 Z M 20.96875 -37.625 L 31.046875 -37.625 C 33.566406 -37.625 35.5 -38.175781 36.84375 -39.28125 C 38.195312 -40.394531 38.875 -42.03125 38.875 -44.1875 C 38.875 -46.351562 38.195312 -48.003906 36.84375 -49.140625 C 35.5 -50.273438 33.566406 -50.84375 31.046875 -50.84375 L 20.96875 -50.84375 Z M 32.3125 -12.421875 C 34.894531 -12.421875 36.890625 -13.003906 38.296875 -14.171875 C 39.703125 -15.347656 40.40625 -17.046875 40.40625 -19.265625 C 40.40625 -21.484375 39.671875 -23.222656 38.203125 -24.484375 C 36.734375 -25.742188 34.707031 -26.375 32.125 -26.375 L 20.96875 -26.375 L 20.96875 -12.421875 Z M 32.3125 -12.421875 "/></g></g></g><g fill="#ffffff" fill-opacity="1"><g transform="translate(415.026726, 677.293042)"><g><path d="M 55.171875 -50.21875 L 55.171875 0 L 39.78125 0 L 39.78125 -6.84375 C 38.21875 -4.625 36.101562 -2.835938 33.4375 -1.484375 C 30.769531 -0.128906 27.8125 0.546875 24.5625 0.546875 C 20.726562 0.546875 17.335938 -0.304688 14.390625 -2.015625 C 11.453125 -3.734375 9.171875 -6.210938 7.546875 -9.453125 C 5.929688 -12.691406 5.125 -16.5 5.125 -20.875 L 5.125 -50.21875 L 20.4375 -50.21875 L 20.4375 -22.953125 C 20.4375 -19.585938 21.304688 -16.972656 23.046875 -15.109375 C 24.785156 -13.253906 27.125 -12.328125 30.0625 -12.328125 C 33.0625 -12.328125 35.429688 -13.253906 37.171875 -15.109375 C 38.910156 -16.972656 39.78125 -19.585938 39.78125 -22.953125 L 39.78125 -50.21875 Z M 55.171875 -50.21875 "/></g></g></g><g fill="#ffffff" fill-opacity="1"><g transform="translate(475.68667, 677.293042)"><g><path d="M 26.015625 0.71875 C 21.628906 0.71875 17.726562 -0.03125 14.3125 -1.53125 C 10.894531 -3.03125 8.191406 -5.082031 6.203125 -7.6875 C 4.222656 -10.300781 3.113281 -13.226562 2.875 -16.46875 L 18.09375 -16.46875 C 18.269531 -14.726562 19.078125 -13.316406 20.515625 -12.234375 C 21.960938 -11.160156 23.734375 -10.625 25.828125 -10.625 C 27.742188 -10.625 29.226562 -11 30.28125 -11.75 C 31.332031 -12.5 31.859375 -13.472656 31.859375 -14.671875 C 31.859375 -16.109375 31.109375 -17.171875 29.609375 -17.859375 C 28.109375 -18.554688 25.675781 -19.320312 22.3125 -20.15625 C 18.71875 -21 15.71875 -21.882812 13.3125 -22.8125 C 10.914062 -23.738281 8.847656 -25.207031 7.109375 -27.21875 C 5.367188 -29.226562 4.5 -31.945312 4.5 -35.375 C 4.5 -38.25 5.289062 -40.867188 6.875 -43.234375 C 8.46875 -45.609375 10.8125 -47.484375 13.90625 -48.859375 C 17 -50.242188 20.675781 -50.9375 24.9375 -50.9375 C 31.226562 -50.9375 36.1875 -49.375 39.8125 -46.25 C 43.445312 -43.132812 45.535156 -39 46.078125 -33.84375 L 31.859375 -33.84375 C 31.617188 -35.582031 30.851562 -36.960938 29.5625 -37.984375 C 28.269531 -39.003906 26.578125 -39.515625 24.484375 -39.515625 C 22.679688 -39.515625 21.300781 -39.164062 20.34375 -38.46875 C 19.382812 -37.78125 18.90625 -36.835938 18.90625 -35.640625 C 18.90625 -34.203125 19.664062 -33.117188 21.1875 -32.390625 C 22.71875 -31.671875 25.101562 -30.953125 28.34375 -30.234375 C 32.070312 -29.273438 35.101562 -28.332031 37.4375 -27.40625 C 39.78125 -26.476562 41.835938 -24.976562 43.609375 -22.90625 C 45.378906 -20.832031 46.289062 -18.054688 46.34375 -14.578125 C 46.34375 -11.640625 45.519531 -9.015625 43.875 -6.703125 C 42.226562 -4.390625 39.859375 -2.570312 36.765625 -1.25 C 33.671875 0.0585938 30.085938 0.71875 26.015625 0.71875 Z M 26.015625 0.71875 "/></g></g></g><g fill="#ffffff" fill-opacity="1"><g transform="translate(525.906615, 677.293042)"><g><path d="M 13.3125 -55.4375 C 10.613281 -55.4375 8.410156 -56.226562 6.703125 -57.8125 C 4.992188 -59.40625 4.140625 -61.375 4.140625 -63.71875 C 4.140625 -66.113281 4.992188 -68.109375 6.703125 -69.703125 C 8.410156 -71.296875 10.613281 -72.09375 13.3125 -72.09375 C 15.957031 -72.09375 18.132812 -71.296875 19.84375 -69.703125 C 21.550781 -68.109375 22.40625 -66.113281 22.40625 -63.71875 C 22.40625 -61.375 21.550781 -59.40625 19.84375 -57.8125 C 18.132812 -56.226562 15.957031 -55.4375 13.3125 -55.4375 Z M 20.96875 -50.21875 L 20.96875 0 L 5.578125 0 L 5.578125 -50.21875 Z M 20.96875 -50.21875 "/></g></g></g><g fill="#ffffff" fill-opacity="1"><g transform="translate(552.456597, 677.293042)"><g><path d="M 36.1875 -50.765625 C 42.0625 -50.765625 46.753906 -48.859375 50.265625 -45.046875 C 53.773438 -41.234375 55.53125 -36 55.53125 -29.34375 L 55.53125 0 L 40.234375 0 L 40.234375 -27.265625 C 40.234375 -30.628906 39.363281 -33.238281 37.625 -35.09375 C 35.882812 -36.957031 33.539062 -37.890625 30.59375 -37.890625 C 27.65625 -37.890625 25.316406 -36.957031 23.578125 -35.09375 C 21.835938 -33.238281 20.96875 -30.628906 20.96875 -27.265625 L 20.96875 0 L 5.578125 0 L 5.578125 -50.21875 L 20.96875 -50.21875 L 20.96875 -43.5625 C 22.53125 -45.78125 24.628906 -47.535156 27.265625 -48.828125 C 29.910156 -50.117188 32.882812 -50.765625 36.1875 -50.765625 Z M 36.1875 -50.765625 "/></g></g></g><g fill="#ffffff" fill-opacity="1"><g transform="translate(613.116529, 677.293042)"><g><path d="M 52.921875 -25.921875 C 52.921875 -24.484375 52.832031 -22.984375 52.65625 -21.421875 L 17.8125 -21.421875 C 18.0625 -18.296875 19.066406 -15.910156 20.828125 -14.265625 C 22.597656 -12.617188 24.773438 -11.796875 27.359375 -11.796875 C 31.203125 -11.796875 33.875 -13.414062 35.375 -16.65625 L 51.75 -16.65625 C 50.90625 -13.351562 49.390625 -10.378906 47.203125 -7.734375 C 45.015625 -5.097656 42.269531 -3.03125 38.96875 -1.53125 C 35.664062 -0.03125 31.976562 0.71875 27.90625 0.71875 C 22.976562 0.71875 18.59375 -0.328125 14.75 -2.421875 C 10.914062 -4.523438 7.914062 -7.523438 5.75 -11.421875 C 3.59375 -15.328125 2.515625 -19.890625 2.515625 -25.109375 C 2.515625 -30.328125 3.578125 -34.882812 5.703125 -38.78125 C 7.835938 -42.6875 10.828125 -45.6875 14.671875 -47.78125 C 18.515625 -49.882812 22.925781 -50.9375 27.90625 -50.9375 C 32.757812 -50.9375 37.078125 -49.914062 40.859375 -47.875 C 44.640625 -45.832031 47.59375 -42.921875 49.71875 -39.140625 C 51.851562 -35.367188 52.921875 -30.960938 52.921875 -25.921875 Z M 37.171875 -29.96875 C 37.171875 -32.613281 36.269531 -34.710938 34.46875 -36.265625 C 32.664062 -37.828125 30.414062 -38.609375 27.71875 -38.609375 C 25.132812 -38.609375 22.957031 -37.859375 21.1875 -36.359375 C 19.425781 -34.859375 18.332031 -32.726562 17.90625 -29.96875 Z M 37.171875 -29.96875 "/></g></g></g><g fill="#ffffff" fill-opacity="1"><g transform="translate(668.55649, 677.293042)"><g><path d="M 26.015625 0.71875 C 21.628906 0.71875 17.726562 -0.03125 14.3125 -1.53125 C 10.894531 -3.03125 8.191406 -5.082031 6.203125 -7.6875 C 4.222656 -10.300781 3.113281 -13.226562 2.875 -16.46875 L 18.09375 -16.46875 C 18.269531 -14.726562 19.078125 -13.316406 20.515625 -12.234375 C 21.960938 -11.160156 23.734375 -10.625 25.828125 -10.625 C 27.742188 -10.625 29.226562 -11 30.28125 -11.75 C 31.332031 -12.5 31.859375 -13.472656 31.859375 -14.671875 C 31.859375 -16.109375 31.109375 -17.171875 29.609375 -17.859375 C 28.109375 -18.554688 25.675781 -19.320312 22.3125 -20.15625 C 18.71875 -21 15.71875 -21.882812 13.3125 -22.8125 C 10.914062 -23.738281 8.847656 -25.207031 7.109375 -27.21875 C 5.367188 -29.226562 4.5 -31.945312 4.5 -35.375 C 4.5 -38.25 5.289062 -40.867188 6.875 -43.234375 C 8.46875 -45.609375 10.8125 -47.484375 13.90625 -48.859375 C 17 -50.242188 20.675781 -50.9375 24.9375 -50.9375 C 31.226562 -50.9375 36.1875 -49.375 39.8125 -46.25 C 43.445312 -43.132812 45.535156 -39 46.078125 -33.84375 L 31.859375 -33.84375 C 31.617188 -35.582031 30.851562 -36.960938 29.5625 -37.984375 C 28.269531 -39.003906 26.578125 -39.515625 24.484375 -39.515625 C 22.679688 -39.515625 21.300781 -39.164062 20.34375 -38.46875 C 19.382812 -37.78125 18.90625 -36.835938 18.90625 -35.640625 C 18.90625 -34.203125 19.664062 -33.117188 21.1875 -32.390625 C 22.71875 -31.671875 25.101562 -30.953125 28.34375 -30.234375 C 32.070312 -29.273438 35.101562 -28.332031 37.4375 -27.40625 C 39.78125 -26.476562 41.835938 -24.976562 43.609375 -22.90625 C 45.378906 -20.832031 46.289062 -18.054688 46.34375 -14.578125 C 46.34375 -11.640625 45.519531 -9.015625 43.875 -6.703125 C 42.226562 -4.390625 39.859375 -2.570312 36.765625 -1.25 C 33.671875 0.0585938 30.085938 0.71875 26.015625 0.71875 Z M 26.015625 0.71875 "/></g></g></g><g fill="#ffffff" fill-opacity="1"><g transform="translate(718.776413, 677.293042)"><g><path d="M 26.015625 0.71875 C 21.628906 0.71875 17.726562 -0.03125 14.3125 -1.53125 C 10.894531 -3.03125 8.191406 -5.082031 6.203125 -7.6875 C 4.222656 -10.300781 3.113281 -13.226562 2.875 -16.46875 L 18.09375 -16.46875 C 18.269531 -14.726562 19.078125 -13.316406 20.515625 -12.234375 C 21.960938 -11.160156 23.734375 -10.625 25.828125 -10.625 C 27.742188 -10.625 29.226562 -11 30.28125 -11.75 C 31.332031 -12.5 31.859375 -13.472656 31.859375 -14.671875 C 31.859375 -16.109375 31.109375 -17.171875 29.609375 -17.859375 C 28.109375 -18.554688 25.675781 -19.320312 22.3125 -20.15625 C 18.71875 -21 15.71875 -21.882812 13.3125 -22.8125 C 10.914062 -23.738281 8.847656 -25.207031 7.109375 -27.21875 C 5.367188 -29.226562 4.5 -31.945312 4.5 -35.375 C 4.5 -38.25 5.289062 -40.867188 6.875 -43.234375 C 8.46875 -45.609375 10.8125 -47.484375 13.90625 -48.859375 C 17 -50.242188 20.675781 -50.9375 24.9375 -50.9375 C 31.226562 -50.9375 36.1875 -49.375 39.8125 -46.25 C 43.445312 -43.132812 45.535156 -39 46.078125 -33.84375 L 31.859375 -33.84375 C 31.617188 -35.582031 30.851562 -36.960938 29.5625 -37.984375 C 28.269531 -39.003906 26.578125 -39.515625 24.484375 -39.515625 C 22.679688 -39.515625 21.300781 -39.164062 20.34375 -38.46875 C 19.382812 -37.78125 18.90625 -36.835938 18.90625 -35.640625 C 18.90625 -34.203125 19.664062 -33.117188 21.1875 -32.390625 C 22.71875 -31.671875 25.101562 -30.953125 28.34375 -30.234375 C 32.070312 -29.273438 35.101562 -28.332031 37.4375 -27.40625 C 39.78125 -26.476562 41.835938 -24.976562 43.609375 -22.90625 C 45.378906 -20.832031 46.289062 -18.054688 46.34375 -14.578125 C 46.34375 -11.640625 45.519531 -9.015625 43.875 -6.703125 C 42.226562 -4.390625 39.859375 -2.570312 36.765625 -1.25 C 33.671875 0.0585938 30.085938 0.71875 26.015625 0.71875 Z M 26.015625 0.71875 "/></g></g></g><g fill="#ffffff" fill-opacity="1"><g transform="translate(768.996381, 677.293042)"><g/></g></g><g fill="#ffffff" fill-opacity="1"><g transform="translate(788.076336, 677.293042)"><g><path d="M 20.96875 -50.84375 L 20.96875 -38.0625 L 41.578125 -38.0625 L 41.578125 -26.1875 L 20.96875 -26.1875 L 20.96875 -12.328125 L 44.28125 -12.328125 L 44.28125 0 L 5.578125 0 L 5.578125 -63.1875 L 44.28125 -63.1875 L 44.28125 -50.84375 Z M 20.96875 -50.84375 "/></g></g></g><g fill="#ffffff" fill-opacity="1"><g transform="translate(836.766321, 677.293042)"><g><path d="M 33.5625 -13.046875 L 33.5625 0 L 25.734375 0 C 20.160156 0 15.8125 -1.363281 12.6875 -4.09375 C 9.570312 -6.820312 8.015625 -11.273438 8.015625 -17.453125 L 8.015625 -37.4375 L 1.890625 -37.4375 L 1.890625 -50.21875 L 8.015625 -50.21875 L 8.015625 -62.453125 L 23.40625 -62.453125 L 23.40625 -50.21875 L 33.484375 -50.21875 L 33.484375 -37.4375 L 23.40625 -37.4375 L 23.40625 -17.28125 C 23.40625 -15.78125 23.765625 -14.695312 24.484375 -14.03125 C 25.203125 -13.375 26.398438 -13.046875 28.078125 -13.046875 Z M 33.5625 -13.046875 "/></g></g></g><g fill="#ffffff" fill-opacity="1"><g transform="translate(873.306251, 677.293042)"><g><path d="M 36.453125 -50.765625 C 42.210938 -50.765625 46.832031 -48.859375 50.3125 -45.046875 C 53.789062 -41.234375 55.53125 -36 55.53125 -29.34375 L 55.53125 0 L 40.234375 0 L 40.234375 -27.265625 C 40.234375 -30.628906 39.363281 -33.238281 37.625 -35.09375 C 35.882812 -36.957031 33.539062 -37.890625 30.59375 -37.890625 C 27.65625 -37.890625 25.316406 -36.957031 23.578125 -35.09375 C 21.835938 -33.238281 20.96875 -30.628906 20.96875 -27.265625 L 20.96875 0 L 5.578125 0 L 5.578125 -66.59375 L 20.96875 -66.59375 L 20.96875 -43.46875 C 22.53125 -45.6875 24.660156 -47.457031 27.359375 -48.78125 C 30.054688 -50.101562 33.085938 -50.765625 36.453125 -50.765625 Z M 36.453125 -50.765625 "/></g></g></g><g fill="#ffffff" fill-opacity="1"><g transform="translate(933.966206, 677.293042)"><g><path d="M 13.3125 -55.4375 C 10.613281 -55.4375 8.410156 -56.226562 6.703125 -57.8125 C 4.992188 -59.40625 4.140625 -61.375 4.140625 -63.71875 C 4.140625 -66.113281 4.992188 -68.109375 6.703125 -69.703125 C 8.410156 -71.296875 10.613281 -72.09375 13.3125 -72.09375 C 15.957031 -72.09375 18.132812 -71.296875 19.84375 -69.703125 C 21.550781 -68.109375 22.40625 -66.113281 22.40625 -63.71875 C 22.40625 -61.375 21.550781 -59.40625 19.84375 -57.8125 C 18.132812 -56.226562 15.957031 -55.4375 13.3125 -55.4375 Z M 20.96875 -50.21875 L 20.96875 0 L 5.578125 0 L 5.578125 -50.21875 Z M 20.96875 -50.21875 "/></g></g></g><g fill="#ffffff" fill-opacity="1"><g transform="translate(960.516177, 677.293042)"><g><path d="M 2.515625 -25.109375 C 2.515625 -30.328125 3.578125 -34.882812 5.703125 -38.78125 C 7.835938 -42.6875 10.8125 -45.6875 14.625 -47.78125 C 18.4375 -49.882812 22.800781 -50.9375 27.71875 -50.9375 C 34.019531 -50.9375 39.285156 -49.285156 43.515625 -45.984375 C 47.742188 -42.691406 50.519531 -38.046875 51.84375 -32.046875 L 35.453125 -32.046875 C 34.078125 -35.878906 31.410156 -37.796875 27.453125 -37.796875 C 24.628906 -37.796875 22.378906 -36.703125 20.703125 -34.515625 C 19.023438 -32.328125 18.1875 -29.191406 18.1875 -25.109375 C 18.1875 -21.023438 19.023438 -17.890625 20.703125 -15.703125 C 22.378906 -13.515625 24.628906 -12.421875 27.453125 -12.421875 C 31.410156 -12.421875 34.078125 -14.34375 35.453125 -18.1875 L 51.84375 -18.1875 C 50.519531 -12.300781 47.726562 -7.675781 43.46875 -4.3125 C 39.207031 -0.957031 33.957031 0.71875 27.71875 0.71875 C 22.800781 0.71875 18.4375 -0.328125 14.625 -2.421875 C 10.8125 -4.523438 7.835938 -7.523438 5.703125 -11.421875 C 3.578125 -15.328125 2.515625 -19.890625 2.515625 -25.109375 Z M 2.515625 -25.109375 "/></g></g></g><g fill="#ffffff" fill-opacity="1"><g transform="translate(1014.966111, 677.293042)"><g><path d="M 26.015625 0.71875 C 21.628906 0.71875 17.726562 -0.03125 14.3125 -1.53125 C 10.894531 -3.03125 8.191406 -5.082031 6.203125 -7.6875 C 4.222656 -10.300781 3.113281 -13.226562 2.875 -16.46875 L 18.09375 -16.46875 C 18.269531 -14.726562 19.078125 -13.316406 20.515625 -12.234375 C 21.960938 -11.160156 23.734375 -10.625 25.828125 -10.625 C 27.742188 -10.625 29.226562 -11 30.28125 -11.75 C 31.332031 -12.5 31.859375 -13.472656 31.859375 -14.671875 C 31.859375 -16.109375 31.109375 -17.171875 29.609375 -17.859375 C 28.109375 -18.554688 25.675781 -19.320312 22.3125 -20.15625 C 18.71875 -21 15.71875 -21.882812 13.3125 -22.8125 C 10.914062 -23.738281 8.847656 -25.207031 7.109375 -27.21875 C 5.367188 -29.226562 4.5 -31.945312 4.5 -35.375 C 4.5 -38.25 5.289062 -40.867188 6.875 -43.234375 C 8.46875 -45.609375 10.8125 -47.484375 13.90625 -48.859375 C 17 -50.242188 20.675781 -50.9375 24.9375 -50.9375 C 31.226562 -50.9375 36.1875 -49.375 39.8125 -46.25 C 43.445312 -43.132812 45.535156 -39 46.078125 -33.84375 L 31.859375 -33.84375 C 31.617188 -35.582031 30.851562 -36.960938 29.5625 -37.984375 C 28.269531 -39.003906 26.578125 -39.515625 24.484375 -39.515625 C 22.679688 -39.515625 21.300781 -39.164062 20.34375 -38.46875 C 19.382812 -37.78125 18.90625 -36.835938 18.90625 -35.640625 C 18.90625 -34.203125 19.664062 -33.117188 21.1875 -32.390625 C 22.71875 -31.671875 25.101562 -30.953125 28.34375 -30.234375 C 32.070312 -29.273438 35.101562 -28.332031 37.4375 -27.40625 C 39.78125 -26.476562 41.835938 -24.976562 43.609375 -22.90625 C 45.378906 -20.832031 46.289062 -18.054688 46.34375 -14.578125 C 46.34375 -11.640625 45.519531 -9.015625 43.875 -6.703125 C 42.226562 -4.390625 39.859375 -2.570312 36.765625 -1.25 C 33.671875 0.0585938 30.085938 0.71875 26.015625 0.71875 Z M 26.015625 0.71875 "/></g></g></g><g fill="#ffffff" fill-opacity="1"><g transform="translate(1065.193315, 677.293042)"><g/></g></g><g fill="#ffffff" fill-opacity="1"><g transform="translate(300.509756, 767.293037)"><g><path d="M 53.90625 0 L 48.0625 -5.671875 C 42.238281 -1.234375 35.28125 0.984375 27.1875 0.984375 C 22.320312 0.984375 18.085938 0.191406 14.484375 -1.390625 C 10.890625 -2.984375 8.113281 -5.234375 6.15625 -8.140625 C 4.207031 -11.054688 3.234375 -14.460938 3.234375 -18.359375 C 3.234375 -22.316406 4.296875 -25.898438 6.421875 -29.109375 C 8.554688 -32.328125 11.753906 -34.953125 16.015625 -36.984375 C 14.460938 -38.910156 13.351562 -40.757812 12.6875 -42.53125 C 12.03125 -44.300781 11.703125 -46.234375 11.703125 -48.328125 C 11.703125 -51.328125 12.476562 -54.054688 14.03125 -56.515625 C 15.59375 -58.972656 17.859375 -60.90625 20.828125 -62.3125 C 23.804688 -63.726562 27.332031 -64.4375 31.40625 -64.4375 C 35.550781 -64.4375 39.0625 -63.6875 41.9375 -62.1875 C 44.820312 -60.6875 46.984375 -58.675781 48.421875 -56.15625 C 49.859375 -53.632812 50.519531 -50.875 50.40625 -47.875 L 35.90625 -47.875 C 35.96875 -49.5 35.5625 -50.742188 34.6875 -51.609375 C 33.820312 -52.484375 32.671875 -52.921875 31.234375 -52.921875 C 29.785156 -52.921875 28.582031 -52.5 27.625 -51.65625 C 26.664062 -50.820312 26.1875 -49.742188 26.1875 -48.421875 C 26.1875 -47.160156 26.59375 -45.835938 27.40625 -44.453125 C 28.21875 -43.078125 29.492188 -41.488281 31.234375 -39.6875 L 46.625 -24.65625 C 46.738281 -24.957031 46.898438 -25.316406 47.109375 -25.734375 C 47.328125 -26.160156 47.554688 -26.644531 47.796875 -27.1875 L 51.125 -32.84375 L 66.515625 -32.84375 L 62.1875 -25.015625 C 60.570312 -21.472656 58.710938 -18.113281 56.609375 -14.9375 L 71.8125 0 Z M 27.90625 -11.4375 C 31.925781 -11.4375 35.492188 -12.570312 38.609375 -14.84375 L 24.5625 -28.4375 C 20.25 -26.21875 18.09375 -23.21875 18.09375 -19.4375 C 18.09375 -17.15625 18.976562 -15.25 20.75 -13.71875 C 22.519531 -12.195312 24.90625 -11.4375 27.90625 -11.4375 Z M 27.90625 -11.4375 "/></g></g></g><g fill="#ffffff" fill-opacity="1"><g transform="translate(372.32968, 767.293037)"><g/></g></g><g fill="#ffffff" fill-opacity="1"><g transform="translate(391.409658, 767.293037)"><g><path d="M 44.90625 -11.15625 L 21.328125 -11.15625 L 17.546875 0 L 1.4375 0 L 24.296875 -63.1875 L 42.125 -63.1875 L 64.984375 0 L 48.6875 0 Z M 40.953125 -23.046875 L 33.125 -46.171875 L 25.375 -23.046875 Z M 40.953125 -23.046875 "/></g></g></g><g fill="#ffffff" fill-opacity="1"><g transform="translate(457.739587, 767.293037)"><g><path d="M 36.1875 -50.765625 C 42.0625 -50.765625 46.753906 -48.859375 50.265625 -45.046875 C 53.773438 -41.234375 55.53125 -36 55.53125 -29.34375 L 55.53125 0 L 40.234375 0 L 40.234375 -27.265625 C 40.234375 -30.628906 39.363281 -33.238281 37.625 -35.09375 C 35.882812 -36.957031 33.539062 -37.890625 30.59375 -37.890625 C 27.65625 -37.890625 25.316406 -36.957031 23.578125 -35.09375 C 21.835938 -33.238281 20.96875 -30.628906 20.96875 -27.265625 L 20.96875 0 L 5.578125 0 L 5.578125 -50.21875 L 20.96875 -50.21875 L 20.96875 -43.5625 C 22.53125 -45.78125 24.628906 -47.535156 27.265625 -48.828125 C 29.910156 -50.117188 32.882812 -50.765625 36.1875 -50.765625 Z M 36.1875 -50.765625 "/></g></g></g><g fill="#ffffff" fill-opacity="1"><g transform="translate(518.399531, 767.293037)"><g><path d="M 33.5625 -13.046875 L 33.5625 0 L 25.734375 0 C 20.160156 0 15.8125 -1.363281 12.6875 -4.09375 C 9.570312 -6.820312 8.015625 -11.273438 8.015625 -17.453125 L 8.015625 -37.4375 L 1.890625 -37.4375 L 1.890625 -50.21875 L 8.015625 -50.21875 L 8.015625 -62.453125 L 23.40625 -62.453125 L 23.40625 -50.21875 L 33.484375 -50.21875 L 33.484375 -37.4375 L 23.40625 -37.4375 L 23.40625 -17.28125 C 23.40625 -15.78125 23.765625 -14.695312 24.484375 -14.03125 C 25.203125 -13.375 26.398438 -13.046875 28.078125 -13.046875 Z M 33.5625 -13.046875 "/></g></g></g><g fill="#ffffff" fill-opacity="1"><g transform="translate(554.939508, 767.293037)"><g><path d="M 13.3125 -55.4375 C 10.613281 -55.4375 8.410156 -56.226562 6.703125 -57.8125 C 4.992188 -59.40625 4.140625 -61.375 4.140625 -63.71875 C 4.140625 -66.113281 4.992188 -68.109375 6.703125 -69.703125 C 8.410156 -71.296875 10.613281 -72.09375 13.3125 -72.09375 C 15.957031 -72.09375 18.132812 -71.296875 19.84375 -69.703125 C 21.550781 -68.109375 22.40625 -66.113281 22.40625 -63.71875 C 22.40625 -61.375 21.550781 -59.40625 19.84375 -57.8125 C 18.132812 -56.226562 15.957031 -55.4375 13.3125 -55.4375 Z M 20.96875 -50.21875 L 20.96875 0 L 5.578125 0 L 5.578125 -50.21875 Z M 20.96875 -50.21875 "/></g></g></g><g fill="#ffffff" fill-opacity="1"><g transform="translate(581.489479, 767.293037)"><g><path d="M 44.28125 -37.984375 L 44.28125 -25.203125 L 4.6875 -25.203125 L 4.6875 -37.984375 Z M 44.28125 -37.984375 "/></g></g></g><g fill="#ffffff" fill-opacity="1"><g transform="translate(633.689412, 767.293037)"><g><path d="M 2.96875 -31.6875 C 2.96875 -37.925781 4.316406 -43.488281 7.015625 -48.375 C 9.710938 -53.257812 13.476562 -57.066406 18.3125 -59.796875 C 23.144531 -62.535156 28.617188 -63.90625 34.734375 -63.90625 C 42.234375 -63.90625 48.65625 -61.921875 54 -57.953125 C 59.34375 -53.992188 62.910156 -48.597656 64.703125 -41.765625 L 47.796875 -41.765625 C 46.535156 -44.398438 44.75 -46.40625 42.4375 -47.78125 C 40.125 -49.164062 37.5 -49.859375 34.5625 -49.859375 C 29.820312 -49.859375 25.976562 -48.207031 23.03125 -44.90625 C 20.09375 -41.601562 18.625 -37.195312 18.625 -31.6875 C 18.625 -26.164062 20.09375 -21.753906 23.03125 -18.453125 C 25.976562 -15.148438 29.820312 -13.5 34.5625 -13.5 C 37.5 -13.5 40.125 -14.1875 42.4375 -15.5625 C 44.75 -16.945312 46.535156 -18.957031 47.796875 -21.59375 L 64.703125 -21.59375 C 62.910156 -14.757812 59.34375 -9.375 54 -5.4375 C 48.65625 -1.507812 42.234375 0.453125 34.734375 0.453125 C 28.617188 0.453125 23.144531 -0.910156 18.3125 -3.640625 C 13.476562 -6.367188 9.710938 -10.160156 7.015625 -15.015625 C 4.316406 -19.878906 2.96875 -25.4375 2.96875 -31.6875 Z M 2.96875 -31.6875 "/></g></g></g><g fill="#ffffff" fill-opacity="1"><g transform="translate(702.269319, 767.293037)"><g><path d="M 28.4375 0.71875 C 23.519531 0.71875 19.09375 -0.328125 15.15625 -2.421875 C 11.226562 -4.523438 8.140625 -7.523438 5.890625 -11.421875 C 3.640625 -15.328125 2.515625 -19.890625 2.515625 -25.109375 C 2.515625 -30.265625 3.65625 -34.804688 5.9375 -38.734375 C 8.21875 -42.671875 11.335938 -45.6875 15.296875 -47.78125 C 19.253906 -49.882812 23.695312 -50.9375 28.625 -50.9375 C 33.539062 -50.9375 37.976562 -49.882812 41.9375 -47.78125 C 45.894531 -45.6875 49.015625 -42.671875 51.296875 -38.734375 C 53.578125 -34.804688 54.71875 -30.265625 54.71875 -25.109375 C 54.71875 -19.953125 53.5625 -15.40625 51.25 -11.46875 C 48.945312 -7.539062 45.796875 -4.523438 41.796875 -2.421875 C 37.804688 -0.328125 33.351562 0.71875 28.4375 0.71875 Z M 28.4375 -12.59375 C 31.375 -12.59375 33.878906 -13.671875 35.953125 -15.828125 C 38.023438 -17.992188 39.0625 -21.085938 39.0625 -25.109375 C 39.0625 -29.128906 38.054688 -32.21875 36.046875 -34.375 C 34.035156 -36.539062 31.5625 -37.625 28.625 -37.625 C 25.625 -37.625 23.132812 -36.554688 21.15625 -34.421875 C 19.175781 -32.296875 18.1875 -29.191406 18.1875 -25.109375 C 18.1875 -21.085938 19.160156 -17.992188 21.109375 -15.828125 C 23.054688 -13.671875 25.5 -12.59375 28.4375 -12.59375 Z M 28.4375 -12.59375 "/></g></g></g><g fill="#ffffff" fill-opacity="1"><g transform="translate(759.599272, 767.293037)"><g><path d="M 20.96875 -41.84375 C 22.769531 -44.601562 25.019531 -46.78125 27.71875 -48.375 C 30.414062 -49.96875 33.414062 -50.765625 36.71875 -50.765625 L 36.71875 -34.46875 L 32.484375 -34.46875 C 28.648438 -34.46875 25.769531 -33.640625 23.84375 -31.984375 C 21.925781 -30.335938 20.96875 -27.445312 20.96875 -23.3125 L 20.96875 0 L 5.578125 0 L 5.578125 -50.21875 L 20.96875 -50.21875 Z M 20.96875 -41.84375 "/></g></g></g><g fill="#ffffff" fill-opacity="1"><g transform="translate(798.119258, 767.293037)"><g><path d="M 20.96875 -41.84375 C 22.769531 -44.601562 25.019531 -46.78125 27.71875 -48.375 C 30.414062 -49.96875 33.414062 -50.765625 36.71875 -50.765625 L 36.71875 -34.46875 L 32.484375 -34.46875 C 28.648438 -34.46875 25.769531 -33.640625 23.84375 -31.984375 C 21.925781 -30.335938 20.96875 -27.445312 20.96875 -23.3125 L 20.96875 0 L 5.578125 0 L 5.578125 -50.21875 L 20.96875 -50.21875 Z M 20.96875 -41.84375 "/></g></g></g><g fill="#ffffff" fill-opacity="1"><g transform="translate(836.639199, 767.293037)"><g><path d="M 55.171875 -50.21875 L 55.171875 0 L 39.78125 0 L 39.78125 -6.84375 C 38.21875 -4.625 36.101562 -2.835938 33.4375 -1.484375 C 30.769531 -0.128906 27.8125 0.546875 24.5625 0.546875 C 20.726562 0.546875 17.335938 -0.304688 14.390625 -2.015625 C 11.453125 -3.734375 9.171875 -6.210938 7.546875 -9.453125 C 5.929688 -12.691406 5.125 -16.5 5.125 -20.875 L 5.125 -50.21875 L 20.4375 -50.21875 L 20.4375 -22.953125 C 20.4375 -19.585938 21.304688 -16.972656 23.046875 -15.109375 C 24.785156 -13.253906 27.125 -12.328125 30.0625 -12.328125 C 33.0625 -12.328125 35.429688 -13.253906 37.171875 -15.109375 C 38.910156 -16.972656 39.78125 -19.585938 39.78125 -22.953125 L 39.78125 -50.21875 Z M 55.171875 -50.21875 "/></g></g></g><g fill="#ffffff" fill-opacity="1"><g transform="translate(897.299154, 767.293037)"><g><path d="M 20.96875 -43.109375 C 22.46875 -45.453125 24.535156 -47.34375 27.171875 -48.78125 C 29.816406 -50.21875 32.910156 -50.9375 36.453125 -50.9375 C 40.585938 -50.9375 44.332031 -49.882812 47.6875 -47.78125 C 51.050781 -45.6875 53.707031 -42.6875 55.65625 -38.78125 C 57.613281 -34.882812 58.59375 -30.359375 58.59375 -25.203125 C 58.59375 -20.035156 57.613281 -15.488281 55.65625 -11.5625 C 53.707031 -7.632812 51.050781 -4.601562 47.6875 -2.46875 C 44.332031 -0.34375 40.585938 0.71875 36.453125 0.71875 C 32.972656 0.71875 29.894531 0 27.21875 -1.4375 C 24.550781 -2.875 22.46875 -4.734375 20.96875 -7.015625 L 20.96875 23.9375 L 5.578125 23.9375 L 5.578125 -50.21875 L 20.96875 -50.21875 Z M 42.9375 -25.203125 C 42.9375 -29.035156 41.867188 -32.046875 39.734375 -34.234375 C 37.609375 -36.429688 34.984375 -37.53125 31.859375 -37.53125 C 28.796875 -37.53125 26.195312 -36.421875 24.0625 -34.203125 C 21.9375 -31.984375 20.875 -28.953125 20.875 -25.109375 C 20.875 -21.265625 21.9375 -18.234375 24.0625 -16.015625 C 26.195312 -13.796875 28.796875 -12.6875 31.859375 -12.6875 C 34.921875 -12.6875 37.53125 -13.8125 39.6875 -16.0625 C 41.851562 -18.3125 42.9375 -21.359375 42.9375 -25.203125 Z M 42.9375 -25.203125 "/></g></g></g><g fill="#ffffff" fill-opacity="1"><g transform="translate(958.409091, 767.293037)"><g><path d="M 33.5625 -13.046875 L 33.5625 0 L 25.734375 0 C 20.160156 0 15.8125 -1.363281 12.6875 -4.09375 C 9.570312 -6.820312 8.015625 -11.273438 8.015625 -17.453125 L 8.015625 -37.4375 L 1.890625 -37.4375 L 1.890625 -50.21875 L 8.015625 -50.21875 L 8.015625 -62.453125 L 23.40625 -62.453125 L 23.40625 -50.21875 L 33.484375 -50.21875 L 33.484375 -37.4375 L 23.40625 -37.4375 L 23.40625 -17.28125 C 23.40625 -15.78125 23.765625 -14.695312 24.484375 -14.03125 C 25.203125 -13.375 26.398438 -13.046875 28.078125 -13.046875 Z M 33.5625 -13.046875 "/></g></g></g><g fill="#ffffff" fill-opacity="1"><g transform="translate(994.949067, 767.293037)"><g><path d="M 13.3125 -55.4375 C 10.613281 -55.4375 8.410156 -56.226562 6.703125 -57.8125 C 4.992188 -59.40625 4.140625 -61.375 4.140625 -63.71875 C 4.140625 -66.113281 4.992188 -68.109375 6.703125 -69.703125 C 8.410156 -71.296875 10.613281 -72.09375 13.3125 -72.09375 C 15.957031 -72.09375 18.132812 -71.296875 19.84375 -69.703125 C 21.550781 -68.109375 22.40625 -66.113281 22.40625 -63.71875 C 22.40625 -61.375 21.550781 -59.40625 19.84375 -57.8125 C 18.132812 -56.226562 15.957031 -55.4375 13.3125 -55.4375 Z M 20.96875 -50.21875 L 20.96875 0 L 5.578125 0 L 5.578125 -50.21875 Z M 20.96875 -50.21875 "/></g></g></g><g fill="#ffffff" fill-opacity="1"><g transform="translate(1021.499038, 767.293037)"><g><path d="M 28.4375 0.71875 C 23.519531 0.71875 19.09375 -0.328125 15.15625 -2.421875 C 11.226562 -4.523438 8.140625 -7.523438 5.890625 -11.421875 C 3.640625 -15.328125 2.515625 -19.890625 2.515625 -25.109375 C 2.515625 -30.265625 3.65625 -34.804688 5.9375 -38.734375 C 8.21875 -42.671875 11.335938 -45.6875 15.296875 -47.78125 C 19.253906 -49.882812 23.695312 -50.9375 28.625 -50.9375 C 33.539062 -50.9375 37.976562 -49.882812 41.9375 -47.78125 C 45.894531 -45.6875 49.015625 -42.671875 51.296875 -38.734375 C 53.578125 -34.804688 54.71875 -30.265625 54.71875 -25.109375 C 54.71875 -19.953125 53.5625 -15.40625 51.25 -11.46875 C 48.945312 -7.539062 45.796875 -4.523438 41.796875 -2.421875 C 37.804688 -0.328125 33.351562 0.71875 28.4375 0.71875 Z M 28.4375 -12.59375 C 31.375 -12.59375 33.878906 -13.671875 35.953125 -15.828125 C 38.023438 -17.992188 39.0625 -21.085938 39.0625 -25.109375 C 39.0625 -29.128906 38.054688 -32.21875 36.046875 -34.375 C 34.035156 -36.539062 31.5625 -37.625 28.625 -37.625 C 25.625 -37.625 23.132812 -36.554688 21.15625 -34.421875 C 19.175781 -32.296875 18.1875 -29.191406 18.1875 -25.109375 C 18.1875 -21.085938 19.160156 -17.992188 21.109375 -15.828125 C 23.054688 -13.671875 25.5 -12.59375 28.4375 -12.59375 Z M 28.4375 -12.59375 "/></g></g></g><g fill="#ffffff" fill-opacity="1"><g transform="translate(1078.828991, 767.293037)"><g><path d="M 36.1875 -50.765625 C 42.0625 -50.765625 46.753906 -48.859375 50.265625 -45.046875 C 53.773438 -41.234375 55.53125 -36 55.53125 -29.34375 L 55.53125 0 L 40.234375 0 L 40.234375 -27.265625 C 40.234375 -30.628906 39.363281 -33.238281 37.625 -35.09375 C 35.882812 -36.957031 33.539062 -37.890625 30.59375 -37.890625 C 27.65625 -37.890625 25.316406 -36.957031 23.578125 -35.09375 C 21.835938 -33.238281 20.96875 -30.628906 20.96875 -27.265625 L 20.96875 0 L 5.578125 0 L 5.578125 -50.21875 L 20.96875 -50.21875 L 20.96875 -43.5625 C 22.53125 -45.78125 24.628906 -47.535156 27.265625 -48.828125 C 29.910156 -50.117188 32.882812 -50.765625 36.1875 -50.765625 Z M 36.1875 -50.765625 "/></g></g></g></svg>