<svg xmlns="http://www.w3.org/2000/svg" xmlns:xlink="http://www.w3.org/1999/xlink" width="1920" zoomAndPan="magnify" viewBox="0 0 1440 809.999993" height="1080" preserveAspectRatio="xMidYMid meet" version="1.0"><defs><clipPath id="d8bb727e0b"><rect x="0" width="1440" y="0" height="810"/></clipPath><clipPath id="42157ca346"><path d="M 357 682 L 1082.976562 682 L 1082.976562 729 L 357 729 Z M 357 682 " clip-rule="nonzero"/></clipPath></defs><rect x="-144" width="1728" fill="#ffffff" y="-80.999999" height="971.999992" fill-opacity="1"/><rect x="-144" width="1728" fill="#ffffff" y="-80.999999" height="971.999992" fill-opacity="1"/><g transform="matrix(1, 0, 0, 1, 0, 0.000000000000039746)"><g clip-path="url(#d8bb727e0b)"><path fill="#ff8035" d="M 0 0 L 1439.648438 0 L 1439.648438 810 L 0 810 Z M 0 0 " fill-opacity="1" fill-rule="nonzero"/></g></g><path fill="#ffffff" d="M 391.238281 293.464844 C 391.238281 282.730469 390.953125 272.339844 391.480469 261.988281 C 391.589844 259.878906 394.378906 257.226562 396.582031 256.015625 C 439.511719 232.554688 482.519531 209.253906 525.53125 185.941406 C 588.441406 151.824219 651.375 117.753906 714.21875 83.488281 C 718.476562 81.175781 721.628906 80.988281 725.984375 83.351562 C 831.425781 140.710938 936.9375 197.964844 1042.527344 255.023438 C 1047.628906 257.773438 1049.683594 260.667969 1049.316406 266.492188 C 1048.757812 275.265625 1049.167969 284.105469 1049.167969 293.464844 C 829.96875 293.464844 611.128906 293.464844 391.238281 293.464844 Z M 719.902344 257.675781 C 745.652344 257.878906 767.128906 236.742188 767.523438 210.816406 C 767.90625 185.152344 746.753906 163.511719 720.828125 163.035156 C 694.917969 162.558594 672.976562 184.15625 672.867188 210.234375 C 672.773438 235.996094 694.046875 257.457031 719.902344 257.675781 Z M 719.902344 257.675781 " fill-opacity="1" fill-rule="nonzero"/><g clip-path="url(#42157ca346)"><path fill="#ffffff" d="M 1082.585938 682.074219 C 1082.585938 697.878906 1082.585938 713.179688 1082.585938 729 C 841.054688 729 599.839844 729 357.476562 729 C 357.476562 721.207031 357.476562 713.386719 357.476562 705.550781 C 357.476562 697.890625 357.476562 690.234375 357.476562 682.074219 C 599.320312 682.074219 840.539062 682.074219 1082.585938 682.074219 Z M 1082.585938 682.074219 " fill-opacity="1" fill-rule="nonzero"/></g><path fill="#ffffff" d="M 1030.628906 613.261719 C 1030.628906 627.203125 1030.628906 640.925781 1030.628906 655.074219 C 823.605469 655.074219 616.828125 655.074219 409.777344 655.074219 C 409.777344 640.953125 409.777344 627.242188 409.777344 613.261719 C 616.894531 613.261719 823.535156 613.261719 1030.628906 613.261719 Z M 1030.628906 613.261719 " fill-opacity="1" fill-rule="nonzero"/><path fill="#ffffff" d="M 634.222656 586.613281 C 615.085938 586.613281 596.804688 586.613281 578.101562 586.613281 C 578.101562 497.792969 578.101562 409.296875 578.101562 320.300781 C 596.75 320.300781 615.398438 320.300781 634.222656 320.300781 C 634.222656 409.164062 634.222656 497.65625 634.222656 586.613281 Z M 634.222656 586.613281 " fill-opacity="1" fill-rule="nonzero"/><path fill="#ffffff" d="M 806.03125 586.503906 C 806.03125 497.5625 806.03125 409.230469 806.03125 320.339844 C 824.84375 320.339844 843.464844 320.339844 862.398438 320.339844 C 862.398438 409.121094 862.398438 497.589844 862.398438 586.503906 C 843.613281 586.503906 825.183594 586.503906 806.03125 586.503906 Z M 806.03125 586.503906 " fill-opacity="1" fill-rule="nonzero"/><path fill="#ffffff" d="M 692.371094 320.230469 C 710.761719 320.230469 729.234375 320.230469 748.167969 320.230469 C 748.167969 408.890625 748.167969 497.34375 748.167969 586.371094 C 729.859375 586.371094 711.414062 586.371094 692.371094 586.371094 C 692.371094 497.96875 692.371094 409.339844 692.371094 320.230469 Z M 692.371094 320.230469 " fill-opacity="1" fill-rule="nonzero"/><path fill="#ffffff" d="M 920.246094 320.207031 C 938.910156 320.207031 957.367188 320.207031 976.246094 320.207031 C 976.246094 409.066406 976.246094 497.574219 976.246094 586.519531 C 957.515625 586.519531 939.085938 586.519531 920.246094 586.519531 C 920.246094 497.699219 920.246094 409.164062 920.246094 320.207031 Z M 920.246094 320.207031 " fill-opacity="1" fill-rule="nonzero"/><path fill="#ffffff" d="M 464.15625 320.125 C 483.105469 320.125 501.386719 320.125 520.074219 320.125 C 520.074219 408.984375 520.074219 497.492188 520.074219 586.476562 C 501.523438 586.476562 483.066406 586.476562 464.15625 586.476562 C 464.15625 497.832031 464.15625 409.3125 464.15625 320.125 Z M 464.15625 320.125 " fill-opacity="1" fill-rule="nonzero"/></svg>