<svg xmlns="http://www.w3.org/2000/svg" xmlns:xlink="http://www.w3.org/1999/xlink" width="1920" zoomAndPan="magnify" viewBox="0 0 1440 809.999993" height="1080" preserveAspectRatio="xMidYMid meet" version="1.0"><defs><g/><clipPath id="0a6f558164"><rect x="0" width="1440" y="0" height="810"/></clipPath><clipPath id="b95a1529ef"><path d="M 56.25 0 L 1383.75 0 C 1398.667969 0 1412.976562 5.925781 1423.523438 16.476562 C 1434.074219 27.023438 1440 41.332031 1440 56.25 L 1440 753.84375 C 1440 768.761719 1434.074219 783.070312 1423.523438 793.617188 C 1412.976562 804.167969 1398.667969 810.09375 1383.75 810.09375 L 56.25 810.09375 C 41.332031 810.09375 27.023438 804.167969 16.476562 793.617188 C 5.925781 783.070312 0 768.761719 0 753.84375 L 0 56.25 C 0 41.332031 5.925781 27.023438 16.476562 16.476562 C 27.023438 5.925781 41.332031 0 56.25 0 Z M 56.25 0 " clip-rule="nonzero"/></clipPath><clipPath id="e5fa9be8ca"><path d="M 0 0 L 1440 0 L 1440 810 L 0 810 Z M 0 0 " clip-rule="nonzero"/></clipPath><clipPath id="ae569d0fe0"><path d="M 56.25 0 L 1383.75 0 C 1398.667969 0 1412.976562 5.925781 1423.523438 16.476562 C 1434.074219 27.023438 1440 41.332031 1440 56.25 L 1440 753.84375 C 1440 768.761719 1434.074219 783.070312 1423.523438 793.617188 C 1412.976562 804.167969 1398.667969 810.09375 1383.75 810.09375 L 56.25 810.09375 C 41.332031 810.09375 27.023438 804.167969 16.476562 793.617188 C 5.925781 783.070312 0 768.761719 0 753.84375 L 0 56.25 C 0 41.332031 5.925781 27.023438 16.476562 16.476562 C 27.023438 5.925781 41.332031 0 56.25 0 Z M 56.25 0 " clip-rule="nonzero"/></clipPath><clipPath id="edf8e5ec47"><rect x="0" width="1440" y="0" height="810"/></clipPath><clipPath id="d4d30443c2"><path d="M 585 51.128906 L 855 51.128906 L 855 321 L 585 321 Z M 585 51.128906 " clip-rule="nonzero"/></clipPath></defs><rect x="-144" width="1728" fill="#ffffff" y="-80.999999" height="971.999992" fill-opacity="1"/><rect x="-144" width="1728" fill="#ffffff" y="-80.999999" height="971.999992" fill-opacity="1"/><g transform="matrix(1, 0, 0, 1, 0, 0.000000000000039746)"><g clip-path="url(#0a6f558164)"><path fill="#eae8e5" d="M 0 0 L 1439.648438 0 L 1439.648438 810 L 0 810 Z M 0 0 " fill-opacity="1" fill-rule="nonzero"/></g></g><g clip-path="url(#b95a1529ef)"><g transform="matrix(1, 0, 0, 1, 0, 0.000000000000039746)"><g clip-path="url(#edf8e5ec47)"><g clip-path="url(#e5fa9be8ca)"><g clip-path="url(#ae569d0fe0)"><path fill="#24a8ff" d="M 0 0 L 1439.816406 0 L 1439.816406 810.09375 L 0 810.09375 Z M 0 0 " fill-opacity="1" fill-rule="nonzero"/></g></g></g></g></g><path fill="#ffffff" d="M 823.503906 327.257812 C 793.480469 349.304688 757.234375 361.222656 720.015625 361.300781 C 682.75 361.214844 646.503906 349.296875 616.441406 327.257812 C 543.445312 335.507812 487.1875 393.875 487.1875 465.171875 L 487.1875 519.332031 C 487.1875 557.1875 505.667969 571.214844 538.199219 570.949219 L 901.773438 570.949219 C 934.3125 571.214844 952.796875 557.1875 952.796875 519.332031 L 952.796875 465.171875 C 952.796875 393.867188 896.527344 335.464844 823.503906 327.257812 Z M 823.503906 327.257812 " fill-opacity="1" fill-rule="nonzero"/><g clip-path="url(#d4d30443c2)"><path fill="#ffffff" d="M 720.015625 50.914062 C 684.210938 50.914062 649.914062 65.121094 624.601562 90.425781 C 599.339844 115.730469 585.140625 150.027344 585.140625 185.789062 C 585.140625 221.554688 599.339844 255.875 624.601562 281.152344 C 649.914062 306.457031 684.210938 320.652344 720.015625 320.652344 C 755.765625 320.652344 790.066406 306.457031 815.371094 281.152344 C 840.679688 255.875 854.878906 221.554688 854.878906 185.789062 C 854.878906 150.027344 840.671875 115.726562 815.371094 90.425781 C 790.066406 65.113281 755.765625 50.914062 720.015625 50.914062 Z M 720.015625 50.914062 " fill-opacity="1" fill-rule="nonzero"/></g><g fill="#ffffff" fill-opacity="1"><g transform="translate(346.359363, 677.292994)"><g><path d="M 60.296875 -63.1875 L 60.296875 0 L 44.90625 0 L 44.90625 -26.015625 L 20.96875 -26.015625 L 20.96875 0 L 5.578125 0 L 5.578125 -63.1875 L 20.96875 -63.1875 L 20.96875 -38.4375 L 44.90625 -38.4375 L 44.90625 -63.1875 Z M 60.296875 -63.1875 "/></g></g></g><g fill="#ffffff" fill-opacity="1"><g transform="translate(412.149292, 677.292994)"><g><path d="M 55.171875 -50.21875 L 55.171875 0 L 39.78125 0 L 39.78125 -6.84375 C 38.21875 -4.625 36.101562 -2.835938 33.4375 -1.484375 C 30.769531 -0.128906 27.8125 0.546875 24.5625 0.546875 C 20.726562 0.546875 17.335938 -0.304688 14.390625 -2.015625 C 11.453125 -3.734375 9.171875 -6.210938 7.546875 -9.453125 C 5.929688 -12.691406 5.125 -16.5 5.125 -20.875 L 5.125 -50.21875 L 20.4375 -50.21875 L 20.4375 -22.953125 C 20.4375 -19.585938 21.304688 -16.972656 23.046875 -15.109375 C 24.785156 -13.253906 27.125 -12.328125 30.0625 -12.328125 C 33.0625 -12.328125 35.429688 -13.253906 37.171875 -15.109375 C 38.910156 -16.972656 39.78125 -19.585938 39.78125 -22.953125 L 39.78125 -50.21875 Z M 55.171875 -50.21875 "/></g></g></g><g fill="#ffffff" fill-opacity="1"><g transform="translate(472.809236, 677.292994)"><g><path d="M 69.65625 -50.765625 C 75.894531 -50.765625 80.859375 -48.875 84.546875 -45.09375 C 88.242188 -41.3125 90.09375 -36.0625 90.09375 -29.34375 L 90.09375 0 L 74.796875 0 L 74.796875 -27.265625 C 74.796875 -30.503906 73.9375 -33.007812 72.21875 -34.78125 C 70.507812 -36.550781 68.15625 -37.4375 65.15625 -37.4375 C 62.15625 -37.4375 59.800781 -36.550781 58.09375 -34.78125 C 56.382812 -33.007812 55.53125 -30.503906 55.53125 -27.265625 L 55.53125 0 L 40.234375 0 L 40.234375 -27.265625 C 40.234375 -30.503906 39.375 -33.007812 37.65625 -34.78125 C 35.945312 -36.550781 33.59375 -37.4375 30.59375 -37.4375 C 27.59375 -37.4375 25.238281 -36.550781 23.53125 -34.78125 C 21.820312 -33.007812 20.96875 -30.503906 20.96875 -27.265625 L 20.96875 0 L 5.578125 0 L 5.578125 -50.21875 L 20.96875 -50.21875 L 20.96875 -43.921875 C 22.53125 -46.015625 24.570312 -47.675781 27.09375 -48.90625 C 29.613281 -50.144531 32.460938 -50.765625 35.640625 -50.765625 C 39.421875 -50.765625 42.796875 -49.953125 45.765625 -48.328125 C 48.734375 -46.710938 51.054688 -44.40625 52.734375 -41.40625 C 54.472656 -44.164062 56.84375 -46.414062 59.84375 -48.15625 C 62.84375 -49.894531 66.113281 -50.765625 69.65625 -50.765625 Z M 69.65625 -50.765625 "/></g></g></g><g fill="#ffffff" fill-opacity="1"><g transform="translate(568.119141, 677.292994)"><g><path d="M 2.515625 -25.203125 C 2.515625 -30.359375 3.488281 -34.882812 5.4375 -38.78125 C 7.394531 -42.6875 10.050781 -45.6875 13.40625 -47.78125 C 16.769531 -49.882812 20.519531 -50.9375 24.65625 -50.9375 C 28.195312 -50.9375 31.300781 -50.21875 33.96875 -48.78125 C 36.644531 -47.34375 38.703125 -45.453125 40.140625 -43.109375 L 40.140625 -50.21875 L 55.53125 -50.21875 L 55.53125 0 L 40.140625 0 L 40.140625 -7.109375 C 38.640625 -4.765625 36.550781 -2.875 33.875 -1.4375 C 31.207031 0 28.101562 0.71875 24.5625 0.71875 C 20.488281 0.71875 16.769531 -0.34375 13.40625 -2.46875 C 10.050781 -4.601562 7.394531 -7.632812 5.4375 -11.5625 C 3.488281 -15.488281 2.515625 -20.035156 2.515625 -25.203125 Z M 40.140625 -25.109375 C 40.140625 -28.953125 39.070312 -31.984375 36.9375 -34.203125 C 34.8125 -36.421875 32.21875 -37.53125 29.15625 -37.53125 C 26.09375 -37.53125 23.5 -36.429688 21.375 -34.234375 C 19.25 -32.046875 18.1875 -29.035156 18.1875 -25.203125 C 18.1875 -21.359375 19.25 -18.3125 21.375 -16.0625 C 23.5 -13.8125 26.09375 -12.6875 29.15625 -12.6875 C 32.21875 -12.6875 34.8125 -13.796875 36.9375 -16.015625 C 39.070312 -18.234375 40.140625 -21.265625 40.140625 -25.109375 Z M 40.140625 -25.109375 "/></g></g></g><g fill="#ffffff" fill-opacity="1"><g transform="translate(629.229077, 677.292994)"><g><path d="M 36.1875 -50.765625 C 42.0625 -50.765625 46.753906 -48.859375 50.265625 -45.046875 C 53.773438 -41.234375 55.53125 -36 55.53125 -29.34375 L 55.53125 0 L 40.234375 0 L 40.234375 -27.265625 C 40.234375 -30.628906 39.363281 -33.238281 37.625 -35.09375 C 35.882812 -36.957031 33.539062 -37.890625 30.59375 -37.890625 C 27.65625 -37.890625 25.316406 -36.957031 23.578125 -35.09375 C 21.835938 -33.238281 20.96875 -30.628906 20.96875 -27.265625 L 20.96875 0 L 5.578125 0 L 5.578125 -50.21875 L 20.96875 -50.21875 L 20.96875 -43.5625 C 22.53125 -45.78125 24.628906 -47.535156 27.265625 -48.828125 C 29.910156 -50.117188 32.882812 -50.765625 36.1875 -50.765625 Z M 36.1875 -50.765625 "/></g></g></g><g fill="#ffffff" fill-opacity="1"><g transform="translate(689.889009, 677.292994)"><g/></g></g><g fill="#ffffff" fill-opacity="1"><g transform="translate(708.969009, 677.292994)"><g><path d="M 37.796875 0 L 24.65625 -23.84375 L 20.96875 -23.84375 L 20.96875 0 L 5.578125 0 L 5.578125 -63.1875 L 31.40625 -63.1875 C 36.382812 -63.1875 40.628906 -62.3125 44.140625 -60.5625 C 47.648438 -58.820312 50.273438 -56.4375 52.015625 -53.40625 C 53.753906 -50.382812 54.625 -47.015625 54.625 -43.296875 C 54.625 -39.085938 53.4375 -35.332031 51.0625 -32.03125 C 48.695312 -28.738281 45.207031 -26.398438 40.59375 -25.015625 L 55.171875 0 Z M 20.96875 -34.734375 L 30.515625 -34.734375 C 33.328125 -34.734375 35.4375 -35.421875 36.84375 -36.796875 C 38.257812 -38.179688 38.96875 -40.132812 38.96875 -42.65625 C 38.96875 -45.0625 38.257812 -46.953125 36.84375 -48.328125 C 35.4375 -49.710938 33.328125 -50.40625 30.515625 -50.40625 L 20.96875 -50.40625 Z M 20.96875 -34.734375 "/></g></g></g><g fill="#ffffff" fill-opacity="1"><g transform="translate(767.648953, 677.292994)"><g><path d="M 13.3125 -55.4375 C 10.613281 -55.4375 8.410156 -56.226562 6.703125 -57.8125 C 4.992188 -59.40625 4.140625 -61.375 4.140625 -63.71875 C 4.140625 -66.113281 4.992188 -68.109375 6.703125 -69.703125 C 8.410156 -71.296875 10.613281 -72.09375 13.3125 -72.09375 C 15.957031 -72.09375 18.132812 -71.296875 19.84375 -69.703125 C 21.550781 -68.109375 22.40625 -66.113281 22.40625 -63.71875 C 22.40625 -61.375 21.550781 -59.40625 19.84375 -57.8125 C 18.132812 -56.226562 15.957031 -55.4375 13.3125 -55.4375 Z M 20.96875 -50.21875 L 20.96875 0 L 5.578125 0 L 5.578125 -50.21875 Z M 20.96875 -50.21875 "/></g></g></g><g fill="#ffffff" fill-opacity="1"><g transform="translate(794.198924, 677.292994)"><g><path d="M 24.65625 -50.9375 C 28.195312 -50.9375 31.300781 -50.21875 33.96875 -48.78125 C 36.644531 -47.34375 38.703125 -45.453125 40.140625 -43.109375 L 40.140625 -50.21875 L 55.53125 -50.21875 L 55.53125 -0.09375 C 55.53125 4.53125 54.613281 8.71875 52.78125 12.46875 C 50.957031 16.21875 48.171875 19.203125 44.421875 21.421875 C 40.671875 23.640625 36.003906 24.75 30.421875 24.75 C 22.984375 24.75 16.953125 22.992188 12.328125 19.484375 C 7.710938 15.972656 5.070312 11.21875 4.40625 5.21875 L 19.625 5.21875 C 20.101562 7.132812 21.238281 8.648438 23.03125 9.765625 C 24.832031 10.878906 27.054688 11.4375 29.703125 11.4375 C 32.878906 11.4375 35.410156 10.519531 37.296875 8.6875 C 39.191406 6.851562 40.140625 3.925781 40.140625 -0.09375 L 40.140625 -7.203125 C 38.640625 -4.859375 36.566406 -2.953125 33.921875 -1.484375 C 31.285156 -0.015625 28.195312 0.71875 24.65625 0.71875 C 20.519531 0.71875 16.769531 -0.34375 13.40625 -2.46875 C 10.050781 -4.601562 7.394531 -7.632812 5.4375 -11.5625 C 3.488281 -15.488281 2.515625 -20.035156 2.515625 -25.203125 C 2.515625 -30.359375 3.488281 -34.882812 5.4375 -38.78125 C 7.394531 -42.6875 10.050781 -45.6875 13.40625 -47.78125 C 16.769531 -49.882812 20.519531 -50.9375 24.65625 -50.9375 Z M 40.140625 -25.109375 C 40.140625 -28.953125 39.070312 -31.984375 36.9375 -34.203125 C 34.8125 -36.421875 32.21875 -37.53125 29.15625 -37.53125 C 26.09375 -37.53125 23.5 -36.429688 21.375 -34.234375 C 19.25 -32.046875 18.1875 -29.035156 18.1875 -25.203125 C 18.1875 -21.359375 19.25 -18.3125 21.375 -16.0625 C 23.5 -13.8125 26.09375 -12.6875 29.15625 -12.6875 C 32.21875 -12.6875 34.8125 -13.796875 36.9375 -16.015625 C 39.070312 -18.234375 40.140625 -21.265625 40.140625 -25.109375 Z M 40.140625 -25.109375 "/></g></g></g><g fill="#ffffff" fill-opacity="1"><g transform="translate(855.30886, 677.292994)"><g><path d="M 36.453125 -50.765625 C 42.210938 -50.765625 46.832031 -48.859375 50.3125 -45.046875 C 53.789062 -41.234375 55.53125 -36 55.53125 -29.34375 L 55.53125 0 L 40.234375 0 L 40.234375 -27.265625 C 40.234375 -30.628906 39.363281 -33.238281 37.625 -35.09375 C 35.882812 -36.957031 33.539062 -37.890625 30.59375 -37.890625 C 27.65625 -37.890625 25.316406 -36.957031 23.578125 -35.09375 C 21.835938 -33.238281 20.96875 -30.628906 20.96875 -27.265625 L 20.96875 0 L 5.578125 0 L 5.578125 -66.59375 L 20.96875 -66.59375 L 20.96875 -43.46875 C 22.53125 -45.6875 24.660156 -47.457031 27.359375 -48.78125 C 30.054688 -50.101562 33.085938 -50.765625 36.453125 -50.765625 Z M 36.453125 -50.765625 "/></g></g></g><g fill="#ffffff" fill-opacity="1"><g transform="translate(915.968769, 677.292994)"><g><path d="M 33.5625 -13.046875 L 33.5625 0 L 25.734375 0 C 20.160156 0 15.8125 -1.363281 12.6875 -4.09375 C 9.570312 -6.820312 8.015625 -11.273438 8.015625 -17.453125 L 8.015625 -37.4375 L 1.890625 -37.4375 L 1.890625 -50.21875 L 8.015625 -50.21875 L 8.015625 -62.453125 L 23.40625 -62.453125 L 23.40625 -50.21875 L 33.484375 -50.21875 L 33.484375 -37.4375 L 23.40625 -37.4375 L 23.40625 -17.28125 C 23.40625 -15.78125 23.765625 -14.695312 24.484375 -14.03125 C 25.203125 -13.375 26.398438 -13.046875 28.078125 -13.046875 Z M 33.5625 -13.046875 "/></g></g></g><g fill="#ffffff" fill-opacity="1"><g transform="translate(952.508746, 677.292994)"><g><path d="M 26.015625 0.71875 C 21.628906 0.71875 17.726562 -0.03125 14.3125 -1.53125 C 10.894531 -3.03125 8.191406 -5.082031 6.203125 -7.6875 C 4.222656 -10.300781 3.113281 -13.226562 2.875 -16.46875 L 18.09375 -16.46875 C 18.269531 -14.726562 19.078125 -13.316406 20.515625 -12.234375 C 21.960938 -11.160156 23.734375 -10.625 25.828125 -10.625 C 27.742188 -10.625 29.226562 -11 30.28125 -11.75 C 31.332031 -12.5 31.859375 -13.472656 31.859375 -14.671875 C 31.859375 -16.109375 31.109375 -17.171875 29.609375 -17.859375 C 28.109375 -18.554688 25.675781 -19.320312 22.3125 -20.15625 C 18.71875 -21 15.71875 -21.882812 13.3125 -22.8125 C 10.914062 -23.738281 8.847656 -25.207031 7.109375 -27.21875 C 5.367188 -29.226562 4.5 -31.945312 4.5 -35.375 C 4.5 -38.25 5.289062 -40.867188 6.875 -43.234375 C 8.46875 -45.609375 10.8125 -47.484375 13.90625 -48.859375 C 17 -50.242188 20.675781 -50.9375 24.9375 -50.9375 C 31.226562 -50.9375 36.1875 -49.375 39.8125 -46.25 C 43.445312 -43.132812 45.535156 -39 46.078125 -33.84375 L 31.859375 -33.84375 C 31.617188 -35.582031 30.851562 -36.960938 29.5625 -37.984375 C 28.269531 -39.003906 26.578125 -39.515625 24.484375 -39.515625 C 22.679688 -39.515625 21.300781 -39.164062 20.34375 -38.46875 C 19.382812 -37.78125 18.90625 -36.835938 18.90625 -35.640625 C 18.90625 -34.203125 19.664062 -33.117188 21.1875 -32.390625 C 22.71875 -31.671875 25.101562 -30.953125 28.34375 -30.234375 C 32.070312 -29.273438 35.101562 -28.332031 37.4375 -27.40625 C 39.78125 -26.476562 41.835938 -24.976562 43.609375 -22.90625 C 45.378906 -20.832031 46.289062 -18.054688 46.34375 -14.578125 C 46.34375 -11.640625 45.519531 -9.015625 43.875 -6.703125 C 42.226562 -4.390625 39.859375 -2.570312 36.765625 -1.25 C 33.671875 0.0585938 30.085938 0.71875 26.015625 0.71875 Z M 26.015625 0.71875 "/></g></g></g><g fill="#ffffff" fill-opacity="1"><g transform="translate(1002.728714, 677.292994)"><g/></g></g><g fill="#ffffff" fill-opacity="1"><g transform="translate(1021.808669, 677.292994)"><g><path d="M 53.90625 0 L 48.0625 -5.671875 C 42.238281 -1.234375 35.28125 0.984375 27.1875 0.984375 C 22.320312 0.984375 18.085938 0.191406 14.484375 -1.390625 C 10.890625 -2.984375 8.113281 -5.234375 6.15625 -8.140625 C 4.207031 -11.054688 3.234375 -14.460938 3.234375 -18.359375 C 3.234375 -22.316406 4.296875 -25.898438 6.421875 -29.109375 C 8.554688 -32.328125 11.753906 -34.953125 16.015625 -36.984375 C 14.460938 -38.910156 13.351562 -40.757812 12.6875 -42.53125 C 12.03125 -44.300781 11.703125 -46.234375 11.703125 -48.328125 C 11.703125 -51.328125 12.476562 -54.054688 14.03125 -56.515625 C 15.59375 -58.972656 17.859375 -60.90625 20.828125 -62.3125 C 23.804688 -63.726562 27.332031 -64.4375 31.40625 -64.4375 C 35.550781 -64.4375 39.0625 -63.6875 41.9375 -62.1875 C 44.820312 -60.6875 46.984375 -58.675781 48.421875 -56.15625 C 49.859375 -53.632812 50.519531 -50.875 50.40625 -47.875 L 35.90625 -47.875 C 35.96875 -49.5 35.5625 -50.742188 34.6875 -51.609375 C 33.820312 -52.484375 32.671875 -52.921875 31.234375 -52.921875 C 29.785156 -52.921875 28.582031 -52.5 27.625 -51.65625 C 26.664062 -50.820312 26.1875 -49.742188 26.1875 -48.421875 C 26.1875 -47.160156 26.59375 -45.835938 27.40625 -44.453125 C 28.21875 -43.078125 29.492188 -41.488281 31.234375 -39.6875 L 46.625 -24.65625 C 46.738281 -24.957031 46.898438 -25.316406 47.109375 -25.734375 C 47.328125 -26.160156 47.554688 -26.644531 47.796875 -27.1875 L 51.125 -32.84375 L 66.515625 -32.84375 L 62.1875 -25.015625 C 60.570312 -21.472656 58.710938 -18.113281 56.609375 -14.9375 L 71.8125 0 Z M 27.90625 -11.4375 C 31.925781 -11.4375 35.492188 -12.570312 38.609375 -14.84375 L 24.5625 -28.4375 C 20.25 -26.21875 18.09375 -23.21875 18.09375 -19.4375 C 18.09375 -17.15625 18.976562 -15.25 20.75 -13.71875 C 22.519531 -12.195312 24.90625 -11.4375 27.90625 -11.4375 Z M 27.90625 -11.4375 "/></g></g></g><g fill="#ffffff" fill-opacity="1"><g transform="translate(257.847648, 767.292989)"><g><path d="M 62.09375 0 L 46.703125 0 L 20.96875 -38.96875 L 20.96875 0 L 5.578125 0 L 5.578125 -63.1875 L 20.96875 -63.1875 L 46.703125 -24.03125 L 46.703125 -63.1875 L 62.09375 -63.1875 Z M 62.09375 0 "/></g></g></g><g fill="#ffffff" fill-opacity="1"><g transform="translate(325.527581, 767.292989)"><g><path d="M 28.4375 0.71875 C 23.519531 0.71875 19.09375 -0.328125 15.15625 -2.421875 C 11.226562 -4.523438 8.140625 -7.523438 5.890625 -11.421875 C 3.640625 -15.328125 2.515625 -19.890625 2.515625 -25.109375 C 2.515625 -30.265625 3.65625 -34.804688 5.9375 -38.734375 C 8.21875 -42.671875 11.335938 -45.6875 15.296875 -47.78125 C 19.253906 -49.882812 23.695312 -50.9375 28.625 -50.9375 C 33.539062 -50.9375 37.976562 -49.882812 41.9375 -47.78125 C 45.894531 -45.6875 49.015625 -42.671875 51.296875 -38.734375 C 53.578125 -34.804688 54.71875 -30.265625 54.71875 -25.109375 C 54.71875 -19.953125 53.5625 -15.40625 51.25 -11.46875 C 48.945312 -7.539062 45.796875 -4.523438 41.796875 -2.421875 C 37.804688 -0.328125 33.351562 0.71875 28.4375 0.71875 Z M 28.4375 -12.59375 C 31.375 -12.59375 33.878906 -13.671875 35.953125 -15.828125 C 38.023438 -17.992188 39.0625 -21.085938 39.0625 -25.109375 C 39.0625 -29.128906 38.054688 -32.21875 36.046875 -34.375 C 34.035156 -36.539062 31.5625 -37.625 28.625 -37.625 C 25.625 -37.625 23.132812 -36.554688 21.15625 -34.421875 C 19.175781 -32.296875 18.1875 -29.191406 18.1875 -25.109375 C 18.1875 -21.085938 19.160156 -17.992188 21.109375 -15.828125 C 23.054688 -13.671875 25.5 -12.59375 28.4375 -12.59375 Z M 28.4375 -12.59375 "/></g></g></g><g fill="#ffffff" fill-opacity="1"><g transform="translate(382.857522, 767.292989)"><g><path d="M 36.1875 -50.765625 C 42.0625 -50.765625 46.753906 -48.859375 50.265625 -45.046875 C 53.773438 -41.234375 55.53125 -36 55.53125 -29.34375 L 55.53125 0 L 40.234375 0 L 40.234375 -27.265625 C 40.234375 -30.628906 39.363281 -33.238281 37.625 -35.09375 C 35.882812 -36.957031 33.539062 -37.890625 30.59375 -37.890625 C 27.65625 -37.890625 25.316406 -36.957031 23.578125 -35.09375 C 21.835938 -33.238281 20.96875 -30.628906 20.96875 -27.265625 L 20.96875 0 L 5.578125 0 L 5.578125 -50.21875 L 20.96875 -50.21875 L 20.96875 -43.5625 C 22.53125 -45.78125 24.628906 -47.535156 27.265625 -48.828125 C 29.910156 -50.117188 32.882812 -50.765625 36.1875 -50.765625 Z M 36.1875 -50.765625 "/></g></g></g><g fill="#ffffff" fill-opacity="1"><g transform="translate(443.517466, 767.292989)"><g><path d="M 44.28125 -37.984375 L 44.28125 -25.203125 L 4.6875 -25.203125 L 4.6875 -37.984375 Z M 44.28125 -37.984375 "/></g></g></g><g fill="#ffffff" fill-opacity="1"><g transform="translate(495.717411, 767.292989)"><g><path d="M 29.25 -63.1875 C 35.90625 -63.1875 41.722656 -61.863281 46.703125 -59.21875 C 51.691406 -56.582031 55.550781 -52.878906 58.28125 -48.109375 C 61.007812 -43.335938 62.375 -37.832031 62.375 -31.59375 C 62.375 -25.40625 61.007812 -19.910156 58.28125 -15.109375 C 55.550781 -10.316406 51.679688 -6.597656 46.671875 -3.953125 C 41.660156 -1.316406 35.851562 0 29.25 0 L 5.578125 0 L 5.578125 -63.1875 Z M 28.265625 -13.3125 C 34.078125 -13.3125 38.601562 -14.898438 41.84375 -18.078125 C 45.082031 -21.265625 46.703125 -25.769531 46.703125 -31.59375 C 46.703125 -37.40625 45.082031 -41.929688 41.84375 -45.171875 C 38.601562 -48.421875 34.078125 -50.046875 28.265625 -50.046875 L 20.96875 -50.046875 L 20.96875 -13.3125 Z M 28.265625 -13.3125 "/></g></g></g><g fill="#ffffff" fill-opacity="1"><g transform="translate(561.147332, 767.292989)"><g><path d="M 13.3125 -55.4375 C 10.613281 -55.4375 8.410156 -56.226562 6.703125 -57.8125 C 4.992188 -59.40625 4.140625 -61.375 4.140625 -63.71875 C 4.140625 -66.113281 4.992188 -68.109375 6.703125 -69.703125 C 8.410156 -71.296875 10.613281 -72.09375 13.3125 -72.09375 C 15.957031 -72.09375 18.132812 -71.296875 19.84375 -69.703125 C 21.550781 -68.109375 22.40625 -66.113281 22.40625 -63.71875 C 22.40625 -61.375 21.550781 -59.40625 19.84375 -57.8125 C 18.132812 -56.226562 15.957031 -55.4375 13.3125 -55.4375 Z M 20.96875 -50.21875 L 20.96875 0 L 5.578125 0 L 5.578125 -50.21875 Z M 20.96875 -50.21875 "/></g></g></g><g fill="#ffffff" fill-opacity="1"><g transform="translate(587.697303, 767.292989)"><g><path d="M 26.015625 0.71875 C 21.628906 0.71875 17.726562 -0.03125 14.3125 -1.53125 C 10.894531 -3.03125 8.191406 -5.082031 6.203125 -7.6875 C 4.222656 -10.300781 3.113281 -13.226562 2.875 -16.46875 L 18.09375 -16.46875 C 18.269531 -14.726562 19.078125 -13.316406 20.515625 -12.234375 C 21.960938 -11.160156 23.734375 -10.625 25.828125 -10.625 C 27.742188 -10.625 29.226562 -11 30.28125 -11.75 C 31.332031 -12.5 31.859375 -13.472656 31.859375 -14.671875 C 31.859375 -16.109375 31.109375 -17.171875 29.609375 -17.859375 C 28.109375 -18.554688 25.675781 -19.320312 22.3125 -20.15625 C 18.71875 -21 15.71875 -21.882812 13.3125 -22.8125 C 10.914062 -23.738281 8.847656 -25.207031 7.109375 -27.21875 C 5.367188 -29.226562 4.5 -31.945312 4.5 -35.375 C 4.5 -38.25 5.289062 -40.867188 6.875 -43.234375 C 8.46875 -45.609375 10.8125 -47.484375 13.90625 -48.859375 C 17 -50.242188 20.675781 -50.9375 24.9375 -50.9375 C 31.226562 -50.9375 36.1875 -49.375 39.8125 -46.25 C 43.445312 -43.132812 45.535156 -39 46.078125 -33.84375 L 31.859375 -33.84375 C 31.617188 -35.582031 30.851562 -36.960938 29.5625 -37.984375 C 28.269531 -39.003906 26.578125 -39.515625 24.484375 -39.515625 C 22.679688 -39.515625 21.300781 -39.164062 20.34375 -38.46875 C 19.382812 -37.78125 18.90625 -36.835938 18.90625 -35.640625 C 18.90625 -34.203125 19.664062 -33.117188 21.1875 -32.390625 C 22.71875 -31.671875 25.101562 -30.953125 28.34375 -30.234375 C 32.070312 -29.273438 35.101562 -28.332031 37.4375 -27.40625 C 39.78125 -26.476562 41.835938 -24.976562 43.609375 -22.90625 C 45.378906 -20.832031 46.289062 -18.054688 46.34375 -14.578125 C 46.34375 -11.640625 45.519531 -9.015625 43.875 -6.703125 C 42.226562 -4.390625 39.859375 -2.570312 36.765625 -1.25 C 33.671875 0.0585938 30.085938 0.71875 26.015625 0.71875 Z M 26.015625 0.71875 "/></g></g></g><g fill="#ffffff" fill-opacity="1"><g transform="translate(637.917271, 767.292989)"><g><path d="M 2.515625 -25.109375 C 2.515625 -30.328125 3.578125 -34.882812 5.703125 -38.78125 C 7.835938 -42.6875 10.8125 -45.6875 14.625 -47.78125 C 18.4375 -49.882812 22.800781 -50.9375 27.71875 -50.9375 C 34.019531 -50.9375 39.285156 -49.285156 43.515625 -45.984375 C 47.742188 -42.691406 50.519531 -38.046875 51.84375 -32.046875 L 35.453125 -32.046875 C 34.078125 -35.878906 31.410156 -37.796875 27.453125 -37.796875 C 24.628906 -37.796875 22.378906 -36.703125 20.703125 -34.515625 C 19.023438 -32.328125 18.1875 -29.191406 18.1875 -25.109375 C 18.1875 -21.023438 19.023438 -17.890625 20.703125 -15.703125 C 22.378906 -13.515625 24.628906 -12.421875 27.453125 -12.421875 C 31.410156 -12.421875 34.078125 -14.34375 35.453125 -18.1875 L 51.84375 -18.1875 C 50.519531 -12.300781 47.726562 -7.675781 43.46875 -4.3125 C 39.207031 -0.957031 33.957031 0.71875 27.71875 0.71875 C 22.800781 0.71875 18.4375 -0.328125 14.625 -2.421875 C 10.8125 -4.523438 7.835938 -7.523438 5.703125 -11.421875 C 3.578125 -15.328125 2.515625 -19.890625 2.515625 -25.109375 Z M 2.515625 -25.109375 "/></g></g></g><g fill="#ffffff" fill-opacity="1"><g transform="translate(692.367204, 767.292989)"><g><path d="M 20.96875 -41.84375 C 22.769531 -44.601562 25.019531 -46.78125 27.71875 -48.375 C 30.414062 -49.96875 33.414062 -50.765625 36.71875 -50.765625 L 36.71875 -34.46875 L 32.484375 -34.46875 C 28.648438 -34.46875 25.769531 -33.640625 23.84375 -31.984375 C 21.925781 -30.335938 20.96875 -27.445312 20.96875 -23.3125 L 20.96875 0 L 5.578125 0 L 5.578125 -50.21875 L 20.96875 -50.21875 Z M 20.96875 -41.84375 "/></g></g></g><g fill="#ffffff" fill-opacity="1"><g transform="translate(730.887145, 767.292989)"><g><path d="M 13.3125 -55.4375 C 10.613281 -55.4375 8.410156 -56.226562 6.703125 -57.8125 C 4.992188 -59.40625 4.140625 -61.375 4.140625 -63.71875 C 4.140625 -66.113281 4.992188 -68.109375 6.703125 -69.703125 C 8.410156 -71.296875 10.613281 -72.09375 13.3125 -72.09375 C 15.957031 -72.09375 18.132812 -71.296875 19.84375 -69.703125 C 21.550781 -68.109375 22.40625 -66.113281 22.40625 -63.71875 C 22.40625 -61.375 21.550781 -59.40625 19.84375 -57.8125 C 18.132812 -56.226562 15.957031 -55.4375 13.3125 -55.4375 Z M 20.96875 -50.21875 L 20.96875 0 L 5.578125 0 L 5.578125 -50.21875 Z M 20.96875 -50.21875 "/></g></g></g><g fill="#ffffff" fill-opacity="1"><g transform="translate(757.437162, 767.292989)"><g><path d="M 69.65625 -50.765625 C 75.894531 -50.765625 80.859375 -48.875 84.546875 -45.09375 C 88.242188 -41.3125 90.09375 -36.0625 90.09375 -29.34375 L 90.09375 0 L 74.796875 0 L 74.796875 -27.265625 C 74.796875 -30.503906 73.9375 -33.007812 72.21875 -34.78125 C 70.507812 -36.550781 68.15625 -37.4375 65.15625 -37.4375 C 62.15625 -37.4375 59.800781 -36.550781 58.09375 -34.78125 C 56.382812 -33.007812 55.53125 -30.503906 55.53125 -27.265625 L 55.53125 0 L 40.234375 0 L 40.234375 -27.265625 C 40.234375 -30.503906 39.375 -33.007812 37.65625 -34.78125 C 35.945312 -36.550781 33.59375 -37.4375 30.59375 -37.4375 C 27.59375 -37.4375 25.238281 -36.550781 23.53125 -34.78125 C 21.820312 -33.007812 20.96875 -30.503906 20.96875 -27.265625 L 20.96875 0 L 5.578125 0 L 5.578125 -50.21875 L 20.96875 -50.21875 L 20.96875 -43.921875 C 22.53125 -46.015625 24.570312 -47.675781 27.09375 -48.90625 C 29.613281 -50.144531 32.460938 -50.765625 35.640625 -50.765625 C 39.421875 -50.765625 42.796875 -49.953125 45.765625 -48.328125 C 48.734375 -46.710938 51.054688 -44.40625 52.734375 -41.40625 C 54.472656 -44.164062 56.84375 -46.414062 59.84375 -48.15625 C 62.84375 -49.894531 66.113281 -50.765625 69.65625 -50.765625 Z M 69.65625 -50.765625 "/></g></g></g><g fill="#ffffff" fill-opacity="1"><g transform="translate(852.747033, 767.292989)"><g><path d="M 13.3125 -55.4375 C 10.613281 -55.4375 8.410156 -56.226562 6.703125 -57.8125 C 4.992188 -59.40625 4.140625 -61.375 4.140625 -63.71875 C 4.140625 -66.113281 4.992188 -68.109375 6.703125 -69.703125 C 8.410156 -71.296875 10.613281 -72.09375 13.3125 -72.09375 C 15.957031 -72.09375 18.132812 -71.296875 19.84375 -69.703125 C 21.550781 -68.109375 22.40625 -66.113281 22.40625 -63.71875 C 22.40625 -61.375 21.550781 -59.40625 19.84375 -57.8125 C 18.132812 -56.226562 15.957031 -55.4375 13.3125 -55.4375 Z M 20.96875 -50.21875 L 20.96875 0 L 5.578125 0 L 5.578125 -50.21875 Z M 20.96875 -50.21875 "/></g></g></g><g fill="#ffffff" fill-opacity="1"><g transform="translate(879.297004, 767.292989)"><g><path d="M 36.1875 -50.765625 C 42.0625 -50.765625 46.753906 -48.859375 50.265625 -45.046875 C 53.773438 -41.234375 55.53125 -36 55.53125 -29.34375 L 55.53125 0 L 40.234375 0 L 40.234375 -27.265625 C 40.234375 -30.628906 39.363281 -33.238281 37.625 -35.09375 C 35.882812 -36.957031 33.539062 -37.890625 30.59375 -37.890625 C 27.65625 -37.890625 25.316406 -36.957031 23.578125 -35.09375 C 21.835938 -33.238281 20.96875 -30.628906 20.96875 -27.265625 L 20.96875 0 L 5.578125 0 L 5.578125 -50.21875 L 20.96875 -50.21875 L 20.96875 -43.5625 C 22.53125 -45.78125 24.628906 -47.535156 27.265625 -48.828125 C 29.910156 -50.117188 32.882812 -50.765625 36.1875 -50.765625 Z M 36.1875 -50.765625 "/></g></g></g><g fill="#ffffff" fill-opacity="1"><g transform="translate(939.956959, 767.292989)"><g><path d="M 2.515625 -25.203125 C 2.515625 -30.359375 3.488281 -34.882812 5.4375 -38.78125 C 7.394531 -42.6875 10.050781 -45.6875 13.40625 -47.78125 C 16.769531 -49.882812 20.519531 -50.9375 24.65625 -50.9375 C 28.195312 -50.9375 31.300781 -50.21875 33.96875 -48.78125 C 36.644531 -47.34375 38.703125 -45.453125 40.140625 -43.109375 L 40.140625 -50.21875 L 55.53125 -50.21875 L 55.53125 0 L 40.140625 0 L 40.140625 -7.109375 C 38.640625 -4.765625 36.550781 -2.875 33.875 -1.4375 C 31.207031 0 28.101562 0.71875 24.5625 0.71875 C 20.488281 0.71875 16.769531 -0.34375 13.40625 -2.46875 C 10.050781 -4.601562 7.394531 -7.632812 5.4375 -11.5625 C 3.488281 -15.488281 2.515625 -20.035156 2.515625 -25.203125 Z M 40.140625 -25.109375 C 40.140625 -28.953125 39.070312 -31.984375 36.9375 -34.203125 C 34.8125 -36.421875 32.21875 -37.53125 29.15625 -37.53125 C 26.09375 -37.53125 23.5 -36.429688 21.375 -34.234375 C 19.25 -32.046875 18.1875 -29.035156 18.1875 -25.203125 C 18.1875 -21.359375 19.25 -18.3125 21.375 -16.0625 C 23.5 -13.8125 26.09375 -12.6875 29.15625 -12.6875 C 32.21875 -12.6875 34.8125 -13.796875 36.9375 -16.015625 C 39.070312 -18.234375 40.140625 -21.265625 40.140625 -25.109375 Z M 40.140625 -25.109375 "/></g></g></g><g fill="#ffffff" fill-opacity="1"><g transform="translate(1001.066895, 767.292989)"><g><path d="M 33.5625 -13.046875 L 33.5625 0 L 25.734375 0 C 20.160156 0 15.8125 -1.363281 12.6875 -4.09375 C 9.570312 -6.820312 8.015625 -11.273438 8.015625 -17.453125 L 8.015625 -37.4375 L 1.890625 -37.4375 L 1.890625 -50.21875 L 8.015625 -50.21875 L 8.015625 -62.453125 L 23.40625 -62.453125 L 23.40625 -50.21875 L 33.484375 -50.21875 L 33.484375 -37.4375 L 23.40625 -37.4375 L 23.40625 -17.28125 C 23.40625 -15.78125 23.765625 -14.695312 24.484375 -14.03125 C 25.203125 -13.375 26.398438 -13.046875 28.078125 -13.046875 Z M 33.5625 -13.046875 "/></g></g></g><g fill="#ffffff" fill-opacity="1"><g transform="translate(1037.606825, 767.292989)"><g><path d="M 13.3125 -55.4375 C 10.613281 -55.4375 8.410156 -56.226562 6.703125 -57.8125 C 4.992188 -59.40625 4.140625 -61.375 4.140625 -63.71875 C 4.140625 -66.113281 4.992188 -68.109375 6.703125 -69.703125 C 8.410156 -71.296875 10.613281 -72.09375 13.3125 -72.09375 C 15.957031 -72.09375 18.132812 -71.296875 19.84375 -69.703125 C 21.550781 -68.109375 22.40625 -66.113281 22.40625 -63.71875 C 22.40625 -61.375 21.550781 -59.40625 19.84375 -57.8125 C 18.132812 -56.226562 15.957031 -55.4375 13.3125 -55.4375 Z M 20.96875 -50.21875 L 20.96875 0 L 5.578125 0 L 5.578125 -50.21875 Z M 20.96875 -50.21875 "/></g></g></g><g fill="#ffffff" fill-opacity="1"><g transform="translate(1064.156842, 767.292989)"><g><path d="M 28.4375 0.71875 C 23.519531 0.71875 19.09375 -0.328125 15.15625 -2.421875 C 11.226562 -4.523438 8.140625 -7.523438 5.890625 -11.421875 C 3.640625 -15.328125 2.515625 -19.890625 2.515625 -25.109375 C 2.515625 -30.265625 3.65625 -34.804688 5.9375 -38.734375 C 8.21875 -42.671875 11.335938 -45.6875 15.296875 -47.78125 C 19.253906 -49.882812 23.695312 -50.9375 28.625 -50.9375 C 33.539062 -50.9375 37.976562 -49.882812 41.9375 -47.78125 C 45.894531 -45.6875 49.015625 -42.671875 51.296875 -38.734375 C 53.578125 -34.804688 54.71875 -30.265625 54.71875 -25.109375 C 54.71875 -19.953125 53.5625 -15.40625 51.25 -11.46875 C 48.945312 -7.539062 45.796875 -4.523438 41.796875 -2.421875 C 37.804688 -0.328125 33.351562 0.71875 28.4375 0.71875 Z M 28.4375 -12.59375 C 31.375 -12.59375 33.878906 -13.671875 35.953125 -15.828125 C 38.023438 -17.992188 39.0625 -21.085938 39.0625 -25.109375 C 39.0625 -29.128906 38.054688 -32.21875 36.046875 -34.375 C 34.035156 -36.539062 31.5625 -37.625 28.625 -37.625 C 25.625 -37.625 23.132812 -36.554688 21.15625 -34.421875 C 19.175781 -32.296875 18.1875 -29.191406 18.1875 -25.109375 C 18.1875 -21.085938 19.160156 -17.992188 21.109375 -15.828125 C 23.054688 -13.671875 25.5 -12.59375 28.4375 -12.59375 Z M 28.4375 -12.59375 "/></g></g></g><g fill="#ffffff" fill-opacity="1"><g transform="translate(1121.486795, 767.292989)"><g><path d="M 36.1875 -50.765625 C 42.0625 -50.765625 46.753906 -48.859375 50.265625 -45.046875 C 53.773438 -41.234375 55.53125 -36 55.53125 -29.34375 L 55.53125 0 L 40.234375 0 L 40.234375 -27.265625 C 40.234375 -30.628906 39.363281 -33.238281 37.625 -35.09375 C 35.882812 -36.957031 33.539062 -37.890625 30.59375 -37.890625 C 27.65625 -37.890625 25.316406 -36.957031 23.578125 -35.09375 C 21.835938 -33.238281 20.96875 -30.628906 20.96875 -27.265625 L 20.96875 0 L 5.578125 0 L 5.578125 -50.21875 L 20.96875 -50.21875 L 20.96875 -43.5625 C 22.53125 -45.78125 24.628906 -47.535156 27.265625 -48.828125 C 29.910156 -50.117188 32.882812 -50.765625 36.1875 -50.765625 Z M 36.1875 -50.765625 "/></g></g></g></svg>