<svg xmlns="http://www.w3.org/2000/svg" xmlns:xlink="http://www.w3.org/1999/xlink" width="1920" zoomAndPan="magnify" viewBox="0 0 1440 809.999993" height="1080" preserveAspectRatio="xMidYMid meet" version="1.0"><defs><g/><clipPath id="6961f8fcd8"><rect x="0" width="1440" y="0" height="810"/></clipPath><clipPath id="4e68dcca08"><path d="M 56.25 0 L 1383.75 0 C 1398.667969 0 1412.976562 5.925781 1423.523438 16.476562 C 1434.074219 27.023438 1440 41.332031 1440 56.25 L 1440 753.84375 C 1440 768.761719 1434.074219 783.070312 1423.523438 793.617188 C 1412.976562 804.167969 1398.667969 810.09375 1383.75 810.09375 L 56.25 810.09375 C 41.332031 810.09375 27.023438 804.167969 16.476562 793.617188 C 5.925781 783.070312 0 768.761719 0 753.84375 L 0 56.25 C 0 41.332031 5.925781 27.023438 16.476562 16.476562 C 27.023438 5.925781 41.332031 0 56.25 0 Z M 56.25 0 " clip-rule="nonzero"/></clipPath><clipPath id="6086e9f78f"><path d="M 0 0 L 1440 0 L 1440 810 L 0 810 Z M 0 0 " clip-rule="nonzero"/></clipPath><clipPath id="884e914b69"><path d="M 56.25 0 L 1383.75 0 C 1398.667969 0 1412.976562 5.925781 1423.523438 16.476562 C 1434.074219 27.023438 1440 41.332031 1440 56.25 L 1440 753.84375 C 1440 768.761719 1434.074219 783.070312 1423.523438 793.617188 C 1412.976562 804.167969 1398.667969 810.09375 1383.75 810.09375 L 56.25 810.09375 C 41.332031 810.09375 27.023438 804.167969 16.476562 793.617188 C 5.925781 783.070312 0 768.761719 0 753.84375 L 0 56.25 C 0 41.332031 5.925781 27.023438 16.476562 16.476562 C 27.023438 5.925781 41.332031 0 56.25 0 Z M 56.25 0 " clip-rule="nonzero"/></clipPath><clipPath id="4d0dba4259"><rect x="0" width="1440" y="0" height="810"/></clipPath><clipPath id="33b2149df2"><path d="M 507 55 L 933.824219 55 L 933.824219 569 L 507 569 Z M 507 55 " clip-rule="nonzero"/></clipPath></defs><rect x="-144" width="1728" fill="#ffffff" y="-80.999999" height="971.999992" fill-opacity="1"/><rect x="-144" width="1728" fill="#ffffff" y="-80.999999" height="971.999992" fill-opacity="1"/><g transform="matrix(1, 0, 0, 1, 0, 0.000000000000039746)"><g clip-path="url(#6961f8fcd8)"><path fill="#eae8e5" d="M 0 0 L 1439.648438 0 L 1439.648438 810 L 0 810 Z M 0 0 " fill-opacity="1" fill-rule="nonzero"/></g></g><g clip-path="url(#4e68dcca08)"><g transform="matrix(1, 0, 0, 1, 0, 0.000000000000039746)"><g clip-path="url(#4d0dba4259)"><g clip-path="url(#6086e9f78f)"><g clip-path="url(#884e914b69)"><path fill="#24a8ff" d="M 0 0 L 1439.816406 0 L 1439.816406 810.09375 L 0 810.09375 Z M 0 0 " fill-opacity="1" fill-rule="nonzero"/></g></g></g></g></g><g clip-path="url(#33b2149df2)"><path fill="#ffffff" d="M 720.917969 569 C 716.9375 569 712.9375 567.828125 709.507812 565.445312 C 522.082031 435.699219 507.167969 309.421875 507.167969 157.8125 C 507.167969 148.203125 513.992188 139.929688 523.4375 138.152344 C 625.195312 118.710938 708.410156 59.796875 709.234375 59.191406 C 716.203125 54.203125 725.59375 54.203125 732.5625 59.191406 C 733.390625 59.78125 816.601562 118.710938 918.359375 138.152344 C 927.804688 139.949219 934.628906 148.203125 934.628906 157.8125 C 934.628906 309.421875 919.714844 435.699219 732.289062 565.445312 C 728.894531 567.828125 724.898438 569 720.917969 569 Z M 547.300781 174.0625 C 548.363281 311.308594 565.585938 412.828125 720.917969 524.46875 C 876.246094 412.828125 893.46875 311.308594 894.535156 174.0625 C 813.265625 155.320312 746.886719 116.363281 720.917969 99.597656 C 694.925781 116.363281 628.550781 155.300781 547.300781 174.0625 Z M 547.300781 174.0625 " fill-opacity="1" fill-rule="nonzero"/></g><path fill="#ffffff" d="M 870.929688 190.789062 C 804.3125 172.613281 748.941406 142.480469 721.871094 126.121094 C 721.285156 125.753906 720.570312 125.753906 719.964844 126.121094 C 692.875 142.480469 637.5 172.613281 570.90625 190.789062 C 570.097656 191.027344 569.53125 191.761719 569.546875 192.605469 C 571.640625 298.046875 584.386719 393.660156 719.796875 496.316406 C 720.128906 496.554688 720.511719 496.683594 720.917969 496.683594 C 721.320312 496.683594 721.6875 496.554688 722.035156 496.316406 C 857.449219 393.660156 870.195312 298.03125 872.285156 192.605469 C 872.304688 191.761719 871.734375 191.027344 870.929688 190.789062 Z M 830.414062 269.398438 L 730.730469 369.082031 C 726.417969 373.375 720.789062 375.558594 715.140625 375.558594 C 709.546875 375.558594 703.96875 373.449219 699.679688 369.210938 L 641.738281 312.375 C 633.042969 303.84375 632.898438 289.886719 641.445312 281.191406 C 649.972656 272.5 663.949219 272.351562 672.644531 280.898438 L 714.972656 322.425781 L 799.195312 238.203125 C 807.816406 229.582031 821.792969 229.582031 830.414062 238.203125 C 839.035156 246.804688 839.035156 260.78125 830.414062 269.398438 Z M 830.414062 269.398438 " fill-opacity="1" fill-rule="nonzero"/><g fill="#ffffff" fill-opacity="1"><g transform="translate(404.364245, 677.292994)"><g><path d="M 35.453125 0.625 C 29.515625 0.625 24.070312 -0.753906 19.125 -3.515625 C 14.175781 -6.273438 10.242188 -10.128906 7.328125 -15.078125 C 4.421875 -20.023438 2.96875 -25.585938 2.96875 -31.765625 C 2.96875 -37.953125 4.421875 -43.503906 7.328125 -48.421875 C 10.242188 -53.335938 14.175781 -57.175781 19.125 -59.9375 C 24.070312 -62.695312 29.515625 -64.078125 35.453125 -64.078125 C 41.398438 -64.078125 46.847656 -62.695312 51.796875 -59.9375 C 56.742188 -57.175781 60.640625 -53.335938 63.484375 -48.421875 C 66.335938 -43.503906 67.765625 -37.953125 67.765625 -31.765625 C 67.765625 -25.585938 66.320312 -20.023438 63.4375 -15.078125 C 60.5625 -10.128906 56.664062 -6.273438 51.75 -3.515625 C 46.832031 -0.753906 41.398438 0.625 35.453125 0.625 Z M 35.453125 -13.40625 C 40.492188 -13.40625 44.53125 -15.082031 47.5625 -18.4375 C 50.59375 -21.800781 52.109375 -26.242188 52.109375 -31.765625 C 52.109375 -37.347656 50.59375 -41.800781 47.5625 -45.125 C 44.53125 -48.457031 40.492188 -50.125 35.453125 -50.125 C 30.359375 -50.125 26.296875 -48.472656 23.265625 -45.171875 C 20.234375 -41.878906 18.71875 -37.410156 18.71875 -31.765625 C 18.71875 -26.191406 20.234375 -21.738281 23.265625 -18.40625 C 26.296875 -15.070312 30.359375 -13.40625 35.453125 -13.40625 Z M 35.453125 -13.40625 "/></g></g></g><g fill="#ffffff" fill-opacity="1"><g transform="translate(475.104178, 677.292994)"><g><path d="M 2.515625 -25.109375 C 2.515625 -30.328125 3.578125 -34.882812 5.703125 -38.78125 C 7.835938 -42.6875 10.8125 -45.6875 14.625 -47.78125 C 18.4375 -49.882812 22.800781 -50.9375 27.71875 -50.9375 C 34.019531 -50.9375 39.285156 -49.285156 43.515625 -45.984375 C 47.742188 -42.691406 50.519531 -38.046875 51.84375 -32.046875 L 35.453125 -32.046875 C 34.078125 -35.878906 31.410156 -37.796875 27.453125 -37.796875 C 24.628906 -37.796875 22.378906 -36.703125 20.703125 -34.515625 C 19.023438 -32.328125 18.1875 -29.191406 18.1875 -25.109375 C 18.1875 -21.023438 19.023438 -17.890625 20.703125 -15.703125 C 22.378906 -13.515625 24.628906 -12.421875 27.453125 -12.421875 C 31.410156 -12.421875 34.078125 -14.34375 35.453125 -18.1875 L 51.84375 -18.1875 C 50.519531 -12.300781 47.726562 -7.675781 43.46875 -4.3125 C 39.207031 -0.957031 33.957031 0.71875 27.71875 0.71875 C 22.800781 0.71875 18.4375 -0.328125 14.625 -2.421875 C 10.8125 -4.523438 7.835938 -7.523438 5.703125 -11.421875 C 3.578125 -15.328125 2.515625 -19.890625 2.515625 -25.109375 Z M 2.515625 -25.109375 "/></g></g></g><g fill="#ffffff" fill-opacity="1"><g transform="translate(529.554123, 677.292994)"><g><path d="M 2.515625 -25.109375 C 2.515625 -30.328125 3.578125 -34.882812 5.703125 -38.78125 C 7.835938 -42.6875 10.8125 -45.6875 14.625 -47.78125 C 18.4375 -49.882812 22.800781 -50.9375 27.71875 -50.9375 C 34.019531 -50.9375 39.285156 -49.285156 43.515625 -45.984375 C 47.742188 -42.691406 50.519531 -38.046875 51.84375 -32.046875 L 35.453125 -32.046875 C 34.078125 -35.878906 31.410156 -37.796875 27.453125 -37.796875 C 24.628906 -37.796875 22.378906 -36.703125 20.703125 -34.515625 C 19.023438 -32.328125 18.1875 -29.191406 18.1875 -25.109375 C 18.1875 -21.023438 19.023438 -17.890625 20.703125 -15.703125 C 22.378906 -13.515625 24.628906 -12.421875 27.453125 -12.421875 C 31.410156 -12.421875 34.078125 -14.34375 35.453125 -18.1875 L 51.84375 -18.1875 C 50.519531 -12.300781 47.726562 -7.675781 43.46875 -4.3125 C 39.207031 -0.957031 33.957031 0.71875 27.71875 0.71875 C 22.800781 0.71875 18.4375 -0.328125 14.625 -2.421875 C 10.8125 -4.523438 7.835938 -7.523438 5.703125 -11.421875 C 3.578125 -15.328125 2.515625 -19.890625 2.515625 -25.109375 Z M 2.515625 -25.109375 "/></g></g></g><g fill="#ffffff" fill-opacity="1"><g transform="translate(584.004068, 677.292994)"><g><path d="M 55.171875 -50.21875 L 55.171875 0 L 39.78125 0 L 39.78125 -6.84375 C 38.21875 -4.625 36.101562 -2.835938 33.4375 -1.484375 C 30.769531 -0.128906 27.8125 0.546875 24.5625 0.546875 C 20.726562 0.546875 17.335938 -0.304688 14.390625 -2.015625 C 11.453125 -3.734375 9.171875 -6.210938 7.546875 -9.453125 C 5.929688 -12.691406 5.125 -16.5 5.125 -20.875 L 5.125 -50.21875 L 20.4375 -50.21875 L 20.4375 -22.953125 C 20.4375 -19.585938 21.304688 -16.972656 23.046875 -15.109375 C 24.785156 -13.253906 27.125 -12.328125 30.0625 -12.328125 C 33.0625 -12.328125 35.429688 -13.253906 37.171875 -15.109375 C 38.910156 -16.972656 39.78125 -19.585938 39.78125 -22.953125 L 39.78125 -50.21875 Z M 55.171875 -50.21875 "/></g></g></g><g fill="#ffffff" fill-opacity="1"><g transform="translate(644.664023, 677.292994)"><g><path d="M 20.96875 -43.109375 C 22.46875 -45.453125 24.535156 -47.34375 27.171875 -48.78125 C 29.816406 -50.21875 32.910156 -50.9375 36.453125 -50.9375 C 40.585938 -50.9375 44.332031 -49.882812 47.6875 -47.78125 C 51.050781 -45.6875 53.707031 -42.6875 55.65625 -38.78125 C 57.613281 -34.882812 58.59375 -30.359375 58.59375 -25.203125 C 58.59375 -20.035156 57.613281 -15.488281 55.65625 -11.5625 C 53.707031 -7.632812 51.050781 -4.601562 47.6875 -2.46875 C 44.332031 -0.34375 40.585938 0.71875 36.453125 0.71875 C 32.972656 0.71875 29.894531 0 27.21875 -1.4375 C 24.550781 -2.875 22.46875 -4.734375 20.96875 -7.015625 L 20.96875 23.9375 L 5.578125 23.9375 L 5.578125 -50.21875 L 20.96875 -50.21875 Z M 42.9375 -25.203125 C 42.9375 -29.035156 41.867188 -32.046875 39.734375 -34.234375 C 37.609375 -36.429688 34.984375 -37.53125 31.859375 -37.53125 C 28.796875 -37.53125 26.195312 -36.421875 24.0625 -34.203125 C 21.9375 -31.984375 20.875 -28.953125 20.875 -25.109375 C 20.875 -21.265625 21.9375 -18.234375 24.0625 -16.015625 C 26.195312 -13.796875 28.796875 -12.6875 31.859375 -12.6875 C 34.921875 -12.6875 37.53125 -13.8125 39.6875 -16.0625 C 41.851562 -18.3125 42.9375 -21.359375 42.9375 -25.203125 Z M 42.9375 -25.203125 "/></g></g></g><g fill="#ffffff" fill-opacity="1"><g transform="translate(705.773959, 677.292994)"><g><path d="M 2.515625 -25.203125 C 2.515625 -30.359375 3.488281 -34.882812 5.4375 -38.78125 C 7.394531 -42.6875 10.050781 -45.6875 13.40625 -47.78125 C 16.769531 -49.882812 20.519531 -50.9375 24.65625 -50.9375 C 28.195312 -50.9375 31.300781 -50.21875 33.96875 -48.78125 C 36.644531 -47.34375 38.703125 -45.453125 40.140625 -43.109375 L 40.140625 -50.21875 L 55.53125 -50.21875 L 55.53125 0 L 40.140625 0 L 40.140625 -7.109375 C 38.640625 -4.765625 36.550781 -2.875 33.875 -1.4375 C 31.207031 0 28.101562 0.71875 24.5625 0.71875 C 20.488281 0.71875 16.769531 -0.34375 13.40625 -2.46875 C 10.050781 -4.601562 7.394531 -7.632812 5.4375 -11.5625 C 3.488281 -15.488281 2.515625 -20.035156 2.515625 -25.203125 Z M 40.140625 -25.109375 C 40.140625 -28.953125 39.070312 -31.984375 36.9375 -34.203125 C 34.8125 -36.421875 32.21875 -37.53125 29.15625 -37.53125 C 26.09375 -37.53125 23.5 -36.429688 21.375 -34.234375 C 19.25 -32.046875 18.1875 -29.035156 18.1875 -25.203125 C 18.1875 -21.359375 19.25 -18.3125 21.375 -16.0625 C 23.5 -13.8125 26.09375 -12.6875 29.15625 -12.6875 C 32.21875 -12.6875 34.8125 -13.796875 36.9375 -16.015625 C 39.070312 -18.234375 40.140625 -21.265625 40.140625 -25.109375 Z M 40.140625 -25.109375 "/></g></g></g><g fill="#ffffff" fill-opacity="1"><g transform="translate(766.883895, 677.292994)"><g><path d="M 33.5625 -13.046875 L 33.5625 0 L 25.734375 0 C 20.160156 0 15.8125 -1.363281 12.6875 -4.09375 C 9.570312 -6.820312 8.015625 -11.273438 8.015625 -17.453125 L 8.015625 -37.4375 L 1.890625 -37.4375 L 1.890625 -50.21875 L 8.015625 -50.21875 L 8.015625 -62.453125 L 23.40625 -62.453125 L 23.40625 -50.21875 L 33.484375 -50.21875 L 33.484375 -37.4375 L 23.40625 -37.4375 L 23.40625 -17.28125 C 23.40625 -15.78125 23.765625 -14.695312 24.484375 -14.03125 C 25.203125 -13.375 26.398438 -13.046875 28.078125 -13.046875 Z M 33.5625 -13.046875 "/></g></g></g><g fill="#ffffff" fill-opacity="1"><g transform="translate(803.423826, 677.292994)"><g><path d="M 13.3125 -55.4375 C 10.613281 -55.4375 8.410156 -56.226562 6.703125 -57.8125 C 4.992188 -59.40625 4.140625 -61.375 4.140625 -63.71875 C 4.140625 -66.113281 4.992188 -68.109375 6.703125 -69.703125 C 8.410156 -71.296875 10.613281 -72.09375 13.3125 -72.09375 C 15.957031 -72.09375 18.132812 -71.296875 19.84375 -69.703125 C 21.550781 -68.109375 22.40625 -66.113281 22.40625 -63.71875 C 22.40625 -61.375 21.550781 -59.40625 19.84375 -57.8125 C 18.132812 -56.226562 15.957031 -55.4375 13.3125 -55.4375 Z M 20.96875 -50.21875 L 20.96875 0 L 5.578125 0 L 5.578125 -50.21875 Z M 20.96875 -50.21875 "/></g></g></g><g fill="#ffffff" fill-opacity="1"><g transform="translate(829.973842, 677.292994)"><g><path d="M 28.4375 0.71875 C 23.519531 0.71875 19.09375 -0.328125 15.15625 -2.421875 C 11.226562 -4.523438 8.140625 -7.523438 5.890625 -11.421875 C 3.640625 -15.328125 2.515625 -19.890625 2.515625 -25.109375 C 2.515625 -30.265625 3.65625 -34.804688 5.9375 -38.734375 C 8.21875 -42.671875 11.335938 -45.6875 15.296875 -47.78125 C 19.253906 -49.882812 23.695312 -50.9375 28.625 -50.9375 C 33.539062 -50.9375 37.976562 -49.882812 41.9375 -47.78125 C 45.894531 -45.6875 49.015625 -42.671875 51.296875 -38.734375 C 53.578125 -34.804688 54.71875 -30.265625 54.71875 -25.109375 C 54.71875 -19.953125 53.5625 -15.40625 51.25 -11.46875 C 48.945312 -7.539062 45.796875 -4.523438 41.796875 -2.421875 C 37.804688 -0.328125 33.351562 0.71875 28.4375 0.71875 Z M 28.4375 -12.59375 C 31.375 -12.59375 33.878906 -13.671875 35.953125 -15.828125 C 38.023438 -17.992188 39.0625 -21.085938 39.0625 -25.109375 C 39.0625 -29.128906 38.054688 -32.21875 36.046875 -34.375 C 34.035156 -36.539062 31.5625 -37.625 28.625 -37.625 C 25.625 -37.625 23.132812 -36.554688 21.15625 -34.421875 C 19.175781 -32.296875 18.1875 -29.191406 18.1875 -25.109375 C 18.1875 -21.085938 19.160156 -17.992188 21.109375 -15.828125 C 23.054688 -13.671875 25.5 -12.59375 28.4375 -12.59375 Z M 28.4375 -12.59375 "/></g></g></g><g fill="#ffffff" fill-opacity="1"><g transform="translate(887.303749, 677.292994)"><g><path d="M 36.1875 -50.765625 C 42.0625 -50.765625 46.753906 -48.859375 50.265625 -45.046875 C 53.773438 -41.234375 55.53125 -36 55.53125 -29.34375 L 55.53125 0 L 40.234375 0 L 40.234375 -27.265625 C 40.234375 -30.628906 39.363281 -33.238281 37.625 -35.09375 C 35.882812 -36.957031 33.539062 -37.890625 30.59375 -37.890625 C 27.65625 -37.890625 25.316406 -36.957031 23.578125 -35.09375 C 21.835938 -33.238281 20.96875 -30.628906 20.96875 -27.265625 L 20.96875 0 L 5.578125 0 L 5.578125 -50.21875 L 20.96875 -50.21875 L 20.96875 -43.5625 C 22.53125 -45.78125 24.628906 -47.535156 27.265625 -48.828125 C 29.910156 -50.117188 32.882812 -50.765625 36.1875 -50.765625 Z M 36.1875 -50.765625 "/></g></g></g><g fill="#ffffff" fill-opacity="1"><g transform="translate(947.963704, 677.292994)"><g><path d="M 2.515625 -25.203125 C 2.515625 -30.359375 3.488281 -34.882812 5.4375 -38.78125 C 7.394531 -42.6875 10.050781 -45.6875 13.40625 -47.78125 C 16.769531 -49.882812 20.519531 -50.9375 24.65625 -50.9375 C 28.195312 -50.9375 31.300781 -50.21875 33.96875 -48.78125 C 36.644531 -47.34375 38.703125 -45.453125 40.140625 -43.109375 L 40.140625 -50.21875 L 55.53125 -50.21875 L 55.53125 0 L 40.140625 0 L 40.140625 -7.109375 C 38.640625 -4.765625 36.550781 -2.875 33.875 -1.4375 C 31.207031 0 28.101562 0.71875 24.5625 0.71875 C 20.488281 0.71875 16.769531 -0.34375 13.40625 -2.46875 C 10.050781 -4.601562 7.394531 -7.632812 5.4375 -11.5625 C 3.488281 -15.488281 2.515625 -20.035156 2.515625 -25.203125 Z M 40.140625 -25.109375 C 40.140625 -28.953125 39.070312 -31.984375 36.9375 -34.203125 C 34.8125 -36.421875 32.21875 -37.53125 29.15625 -37.53125 C 26.09375 -37.53125 23.5 -36.429688 21.375 -34.234375 C 19.25 -32.046875 18.1875 -29.035156 18.1875 -25.203125 C 18.1875 -21.359375 19.25 -18.3125 21.375 -16.0625 C 23.5 -13.8125 26.09375 -12.6875 29.15625 -12.6875 C 32.21875 -12.6875 34.8125 -13.796875 36.9375 -16.015625 C 39.070312 -18.234375 40.140625 -21.265625 40.140625 -25.109375 Z M 40.140625 -25.109375 "/></g></g></g><g fill="#ffffff" fill-opacity="1"><g transform="translate(1009.07364, 677.292994)"><g><path d="M 20.96875 -66.59375 L 20.96875 0 L 5.578125 0 L 5.578125 -66.59375 Z M 20.96875 -66.59375 "/></g></g></g><g fill="#ffffff" fill-opacity="1"><g transform="translate(363.102528, 767.292989)"><g><path d="M 60.296875 -63.1875 L 60.296875 0 L 44.90625 0 L 44.90625 -26.015625 L 20.96875 -26.015625 L 20.96875 0 L 5.578125 0 L 5.578125 -63.1875 L 20.96875 -63.1875 L 20.96875 -38.4375 L 44.90625 -38.4375 L 44.90625 -63.1875 Z M 60.296875 -63.1875 "/></g></g></g><g fill="#ffffff" fill-opacity="1"><g transform="translate(428.892457, 767.292989)"><g><path d="M 52.921875 -25.921875 C 52.921875 -24.484375 52.832031 -22.984375 52.65625 -21.421875 L 17.8125 -21.421875 C 18.0625 -18.296875 19.066406 -15.910156 20.828125 -14.265625 C 22.597656 -12.617188 24.773438 -11.796875 27.359375 -11.796875 C 31.203125 -11.796875 33.875 -13.414062 35.375 -16.65625 L 51.75 -16.65625 C 50.90625 -13.351562 49.390625 -10.378906 47.203125 -7.734375 C 45.015625 -5.097656 42.269531 -3.03125 38.96875 -1.53125 C 35.664062 -0.03125 31.976562 0.71875 27.90625 0.71875 C 22.976562 0.71875 18.59375 -0.328125 14.75 -2.421875 C 10.914062 -4.523438 7.914062 -7.523438 5.75 -11.421875 C 3.59375 -15.328125 2.515625 -19.890625 2.515625 -25.109375 C 2.515625 -30.328125 3.578125 -34.882812 5.703125 -38.78125 C 7.835938 -42.6875 10.828125 -45.6875 14.671875 -47.78125 C 18.515625 -49.882812 22.925781 -50.9375 27.90625 -50.9375 C 32.757812 -50.9375 37.078125 -49.914062 40.859375 -47.875 C 44.640625 -45.832031 47.59375 -42.921875 49.71875 -39.140625 C 51.851562 -35.367188 52.921875 -30.960938 52.921875 -25.921875 Z M 37.171875 -29.96875 C 37.171875 -32.613281 36.269531 -34.710938 34.46875 -36.265625 C 32.664062 -37.828125 30.414062 -38.609375 27.71875 -38.609375 C 25.132812 -38.609375 22.957031 -37.859375 21.1875 -36.359375 C 19.425781 -34.859375 18.332031 -32.726562 17.90625 -29.96875 Z M 37.171875 -29.96875 "/></g></g></g><g fill="#ffffff" fill-opacity="1"><g transform="translate(484.332407, 767.292989)"><g><path d="M 2.515625 -25.203125 C 2.515625 -30.359375 3.488281 -34.882812 5.4375 -38.78125 C 7.394531 -42.6875 10.050781 -45.6875 13.40625 -47.78125 C 16.769531 -49.882812 20.519531 -50.9375 24.65625 -50.9375 C 28.195312 -50.9375 31.300781 -50.21875 33.96875 -48.78125 C 36.644531 -47.34375 38.703125 -45.453125 40.140625 -43.109375 L 40.140625 -50.21875 L 55.53125 -50.21875 L 55.53125 0 L 40.140625 0 L 40.140625 -7.109375 C 38.640625 -4.765625 36.550781 -2.875 33.875 -1.4375 C 31.207031 0 28.101562 0.71875 24.5625 0.71875 C 20.488281 0.71875 16.769531 -0.34375 13.40625 -2.46875 C 10.050781 -4.601562 7.394531 -7.632812 5.4375 -11.5625 C 3.488281 -15.488281 2.515625 -20.035156 2.515625 -25.203125 Z M 40.140625 -25.109375 C 40.140625 -28.953125 39.070312 -31.984375 36.9375 -34.203125 C 34.8125 -36.421875 32.21875 -37.53125 29.15625 -37.53125 C 26.09375 -37.53125 23.5 -36.429688 21.375 -34.234375 C 19.25 -32.046875 18.1875 -29.035156 18.1875 -25.203125 C 18.1875 -21.359375 19.25 -18.3125 21.375 -16.0625 C 23.5 -13.8125 26.09375 -12.6875 29.15625 -12.6875 C 32.21875 -12.6875 34.8125 -13.796875 36.9375 -16.015625 C 39.070312 -18.234375 40.140625 -21.265625 40.140625 -25.109375 Z M 40.140625 -25.109375 "/></g></g></g><g fill="#ffffff" fill-opacity="1"><g transform="translate(545.442343, 767.292989)"><g><path d="M 20.96875 -66.59375 L 20.96875 0 L 5.578125 0 L 5.578125 -66.59375 Z M 20.96875 -66.59375 "/></g></g></g><g fill="#ffffff" fill-opacity="1"><g transform="translate(571.992303, 767.292989)"><g><path d="M 33.5625 -13.046875 L 33.5625 0 L 25.734375 0 C 20.160156 0 15.8125 -1.363281 12.6875 -4.09375 C 9.570312 -6.820312 8.015625 -11.273438 8.015625 -17.453125 L 8.015625 -37.4375 L 1.890625 -37.4375 L 1.890625 -50.21875 L 8.015625 -50.21875 L 8.015625 -62.453125 L 23.40625 -62.453125 L 23.40625 -50.21875 L 33.484375 -50.21875 L 33.484375 -37.4375 L 23.40625 -37.4375 L 23.40625 -17.28125 C 23.40625 -15.78125 23.765625 -14.695312 24.484375 -14.03125 C 25.203125 -13.375 26.398438 -13.046875 28.078125 -13.046875 Z M 33.5625 -13.046875 "/></g></g></g><g fill="#ffffff" fill-opacity="1"><g transform="translate(608.532279, 767.292989)"><g><path d="M 36.453125 -50.765625 C 42.210938 -50.765625 46.832031 -48.859375 50.3125 -45.046875 C 53.789062 -41.234375 55.53125 -36 55.53125 -29.34375 L 55.53125 0 L 40.234375 0 L 40.234375 -27.265625 C 40.234375 -30.628906 39.363281 -33.238281 37.625 -35.09375 C 35.882812 -36.957031 33.539062 -37.890625 30.59375 -37.890625 C 27.65625 -37.890625 25.316406 -36.957031 23.578125 -35.09375 C 21.835938 -33.238281 20.96875 -30.628906 20.96875 -27.265625 L 20.96875 0 L 5.578125 0 L 5.578125 -66.59375 L 20.96875 -66.59375 L 20.96875 -43.46875 C 22.53125 -45.6875 24.660156 -47.457031 27.359375 -48.78125 C 30.054688 -50.101562 33.085938 -50.765625 36.453125 -50.765625 Z M 36.453125 -50.765625 "/></g></g></g><g fill="#ffffff" fill-opacity="1"><g transform="translate(669.192234, 767.292989)"><g/></g></g><g fill="#ffffff" fill-opacity="1"><g transform="translate(688.272189, 767.292989)"><g><path d="M 53.90625 0 L 48.0625 -5.671875 C 42.238281 -1.234375 35.28125 0.984375 27.1875 0.984375 C 22.320312 0.984375 18.085938 0.191406 14.484375 -1.390625 C 10.890625 -2.984375 8.113281 -5.234375 6.15625 -8.140625 C 4.207031 -11.054688 3.234375 -14.460938 3.234375 -18.359375 C 3.234375 -22.316406 4.296875 -25.898438 6.421875 -29.109375 C 8.554688 -32.328125 11.753906 -34.953125 16.015625 -36.984375 C 14.460938 -38.910156 13.351562 -40.757812 12.6875 -42.53125 C 12.03125 -44.300781 11.703125 -46.234375 11.703125 -48.328125 C 11.703125 -51.328125 12.476562 -54.054688 14.03125 -56.515625 C 15.59375 -58.972656 17.859375 -60.90625 20.828125 -62.3125 C 23.804688 -63.726562 27.332031 -64.4375 31.40625 -64.4375 C 35.550781 -64.4375 39.0625 -63.6875 41.9375 -62.1875 C 44.820312 -60.6875 46.984375 -58.675781 48.421875 -56.15625 C 49.859375 -53.632812 50.519531 -50.875 50.40625 -47.875 L 35.90625 -47.875 C 35.96875 -49.5 35.5625 -50.742188 34.6875 -51.609375 C 33.820312 -52.484375 32.671875 -52.921875 31.234375 -52.921875 C 29.785156 -52.921875 28.582031 -52.5 27.625 -51.65625 C 26.664062 -50.820312 26.1875 -49.742188 26.1875 -48.421875 C 26.1875 -47.160156 26.59375 -45.835938 27.40625 -44.453125 C 28.21875 -43.078125 29.492188 -41.488281 31.234375 -39.6875 L 46.625 -24.65625 C 46.738281 -24.957031 46.898438 -25.316406 47.109375 -25.734375 C 47.328125 -26.160156 47.554688 -26.644531 47.796875 -27.1875 L 51.125 -32.84375 L 66.515625 -32.84375 L 62.1875 -25.015625 C 60.570312 -21.472656 58.710938 -18.113281 56.609375 -14.9375 L 71.8125 0 Z M 27.90625 -11.4375 C 31.925781 -11.4375 35.492188 -12.570312 38.609375 -14.84375 L 24.5625 -28.4375 C 20.25 -26.21875 18.09375 -23.21875 18.09375 -19.4375 C 18.09375 -17.15625 18.976562 -15.25 20.75 -13.71875 C 22.519531 -12.195312 24.90625 -11.4375 27.90625 -11.4375 Z M 27.90625 -11.4375 "/></g></g></g><g fill="#ffffff" fill-opacity="1"><g transform="translate(760.092101, 767.292989)"><g/></g></g><g fill="#ffffff" fill-opacity="1"><g transform="translate(779.172102, 767.292989)"><g><path d="M 28.4375 0.625 C 23.820312 0.625 19.679688 -0.125 16.015625 -1.625 C 12.359375 -3.125 9.429688 -5.34375 7.234375 -8.28125 C 5.046875 -11.21875 3.894531 -14.757812 3.78125 -18.90625 L 20.15625 -18.90625 C 20.394531 -16.5625 21.203125 -14.773438 22.578125 -13.546875 C 23.960938 -12.316406 25.765625 -11.703125 27.984375 -11.703125 C 30.265625 -11.703125 32.066406 -12.222656 33.390625 -13.265625 C 34.710938 -14.316406 35.375 -15.773438 35.375 -17.640625 C 35.375 -19.203125 34.847656 -20.492188 33.796875 -21.515625 C 32.742188 -22.535156 31.453125 -23.375 29.921875 -24.03125 C 28.390625 -24.6875 26.21875 -25.4375 23.40625 -26.28125 C 19.320312 -27.539062 15.988281 -28.800781 13.40625 -30.0625 C 10.832031 -31.320312 8.613281 -33.179688 6.75 -35.640625 C 4.882812 -38.097656 3.953125 -41.304688 3.953125 -45.265625 C 3.953125 -51.148438 6.082031 -55.753906 10.34375 -59.078125 C 14.601562 -62.410156 20.15625 -64.078125 27 -64.078125 C 33.957031 -64.078125 39.566406 -62.410156 43.828125 -59.078125 C 48.085938 -55.753906 50.367188 -51.125 50.671875 -45.1875 L 34.015625 -45.1875 C 33.898438 -47.21875 33.148438 -48.816406 31.765625 -49.984375 C 30.390625 -51.160156 28.617188 -51.75 26.453125 -51.75 C 24.597656 -51.75 23.097656 -51.253906 21.953125 -50.265625 C 20.816406 -49.273438 20.25 -47.847656 20.25 -45.984375 C 20.25 -43.953125 21.207031 -42.363281 23.125 -41.21875 C 25.050781 -40.082031 28.050781 -38.851562 32.125 -37.53125 C 36.207031 -36.144531 39.523438 -34.820312 42.078125 -33.5625 C 44.628906 -32.3125 46.832031 -30.484375 48.6875 -28.078125 C 50.550781 -25.679688 51.484375 -22.59375 51.484375 -18.8125 C 51.484375 -15.207031 50.566406 -11.9375 48.734375 -9 C 46.898438 -6.0625 44.242188 -3.722656 40.765625 -1.984375 C 37.285156 -0.242188 33.175781 0.625 28.4375 0.625 Z M 28.4375 0.625 "/></g></g></g><g fill="#ffffff" fill-opacity="1"><g transform="translate(834.522044, 767.292989)"><g><path d="M 2.515625 -25.203125 C 2.515625 -30.359375 3.488281 -34.882812 5.4375 -38.78125 C 7.394531 -42.6875 10.050781 -45.6875 13.40625 -47.78125 C 16.769531 -49.882812 20.519531 -50.9375 24.65625 -50.9375 C 28.195312 -50.9375 31.300781 -50.21875 33.96875 -48.78125 C 36.644531 -47.34375 38.703125 -45.453125 40.140625 -43.109375 L 40.140625 -50.21875 L 55.53125 -50.21875 L 55.53125 0 L 40.140625 0 L 40.140625 -7.109375 C 38.640625 -4.765625 36.550781 -2.875 33.875 -1.4375 C 31.207031 0 28.101562 0.71875 24.5625 0.71875 C 20.488281 0.71875 16.769531 -0.34375 13.40625 -2.46875 C 10.050781 -4.601562 7.394531 -7.632812 5.4375 -11.5625 C 3.488281 -15.488281 2.515625 -20.035156 2.515625 -25.203125 Z M 40.140625 -25.109375 C 40.140625 -28.953125 39.070312 -31.984375 36.9375 -34.203125 C 34.8125 -36.421875 32.21875 -37.53125 29.15625 -37.53125 C 26.09375 -37.53125 23.5 -36.429688 21.375 -34.234375 C 19.25 -32.046875 18.1875 -29.035156 18.1875 -25.203125 C 18.1875 -21.359375 19.25 -18.3125 21.375 -16.0625 C 23.5 -13.8125 26.09375 -12.6875 29.15625 -12.6875 C 32.21875 -12.6875 34.8125 -13.796875 36.9375 -16.015625 C 39.070312 -18.234375 40.140625 -21.265625 40.140625 -25.109375 Z M 40.140625 -25.109375 "/></g></g></g><g fill="#ffffff" fill-opacity="1"><g transform="translate(895.631981, 767.292989)"><g><path d="M 30.78125 -37.4375 L 22.5 -37.4375 L 22.5 0 L 7.109375 0 L 7.109375 -37.4375 L 1.53125 -37.4375 L 1.53125 -50.21875 L 7.109375 -50.21875 L 7.109375 -51.65625 C 7.109375 -57.84375 8.878906 -62.539062 12.421875 -65.75 C 15.960938 -68.957031 21.148438 -70.5625 27.984375 -70.5625 C 29.128906 -70.5625 29.972656 -70.53125 30.515625 -70.46875 L 30.515625 -57.421875 C 27.566406 -57.597656 25.492188 -57.175781 24.296875 -56.15625 C 23.097656 -55.132812 22.5 -53.304688 22.5 -50.671875 L 22.5 -50.21875 L 30.78125 -50.21875 Z M 30.78125 -37.4375 "/></g></g></g><g fill="#ffffff" fill-opacity="1"><g transform="translate(928.031942, 767.292989)"><g><path d="M 52.921875 -25.921875 C 52.921875 -24.484375 52.832031 -22.984375 52.65625 -21.421875 L 17.8125 -21.421875 C 18.0625 -18.296875 19.066406 -15.910156 20.828125 -14.265625 C 22.597656 -12.617188 24.773438 -11.796875 27.359375 -11.796875 C 31.203125 -11.796875 33.875 -13.414062 35.375 -16.65625 L 51.75 -16.65625 C 50.90625 -13.351562 49.390625 -10.378906 47.203125 -7.734375 C 45.015625 -5.097656 42.269531 -3.03125 38.96875 -1.53125 C 35.664062 -0.03125 31.976562 0.71875 27.90625 0.71875 C 22.976562 0.71875 18.59375 -0.328125 14.75 -2.421875 C 10.914062 -4.523438 7.914062 -7.523438 5.75 -11.421875 C 3.59375 -15.328125 2.515625 -19.890625 2.515625 -25.109375 C 2.515625 -30.328125 3.578125 -34.882812 5.703125 -38.78125 C 7.835938 -42.6875 10.828125 -45.6875 14.671875 -47.78125 C 18.515625 -49.882812 22.925781 -50.9375 27.90625 -50.9375 C 32.757812 -50.9375 37.078125 -49.914062 40.859375 -47.875 C 44.640625 -45.832031 47.59375 -42.921875 49.71875 -39.140625 C 51.851562 -35.367188 52.921875 -30.960938 52.921875 -25.921875 Z M 37.171875 -29.96875 C 37.171875 -32.613281 36.269531 -34.710938 34.46875 -36.265625 C 32.664062 -37.828125 30.414062 -38.609375 27.71875 -38.609375 C 25.132812 -38.609375 22.957031 -37.859375 21.1875 -36.359375 C 19.425781 -34.859375 18.332031 -32.726562 17.90625 -29.96875 Z M 37.171875 -29.96875 "/></g></g></g><g fill="#ffffff" fill-opacity="1"><g transform="translate(983.471881, 767.292989)"><g><path d="M 33.5625 -13.046875 L 33.5625 0 L 25.734375 0 C 20.160156 0 15.8125 -1.363281 12.6875 -4.09375 C 9.570312 -6.820312 8.015625 -11.273438 8.015625 -17.453125 L 8.015625 -37.4375 L 1.890625 -37.4375 L 1.890625 -50.21875 L 8.015625 -50.21875 L 8.015625 -62.453125 L 23.40625 -62.453125 L 23.40625 -50.21875 L 33.484375 -50.21875 L 33.484375 -37.4375 L 23.40625 -37.4375 L 23.40625 -17.28125 C 23.40625 -15.78125 23.765625 -14.695312 24.484375 -14.03125 C 25.203125 -13.375 26.398438 -13.046875 28.078125 -13.046875 Z M 33.5625 -13.046875 "/></g></g></g><g fill="#ffffff" fill-opacity="1"><g transform="translate(1020.011857, 767.292989)"><g><path d="M 56.875 -50.21875 L 25.375 23.84375 L 8.8125 23.84375 L 20.34375 -1.703125 L -0.09375 -50.21875 L 17.09375 -50.21875 L 28.703125 -18.8125 L 40.234375 -50.21875 Z M 56.875 -50.21875 "/></g></g></g></svg>