<svg xmlns="http://www.w3.org/2000/svg" xmlns:xlink="http://www.w3.org/1999/xlink" width="1920" zoomAndPan="magnify" viewBox="0 0 1440 809.999993" height="1080" preserveAspectRatio="xMidYMid meet" version="1.0"><defs><g/><clipPath id="154c7d7812"><rect x="0" width="1440" y="0" height="810"/></clipPath><clipPath id="2a93968813"><path d="M 56.25 0 L 1383.75 0 C 1398.667969 0 1412.976562 5.925781 1423.523438 16.476562 C 1434.074219 27.023438 1440 41.332031 1440 56.25 L 1440 753.84375 C 1440 768.761719 1434.074219 783.070312 1423.523438 793.617188 C 1412.976562 804.167969 1398.667969 810.09375 1383.75 810.09375 L 56.25 810.09375 C 41.332031 810.09375 27.023438 804.167969 16.476562 793.617188 C 5.925781 783.070312 0 768.761719 0 753.84375 L 0 56.25 C 0 41.332031 5.925781 27.023438 16.476562 16.476562 C 27.023438 5.925781 41.332031 0 56.25 0 Z M 56.25 0 " clip-rule="nonzero"/></clipPath><clipPath id="99fae7bb72"><path d="M 0 0 L 1440 0 L 1440 810 L 0 810 Z M 0 0 " clip-rule="nonzero"/></clipPath><clipPath id="aabf21b8de"><path d="M 56.25 0 L 1383.75 0 C 1398.667969 0 1412.976562 5.925781 1423.523438 16.476562 C 1434.074219 27.023438 1440 41.332031 1440 56.25 L 1440 753.84375 C 1440 768.761719 1434.074219 783.070312 1423.523438 793.617188 C 1412.976562 804.167969 1398.667969 810.09375 1383.75 810.09375 L 56.25 810.09375 C 41.332031 810.09375 27.023438 804.167969 16.476562 793.617188 C 5.925781 783.070312 0 768.761719 0 753.84375 L 0 56.25 C 0 41.332031 5.925781 27.023438 16.476562 16.476562 C 27.023438 5.925781 41.332031 0 56.25 0 Z M 56.25 0 " clip-rule="nonzero"/></clipPath><clipPath id="93150feb74"><rect x="0" width="1440" y="0" height="810"/></clipPath><clipPath id="196dcdfbda"><path d="M 756 466 L 954 466 L 954 571.628906 L 756 571.628906 Z M 756 466 " clip-rule="nonzero"/></clipPath><clipPath id="d765c5e2ae"><path d="M 448.976562 51.128906 L 991.226562 51.128906 L 991.226562 393 L 448.976562 393 Z M 448.976562 51.128906 " clip-rule="nonzero"/></clipPath></defs><rect x="-144" width="1728" fill="#ffffff" y="-80.999999" height="971.999992" fill-opacity="1"/><rect x="-144" width="1728" fill="#ffffff" y="-80.999999" height="971.999992" fill-opacity="1"/><g transform="matrix(1, 0, 0, 1, 0, 0.000000000000039746)"><g clip-path="url(#154c7d7812)"><path fill="#eae8e5" d="M 0 0 L 1439.648438 0 L 1439.648438 810 L 0 810 Z M 0 0 " fill-opacity="1" fill-rule="nonzero"/></g></g><g clip-path="url(#2a93968813)"><g transform="matrix(1, 0, 0, 1, 0, 0.000000000000039746)"><g clip-path="url(#93150feb74)"><g clip-path="url(#99fae7bb72)"><g clip-path="url(#aabf21b8de)"><path fill="#00885f" d="M 0 0 L 1439.816406 0 L 1439.816406 810.09375 L 0 810.09375 Z M 0 0 " fill-opacity="1" fill-rule="nonzero"/></g></g></g></g></g><path fill="#ffffff" d="M 668.042969 490.277344 C 631.324219 537.433594 563.066406 528.320312 521.628906 489.035156 C 512.03125 492.871094 477.851562 508.566406 473.257812 499.675781 C 467.476562 488.496094 483.835938 482.53125 487.15625 462.597656 C 490.792969 440.769531 478.984375 426.078125 483.777344 419.554688 C 490.8125 409.980469 518.683594 435.769531 527.742188 442.285156 C 576.625 419.179688 633.980469 424.007812 663.8125 473.953125 C 666.019531 477.640625 671.707031 485.566406 668.050781 490.269531 Z M 594.988281 505.640625 C 588.414062 482.550781 591.429688 464.890625 602.519531 447.503906 C 574.574219 437.300781 549.234375 452.46875 524.757812 459.796875 L 503.207031 443.015625 C 504.96875 455.578125 502.671875 465.777344 499.210938 477.511719 C 497.121094 484.617188 516.949219 470.199219 524.453125 472.976562 C 532.957031 476.113281 564.398438 508.9375 594.980469 505.640625 Z M 652.046875 483.949219 C 643.058594 469.050781 633.0625 459.667969 618.414062 452.984375 C 605.015625 466.488281 603.398438 488.179688 612.191406 506.160156 C 628.203125 503.417969 642.121094 496.457031 652.046875 483.949219 Z M 652.046875 483.949219 " fill-opacity="1" fill-rule="nonzero"/><g clip-path="url(#196dcdfbda)"><path fill="#ffffff" d="M 904.710938 537.824219 C 862.359375 576.855469 802.90625 585.332031 761.332031 543.671875 C 755.890625 538.21875 754.992188 533.132812 758.84375 526.292969 C 779.113281 490.269531 818.589844 471.78125 859.785156 479.050781 C 873.351562 481.445312 886.160156 487.863281 898.273438 491.054688 C 905.660156 487.773438 935.542969 457.320312 942.1875 469.425781 C 947.496094 479.089844 929.40625 499.132812 944.878906 526.507812 C 948.699219 533.261719 956.222656 544.882812 952.617188 549.367188 C 946.238281 557.289062 918.53125 543.820312 904.714844 537.808594 Z M 923.066406 497.964844 C 922.558594 493.484375 919.300781 494.625 916.996094 496.570312 C 911.171875 501.488281 906.125 506.554688 899.140625 509.726562 C 873.265625 498.453125 851.597656 488.4375 822.523438 496.074219 C 836.148438 514.675781 836.421875 534.140625 830.417969 554.957031 C 862.972656 554.25 878.816406 539.285156 901.910156 520.898438 C 911.878906 522.515625 918.378906 529.957031 928.429688 530 C 925.210938 518.78125 921.15625 510.390625 923.070312 497.964844 Z M 813.582031 554.464844 C 822.039062 535.714844 821.03125 516.039062 807.8125 501.46875 C 792.285156 507.894531 780.878906 519.261719 773.296875 533.839844 C 784.402344 545.089844 797.34375 551.585938 813.589844 554.464844 Z M 813.582031 554.464844 " fill-opacity="1" fill-rule="nonzero"/></g><path fill="#ffffff" d="M 990.925781 422.945312 C 991.78125 435.550781 978.15625 426.957031 961.351562 438.992188 C 942.351562 452.601562 919.265625 451.335938 900.632812 438.050781 C 886.96875 428.308594 870.078125 429.375 856.808594 438.855469 C 838.523438 451.917969 814.222656 451.789062 795.886719 438.855469 C 781.53125 428.730469 764.515625 428.703125 750.359375 439.179688 C 732.484375 452.402344 709.023438 452.261719 691.199219 439.160156 C 674.824219 427.125 664.300781 436.195312 662.035156 425.214844 C 661.058594 420.488281 663.652344 416.378906 669.664062 416.160156 C 680.6875 415.75 690.820312 419.703125 699.566406 425.992188 C 712.3125 435.152344 729.183594 436.046875 741.980469 426.25 C 760.511719 412.058594 785.238281 411.910156 804.195312 425.558594 C 817.738281 435.316406 834.757812 435.683594 848.472656 425.894531 C 866.519531 413.015625 890.839844 411.894531 908.929688 425.183594 C 923.1875 435.660156 940.3125 435.859375 954.667969 425.234375 C 966.160156 416.734375 990.078125 410.386719 990.933594 422.945312 Z M 990.925781 422.945312 " fill-opacity="1" fill-rule="nonzero"/><g clip-path="url(#d765c5e2ae)"><path fill="#ffffff" d="M 827.539062 374.578125 C 835.0625 378.167969 842.941406 373.476562 848.824219 368.890625 C 868.207031 353.777344 893.441406 354.585938 912.246094 369.679688 C 925.226562 380.097656 942.507812 378.109375 954.726562 367.964844 C 966.566406 358.136719 990.371094 353.195312 990.984375 365.402344 C 991.636719 378.316406 977.953125 370.179688 963.597656 381.191406 C 944.195312 396.078125 919.597656 395.195312 900.484375 380.8125 C 887.492188 371.046875 869.835938 372.488281 857.074219 381.667969 C 837.910156 395.441406 814.398438 395.28125 795.65625 381.339844 C 780.542969 370.09375 763.234375 372.570312 748.742188 382.949219 C 731.132812 395.558594 707.71875 394.523438 690.992188 381.726562 C 678.234375 371.96875 660.65625 371.121094 647.417969 380.851562 C 628.183594 394.996094 604.316406 396.097656 584.589844 381.46875 C 572.363281 372.402344 555.742188 371.046875 542.796875 380.425781 C 525.9375 392.640625 502.410156 397.226562 484.269531 385.1875 C 474.519531 378.71875 466.355469 374.136719 453.773438 373.148438 C 449.070312 372.777344 448.511719 360.589844 452.90625 359.535156 C 465.703125 356.460938 476.925781 360.511719 486.230469 367.972656 C 499.667969 378.757812 517.382812 380.207031 531.019531 369.199219 C 550.707031 353.3125 576.738281 354.480469 596.199219 370.042969 C 608.945312 380.238281 625.046875 378.304688 637.347656 368.785156 C 655.394531 354.820312 679.210938 352.980469 698.660156 368.316406 C 707.269531 344.539062 703.824219 320.921875 692.074219 299.742188 C 681.164062 280.078125 631.140625 310.359375 614.191406 275.058594 L 458.988281 274.46875 C 453.171875 274.449219 448.984375 270.738281 448.992188 264.796875 L 449.238281 77.949219 C 449.242188 72.339844 453.371094 69.5 458.617188 69.488281 L 613.128906 69.101562 C 619.109375 59.183594 627.128906 51.761719 638.324219 51.675781 C 656.070312 51.546875 672.941406 50.917969 690.84375 51.863281 C 700.324219 52.363281 708.933594 59.472656 714.257812 66.601562 C 736.8125 96.828125 740.378906 138.546875 741.003906 175.367188 C 784.875 194.601562 819.003906 226.980469 841.125 268.828125 C 846.042969 278.140625 849.328125 287.042969 855.054688 296.117188 C 878.171875 284.148438 904.988281 294.101562 914.109375 318.828125 C 932.640625 318.859375 948.964844 330.085938 953.746094 348.464844 C 954.980469 353.222656 952.597656 356.835938 949.738281 358.066406 C 945.359375 359.957031 940.953125 358.617188 939.308594 353.195312 C 930.511719 324.179688 903.695312 343.296875 900.875 328.621094 C 898.886719 318.265625 893.34375 311.484375 885.175781 308.425781 C 875.15625 304.671875 865.070312 306.035156 857.117188 314.195312 C 853.6875 317.714844 845.988281 318.472656 843.679688 312.753906 C 831.699219 283.015625 817.980469 254.402344 795.113281 231.011719 C 757.722656 192.78125 700.265625 171.230469 647.976562 169.019531 C 647.800781 188.125 648.304688 203.425781 652.335938 219.507812 C 713.386719 228.582031 751.652344 268.410156 763.578125 327.355469 C 764.730469 333.027344 761.261719 336.730469 756.882812 336.976562 C 743.832031 337.710938 750.128906 312.09375 727.507812 280.546875 C 710.441406 256.742188 685.960938 241.617188 657.035156 236.382812 C 659.265625 262.292969 675.160156 257.488281 690.824219 273.125 C 718 300.253906 725.121094 338.484375 714.503906 375.695312 C 725.179688 378.117188 734.789062 375.042969 742.371094 368.917969 C 762.671875 352.503906 789.398438 354.179688 808.851562 371.679688 C 823.863281 385.179688 807.8125 329.832031 806.148438 324.753906 C 804.660156 320.21875 809.222656 317.3125 811.824219 316.957031 C 825.511719 315.09375 829.460938 358.222656 827.550781 374.558594 Z M 657.3125 275.816406 C 621.46875 222.375 624.753906 118.207031 656.851562 67.8125 C 649.554688 67.367188 640.277344 64.261719 634.769531 68.925781 C 623.765625 78.230469 618.039062 93.742188 614.46875 108.175781 C 604.164062 149.835938 604.058594 192.648438 614.175781 234.183594 C 617.527344 247.9375 622.230469 261.820312 631.769531 271.902344 C 638.175781 278.675781 649.683594 278.761719 657.3125 275.816406 Z M 724.796875 168.386719 C 725.613281 145.695312 722.8125 127.398438 717.460938 108.339844 C 713.035156 95.140625 707.839844 82.601562 698.796875 72.050781 C 691.917969 64.53125 681.386719 64.53125 674.972656 72.4375 C 657.183594 90.152344 650.292969 127.929688 648.6875 152.484375 C 675.492188 154.46875 699.144531 160.660156 724.796875 168.390625 Z M 591.363281 170.046875 C 590.503906 139.886719 594.859375 113.171875 605.527344 84.925781 L 466.582031 84.898438 C 464.355469 93.34375 465.09375 100.679688 465.085938 108.914062 L 464.984375 259.144531 L 605.875 258.910156 C 594.242188 229.164062 590.21875 201.324219 591.371094 170.046875 Z M 591.363281 170.046875 " fill-opacity="1" fill-rule="nonzero"/></g><path fill="#ffffff" d="M 897.734375 258.605469 C 891.453125 261.1875 865.714844 272.117188 864.304688 271.929688 C 856.828125 270.9375 862.460938 240.609375 878.410156 226.128906 C 884.789062 220.335938 893.402344 218.972656 901.441406 222.492188 C 907.089844 224.964844 912.335938 231.75 912.136719 240.179688 C 911.957031 247.679688 906.566406 254.976562 897.730469 258.605469 Z M 899.535156 239.378906 C 896.5 233.886719 893.128906 232.597656 889.757812 234.667969 C 884.59375 237.839844 880.824219 242.679688 880.882812 249.050781 C 888.488281 248.015625 895.019531 245.53125 899.539062 239.378906 Z M 899.535156 239.378906 " fill-opacity="1" fill-rule="nonzero"/><path fill="#ffffff" d="M 788.285156 272.757812 C 776.738281 282.085938 769.609375 240 715.910156 218.851562 C 712.011719 217.316406 710.828125 212.167969 711.121094 209.027344 C 711.398438 206.039062 716.417969 202.390625 721.195312 204.28125 C 749.984375 215.648438 774.21875 235.683594 790 262.300781 C 792.34375 266.246094 791.0625 270.511719 788.28125 272.75 Z M 788.285156 272.757812 " fill-opacity="1" fill-rule="nonzero"/><path fill="#ffffff" d="M 653.675781 308.101562 C 670.660156 315.839844 692.054688 348.839844 673.296875 347.132812 L 642.527344 344.335938 C 629.308594 343.140625 623.015625 331.941406 625.136719 320.96875 C 627.550781 308.480469 641.058594 302.347656 653.675781 308.101562 Z M 659.402344 329.457031 C 655.113281 326.964844 652.703125 322.78125 647.988281 320.515625 C 644.605469 318.886719 641.550781 319.902344 639.566406 322.378906 C 638.179688 324.113281 638.058594 327.828125 641.886719 329.296875 C 647.226562 331.347656 652.402344 331.714844 659.402344 329.457031 Z M 659.402344 329.457031 " fill-opacity="1" fill-rule="nonzero"/><path fill="#ffffff" d="M 634.894531 476.054688 C 634.894531 476.484375 634.851562 476.910156 634.769531 477.332031 C 634.683594 477.753906 634.558594 478.164062 634.394531 478.5625 C 634.230469 478.957031 634.027344 479.335938 633.789062 479.695312 C 633.550781 480.050781 633.28125 480.382812 632.976562 480.6875 C 632.671875 480.988281 632.339844 481.261719 631.984375 481.5 C 631.625 481.738281 631.25 481.941406 630.851562 482.105469 C 630.453125 482.269531 630.046875 482.394531 629.625 482.476562 C 629.203125 482.5625 628.777344 482.605469 628.347656 482.605469 C 627.917969 482.605469 627.492188 482.5625 627.070312 482.476562 C 626.648438 482.394531 626.238281 482.269531 625.839844 482.105469 C 625.445312 481.941406 625.066406 481.738281 624.707031 481.5 C 624.351562 481.261719 624.019531 480.988281 623.714844 480.6875 C 623.414062 480.382812 623.140625 480.050781 622.902344 479.695312 C 622.664062 479.335938 622.460938 478.957031 622.296875 478.5625 C 622.132812 478.164062 622.007812 477.753906 621.925781 477.332031 C 621.839844 476.910156 621.800781 476.484375 621.800781 476.054688 C 621.800781 475.625 621.839844 475.199219 621.925781 474.777344 C 622.007812 474.355469 622.132812 473.949219 622.296875 473.550781 C 622.460938 473.152344 622.664062 472.777344 622.902344 472.417969 C 623.140625 472.0625 623.414062 471.730469 623.714844 471.425781 C 624.019531 471.121094 624.351562 470.851562 624.707031 470.613281 C 625.066406 470.375 625.445312 470.171875 625.839844 470.007812 C 626.238281 469.84375 626.648438 469.71875 627.070312 469.632812 C 627.492188 469.550781 627.917969 469.507812 628.347656 469.507812 C 628.777344 469.507812 629.203125 469.550781 629.625 469.632812 C 630.046875 469.71875 630.453125 469.84375 630.851562 470.007812 C 631.25 470.171875 631.625 470.375 631.984375 470.613281 C 632.339844 470.851562 632.671875 471.121094 632.976562 471.425781 C 633.28125 471.730469 633.550781 472.0625 633.789062 472.417969 C 634.027344 472.777344 634.230469 473.152344 634.394531 473.550781 C 634.558594 473.949219 634.683594 474.355469 634.769531 474.777344 C 634.851562 475.199219 634.894531 475.625 634.894531 476.054688 Z M 634.894531 476.054688 " fill-opacity="1" fill-rule="nonzero"/><path fill="#ffffff" d="M 803.167969 525.019531 C 803.167969 525.460938 803.125 525.894531 803.039062 526.328125 C 802.953125 526.761719 802.824219 527.179688 802.65625 527.585938 C 802.488281 527.992188 802.28125 528.378906 802.035156 528.746094 C 801.789062 529.113281 801.511719 529.453125 801.203125 529.761719 C 800.890625 530.074219 800.550781 530.351562 800.183594 530.597656 C 799.820312 530.84375 799.433594 531.050781 799.023438 531.21875 C 798.617188 531.386719 798.199219 531.515625 797.765625 531.601562 C 797.335938 531.6875 796.898438 531.730469 796.457031 531.730469 C 796.015625 531.730469 795.582031 531.6875 795.148438 531.601562 C 794.714844 531.515625 794.296875 531.386719 793.890625 531.21875 C 793.484375 531.050781 793.097656 530.84375 792.730469 530.597656 C 792.363281 530.351562 792.023438 530.074219 791.714844 529.765625 C 791.402344 529.453125 791.125 529.113281 790.878906 528.746094 C 790.632812 528.378906 790.425781 527.992188 790.257812 527.585938 C 790.089844 527.179688 789.964844 526.761719 789.878906 526.328125 C 789.792969 525.894531 789.75 525.460938 789.75 525.019531 C 789.75 524.578125 789.792969 524.144531 789.878906 523.710938 C 789.964844 523.277344 790.089844 522.859375 790.257812 522.453125 C 790.425781 522.046875 790.632812 521.660156 790.878906 521.292969 C 791.125 520.925781 791.402344 520.585938 791.714844 520.277344 C 792.023438 519.964844 792.363281 519.6875 792.730469 519.441406 C 793.097656 519.195312 793.484375 518.988281 793.890625 518.820312 C 794.296875 518.652344 794.714844 518.523438 795.148438 518.4375 C 795.582031 518.351562 796.015625 518.308594 796.457031 518.308594 C 796.898438 518.308594 797.335938 518.351562 797.765625 518.4375 C 798.199219 518.523438 798.617188 518.652344 799.023438 518.820312 C 799.433594 518.988281 799.820312 519.195312 800.183594 519.441406 C 800.550781 519.6875 800.890625 519.964844 801.203125 520.277344 C 801.511719 520.585938 801.789062 520.925781 802.035156 521.292969 C 802.28125 521.660156 802.488281 522.046875 802.65625 522.453125 C 802.824219 522.859375 802.953125 523.277344 803.039062 523.710938 C 803.125 524.144531 803.167969 524.578125 803.167969 525.019531 Z M 803.167969 525.019531 " fill-opacity="1" fill-rule="nonzero"/><g fill="#ffffff" fill-opacity="1"><g transform="translate(515.832988, 722.29304)"><g><path d="M 53.734375 -42.84375 C 53.734375 -39.175781 52.890625 -35.828125 51.203125 -32.796875 C 49.523438 -29.773438 46.945312 -27.332031 43.46875 -25.46875 C 39.988281 -23.613281 35.671875 -22.6875 30.515625 -22.6875 L 20.96875 -22.6875 L 20.96875 0 L 5.578125 0 L 5.578125 -63.1875 L 30.515625 -63.1875 C 35.546875 -63.1875 39.800781 -62.3125 43.28125 -60.5625 C 46.769531 -58.820312 49.382812 -56.421875 51.125 -53.359375 C 52.863281 -50.304688 53.734375 -46.800781 53.734375 -42.84375 Z M 29.34375 -34.921875 C 32.28125 -34.921875 34.46875 -35.609375 35.90625 -36.984375 C 37.34375 -38.367188 38.0625 -40.320312 38.0625 -42.84375 C 38.0625 -45.363281 37.34375 -47.3125 35.90625 -48.6875 C 34.46875 -50.070312 32.28125 -50.765625 29.34375 -50.765625 L 20.96875 -50.765625 L 20.96875 -34.921875 Z M 29.34375 -34.921875 "/></g></g></g><g fill="#ffffff" fill-opacity="1"><g transform="translate(571.992932, 722.29304)"><g><path d="M 28.4375 0.71875 C 23.519531 0.71875 19.09375 -0.328125 15.15625 -2.421875 C 11.226562 -4.523438 8.140625 -7.523438 5.890625 -11.421875 C 3.640625 -15.328125 2.515625 -19.890625 2.515625 -25.109375 C 2.515625 -30.265625 3.65625 -34.804688 5.9375 -38.734375 C 8.21875 -42.671875 11.335938 -45.6875 15.296875 -47.78125 C 19.253906 -49.882812 23.695312 -50.9375 28.625 -50.9375 C 33.539062 -50.9375 37.976562 -49.882812 41.9375 -47.78125 C 45.894531 -45.6875 49.015625 -42.671875 51.296875 -38.734375 C 53.578125 -34.804688 54.71875 -30.265625 54.71875 -25.109375 C 54.71875 -19.953125 53.5625 -15.40625 51.25 -11.46875 C 48.945312 -7.539062 45.796875 -4.523438 41.796875 -2.421875 C 37.804688 -0.328125 33.351562 0.71875 28.4375 0.71875 Z M 28.4375 -12.59375 C 31.375 -12.59375 33.878906 -13.671875 35.953125 -15.828125 C 38.023438 -17.992188 39.0625 -21.085938 39.0625 -25.109375 C 39.0625 -29.128906 38.054688 -32.21875 36.046875 -34.375 C 34.035156 -36.539062 31.5625 -37.625 28.625 -37.625 C 25.625 -37.625 23.132812 -36.554688 21.15625 -34.421875 C 19.175781 -32.296875 18.1875 -29.191406 18.1875 -25.109375 C 18.1875 -21.085938 19.160156 -17.992188 21.109375 -15.828125 C 23.054688 -13.671875 25.5 -12.59375 28.4375 -12.59375 Z M 28.4375 -12.59375 "/></g></g></g><g fill="#ffffff" fill-opacity="1"><g transform="translate(629.322874, 722.29304)"><g><path d="M 20.96875 -66.59375 L 20.96875 0 L 5.578125 0 L 5.578125 -66.59375 Z M 20.96875 -66.59375 "/></g></g></g><g fill="#ffffff" fill-opacity="1"><g transform="translate(655.872845, 722.29304)"><g><path d="M 20.96875 -66.59375 L 20.96875 0 L 5.578125 0 L 5.578125 -66.59375 Z M 20.96875 -66.59375 "/></g></g></g><g fill="#ffffff" fill-opacity="1"><g transform="translate(682.422816, 722.29304)"><g><path d="M 55.171875 -50.21875 L 55.171875 0 L 39.78125 0 L 39.78125 -6.84375 C 38.21875 -4.625 36.101562 -2.835938 33.4375 -1.484375 C 30.769531 -0.128906 27.8125 0.546875 24.5625 0.546875 C 20.726562 0.546875 17.335938 -0.304688 14.390625 -2.015625 C 11.453125 -3.734375 9.171875 -6.210938 7.546875 -9.453125 C 5.929688 -12.691406 5.125 -16.5 5.125 -20.875 L 5.125 -50.21875 L 20.4375 -50.21875 L 20.4375 -22.953125 C 20.4375 -19.585938 21.304688 -16.972656 23.046875 -15.109375 C 24.785156 -13.253906 27.125 -12.328125 30.0625 -12.328125 C 33.0625 -12.328125 35.429688 -13.253906 37.171875 -15.109375 C 38.910156 -16.972656 39.78125 -19.585938 39.78125 -22.953125 L 39.78125 -50.21875 Z M 55.171875 -50.21875 "/></g></g></g><g fill="#ffffff" fill-opacity="1"><g transform="translate(743.082747, 722.29304)"><g><path d="M 33.5625 -13.046875 L 33.5625 0 L 25.734375 0 C 20.160156 0 15.8125 -1.363281 12.6875 -4.09375 C 9.570312 -6.820312 8.015625 -11.273438 8.015625 -17.453125 L 8.015625 -37.4375 L 1.890625 -37.4375 L 1.890625 -50.21875 L 8.015625 -50.21875 L 8.015625 -62.453125 L 23.40625 -62.453125 L 23.40625 -50.21875 L 33.484375 -50.21875 L 33.484375 -37.4375 L 23.40625 -37.4375 L 23.40625 -17.28125 C 23.40625 -15.78125 23.765625 -14.695312 24.484375 -14.03125 C 25.203125 -13.375 26.398438 -13.046875 28.078125 -13.046875 Z M 33.5625 -13.046875 "/></g></g></g><g fill="#ffffff" fill-opacity="1"><g transform="translate(779.622724, 722.29304)"><g><path d="M 13.3125 -55.4375 C 10.613281 -55.4375 8.410156 -56.226562 6.703125 -57.8125 C 4.992188 -59.40625 4.140625 -61.375 4.140625 -63.71875 C 4.140625 -66.113281 4.992188 -68.109375 6.703125 -69.703125 C 8.410156 -71.296875 10.613281 -72.09375 13.3125 -72.09375 C 15.957031 -72.09375 18.132812 -71.296875 19.84375 -69.703125 C 21.550781 -68.109375 22.40625 -66.113281 22.40625 -63.71875 C 22.40625 -61.375 21.550781 -59.40625 19.84375 -57.8125 C 18.132812 -56.226562 15.957031 -55.4375 13.3125 -55.4375 Z M 20.96875 -50.21875 L 20.96875 0 L 5.578125 0 L 5.578125 -50.21875 Z M 20.96875 -50.21875 "/></g></g></g><g fill="#ffffff" fill-opacity="1"><g transform="translate(806.172695, 722.29304)"><g><path d="M 28.4375 0.71875 C 23.519531 0.71875 19.09375 -0.328125 15.15625 -2.421875 C 11.226562 -4.523438 8.140625 -7.523438 5.890625 -11.421875 C 3.640625 -15.328125 2.515625 -19.890625 2.515625 -25.109375 C 2.515625 -30.265625 3.65625 -34.804688 5.9375 -38.734375 C 8.21875 -42.671875 11.335938 -45.6875 15.296875 -47.78125 C 19.253906 -49.882812 23.695312 -50.9375 28.625 -50.9375 C 33.539062 -50.9375 37.976562 -49.882812 41.9375 -47.78125 C 45.894531 -45.6875 49.015625 -42.671875 51.296875 -38.734375 C 53.578125 -34.804688 54.71875 -30.265625 54.71875 -25.109375 C 54.71875 -19.953125 53.5625 -15.40625 51.25 -11.46875 C 48.945312 -7.539062 45.796875 -4.523438 41.796875 -2.421875 C 37.804688 -0.328125 33.351562 0.71875 28.4375 0.71875 Z M 28.4375 -12.59375 C 31.375 -12.59375 33.878906 -13.671875 35.953125 -15.828125 C 38.023438 -17.992188 39.0625 -21.085938 39.0625 -25.109375 C 39.0625 -29.128906 38.054688 -32.21875 36.046875 -34.375 C 34.035156 -36.539062 31.5625 -37.625 28.625 -37.625 C 25.625 -37.625 23.132812 -36.554688 21.15625 -34.421875 C 19.175781 -32.296875 18.1875 -29.191406 18.1875 -25.109375 C 18.1875 -21.085938 19.160156 -17.992188 21.109375 -15.828125 C 23.054688 -13.671875 25.5 -12.59375 28.4375 -12.59375 Z M 28.4375 -12.59375 "/></g></g></g><g fill="#ffffff" fill-opacity="1"><g transform="translate(863.502648, 722.29304)"><g><path d="M 36.1875 -50.765625 C 42.0625 -50.765625 46.753906 -48.859375 50.265625 -45.046875 C 53.773438 -41.234375 55.53125 -36 55.53125 -29.34375 L 55.53125 0 L 40.234375 0 L 40.234375 -27.265625 C 40.234375 -30.628906 39.363281 -33.238281 37.625 -35.09375 C 35.882812 -36.957031 33.539062 -37.890625 30.59375 -37.890625 C 27.65625 -37.890625 25.316406 -36.957031 23.578125 -35.09375 C 21.835938 -33.238281 20.96875 -30.628906 20.96875 -27.265625 L 20.96875 0 L 5.578125 0 L 5.578125 -50.21875 L 20.96875 -50.21875 L 20.96875 -43.5625 C 22.53125 -45.78125 24.628906 -47.535156 27.265625 -48.828125 C 29.910156 -50.117188 32.882812 -50.765625 36.1875 -50.765625 Z M 36.1875 -50.765625 "/></g></g></g></svg>