<svg xmlns="http://www.w3.org/2000/svg" xmlns:xlink="http://www.w3.org/1999/xlink" width="1920" zoomAndPan="magnify" viewBox="0 0 1440 809.999993" height="1080" preserveAspectRatio="xMidYMid meet" version="1.0"><defs><g/><clipPath id="411c77c767"><rect x="0" width="1440" y="0" height="810"/></clipPath><clipPath id="465d26dd62"><path d="M 56.25 0 L 1383.75 0 C 1398.667969 0 1412.976562 5.925781 1423.523438 16.476562 C 1434.074219 27.023438 1440 41.332031 1440 56.25 L 1440 753.84375 C 1440 768.761719 1434.074219 783.070312 1423.523438 793.617188 C 1412.976562 804.167969 1398.667969 810.09375 1383.75 810.09375 L 56.25 810.09375 C 41.332031 810.09375 27.023438 804.167969 16.476562 793.617188 C 5.925781 783.070312 0 768.761719 0 753.84375 L 0 56.25 C 0 41.332031 5.925781 27.023438 16.476562 16.476562 C 27.023438 5.925781 41.332031 0 56.25 0 Z M 56.25 0 " clip-rule="nonzero"/></clipPath><clipPath id="61d90c9cd2"><path d="M 0 0 L 1440 0 L 1440 810 L 0 810 Z M 0 0 " clip-rule="nonzero"/></clipPath><clipPath id="512b8fddca"><path d="M 56.25 0 L 1383.75 0 C 1398.667969 0 1412.976562 5.925781 1423.523438 16.476562 C 1434.074219 27.023438 1440 41.332031 1440 56.25 L 1440 753.84375 C 1440 768.761719 1434.074219 783.070312 1423.523438 793.617188 C 1412.976562 804.167969 1398.667969 810.09375 1383.75 810.09375 L 56.25 810.09375 C 41.332031 810.09375 27.023438 804.167969 16.476562 793.617188 C 5.925781 783.070312 0 768.761719 0 753.84375 L 0 56.25 C 0 41.332031 5.925781 27.023438 16.476562 16.476562 C 27.023438 5.925781 41.332031 0 56.25 0 Z M 56.25 0 " clip-rule="nonzero"/></clipPath><clipPath id="775ab850b4"><rect x="0" width="1440" y="0" height="810"/></clipPath><clipPath id="c04bbde9a3"><path d="M 459.820312 51.128906 L 980.320312 51.128906 L 980.320312 571.628906 L 459.820312 571.628906 Z M 459.820312 51.128906 " clip-rule="nonzero"/></clipPath></defs><rect x="-144" width="1728" fill="#ffffff" y="-80.999999" height="971.999992" fill-opacity="1"/><rect x="-144" width="1728" fill="#ffffff" y="-80.999999" height="971.999992" fill-opacity="1"/><g transform="matrix(1, 0, 0, 1, 0, 0.000000000000039746)"><g clip-path="url(#411c77c767)"><path fill="#eae8e5" d="M 0 0 L 1439.648438 0 L 1439.648438 810 L 0 810 Z M 0 0 " fill-opacity="1" fill-rule="nonzero"/></g></g><g clip-path="url(#465d26dd62)"><g transform="matrix(1, 0, 0, 1, 0, 0.000000000000039746)"><g clip-path="url(#775ab850b4)"><g clip-path="url(#61d90c9cd2)"><g clip-path="url(#512b8fddca)"><path fill="#ff8035" d="M 0 0 L 1439.816406 0 L 1439.816406 810.09375 L 0 810.09375 Z M 0 0 " fill-opacity="1" fill-rule="nonzero"/></g></g></g></g></g><g clip-path="url(#c04bbde9a3)"><path fill="#ffffff" d="M 805.101562 306.496094 C 806.484375 307.878906 807.773438 309.324219 809.003906 310.765625 L 809.003906 392.140625 C 784.972656 420.902344 741.613281 422.839844 715.214844 396.410156 C 690.386719 371.582031 690.386719 331.324219 715.214844 306.496094 C 740.046875 281.699219 780.269531 281.699219 805.101562 306.496094 Z M 459.820312 509.898438 L 459.820312 52.359375 C 459.820312 51.683594 460.402344 51.128906 461.140625 51.128906 L 688.417969 51.128906 L 688.417969 158.714844 C 688.417969 162.894531 691.828125 166.308594 696.007812 166.308594 L 809.003906 166.308594 L 809.003906 229.734375 C 761.738281 210.804688 705.6875 220.453125 667.429688 258.742188 C 616.203125 309.9375 616.203125 392.96875 667.429688 444.195312 C 704.828125 481.597656 760.695312 492.597656 809.003906 473.207031 L 809.003906 509.898438 C 809.003906 510.574219 808.417969 511.15625 807.679688 511.15625 L 461.140625 511.15625 C 460.402344 511.15625 459.820312 510.574219 459.820312 509.898438 Z M 501.675781 208.746094 C 501.675781 212.921875 505.085938 216.335938 509.265625 216.335938 L 637.839844 216.335938 C 642.015625 216.335938 645.425781 212.921875 645.425781 208.746094 C 645.425781 204.535156 642.015625 201.152344 637.839844 201.152344 L 632.429688 201.152344 L 632.429688 102.878906 C 632.429688 98.671875 629.019531 95.289062 624.839844 95.289062 C 620.628906 95.289062 617.25 98.671875 617.25 102.878906 L 617.25 201.152344 L 598.226562 201.152344 L 598.226562 124.296875 C 598.226562 120.089844 594.816406 116.707031 590.636719 116.707031 C 586.457031 116.707031 583.046875 120.089844 583.046875 124.296875 L 583.046875 201.15625 L 564.027344 201.15625 L 564.027344 148.175781 C 564.027344 143.996094 560.644531 140.585938 556.4375 140.585938 C 552.257812 140.585938 548.847656 143.996094 548.847656 148.175781 L 548.847656 201.15625 L 529.855469 201.15625 L 529.855469 165.90625 C 529.855469 161.699219 526.441406 158.316406 522.265625 158.316406 C 518.054688 158.316406 514.671875 161.699219 514.671875 165.90625 L 514.671875 201.15625 L 509.265625 201.15625 C 505.085938 201.15625 501.675781 204.535156 501.675781 208.746094 Z M 501.675781 266.609375 C 501.675781 270.820312 505.085938 274.199219 509.265625 274.199219 L 622.320312 274.199219 C 626.5 274.199219 629.910156 270.820312 629.910156 266.609375 C 629.910156 262.429688 626.5 259.019531 622.320312 259.019531 L 509.265625 259.019531 C 505.085938 259.019531 501.675781 262.429688 501.675781 266.609375 Z M 501.675781 314.761719 C 501.675781 318.941406 505.085938 322.320312 509.265625 322.320312 L 602.527344 322.320312 C 606.707031 322.320312 610.117188 318.941406 610.117188 314.761719 C 610.117188 310.550781 606.707031 307.171875 602.527344 307.171875 L 509.265625 307.171875 C 505.085938 307.171875 501.675781 310.550781 501.675781 314.761719 Z M 501.675781 362.886719 C 501.675781 367.066406 505.085938 370.476562 509.265625 370.476562 L 598.71875 370.476562 C 602.929688 370.476562 606.308594 367.066406 606.308594 362.886719 C 606.308594 358.707031 602.929688 355.296875 598.71875 355.296875 L 509.265625 355.296875 C 505.085938 355.296875 501.675781 358.707031 501.675781 362.886719 Z M 501.675781 411.007812 C 501.675781 415.21875 505.085938 418.597656 509.265625 418.597656 L 609.628906 418.597656 C 613.835938 418.597656 617.21875 415.21875 617.21875 411.007812 C 617.21875 406.828125 613.835938 403.417969 609.628906 403.417969 L 509.265625 403.417969 C 505.085938 403.417969 501.675781 406.828125 501.675781 411.007812 Z M 501.675781 459.160156 C 501.675781 463.339844 505.085938 466.722656 509.265625 466.722656 L 639.34375 466.722656 C 643.523438 466.722656 646.933594 463.339844 646.933594 459.160156 C 646.933594 454.953125 643.523438 451.574219 639.34375 451.574219 L 509.265625 451.574219 C 505.085938 451.574219 501.675781 454.953125 501.675781 459.160156 Z M 703.601562 58.351562 L 703.601562 151.125 L 801.015625 151.125 Z M 863.488281 404.125 C 860.597656 409.839844 861.644531 416.449219 866.160156 420.996094 L 872.953125 427.789062 L 836.476562 464.261719 L 829.683594 457.472656 C 825.167969 452.953125 818.53125 451.910156 812.8125 454.796875 C 769.269531 477.015625 714.601562 469.917969 678.15625 433.472656 C 632.859375 388.175781 632.859375 314.761719 678.15625 269.464844 C 723.453125 224.171875 796.863281 224.171875 842.160156 269.464844 C 878.605469 305.914062 885.703125 360.582031 863.488281 404.125 Z M 815.824219 295.769531 C 785.097656 265.042969 735.222656 265.042969 704.460938 295.769531 C 673.730469 326.53125 673.730469 376.40625 704.460938 407.136719 C 735.222656 437.898438 785.09375 437.898438 815.824219 407.136719 C 846.585938 376.40625 846.585938 326.53125 815.824219 295.769531 Z M 890.835938 431.351562 L 840.039062 482.148438 L 918.894531 561 C 932.875 574.984375 955.738281 574.984375 969.6875 561 C 983.671875 547.050781 983.671875 524.1875 969.6875 510.203125 Z M 890.835938 431.351562 " fill-opacity="1" fill-rule="evenodd"/></g><g fill="#ffffff" fill-opacity="1"><g transform="translate(159.298827, 722.292992)"><g><path d="M 28.4375 0.625 C 23.820312 0.625 19.679688 -0.125 16.015625 -1.625 C 12.359375 -3.125 9.429688 -5.34375 7.234375 -8.28125 C 5.046875 -11.21875 3.894531 -14.757812 3.78125 -18.90625 L 20.15625 -18.90625 C 20.394531 -16.5625 21.203125 -14.773438 22.578125 -13.546875 C 23.960938 -12.316406 25.765625 -11.703125 27.984375 -11.703125 C 30.265625 -11.703125 32.066406 -12.222656 33.390625 -13.265625 C 34.710938 -14.316406 35.375 -15.773438 35.375 -17.640625 C 35.375 -19.203125 34.847656 -20.492188 33.796875 -21.515625 C 32.742188 -22.535156 31.453125 -23.375 29.921875 -24.03125 C 28.390625 -24.6875 26.21875 -25.4375 23.40625 -26.28125 C 19.320312 -27.539062 15.988281 -28.800781 13.40625 -30.0625 C 10.832031 -31.320312 8.613281 -33.179688 6.75 -35.640625 C 4.882812 -38.097656 3.953125 -41.304688 3.953125 -45.265625 C 3.953125 -51.148438 6.082031 -55.753906 10.34375 -59.078125 C 14.601562 -62.410156 20.15625 -64.078125 27 -64.078125 C 33.957031 -64.078125 39.566406 -62.410156 43.828125 -59.078125 C 48.085938 -55.753906 50.367188 -51.125 50.671875 -45.1875 L 34.015625 -45.1875 C 33.898438 -47.21875 33.148438 -48.816406 31.765625 -49.984375 C 30.390625 -51.160156 28.617188 -51.75 26.453125 -51.75 C 24.597656 -51.75 23.097656 -51.253906 21.953125 -50.265625 C 20.816406 -49.273438 20.25 -47.847656 20.25 -45.984375 C 20.25 -43.953125 21.207031 -42.363281 23.125 -41.21875 C 25.050781 -40.082031 28.050781 -38.851562 32.125 -37.53125 C 36.207031 -36.144531 39.523438 -34.820312 42.078125 -33.5625 C 44.628906 -32.3125 46.832031 -30.484375 48.6875 -28.078125 C 50.550781 -25.679688 51.484375 -22.59375 51.484375 -18.8125 C 51.484375 -15.207031 50.566406 -11.9375 48.734375 -9 C 46.898438 -6.0625 44.242188 -3.722656 40.765625 -1.984375 C 37.285156 -0.242188 33.175781 0.625 28.4375 0.625 Z M 28.4375 0.625 "/></g></g></g><g fill="#ffffff" fill-opacity="1"><g transform="translate(214.648769, 722.292992)"><g><path d="M 55.171875 -50.21875 L 55.171875 0 L 39.78125 0 L 39.78125 -6.84375 C 38.21875 -4.625 36.101562 -2.835938 33.4375 -1.484375 C 30.769531 -0.128906 27.8125 0.546875 24.5625 0.546875 C 20.726562 0.546875 17.335938 -0.304688 14.390625 -2.015625 C 11.453125 -3.734375 9.171875 -6.210938 7.546875 -9.453125 C 5.929688 -12.691406 5.125 -16.5 5.125 -20.875 L 5.125 -50.21875 L 20.4375 -50.21875 L 20.4375 -22.953125 C 20.4375 -19.585938 21.304688 -16.972656 23.046875 -15.109375 C 24.785156 -13.253906 27.125 -12.328125 30.0625 -12.328125 C 33.0625 -12.328125 35.429688 -13.253906 37.171875 -15.109375 C 38.910156 -16.972656 39.78125 -19.585938 39.78125 -22.953125 L 39.78125 -50.21875 Z M 55.171875 -50.21875 "/></g></g></g><g fill="#ffffff" fill-opacity="1"><g transform="translate(275.308713, 722.292992)"><g><path d="M 26.015625 0.71875 C 21.628906 0.71875 17.726562 -0.03125 14.3125 -1.53125 C 10.894531 -3.03125 8.191406 -5.082031 6.203125 -7.6875 C 4.222656 -10.300781 3.113281 -13.226562 2.875 -16.46875 L 18.09375 -16.46875 C 18.269531 -14.726562 19.078125 -13.316406 20.515625 -12.234375 C 21.960938 -11.160156 23.734375 -10.625 25.828125 -10.625 C 27.742188 -10.625 29.226562 -11 30.28125 -11.75 C 31.332031 -12.5 31.859375 -13.472656 31.859375 -14.671875 C 31.859375 -16.109375 31.109375 -17.171875 29.609375 -17.859375 C 28.109375 -18.554688 25.675781 -19.320312 22.3125 -20.15625 C 18.71875 -21 15.71875 -21.882812 13.3125 -22.8125 C 10.914062 -23.738281 8.847656 -25.207031 7.109375 -27.21875 C 5.367188 -29.226562 4.5 -31.945312 4.5 -35.375 C 4.5 -38.25 5.289062 -40.867188 6.875 -43.234375 C 8.46875 -45.609375 10.8125 -47.484375 13.90625 -48.859375 C 17 -50.242188 20.675781 -50.9375 24.9375 -50.9375 C 31.226562 -50.9375 36.1875 -49.375 39.8125 -46.25 C 43.445312 -43.132812 45.535156 -39 46.078125 -33.84375 L 31.859375 -33.84375 C 31.617188 -35.582031 30.851562 -36.960938 29.5625 -37.984375 C 28.269531 -39.003906 26.578125 -39.515625 24.484375 -39.515625 C 22.679688 -39.515625 21.300781 -39.164062 20.34375 -38.46875 C 19.382812 -37.78125 18.90625 -36.835938 18.90625 -35.640625 C 18.90625 -34.203125 19.664062 -33.117188 21.1875 -32.390625 C 22.71875 -31.671875 25.101562 -30.953125 28.34375 -30.234375 C 32.070312 -29.273438 35.101562 -28.332031 37.4375 -27.40625 C 39.78125 -26.476562 41.835938 -24.976562 43.609375 -22.90625 C 45.378906 -20.832031 46.289062 -18.054688 46.34375 -14.578125 C 46.34375 -11.640625 45.519531 -9.015625 43.875 -6.703125 C 42.226562 -4.390625 39.859375 -2.570312 36.765625 -1.25 C 33.671875 0.0585938 30.085938 0.71875 26.015625 0.71875 Z M 26.015625 0.71875 "/></g></g></g><g fill="#ffffff" fill-opacity="1"><g transform="translate(325.528658, 722.292992)"><g><path d="M 33.5625 -13.046875 L 33.5625 0 L 25.734375 0 C 20.160156 0 15.8125 -1.363281 12.6875 -4.09375 C 9.570312 -6.820312 8.015625 -11.273438 8.015625 -17.453125 L 8.015625 -37.4375 L 1.890625 -37.4375 L 1.890625 -50.21875 L 8.015625 -50.21875 L 8.015625 -62.453125 L 23.40625 -62.453125 L 23.40625 -50.21875 L 33.484375 -50.21875 L 33.484375 -37.4375 L 23.40625 -37.4375 L 23.40625 -17.28125 C 23.40625 -15.78125 23.765625 -14.695312 24.484375 -14.03125 C 25.203125 -13.375 26.398438 -13.046875 28.078125 -13.046875 Z M 33.5625 -13.046875 "/></g></g></g><g fill="#ffffff" fill-opacity="1"><g transform="translate(362.068623, 722.292992)"><g><path d="M 2.515625 -25.203125 C 2.515625 -30.359375 3.488281 -34.882812 5.4375 -38.78125 C 7.394531 -42.6875 10.050781 -45.6875 13.40625 -47.78125 C 16.769531 -49.882812 20.519531 -50.9375 24.65625 -50.9375 C 28.195312 -50.9375 31.300781 -50.21875 33.96875 -48.78125 C 36.644531 -47.34375 38.703125 -45.453125 40.140625 -43.109375 L 40.140625 -50.21875 L 55.53125 -50.21875 L 55.53125 0 L 40.140625 0 L 40.140625 -7.109375 C 38.640625 -4.765625 36.550781 -2.875 33.875 -1.4375 C 31.207031 0 28.101562 0.71875 24.5625 0.71875 C 20.488281 0.71875 16.769531 -0.34375 13.40625 -2.46875 C 10.050781 -4.601562 7.394531 -7.632812 5.4375 -11.5625 C 3.488281 -15.488281 2.515625 -20.035156 2.515625 -25.203125 Z M 40.140625 -25.109375 C 40.140625 -28.953125 39.070312 -31.984375 36.9375 -34.203125 C 34.8125 -36.421875 32.21875 -37.53125 29.15625 -37.53125 C 26.09375 -37.53125 23.5 -36.429688 21.375 -34.234375 C 19.25 -32.046875 18.1875 -29.035156 18.1875 -25.203125 C 18.1875 -21.359375 19.25 -18.3125 21.375 -16.0625 C 23.5 -13.8125 26.09375 -12.6875 29.15625 -12.6875 C 32.21875 -12.6875 34.8125 -13.796875 36.9375 -16.015625 C 39.070312 -18.234375 40.140625 -21.265625 40.140625 -25.109375 Z M 40.140625 -25.109375 "/></g></g></g><g fill="#ffffff" fill-opacity="1"><g transform="translate(423.178559, 722.292992)"><g><path d="M 13.3125 -55.4375 C 10.613281 -55.4375 8.410156 -56.226562 6.703125 -57.8125 C 4.992188 -59.40625 4.140625 -61.375 4.140625 -63.71875 C 4.140625 -66.113281 4.992188 -68.109375 6.703125 -69.703125 C 8.410156 -71.296875 10.613281 -72.09375 13.3125 -72.09375 C 15.957031 -72.09375 18.132812 -71.296875 19.84375 -69.703125 C 21.550781 -68.109375 22.40625 -66.113281 22.40625 -63.71875 C 22.40625 -61.375 21.550781 -59.40625 19.84375 -57.8125 C 18.132812 -56.226562 15.957031 -55.4375 13.3125 -55.4375 Z M 20.96875 -50.21875 L 20.96875 0 L 5.578125 0 L 5.578125 -50.21875 Z M 20.96875 -50.21875 "/></g></g></g><g fill="#ffffff" fill-opacity="1"><g transform="translate(449.72853, 722.292992)"><g><path d="M 36.1875 -50.765625 C 42.0625 -50.765625 46.753906 -48.859375 50.265625 -45.046875 C 53.773438 -41.234375 55.53125 -36 55.53125 -29.34375 L 55.53125 0 L 40.234375 0 L 40.234375 -27.265625 C 40.234375 -30.628906 39.363281 -33.238281 37.625 -35.09375 C 35.882812 -36.957031 33.539062 -37.890625 30.59375 -37.890625 C 27.65625 -37.890625 25.316406 -36.957031 23.578125 -35.09375 C 21.835938 -33.238281 20.96875 -30.628906 20.96875 -27.265625 L 20.96875 0 L 5.578125 0 L 5.578125 -50.21875 L 20.96875 -50.21875 L 20.96875 -43.5625 C 22.53125 -45.78125 24.628906 -47.535156 27.265625 -48.828125 C 29.910156 -50.117188 32.882812 -50.765625 36.1875 -50.765625 Z M 36.1875 -50.765625 "/></g></g></g><g fill="#ffffff" fill-opacity="1"><g transform="translate(510.388485, 722.292992)"><g><path d="M 2.515625 -25.203125 C 2.515625 -30.359375 3.488281 -34.882812 5.4375 -38.78125 C 7.394531 -42.6875 10.050781 -45.6875 13.40625 -47.78125 C 16.769531 -49.882812 20.519531 -50.9375 24.65625 -50.9375 C 28.195312 -50.9375 31.300781 -50.21875 33.96875 -48.78125 C 36.644531 -47.34375 38.703125 -45.453125 40.140625 -43.109375 L 40.140625 -50.21875 L 55.53125 -50.21875 L 55.53125 0 L 40.140625 0 L 40.140625 -7.109375 C 38.640625 -4.765625 36.550781 -2.875 33.875 -1.4375 C 31.207031 0 28.101562 0.71875 24.5625 0.71875 C 20.488281 0.71875 16.769531 -0.34375 13.40625 -2.46875 C 10.050781 -4.601562 7.394531 -7.632812 5.4375 -11.5625 C 3.488281 -15.488281 2.515625 -20.035156 2.515625 -25.203125 Z M 40.140625 -25.109375 C 40.140625 -28.953125 39.070312 -31.984375 36.9375 -34.203125 C 34.8125 -36.421875 32.21875 -37.53125 29.15625 -37.53125 C 26.09375 -37.53125 23.5 -36.429688 21.375 -34.234375 C 19.25 -32.046875 18.1875 -29.035156 18.1875 -25.203125 C 18.1875 -21.359375 19.25 -18.3125 21.375 -16.0625 C 23.5 -13.8125 26.09375 -12.6875 29.15625 -12.6875 C 32.21875 -12.6875 34.8125 -13.796875 36.9375 -16.015625 C 39.070312 -18.234375 40.140625 -21.265625 40.140625 -25.109375 Z M 40.140625 -25.109375 "/></g></g></g><g fill="#ffffff" fill-opacity="1"><g transform="translate(571.498421, 722.292992)"><g><path d="M 20.96875 -43.109375 C 22.40625 -45.453125 24.472656 -47.34375 27.171875 -48.78125 C 29.878906 -50.21875 32.972656 -50.9375 36.453125 -50.9375 C 40.585938 -50.9375 44.332031 -49.882812 47.6875 -47.78125 C 51.050781 -45.6875 53.707031 -42.6875 55.65625 -38.78125 C 57.613281 -34.882812 58.59375 -30.359375 58.59375 -25.203125 C 58.59375 -20.035156 57.613281 -15.488281 55.65625 -11.5625 C 53.707031 -7.632812 51.050781 -4.601562 47.6875 -2.46875 C 44.332031 -0.34375 40.585938 0.71875 36.453125 0.71875 C 32.910156 0.71875 29.816406 0.0117188 27.171875 -1.390625 C 24.535156 -2.804688 22.46875 -4.679688 20.96875 -7.015625 L 20.96875 0 L 5.578125 0 L 5.578125 -66.59375 L 20.96875 -66.59375 Z M 42.9375 -25.203125 C 42.9375 -29.035156 41.867188 -32.046875 39.734375 -34.234375 C 37.609375 -36.429688 34.984375 -37.53125 31.859375 -37.53125 C 28.796875 -37.53125 26.195312 -36.421875 24.0625 -34.203125 C 21.9375 -31.984375 20.875 -28.953125 20.875 -25.109375 C 20.875 -21.265625 21.9375 -18.234375 24.0625 -16.015625 C 26.195312 -13.796875 28.796875 -12.6875 31.859375 -12.6875 C 34.921875 -12.6875 37.53125 -13.8125 39.6875 -16.0625 C 41.851562 -18.3125 42.9375 -21.359375 42.9375 -25.203125 Z M 42.9375 -25.203125 "/></g></g></g><g fill="#ffffff" fill-opacity="1"><g transform="translate(632.608357, 722.292992)"><g><path d="M 13.3125 -55.4375 C 10.613281 -55.4375 8.410156 -56.226562 6.703125 -57.8125 C 4.992188 -59.40625 4.140625 -61.375 4.140625 -63.71875 C 4.140625 -66.113281 4.992188 -68.109375 6.703125 -69.703125 C 8.410156 -71.296875 10.613281 -72.09375 13.3125 -72.09375 C 15.957031 -72.09375 18.132812 -71.296875 19.84375 -69.703125 C 21.550781 -68.109375 22.40625 -66.113281 22.40625 -63.71875 C 22.40625 -61.375 21.550781 -59.40625 19.84375 -57.8125 C 18.132812 -56.226562 15.957031 -55.4375 13.3125 -55.4375 Z M 20.96875 -50.21875 L 20.96875 0 L 5.578125 0 L 5.578125 -50.21875 Z M 20.96875 -50.21875 "/></g></g></g><g fill="#ffffff" fill-opacity="1"><g transform="translate(659.158328, 722.292992)"><g><path d="M 20.96875 -66.59375 L 20.96875 0 L 5.578125 0 L 5.578125 -66.59375 Z M 20.96875 -66.59375 "/></g></g></g><g fill="#ffffff" fill-opacity="1"><g transform="translate(685.708299, 722.292992)"><g><path d="M 13.3125 -55.4375 C 10.613281 -55.4375 8.410156 -56.226562 6.703125 -57.8125 C 4.992188 -59.40625 4.140625 -61.375 4.140625 -63.71875 C 4.140625 -66.113281 4.992188 -68.109375 6.703125 -69.703125 C 8.410156 -71.296875 10.613281 -72.09375 13.3125 -72.09375 C 15.957031 -72.09375 18.132812 -71.296875 19.84375 -69.703125 C 21.550781 -68.109375 22.40625 -66.113281 22.40625 -63.71875 C 22.40625 -61.375 21.550781 -59.40625 19.84375 -57.8125 C 18.132812 -56.226562 15.957031 -55.4375 13.3125 -55.4375 Z M 20.96875 -50.21875 L 20.96875 0 L 5.578125 0 L 5.578125 -50.21875 Z M 20.96875 -50.21875 "/></g></g></g><g fill="#ffffff" fill-opacity="1"><g transform="translate(712.25827, 722.292992)"><g><path d="M 33.5625 -13.046875 L 33.5625 0 L 25.734375 0 C 20.160156 0 15.8125 -1.363281 12.6875 -4.09375 C 9.570312 -6.820312 8.015625 -11.273438 8.015625 -17.453125 L 8.015625 -37.4375 L 1.890625 -37.4375 L 1.890625 -50.21875 L 8.015625 -50.21875 L 8.015625 -62.453125 L 23.40625 -62.453125 L 23.40625 -50.21875 L 33.484375 -50.21875 L 33.484375 -37.4375 L 23.40625 -37.4375 L 23.40625 -17.28125 C 23.40625 -15.78125 23.765625 -14.695312 24.484375 -14.03125 C 25.203125 -13.375 26.398438 -13.046875 28.078125 -13.046875 Z M 33.5625 -13.046875 "/></g></g></g><g fill="#ffffff" fill-opacity="1"><g transform="translate(748.798246, 722.292992)"><g><path d="M 56.875 -50.21875 L 25.375 23.84375 L 8.8125 23.84375 L 20.34375 -1.703125 L -0.09375 -50.21875 L 17.09375 -50.21875 L 28.703125 -18.8125 L 40.234375 -50.21875 Z M 56.875 -50.21875 "/></g></g></g><g fill="#ffffff" fill-opacity="1"><g transform="translate(805.678172, 722.292992)"><g/></g></g><g fill="#ffffff" fill-opacity="1"><g transform="translate(824.758173, 722.292992)"><g><path d="M 37.796875 0 L 24.65625 -23.84375 L 20.96875 -23.84375 L 20.96875 0 L 5.578125 0 L 5.578125 -63.1875 L 31.40625 -63.1875 C 36.382812 -63.1875 40.628906 -62.3125 44.140625 -60.5625 C 47.648438 -58.820312 50.273438 -56.4375 52.015625 -53.40625 C 53.753906 -50.382812 54.625 -47.015625 54.625 -43.296875 C 54.625 -39.085938 53.4375 -35.332031 51.0625 -32.03125 C 48.695312 -28.738281 45.207031 -26.398438 40.59375 -25.015625 L 55.171875 0 Z M 20.96875 -34.734375 L 30.515625 -34.734375 C 33.328125 -34.734375 35.4375 -35.421875 36.84375 -36.796875 C 38.257812 -38.179688 38.96875 -40.132812 38.96875 -42.65625 C 38.96875 -45.0625 38.257812 -46.953125 36.84375 -48.328125 C 35.4375 -49.710938 33.328125 -50.40625 30.515625 -50.40625 L 20.96875 -50.40625 Z M 20.96875 -34.734375 "/></g></g></g><g fill="#ffffff" fill-opacity="1"><g transform="translate(883.438071, 722.292992)"><g><path d="M 52.921875 -25.921875 C 52.921875 -24.484375 52.832031 -22.984375 52.65625 -21.421875 L 17.8125 -21.421875 C 18.0625 -18.296875 19.066406 -15.910156 20.828125 -14.265625 C 22.597656 -12.617188 24.773438 -11.796875 27.359375 -11.796875 C 31.203125 -11.796875 33.875 -13.414062 35.375 -16.65625 L 51.75 -16.65625 C 50.90625 -13.351562 49.390625 -10.378906 47.203125 -7.734375 C 45.015625 -5.097656 42.269531 -3.03125 38.96875 -1.53125 C 35.664062 -0.03125 31.976562 0.71875 27.90625 0.71875 C 22.976562 0.71875 18.59375 -0.328125 14.75 -2.421875 C 10.914062 -4.523438 7.914062 -7.523438 5.75 -11.421875 C 3.59375 -15.328125 2.515625 -19.890625 2.515625 -25.109375 C 2.515625 -30.328125 3.578125 -34.882812 5.703125 -38.78125 C 7.835938 -42.6875 10.828125 -45.6875 14.671875 -47.78125 C 18.515625 -49.882812 22.925781 -50.9375 27.90625 -50.9375 C 32.757812 -50.9375 37.078125 -49.914062 40.859375 -47.875 C 44.640625 -45.832031 47.59375 -42.921875 49.71875 -39.140625 C 51.851562 -35.367188 52.921875 -30.960938 52.921875 -25.921875 Z M 37.171875 -29.96875 C 37.171875 -32.613281 36.269531 -34.710938 34.46875 -36.265625 C 32.664062 -37.828125 30.414062 -38.609375 27.71875 -38.609375 C 25.132812 -38.609375 22.957031 -37.859375 21.1875 -36.359375 C 19.425781 -34.859375 18.332031 -32.726562 17.90625 -29.96875 Z M 37.171875 -29.96875 "/></g></g></g><g fill="#ffffff" fill-opacity="1"><g transform="translate(938.878009, 722.292992)"><g><path d="M 20.96875 -43.109375 C 22.46875 -45.453125 24.535156 -47.34375 27.171875 -48.78125 C 29.816406 -50.21875 32.910156 -50.9375 36.453125 -50.9375 C 40.585938 -50.9375 44.332031 -49.882812 47.6875 -47.78125 C 51.050781 -45.6875 53.707031 -42.6875 55.65625 -38.78125 C 57.613281 -34.882812 58.59375 -30.359375 58.59375 -25.203125 C 58.59375 -20.035156 57.613281 -15.488281 55.65625 -11.5625 C 53.707031 -7.632812 51.050781 -4.601562 47.6875 -2.46875 C 44.332031 -0.34375 40.585938 0.71875 36.453125 0.71875 C 32.972656 0.71875 29.894531 0 27.21875 -1.4375 C 24.550781 -2.875 22.46875 -4.734375 20.96875 -7.015625 L 20.96875 23.9375 L 5.578125 23.9375 L 5.578125 -50.21875 L 20.96875 -50.21875 Z M 42.9375 -25.203125 C 42.9375 -29.035156 41.867188 -32.046875 39.734375 -34.234375 C 37.609375 -36.429688 34.984375 -37.53125 31.859375 -37.53125 C 28.796875 -37.53125 26.195312 -36.421875 24.0625 -34.203125 C 21.9375 -31.984375 20.875 -28.953125 20.875 -25.109375 C 20.875 -21.265625 21.9375 -18.234375 24.0625 -16.015625 C 26.195312 -13.796875 28.796875 -12.6875 31.859375 -12.6875 C 34.921875 -12.6875 37.53125 -13.8125 39.6875 -16.0625 C 41.851562 -18.3125 42.9375 -21.359375 42.9375 -25.203125 Z M 42.9375 -25.203125 "/></g></g></g><g fill="#ffffff" fill-opacity="1"><g transform="translate(999.987991, 722.292992)"><g><path d="M 28.4375 0.71875 C 23.519531 0.71875 19.09375 -0.328125 15.15625 -2.421875 C 11.226562 -4.523438 8.140625 -7.523438 5.890625 -11.421875 C 3.640625 -15.328125 2.515625 -19.890625 2.515625 -25.109375 C 2.515625 -30.265625 3.65625 -34.804688 5.9375 -38.734375 C 8.21875 -42.671875 11.335938 -45.6875 15.296875 -47.78125 C 19.253906 -49.882812 23.695312 -50.9375 28.625 -50.9375 C 33.539062 -50.9375 37.976562 -49.882812 41.9375 -47.78125 C 45.894531 -45.6875 49.015625 -42.671875 51.296875 -38.734375 C 53.578125 -34.804688 54.71875 -30.265625 54.71875 -25.109375 C 54.71875 -19.953125 53.5625 -15.40625 51.25 -11.46875 C 48.945312 -7.539062 45.796875 -4.523438 41.796875 -2.421875 C 37.804688 -0.328125 33.351562 0.71875 28.4375 0.71875 Z M 28.4375 -12.59375 C 31.375 -12.59375 33.878906 -13.671875 35.953125 -15.828125 C 38.023438 -17.992188 39.0625 -21.085938 39.0625 -25.109375 C 39.0625 -29.128906 38.054688 -32.21875 36.046875 -34.375 C 34.035156 -36.539062 31.5625 -37.625 28.625 -37.625 C 25.625 -37.625 23.132812 -36.554688 21.15625 -34.421875 C 19.175781 -32.296875 18.1875 -29.191406 18.1875 -25.109375 C 18.1875 -21.085938 19.160156 -17.992188 21.109375 -15.828125 C 23.054688 -13.671875 25.5 -12.59375 28.4375 -12.59375 Z M 28.4375 -12.59375 "/></g></g></g><g fill="#ffffff" fill-opacity="1"><g transform="translate(1057.317944, 722.292992)"><g><path d="M 20.96875 -41.84375 C 22.769531 -44.601562 25.019531 -46.78125 27.71875 -48.375 C 30.414062 -49.96875 33.414062 -50.765625 36.71875 -50.765625 L 36.71875 -34.46875 L 32.484375 -34.46875 C 28.648438 -34.46875 25.769531 -33.640625 23.84375 -31.984375 C 21.925781 -30.335938 20.96875 -27.445312 20.96875 -23.3125 L 20.96875 0 L 5.578125 0 L 5.578125 -50.21875 L 20.96875 -50.21875 Z M 20.96875 -41.84375 "/></g></g></g><g fill="#ffffff" fill-opacity="1"><g transform="translate(1095.837839, 722.292992)"><g><path d="M 33.5625 -13.046875 L 33.5625 0 L 25.734375 0 C 20.160156 0 15.8125 -1.363281 12.6875 -4.09375 C 9.570312 -6.820312 8.015625 -11.273438 8.015625 -17.453125 L 8.015625 -37.4375 L 1.890625 -37.4375 L 1.890625 -50.21875 L 8.015625 -50.21875 L 8.015625 -62.453125 L 23.40625 -62.453125 L 23.40625 -50.21875 L 33.484375 -50.21875 L 33.484375 -37.4375 L 23.40625 -37.4375 L 23.40625 -17.28125 C 23.40625 -15.78125 23.765625 -14.695312 24.484375 -14.03125 C 25.203125 -13.375 26.398438 -13.046875 28.078125 -13.046875 Z M 33.5625 -13.046875 "/></g></g></g><g fill="#ffffff" fill-opacity="1"><g transform="translate(1132.377816, 722.292992)"><g><path d="M 13.3125 -55.4375 C 10.613281 -55.4375 8.410156 -56.226562 6.703125 -57.8125 C 4.992188 -59.40625 4.140625 -61.375 4.140625 -63.71875 C 4.140625 -66.113281 4.992188 -68.109375 6.703125 -69.703125 C 8.410156 -71.296875 10.613281 -72.09375 13.3125 -72.09375 C 15.957031 -72.09375 18.132812 -71.296875 19.84375 -69.703125 C 21.550781 -68.109375 22.40625 -66.113281 22.40625 -63.71875 C 22.40625 -61.375 21.550781 -59.40625 19.84375 -57.8125 C 18.132812 -56.226562 15.957031 -55.4375 13.3125 -55.4375 Z M 20.96875 -50.21875 L 20.96875 0 L 5.578125 0 L 5.578125 -50.21875 Z M 20.96875 -50.21875 "/></g></g></g><g fill="#ffffff" fill-opacity="1"><g transform="translate(1158.927832, 722.292992)"><g><path d="M 36.1875 -50.765625 C 42.0625 -50.765625 46.753906 -48.859375 50.265625 -45.046875 C 53.773438 -41.234375 55.53125 -36 55.53125 -29.34375 L 55.53125 0 L 40.234375 0 L 40.234375 -27.265625 C 40.234375 -30.628906 39.363281 -33.238281 37.625 -35.09375 C 35.882812 -36.957031 33.539062 -37.890625 30.59375 -37.890625 C 27.65625 -37.890625 25.316406 -36.957031 23.578125 -35.09375 C 21.835938 -33.238281 20.96875 -30.628906 20.96875 -27.265625 L 20.96875 0 L 5.578125 0 L 5.578125 -50.21875 L 20.96875 -50.21875 L 20.96875 -43.5625 C 22.53125 -45.78125 24.628906 -47.535156 27.265625 -48.828125 C 29.910156 -50.117188 32.882812 -50.765625 36.1875 -50.765625 Z M 36.1875 -50.765625 "/></g></g></g><g fill="#ffffff" fill-opacity="1"><g transform="translate(1219.587742, 722.292992)"><g><path d="M 24.65625 -50.9375 C 28.195312 -50.9375 31.300781 -50.21875 33.96875 -48.78125 C 36.644531 -47.34375 38.703125 -45.453125 40.140625 -43.109375 L 40.140625 -50.21875 L 55.53125 -50.21875 L 55.53125 -0.09375 C 55.53125 4.53125 54.613281 8.71875 52.78125 12.46875 C 50.957031 16.21875 48.171875 19.203125 44.421875 21.421875 C 40.671875 23.640625 36.003906 24.75 30.421875 24.75 C 22.984375 24.75 16.953125 22.992188 12.328125 19.484375 C 7.710938 15.972656 5.070312 11.21875 4.40625 5.21875 L 19.625 5.21875 C 20.101562 7.132812 21.238281 8.648438 23.03125 9.765625 C 24.832031 10.878906 27.054688 11.4375 29.703125 11.4375 C 32.878906 11.4375 35.410156 10.519531 37.296875 8.6875 C 39.191406 6.851562 40.140625 3.925781 40.140625 -0.09375 L 40.140625 -7.203125 C 38.640625 -4.859375 36.566406 -2.953125 33.921875 -1.484375 C 31.285156 -0.015625 28.195312 0.71875 24.65625 0.71875 C 20.519531 0.71875 16.769531 -0.34375 13.40625 -2.46875 C 10.050781 -4.601562 7.394531 -7.632812 5.4375 -11.5625 C 3.488281 -15.488281 2.515625 -20.035156 2.515625 -25.203125 C 2.515625 -30.359375 3.488281 -34.882812 5.4375 -38.78125 C 7.394531 -42.6875 10.050781 -45.6875 13.40625 -47.78125 C 16.769531 -49.882812 20.519531 -50.9375 24.65625 -50.9375 Z M 40.140625 -25.109375 C 40.140625 -28.953125 39.070312 -31.984375 36.9375 -34.203125 C 34.8125 -36.421875 32.21875 -37.53125 29.15625 -37.53125 C 26.09375 -37.53125 23.5 -36.429688 21.375 -34.234375 C 19.25 -32.046875 18.1875 -29.035156 18.1875 -25.203125 C 18.1875 -21.359375 19.25 -18.3125 21.375 -16.0625 C 23.5 -13.8125 26.09375 -12.6875 29.15625 -12.6875 C 32.21875 -12.6875 34.8125 -13.796875 36.9375 -16.015625 C 39.070312 -18.234375 40.140625 -21.265625 40.140625 -25.109375 Z M 40.140625 -25.109375 "/></g></g></g></svg>