<svg xmlns="http://www.w3.org/2000/svg" xmlns:xlink="http://www.w3.org/1999/xlink" width="1920" zoomAndPan="magnify" viewBox="0 0 1440 809.999993" height="1080" preserveAspectRatio="xMidYMid meet" version="1.0"><defs><clipPath id="d561bbd592"><rect x="0" width="1440" y="0" height="810"/></clipPath><clipPath id="000ba444a5"><path d="M 414 81.957031 L 627 81.957031 L 627 303 L 414 303 Z M 414 81.957031 " clip-rule="nonzero"/></clipPath></defs><rect x="-144" width="1728" fill="#ffffff" y="-80.999999" height="971.999992" fill-opacity="1"/><rect x="-144" width="1728" fill="#ffffff" y="-80.999999" height="971.999992" fill-opacity="1"/><g transform="matrix(1, 0, 0, 1, 0, 0.000000000000039746)"><g clip-path="url(#d561bbd592)"><path fill="#24a8ff" d="M 0 0 L 1439.648438 0 L 1439.648438 810 L 0 810 Z M 0 0 " fill-opacity="1" fill-rule="nonzero"/></g></g><path fill="#ffffff" d="M 859.835938 275.792969 C 859.835938 278.074219 859.78125 280.351562 859.667969 282.632812 C 859.554688 284.910156 859.386719 287.183594 859.164062 289.453125 C 858.941406 291.722656 858.660156 293.988281 858.328125 296.242188 C 857.992188 298.5 857.601562 300.746094 857.15625 302.984375 C 856.710938 305.222656 856.210938 307.445312 855.660156 309.660156 C 855.105469 311.871094 854.496094 314.070312 853.832031 316.25 C 853.171875 318.433594 852.457031 320.597656 851.6875 322.746094 C 850.917969 324.894531 850.097656 327.023438 849.226562 329.128906 C 848.351562 331.238281 847.429688 333.320312 846.453125 335.382812 C 845.480469 337.445312 844.453125 339.484375 843.378906 341.496094 C 842.300781 343.507812 841.179688 345.488281 840.007812 347.445312 C 838.832031 349.402344 837.613281 351.328125 836.347656 353.226562 C 835.078125 355.121094 833.765625 356.988281 832.40625 358.820312 C 831.046875 360.652344 829.644531 362.449219 828.199219 364.210938 C 826.75 365.976562 825.261719 367.703125 823.730469 369.390625 C 822.199219 371.082031 820.625 372.734375 819.011719 374.347656 C 817.398438 375.960938 815.75 377.53125 814.058594 379.0625 C 812.367188 380.59375 810.640625 382.085938 808.878906 383.53125 C 807.113281 384.980469 805.316406 386.382812 803.484375 387.742188 C 801.652344 389.097656 799.789062 390.414062 797.890625 391.679688 C 795.996094 392.945312 794.070312 394.167969 792.113281 395.339844 C 790.15625 396.511719 788.171875 397.636719 786.160156 398.710938 C 784.148438 399.785156 782.113281 400.8125 780.050781 401.789062 C 777.988281 402.761719 775.902344 403.6875 773.796875 404.558594 C 771.6875 405.433594 769.5625 406.253906 767.414062 407.023438 C 765.265625 407.789062 763.101562 408.503906 760.917969 409.167969 C 758.734375 409.828125 756.539062 410.4375 754.324219 410.992188 C 752.113281 411.546875 749.886719 412.046875 747.648438 412.492188 C 745.414062 412.9375 743.164062 413.324219 740.910156 413.660156 C 738.652344 413.996094 736.390625 414.273438 734.121094 414.496094 C 731.851562 414.722656 729.574219 414.890625 727.296875 415 C 725.019531 415.113281 722.738281 415.167969 720.460938 415.167969 C 718.179688 415.167969 715.898438 415.113281 713.621094 415 C 711.34375 414.890625 709.066406 414.722656 706.796875 414.496094 C 704.527344 414.273438 702.265625 413.996094 700.007812 413.660156 C 697.75 413.324219 695.503906 412.9375 693.269531 412.492188 C 691.03125 412.046875 688.804688 411.546875 686.59375 410.992188 C 684.378906 410.4375 682.183594 409.828125 680 409.167969 C 677.816406 408.503906 675.652344 407.789062 673.503906 407.023438 C 671.355469 406.253906 669.230469 405.433594 667.121094 404.558594 C 665.015625 403.6875 662.929688 402.761719 660.867188 401.789062 C 658.804688 400.8125 656.769531 399.785156 654.757812 398.710938 C 652.746094 397.636719 650.761719 396.511719 648.804688 395.339844 C 646.847656 394.167969 644.921875 392.945312 643.027344 391.679688 C 641.128906 390.414062 639.265625 389.097656 637.433594 387.742188 C 635.601562 386.382812 633.804688 384.980469 632.039062 383.53125 C 630.277344 382.085938 628.550781 380.59375 626.859375 379.0625 C 625.167969 377.53125 623.519531 375.960938 621.90625 374.347656 C 620.292969 372.734375 618.71875 371.082031 617.1875 369.390625 C 615.65625 367.703125 614.167969 365.976562 612.71875 364.210938 C 611.273438 362.449219 609.871094 360.652344 608.511719 358.820312 C 607.152344 356.988281 605.839844 355.121094 604.570312 353.226562 C 603.304688 351.328125 602.085938 349.402344 600.910156 347.445312 C 599.738281 345.488281 598.613281 343.507812 597.539062 341.496094 C 596.464844 339.484375 595.4375 337.445312 594.464844 335.382812 C 593.488281 333.320312 592.566406 331.238281 591.691406 329.128906 C 590.820312 327.023438 590 324.894531 589.230469 322.746094 C 588.460938 320.597656 587.746094 318.433594 587.085938 316.25 C 586.421875 314.070312 585.8125 311.871094 585.257812 309.660156 C 584.707031 307.445312 584.207031 305.222656 583.761719 302.984375 C 583.316406 300.746094 582.925781 298.5 582.589844 296.242188 C 582.257812 293.988281 581.976562 291.722656 581.753906 289.453125 C 581.53125 287.183594 581.363281 284.910156 581.25 282.632812 C 581.136719 280.351562 581.082031 278.074219 581.082031 275.792969 C 581.082031 273.511719 581.136719 271.230469 581.25 268.953125 C 581.363281 266.675781 581.53125 264.402344 581.753906 262.132812 C 581.976562 259.863281 582.257812 257.597656 582.589844 255.34375 C 582.925781 253.085938 583.316406 250.839844 583.761719 248.601562 C 584.207031 246.363281 584.707031 244.140625 585.257812 241.925781 C 585.8125 239.714844 586.421875 237.515625 587.085938 235.332031 C 587.746094 233.152344 588.460938 230.984375 589.230469 228.839844 C 590 226.691406 590.820312 224.5625 591.691406 222.457031 C 592.566406 220.347656 593.488281 218.261719 594.464844 216.203125 C 595.4375 214.140625 596.464844 212.101562 597.539062 210.089844 C 598.613281 208.078125 599.738281 206.09375 600.910156 204.140625 C 602.085938 202.183594 603.304688 200.253906 604.570312 198.359375 C 605.839844 196.460938 607.152344 194.597656 608.511719 192.765625 C 609.871094 190.933594 611.273438 189.136719 612.71875 187.375 C 614.167969 185.609375 615.65625 183.882812 617.1875 182.191406 C 618.71875 180.503906 620.292969 178.851562 621.90625 177.238281 C 623.519531 175.625 625.167969 174.054688 626.859375 172.523438 C 628.550781 170.988281 630.277344 169.5 632.039062 168.054688 C 633.800781 166.605469 635.601562 165.203125 637.433594 163.84375 C 639.265625 162.484375 641.128906 161.171875 643.027344 159.90625 C 644.921875 158.636719 646.847656 157.417969 648.804688 156.246094 C 650.761719 155.074219 652.746094 153.949219 654.757812 152.875 C 656.769531 151.796875 658.804688 150.773438 660.867188 149.796875 C 662.929688 148.824219 665.015625 147.898438 667.121094 147.027344 C 669.230469 146.152344 671.355469 145.332031 673.503906 144.5625 C 675.652344 143.796875 677.816406 143.078125 680 142.417969 C 682.183594 141.753906 684.378906 141.148438 686.59375 140.59375 C 688.804688 140.039062 691.03125 139.539062 693.269531 139.09375 C 695.503906 138.648438 697.75 138.257812 700.007812 137.925781 C 702.265625 137.589844 704.527344 137.3125 706.796875 137.085938 C 709.066406 136.863281 711.34375 136.695312 713.621094 136.585938 C 715.898438 136.472656 718.179688 136.417969 720.460938 136.417969 C 722.738281 136.417969 725.019531 136.472656 727.296875 136.585938 C 729.574219 136.695312 731.851562 136.863281 734.121094 137.085938 C 736.390625 137.3125 738.652344 137.589844 740.910156 137.925781 C 743.167969 138.257812 745.414062 138.648438 747.648438 139.09375 C 749.886719 139.539062 752.113281 140.039062 754.324219 140.59375 C 756.539062 141.148438 758.734375 141.753906 760.917969 142.417969 C 763.101562 143.078125 765.265625 143.796875 767.414062 144.5625 C 769.5625 145.332031 771.6875 146.152344 773.796875 147.027344 C 775.902344 147.898438 777.988281 148.824219 780.050781 149.796875 C 782.113281 150.773438 784.148438 151.796875 786.160156 152.875 C 788.171875 153.949219 790.15625 155.074219 792.113281 156.246094 C 794.070312 157.417969 795.996094 158.636719 797.890625 159.90625 C 799.789062 161.171875 801.652344 162.484375 803.484375 163.84375 C 805.316406 165.203125 807.113281 166.605469 808.878906 168.054688 C 810.640625 169.5 812.367188 170.988281 814.058594 172.523438 C 815.75 174.054688 817.398438 175.625 819.011719 177.238281 C 820.625 178.851562 822.199219 180.503906 823.730469 182.191406 C 825.261719 183.882812 826.75 185.609375 828.199219 187.375 C 829.644531 189.136719 831.046875 190.933594 832.40625 192.765625 C 833.765625 194.597656 835.078125 196.460938 836.347656 198.359375 C 837.613281 200.253906 838.832031 202.183594 840.007812 204.140625 C 841.179688 206.09375 842.300781 208.078125 843.378906 210.089844 C 844.453125 212.101562 845.480469 214.140625 846.453125 216.203125 C 847.429688 218.261719 848.351562 220.347656 849.226562 222.457031 C 850.097656 224.5625 850.917969 226.691406 851.6875 228.839844 C 852.457031 230.984375 853.171875 233.152344 853.832031 235.332031 C 854.496094 237.515625 855.105469 239.714844 855.660156 241.925781 C 856.210938 244.140625 856.710938 246.363281 857.15625 248.601562 C 857.601562 250.839844 857.992188 253.085938 858.328125 255.34375 C 858.660156 257.597656 858.941406 259.863281 859.164062 262.132812 C 859.386719 264.402344 859.554688 266.675781 859.667969 268.953125 C 859.78125 271.230469 859.835938 273.511719 859.835938 275.792969 Z M 859.835938 275.792969 " fill-opacity="1" fill-rule="nonzero"/><path fill="#ffffff" d="M 821.070312 401.324219 C 795.222656 427.167969 751.839844 436.398438 720.457031 436.398438 C 688.152344 436.398438 644.769531 427.167969 618.925781 400.402344 C 529.394531 434.550781 462.011719 543.46875 444.476562 639.464844 C 438.9375 668.078125 459.242188 692.074219 487.855469 701.304688 C 544.160156 718.84375 633.695312 728.996094 720.457031 728.996094 C 834.914062 728.996094 907.832031 717.921875 958.597656 700.382812 C 982.597656 692.074219 1000.136719 671.769531 996.441406 646.847656 C 979.828125 548.085938 912.449219 436.398438 821.070312 401.324219 Z M 821.070312 401.324219 " fill-opacity="1" fill-rule="nonzero"/><path fill="#ffffff" d="M 612.464844 385.632812 C 592.160156 366.25 577.390625 340.402344 570.007812 311.789062 C 554.316406 317.328125 538.625 319.175781 524.777344 319.175781 C 498.933594 319.175781 464.78125 311.789062 444.476562 290.5625 C 374.324219 317.328125 320.789062 404.09375 306.023438 479.78125 C 301.40625 502.855469 318.019531 521.316406 340.171875 528.699219 C 370.632812 537.929688 412.167969 544.390625 457.398438 548.085938 C 489.703125 478.859375 544.160156 412.398438 612.464844 385.632812 Z M 612.464844 385.632812 " fill-opacity="1" fill-rule="nonzero"/><g clip-path="url(#000ba444a5)"><path fill="#ffffff" d="M 523.855469 302.558594 C 538.625 302.558594 553.390625 299.792969 566.3125 294.253906 C 565.390625 287.792969 565.390625 281.332031 565.390625 274.871094 C 565.390625 225.027344 589.390625 179.796875 626.3125 151.183594 C 609.695312 110.570312 570.007812 81.957031 523.855469 81.957031 C 462.9375 81.957031 414.015625 130.878906 414.015625 191.796875 C 414.015625 252.71875 462.9375 302.558594 523.855469 302.558594 Z M 523.855469 302.558594 " fill-opacity="1" fill-rule="nonzero"/></g><path fill="#ffffff" d="M 1134.894531 486.242188 C 1121.972656 407.785156 1068.4375 320.097656 996.441406 291.484375 C 976.136719 311.789062 941.984375 319.175781 916.140625 319.175781 C 902.292969 319.175781 885.679688 317.328125 870.910156 311.789062 C 863.527344 340.402344 848.757812 365.324219 828.453125 385.632812 C 896.757812 413.324219 951.214844 478.859375 983.519531 549.007812 C 1037.054688 545.316406 1075.824219 538.855469 1105.359375 527.777344 C 1124.742188 522.238281 1138.589844 506.546875 1134.894531 486.242188 Z M 1134.894531 486.242188 " fill-opacity="1" fill-rule="nonzero"/><path fill="#ffffff" d="M 875.527344 274.871094 C 875.527344 281.332031 875.527344 287.792969 874.605469 294.253906 C 887.527344 299.792969 902.292969 302.558594 917.0625 302.558594 C 977.980469 302.558594 1026.902344 253.640625 1026.902344 192.71875 C 1026.902344 131.800781 977.980469 82.882812 917.0625 82.882812 C 870.910156 82.882812 831.222656 111.496094 814.605469 152.109375 C 851.527344 179.796875 875.527344 224.101562 875.527344 274.871094 Z M 875.527344 274.871094 " fill-opacity="1" fill-rule="nonzero"/></svg>