<svg xmlns="http://www.w3.org/2000/svg" xmlns:xlink="http://www.w3.org/1999/xlink" width="1920" zoomAndPan="magnify" viewBox="0 0 1440 809.999993" height="1080" preserveAspectRatio="xMidYMid meet" version="1.0"><defs><g/><clipPath id="858d3e3203"><rect x="0" width="1440" y="0" height="810"/></clipPath><clipPath id="edc7c0fb14"><path d="M 56.25 0 L 1383.75 0 C 1398.667969 0 1412.976562 5.925781 1423.523438 16.476562 C 1434.074219 27.023438 1440 41.332031 1440 56.25 L 1440 753.84375 C 1440 768.761719 1434.074219 783.070312 1423.523438 793.617188 C 1412.976562 804.167969 1398.667969 810.09375 1383.75 810.09375 L 56.25 810.09375 C 41.332031 810.09375 27.023438 804.167969 16.476562 793.617188 C 5.925781 783.070312 0 768.761719 0 753.84375 L 0 56.25 C 0 41.332031 5.925781 27.023438 16.476562 16.476562 C 27.023438 5.925781 41.332031 0 56.25 0 Z M 56.25 0 " clip-rule="nonzero"/></clipPath><clipPath id="6bad37c2d9"><path d="M 0 0 L 1440 0 L 1440 810 L 0 810 Z M 0 0 " clip-rule="nonzero"/></clipPath><clipPath id="a6560ef5f8"><path d="M 56.25 0 L 1383.75 0 C 1398.667969 0 1412.976562 5.925781 1423.523438 16.476562 C 1434.074219 27.023438 1440 41.332031 1440 56.25 L 1440 753.84375 C 1440 768.761719 1434.074219 783.070312 1423.523438 793.617188 C 1412.976562 804.167969 1398.667969 810.09375 1383.75 810.09375 L 56.25 810.09375 C 41.332031 810.09375 27.023438 804.167969 16.476562 793.617188 C 5.925781 783.070312 0 768.761719 0 753.84375 L 0 56.25 C 0 41.332031 5.925781 27.023438 16.476562 16.476562 C 27.023438 5.925781 41.332031 0 56.25 0 Z M 56.25 0 " clip-rule="nonzero"/></clipPath><clipPath id="787c7cad98"><rect x="0" width="1440" y="0" height="810"/></clipPath><clipPath id="beed375a6c"><path d="M 490.566406 51.128906 L 949.566406 51.128906 L 949.566406 570 L 490.566406 570 Z M 490.566406 51.128906 " clip-rule="nonzero"/></clipPath></defs><rect x="-144" width="1728" fill="#ffffff" y="-80.999999" height="971.999992" fill-opacity="1"/><rect x="-144" width="1728" fill="#ffffff" y="-80.999999" height="971.999992" fill-opacity="1"/><g transform="matrix(1, 0, 0, 1, 0, 0.000000000000039746)"><g clip-path="url(#858d3e3203)"><path fill="#eae8e5" d="M 0 0 L 1439.648438 0 L 1439.648438 810 L 0 810 Z M 0 0 " fill-opacity="1" fill-rule="nonzero"/></g></g><g clip-path="url(#edc7c0fb14)"><g transform="matrix(1, 0, 0, 1, 0, 0.000000000000039746)"><g clip-path="url(#787c7cad98)"><g clip-path="url(#6bad37c2d9)"><g clip-path="url(#a6560ef5f8)"><path fill="#ff8035" d="M 0 0 L 1439.816406 0 L 1439.816406 810.09375 L 0 810.09375 Z M 0 0 " fill-opacity="1" fill-rule="nonzero"/></g></g></g></g></g><g clip-path="url(#beed375a6c)"><path fill="#ffffff" d="M 494.136719 449.738281 L 700.128906 568.65625 C 704.890625 571.398438 710.832031 567.972656 710.832031 562.480469 L 710.832031 324.582031 C 710.832031 322.035156 709.464844 319.675781 707.261719 318.402344 L 501.285156 199.488281 C 496.523438 196.746094 490.582031 200.167969 490.582031 205.664062 L 490.570312 443.5625 C 490.570312 446.105469 491.933594 448.46875 494.136719 449.738281 Z M 521.425781 417.570312 L 569.03125 445.058594 C 579.46875 451.0625 570.339844 466.90625 559.914062 460.914062 L 512.3125 433.425781 C 501.875 427.417969 511 411.566406 521.425781 417.570312 Z M 569.226562 141.472656 L 775.21875 260.402344 C 779.980469 263.140625 779.980469 270.015625 775.21875 272.769531 L 723.578125 302.589844 C 721.375 303.859375 718.644531 303.859375 716.441406 302.589844 L 510.4375 183.660156 C 505.675781 180.917969 505.675781 174.046875 510.4375 171.292969 L 562.078125 141.472656 C 564.296875 140.199219 567.023438 140.199219 569.226562 141.472656 Z M 850.035156 229.558594 L 807.792969 253.949219 C 805.589844 255.222656 802.863281 255.222656 800.660156 253.949219 L 594.679688 135.019531 C 589.921875 132.277344 589.921875 125.40625 594.679688 122.652344 L 636.921875 98.261719 C 639.125 96.988281 641.851562 96.988281 644.054688 98.261719 L 850.046875 217.191406 C 854.792969 219.945312 854.792969 226.804688 850.035156 229.558594 Z M 929.582031 183.644531 L 882.609375 210.765625 C 880.40625 212.039062 877.679688 212.039062 875.476562 210.765625 L 669.46875 91.820312 C 664.707031 89.082031 664.707031 82.210938 669.46875 79.457031 L 716.441406 52.335938 C 718.644531 51.0625 721.375 51.0625 723.578125 52.335938 L 929.582031 171.277344 C 934.34375 174.03125 934.34375 180.90625 929.582031 183.644531 Z M 938.738281 199.472656 L 891.789062 226.582031 C 889.585938 227.851562 888.222656 230.214844 888.222656 232.757812 L 888.183594 283.074219 C 888.183594 286.234375 886.53125 289.316406 883.59375 290.996094 L 811.074219 332.867188 C 803.992188 337.40625 796.582031 332.082031 796.582031 325.378906 L 796.582031 293.90625 C 796.582031 288.414062 790.628906 284.976562 785.882812 287.730469 L 732.757812 318.402344 C 730.554688 319.675781 729.191406 322.035156 729.191406 324.582031 L 729.191406 562.492188 C 729.191406 567.988281 735.144531 571.421875 739.890625 568.667969 L 945.882812 449.753906 C 948.085938 448.480469 949.449219 446.121094 949.449219 443.574219 L 949.4375 205.675781 C 949.4375 200.15625 943.496094 196.734375 938.738281 199.472656 Z M 839.109375 480.269531 L 769.699219 520.34375 C 762.851562 524.621094 755.378906 519.546875 755.378906 512.738281 L 755.417969 431.957031 C 755.417969 428.796875 757.070312 425.714844 760.007812 424.035156 L 829.761719 383.777344 C 836.054688 380.027344 843.660156 384.601562 843.660156 391.578125 L 843.660156 471.851562 C 843.84375 475.167969 842.191406 478.484375 839.109375 480.269531 Z M 814.941406 297.160156 L 814.941406 275.089844 C 814.941406 272.542969 816.304688 270.183594 818.507812 268.914062 L 859.148438 245.453125 C 863.910156 242.710938 869.847656 246.132812 869.847656 251.628906 L 869.847656 273.699219 C 869.847656 276.242188 868.484375 278.601562 866.28125 279.875 L 825.644531 303.335938 C 820.894531 306.089844 814.941406 302.652344 814.941406 297.160156 Z M 777.304688 435.144531 L 814.667969 413.570312 C 819.425781 410.832031 825.367188 414.253906 825.367188 419.75 L 825.367188 462.917969 C 825.367188 465.464844 824.003906 467.824219 821.800781 469.097656 L 784.4375 490.667969 C 779.679688 493.410156 773.738281 489.984375 773.738281 484.492188 L 773.738281 441.320312 C 773.738281 438.777344 775.089844 436.429688 777.304688 435.144531 Z M 777.304688 435.144531 " fill-opacity="1" fill-rule="evenodd"/></g><g fill="#ffffff" fill-opacity="1"><g transform="translate(527.346659, 677.292994)"><g><path d="M 28.4375 0.625 C 23.820312 0.625 19.679688 -0.125 16.015625 -1.625 C 12.359375 -3.125 9.429688 -5.34375 7.234375 -8.28125 C 5.046875 -11.21875 3.894531 -14.757812 3.78125 -18.90625 L 20.15625 -18.90625 C 20.394531 -16.5625 21.203125 -14.773438 22.578125 -13.546875 C 23.960938 -12.316406 25.765625 -11.703125 27.984375 -11.703125 C 30.265625 -11.703125 32.066406 -12.222656 33.390625 -13.265625 C 34.710938 -14.316406 35.375 -15.773438 35.375 -17.640625 C 35.375 -19.203125 34.847656 -20.492188 33.796875 -21.515625 C 32.742188 -22.535156 31.453125 -23.375 29.921875 -24.03125 C 28.390625 -24.6875 26.21875 -25.4375 23.40625 -26.28125 C 19.320312 -27.539062 15.988281 -28.800781 13.40625 -30.0625 C 10.832031 -31.320312 8.613281 -33.179688 6.75 -35.640625 C 4.882812 -38.097656 3.953125 -41.304688 3.953125 -45.265625 C 3.953125 -51.148438 6.082031 -55.753906 10.34375 -59.078125 C 14.601562 -62.410156 20.15625 -64.078125 27 -64.078125 C 33.957031 -64.078125 39.566406 -62.410156 43.828125 -59.078125 C 48.085938 -55.753906 50.367188 -51.125 50.671875 -45.1875 L 34.015625 -45.1875 C 33.898438 -47.21875 33.148438 -48.816406 31.765625 -49.984375 C 30.390625 -51.160156 28.617188 -51.75 26.453125 -51.75 C 24.597656 -51.75 23.097656 -51.253906 21.953125 -50.265625 C 20.816406 -49.273438 20.25 -47.847656 20.25 -45.984375 C 20.25 -43.953125 21.207031 -42.363281 23.125 -41.21875 C 25.050781 -40.082031 28.050781 -38.851562 32.125 -37.53125 C 36.207031 -36.144531 39.523438 -34.820312 42.078125 -33.5625 C 44.628906 -32.3125 46.832031 -30.484375 48.6875 -28.078125 C 50.550781 -25.679688 51.484375 -22.59375 51.484375 -18.8125 C 51.484375 -15.207031 50.566406 -11.9375 48.734375 -9 C 46.898438 -6.0625 44.242188 -3.722656 40.765625 -1.984375 C 37.285156 -0.242188 33.175781 0.625 28.4375 0.625 Z M 28.4375 0.625 "/></g></g></g><g fill="#ffffff" fill-opacity="1"><g transform="translate(582.696601, 677.292994)"><g><path d="M 55.171875 -50.21875 L 55.171875 0 L 39.78125 0 L 39.78125 -6.84375 C 38.21875 -4.625 36.101562 -2.835938 33.4375 -1.484375 C 30.769531 -0.128906 27.8125 0.546875 24.5625 0.546875 C 20.726562 0.546875 17.335938 -0.304688 14.390625 -2.015625 C 11.453125 -3.734375 9.171875 -6.210938 7.546875 -9.453125 C 5.929688 -12.691406 5.125 -16.5 5.125 -20.875 L 5.125 -50.21875 L 20.4375 -50.21875 L 20.4375 -22.953125 C 20.4375 -19.585938 21.304688 -16.972656 23.046875 -15.109375 C 24.785156 -13.253906 27.125 -12.328125 30.0625 -12.328125 C 33.0625 -12.328125 35.429688 -13.253906 37.171875 -15.109375 C 38.910156 -16.972656 39.78125 -19.585938 39.78125 -22.953125 L 39.78125 -50.21875 Z M 55.171875 -50.21875 "/></g></g></g><g fill="#ffffff" fill-opacity="1"><g transform="translate(643.356545, 677.292994)"><g><path d="M 20.96875 -43.109375 C 22.46875 -45.453125 24.535156 -47.34375 27.171875 -48.78125 C 29.816406 -50.21875 32.910156 -50.9375 36.453125 -50.9375 C 40.585938 -50.9375 44.332031 -49.882812 47.6875 -47.78125 C 51.050781 -45.6875 53.707031 -42.6875 55.65625 -38.78125 C 57.613281 -34.882812 58.59375 -30.359375 58.59375 -25.203125 C 58.59375 -20.035156 57.613281 -15.488281 55.65625 -11.5625 C 53.707031 -7.632812 51.050781 -4.601562 47.6875 -2.46875 C 44.332031 -0.34375 40.585938 0.71875 36.453125 0.71875 C 32.972656 0.71875 29.894531 0 27.21875 -1.4375 C 24.550781 -2.875 22.46875 -4.734375 20.96875 -7.015625 L 20.96875 23.9375 L 5.578125 23.9375 L 5.578125 -50.21875 L 20.96875 -50.21875 Z M 42.9375 -25.203125 C 42.9375 -29.035156 41.867188 -32.046875 39.734375 -34.234375 C 37.609375 -36.429688 34.984375 -37.53125 31.859375 -37.53125 C 28.796875 -37.53125 26.195312 -36.421875 24.0625 -34.203125 C 21.9375 -31.984375 20.875 -28.953125 20.875 -25.109375 C 20.875 -21.265625 21.9375 -18.234375 24.0625 -16.015625 C 26.195312 -13.796875 28.796875 -12.6875 31.859375 -12.6875 C 34.921875 -12.6875 37.53125 -13.8125 39.6875 -16.0625 C 41.851562 -18.3125 42.9375 -21.359375 42.9375 -25.203125 Z M 42.9375 -25.203125 "/></g></g></g><g fill="#ffffff" fill-opacity="1"><g transform="translate(704.466481, 677.292994)"><g><path d="M 20.96875 -43.109375 C 22.46875 -45.453125 24.535156 -47.34375 27.171875 -48.78125 C 29.816406 -50.21875 32.910156 -50.9375 36.453125 -50.9375 C 40.585938 -50.9375 44.332031 -49.882812 47.6875 -47.78125 C 51.050781 -45.6875 53.707031 -42.6875 55.65625 -38.78125 C 57.613281 -34.882812 58.59375 -30.359375 58.59375 -25.203125 C 58.59375 -20.035156 57.613281 -15.488281 55.65625 -11.5625 C 53.707031 -7.632812 51.050781 -4.601562 47.6875 -2.46875 C 44.332031 -0.34375 40.585938 0.71875 36.453125 0.71875 C 32.972656 0.71875 29.894531 0 27.21875 -1.4375 C 24.550781 -2.875 22.46875 -4.734375 20.96875 -7.015625 L 20.96875 23.9375 L 5.578125 23.9375 L 5.578125 -50.21875 L 20.96875 -50.21875 Z M 42.9375 -25.203125 C 42.9375 -29.035156 41.867188 -32.046875 39.734375 -34.234375 C 37.609375 -36.429688 34.984375 -37.53125 31.859375 -37.53125 C 28.796875 -37.53125 26.195312 -36.421875 24.0625 -34.203125 C 21.9375 -31.984375 20.875 -28.953125 20.875 -25.109375 C 20.875 -21.265625 21.9375 -18.234375 24.0625 -16.015625 C 26.195312 -13.796875 28.796875 -12.6875 31.859375 -12.6875 C 34.921875 -12.6875 37.53125 -13.8125 39.6875 -16.0625 C 41.851562 -18.3125 42.9375 -21.359375 42.9375 -25.203125 Z M 42.9375 -25.203125 "/></g></g></g><g fill="#ffffff" fill-opacity="1"><g transform="translate(765.576429, 677.292994)"><g><path d="M 20.96875 -66.59375 L 20.96875 0 L 5.578125 0 L 5.578125 -66.59375 Z M 20.96875 -66.59375 "/></g></g></g><g fill="#ffffff" fill-opacity="1"><g transform="translate(792.1264, 677.292994)"><g><path d="M 13.3125 -55.4375 C 10.613281 -55.4375 8.410156 -56.226562 6.703125 -57.8125 C 4.992188 -59.40625 4.140625 -61.375 4.140625 -63.71875 C 4.140625 -66.113281 4.992188 -68.109375 6.703125 -69.703125 C 8.410156 -71.296875 10.613281 -72.09375 13.3125 -72.09375 C 15.957031 -72.09375 18.132812 -71.296875 19.84375 -69.703125 C 21.550781 -68.109375 22.40625 -66.113281 22.40625 -63.71875 C 22.40625 -61.375 21.550781 -59.40625 19.84375 -57.8125 C 18.132812 -56.226562 15.957031 -55.4375 13.3125 -55.4375 Z M 20.96875 -50.21875 L 20.96875 0 L 5.578125 0 L 5.578125 -50.21875 Z M 20.96875 -50.21875 "/></g></g></g><g fill="#ffffff" fill-opacity="1"><g transform="translate(818.676371, 677.292994)"><g><path d="M 52.921875 -25.921875 C 52.921875 -24.484375 52.832031 -22.984375 52.65625 -21.421875 L 17.8125 -21.421875 C 18.0625 -18.296875 19.066406 -15.910156 20.828125 -14.265625 C 22.597656 -12.617188 24.773438 -11.796875 27.359375 -11.796875 C 31.203125 -11.796875 33.875 -13.414062 35.375 -16.65625 L 51.75 -16.65625 C 50.90625 -13.351562 49.390625 -10.378906 47.203125 -7.734375 C 45.015625 -5.097656 42.269531 -3.03125 38.96875 -1.53125 C 35.664062 -0.03125 31.976562 0.71875 27.90625 0.71875 C 22.976562 0.71875 18.59375 -0.328125 14.75 -2.421875 C 10.914062 -4.523438 7.914062 -7.523438 5.75 -11.421875 C 3.59375 -15.328125 2.515625 -19.890625 2.515625 -25.109375 C 2.515625 -30.328125 3.578125 -34.882812 5.703125 -38.78125 C 7.835938 -42.6875 10.828125 -45.6875 14.671875 -47.78125 C 18.515625 -49.882812 22.925781 -50.9375 27.90625 -50.9375 C 32.757812 -50.9375 37.078125 -49.914062 40.859375 -47.875 C 44.640625 -45.832031 47.59375 -42.921875 49.71875 -39.140625 C 51.851562 -35.367188 52.921875 -30.960938 52.921875 -25.921875 Z M 37.171875 -29.96875 C 37.171875 -32.613281 36.269531 -34.710938 34.46875 -36.265625 C 32.664062 -37.828125 30.414062 -38.609375 27.71875 -38.609375 C 25.132812 -38.609375 22.957031 -37.859375 21.1875 -36.359375 C 19.425781 -34.859375 18.332031 -32.726562 17.90625 -29.96875 Z M 37.171875 -29.96875 "/></g></g></g><g fill="#ffffff" fill-opacity="1"><g transform="translate(874.11631, 677.292994)"><g><path d="M 20.96875 -41.84375 C 22.769531 -44.601562 25.019531 -46.78125 27.71875 -48.375 C 30.414062 -49.96875 33.414062 -50.765625 36.71875 -50.765625 L 36.71875 -34.46875 L 32.484375 -34.46875 C 28.648438 -34.46875 25.769531 -33.640625 23.84375 -31.984375 C 21.925781 -30.335938 20.96875 -27.445312 20.96875 -23.3125 L 20.96875 0 L 5.578125 0 L 5.578125 -50.21875 L 20.96875 -50.21875 Z M 20.96875 -41.84375 "/></g></g></g><g fill="#ffffff" fill-opacity="1"><g transform="translate(335.159169, 767.292989)"><g><path d="M 2.96875 -31.6875 C 2.96875 -37.925781 4.316406 -43.488281 7.015625 -48.375 C 9.710938 -53.257812 13.476562 -57.066406 18.3125 -59.796875 C 23.144531 -62.535156 28.617188 -63.90625 34.734375 -63.90625 C 42.234375 -63.90625 48.65625 -61.921875 54 -57.953125 C 59.34375 -53.992188 62.910156 -48.597656 64.703125 -41.765625 L 47.796875 -41.765625 C 46.535156 -44.398438 44.75 -46.40625 42.4375 -47.78125 C 40.125 -49.164062 37.5 -49.859375 34.5625 -49.859375 C 29.820312 -49.859375 25.976562 -48.207031 23.03125 -44.90625 C 20.09375 -41.601562 18.625 -37.195312 18.625 -31.6875 C 18.625 -26.164062 20.09375 -21.753906 23.03125 -18.453125 C 25.976562 -15.148438 29.820312 -13.5 34.5625 -13.5 C 37.5 -13.5 40.125 -14.1875 42.4375 -15.5625 C 44.75 -16.945312 46.535156 -18.957031 47.796875 -21.59375 L 64.703125 -21.59375 C 62.910156 -14.757812 59.34375 -9.375 54 -5.4375 C 48.65625 -1.507812 42.234375 0.453125 34.734375 0.453125 C 28.617188 0.453125 23.144531 -0.910156 18.3125 -3.640625 C 13.476562 -6.367188 9.710938 -10.160156 7.015625 -15.015625 C 4.316406 -19.878906 2.96875 -25.4375 2.96875 -31.6875 Z M 2.96875 -31.6875 "/></g></g></g><g fill="#ffffff" fill-opacity="1"><g transform="translate(403.739098, 767.292989)"><g><path d="M 28.4375 0.71875 C 23.519531 0.71875 19.09375 -0.328125 15.15625 -2.421875 C 11.226562 -4.523438 8.140625 -7.523438 5.890625 -11.421875 C 3.640625 -15.328125 2.515625 -19.890625 2.515625 -25.109375 C 2.515625 -30.265625 3.65625 -34.804688 5.9375 -38.734375 C 8.21875 -42.671875 11.335938 -45.6875 15.296875 -47.78125 C 19.253906 -49.882812 23.695312 -50.9375 28.625 -50.9375 C 33.539062 -50.9375 37.976562 -49.882812 41.9375 -47.78125 C 45.894531 -45.6875 49.015625 -42.671875 51.296875 -38.734375 C 53.578125 -34.804688 54.71875 -30.265625 54.71875 -25.109375 C 54.71875 -19.953125 53.5625 -15.40625 51.25 -11.46875 C 48.945312 -7.539062 45.796875 -4.523438 41.796875 -2.421875 C 37.804688 -0.328125 33.351562 0.71875 28.4375 0.71875 Z M 28.4375 -12.59375 C 31.375 -12.59375 33.878906 -13.671875 35.953125 -15.828125 C 38.023438 -17.992188 39.0625 -21.085938 39.0625 -25.109375 C 39.0625 -29.128906 38.054688 -32.21875 36.046875 -34.375 C 34.035156 -36.539062 31.5625 -37.625 28.625 -37.625 C 25.625 -37.625 23.132812 -36.554688 21.15625 -34.421875 C 19.175781 -32.296875 18.1875 -29.191406 18.1875 -25.109375 C 18.1875 -21.085938 19.160156 -17.992188 21.109375 -15.828125 C 23.054688 -13.671875 25.5 -12.59375 28.4375 -12.59375 Z M 28.4375 -12.59375 "/></g></g></g><g fill="#ffffff" fill-opacity="1"><g transform="translate(461.06904, 767.292989)"><g><path d="M 2.515625 -25.203125 C 2.515625 -30.359375 3.488281 -34.882812 5.4375 -38.78125 C 7.394531 -42.6875 10.050781 -45.6875 13.40625 -47.78125 C 16.769531 -49.882812 20.519531 -50.9375 24.65625 -50.9375 C 27.957031 -50.9375 30.972656 -50.242188 33.703125 -48.859375 C 36.429688 -47.484375 38.578125 -45.628906 40.140625 -43.296875 L 40.140625 -66.59375 L 55.53125 -66.59375 L 55.53125 0 L 40.140625 0 L 40.140625 -7.203125 C 38.703125 -4.796875 36.644531 -2.875 33.96875 -1.4375 C 31.300781 0 28.195312 0.71875 24.65625 0.71875 C 20.519531 0.71875 16.769531 -0.34375 13.40625 -2.46875 C 10.050781 -4.601562 7.394531 -7.632812 5.4375 -11.5625 C 3.488281 -15.488281 2.515625 -20.035156 2.515625 -25.203125 Z M 40.140625 -25.109375 C 40.140625 -28.953125 39.070312 -31.984375 36.9375 -34.203125 C 34.8125 -36.421875 32.21875 -37.53125 29.15625 -37.53125 C 26.09375 -37.53125 23.5 -36.429688 21.375 -34.234375 C 19.25 -32.046875 18.1875 -29.035156 18.1875 -25.203125 C 18.1875 -21.359375 19.25 -18.3125 21.375 -16.0625 C 23.5 -13.8125 26.09375 -12.6875 29.15625 -12.6875 C 32.21875 -12.6875 34.8125 -13.796875 36.9375 -16.015625 C 39.070312 -18.234375 40.140625 -21.265625 40.140625 -25.109375 Z M 40.140625 -25.109375 "/></g></g></g><g fill="#ffffff" fill-opacity="1"><g transform="translate(522.178976, 767.292989)"><g><path d="M 52.921875 -25.921875 C 52.921875 -24.484375 52.832031 -22.984375 52.65625 -21.421875 L 17.8125 -21.421875 C 18.0625 -18.296875 19.066406 -15.910156 20.828125 -14.265625 C 22.597656 -12.617188 24.773438 -11.796875 27.359375 -11.796875 C 31.203125 -11.796875 33.875 -13.414062 35.375 -16.65625 L 51.75 -16.65625 C 50.90625 -13.351562 49.390625 -10.378906 47.203125 -7.734375 C 45.015625 -5.097656 42.269531 -3.03125 38.96875 -1.53125 C 35.664062 -0.03125 31.976562 0.71875 27.90625 0.71875 C 22.976562 0.71875 18.59375 -0.328125 14.75 -2.421875 C 10.914062 -4.523438 7.914062 -7.523438 5.75 -11.421875 C 3.59375 -15.328125 2.515625 -19.890625 2.515625 -25.109375 C 2.515625 -30.328125 3.578125 -34.882812 5.703125 -38.78125 C 7.835938 -42.6875 10.828125 -45.6875 14.671875 -47.78125 C 18.515625 -49.882812 22.925781 -50.9375 27.90625 -50.9375 C 32.757812 -50.9375 37.078125 -49.914062 40.859375 -47.875 C 44.640625 -45.832031 47.59375 -42.921875 49.71875 -39.140625 C 51.851562 -35.367188 52.921875 -30.960938 52.921875 -25.921875 Z M 37.171875 -29.96875 C 37.171875 -32.613281 36.269531 -34.710938 34.46875 -36.265625 C 32.664062 -37.828125 30.414062 -38.609375 27.71875 -38.609375 C 25.132812 -38.609375 22.957031 -37.859375 21.1875 -36.359375 C 19.425781 -34.859375 18.332031 -32.726562 17.90625 -29.96875 Z M 37.171875 -29.96875 "/></g></g></g><g fill="#ffffff" fill-opacity="1"><g transform="translate(577.618926, 767.292989)"><g/></g></g><g fill="#ffffff" fill-opacity="1"><g transform="translate(596.698904, 767.292989)"><g><path d="M 28.4375 0.71875 C 23.519531 0.71875 19.09375 -0.328125 15.15625 -2.421875 C 11.226562 -4.523438 8.140625 -7.523438 5.890625 -11.421875 C 3.640625 -15.328125 2.515625 -19.890625 2.515625 -25.109375 C 2.515625 -30.265625 3.65625 -34.804688 5.9375 -38.734375 C 8.21875 -42.671875 11.335938 -45.6875 15.296875 -47.78125 C 19.253906 -49.882812 23.695312 -50.9375 28.625 -50.9375 C 33.539062 -50.9375 37.976562 -49.882812 41.9375 -47.78125 C 45.894531 -45.6875 49.015625 -42.671875 51.296875 -38.734375 C 53.578125 -34.804688 54.71875 -30.265625 54.71875 -25.109375 C 54.71875 -19.953125 53.5625 -15.40625 51.25 -11.46875 C 48.945312 -7.539062 45.796875 -4.523438 41.796875 -2.421875 C 37.804688 -0.328125 33.351562 0.71875 28.4375 0.71875 Z M 28.4375 -12.59375 C 31.375 -12.59375 33.878906 -13.671875 35.953125 -15.828125 C 38.023438 -17.992188 39.0625 -21.085938 39.0625 -25.109375 C 39.0625 -29.128906 38.054688 -32.21875 36.046875 -34.375 C 34.035156 -36.539062 31.5625 -37.625 28.625 -37.625 C 25.625 -37.625 23.132812 -36.554688 21.15625 -34.421875 C 19.175781 -32.296875 18.1875 -29.191406 18.1875 -25.109375 C 18.1875 -21.085938 19.160156 -17.992188 21.109375 -15.828125 C 23.054688 -13.671875 25.5 -12.59375 28.4375 -12.59375 Z M 28.4375 -12.59375 "/></g></g></g><g fill="#ffffff" fill-opacity="1"><g transform="translate(654.028857, 767.292989)"><g><path d="M 30.78125 -37.4375 L 22.5 -37.4375 L 22.5 0 L 7.109375 0 L 7.109375 -37.4375 L 1.53125 -37.4375 L 1.53125 -50.21875 L 7.109375 -50.21875 L 7.109375 -51.65625 C 7.109375 -57.84375 8.878906 -62.539062 12.421875 -65.75 C 15.960938 -68.957031 21.148438 -70.5625 27.984375 -70.5625 C 29.128906 -70.5625 29.972656 -70.53125 30.515625 -70.46875 L 30.515625 -57.421875 C 27.566406 -57.597656 25.492188 -57.175781 24.296875 -56.15625 C 23.097656 -55.132812 22.5 -53.304688 22.5 -50.671875 L 22.5 -50.21875 L 30.78125 -50.21875 Z M 30.78125 -37.4375 "/></g></g></g><g fill="#ffffff" fill-opacity="1"><g transform="translate(686.428819, 767.292989)"><g/></g></g><g fill="#ffffff" fill-opacity="1"><g transform="translate(705.508797, 767.292989)"><g><path d="M 2.96875 -31.6875 C 2.96875 -37.925781 4.316406 -43.488281 7.015625 -48.375 C 9.710938 -53.257812 13.476562 -57.066406 18.3125 -59.796875 C 23.144531 -62.535156 28.617188 -63.90625 34.734375 -63.90625 C 42.234375 -63.90625 48.65625 -61.921875 54 -57.953125 C 59.34375 -53.992188 62.910156 -48.597656 64.703125 -41.765625 L 47.796875 -41.765625 C 46.535156 -44.398438 44.75 -46.40625 42.4375 -47.78125 C 40.125 -49.164062 37.5 -49.859375 34.5625 -49.859375 C 29.820312 -49.859375 25.976562 -48.207031 23.03125 -44.90625 C 20.09375 -41.601562 18.625 -37.195312 18.625 -31.6875 C 18.625 -26.164062 20.09375 -21.753906 23.03125 -18.453125 C 25.976562 -15.148438 29.820312 -13.5 34.5625 -13.5 C 37.5 -13.5 40.125 -14.1875 42.4375 -15.5625 C 44.75 -16.945312 46.535156 -18.957031 47.796875 -21.59375 L 64.703125 -21.59375 C 62.910156 -14.757812 59.34375 -9.375 54 -5.4375 C 48.65625 -1.507812 42.234375 0.453125 34.734375 0.453125 C 28.617188 0.453125 23.144531 -0.910156 18.3125 -3.640625 C 13.476562 -6.367188 9.710938 -10.160156 7.015625 -15.015625 C 4.316406 -19.878906 2.96875 -25.4375 2.96875 -31.6875 Z M 2.96875 -31.6875 "/></g></g></g><g fill="#ffffff" fill-opacity="1"><g transform="translate(774.088726, 767.292989)"><g><path d="M 28.4375 0.71875 C 23.519531 0.71875 19.09375 -0.328125 15.15625 -2.421875 C 11.226562 -4.523438 8.140625 -7.523438 5.890625 -11.421875 C 3.640625 -15.328125 2.515625 -19.890625 2.515625 -25.109375 C 2.515625 -30.265625 3.65625 -34.804688 5.9375 -38.734375 C 8.21875 -42.671875 11.335938 -45.6875 15.296875 -47.78125 C 19.253906 -49.882812 23.695312 -50.9375 28.625 -50.9375 C 33.539062 -50.9375 37.976562 -49.882812 41.9375 -47.78125 C 45.894531 -45.6875 49.015625 -42.671875 51.296875 -38.734375 C 53.578125 -34.804688 54.71875 -30.265625 54.71875 -25.109375 C 54.71875 -19.953125 53.5625 -15.40625 51.25 -11.46875 C 48.945312 -7.539062 45.796875 -4.523438 41.796875 -2.421875 C 37.804688 -0.328125 33.351562 0.71875 28.4375 0.71875 Z M 28.4375 -12.59375 C 31.375 -12.59375 33.878906 -13.671875 35.953125 -15.828125 C 38.023438 -17.992188 39.0625 -21.085938 39.0625 -25.109375 C 39.0625 -29.128906 38.054688 -32.21875 36.046875 -34.375 C 34.035156 -36.539062 31.5625 -37.625 28.625 -37.625 C 25.625 -37.625 23.132812 -36.554688 21.15625 -34.421875 C 19.175781 -32.296875 18.1875 -29.191406 18.1875 -25.109375 C 18.1875 -21.085938 19.160156 -17.992188 21.109375 -15.828125 C 23.054688 -13.671875 25.5 -12.59375 28.4375 -12.59375 Z M 28.4375 -12.59375 "/></g></g></g><g fill="#ffffff" fill-opacity="1"><g transform="translate(831.418679, 767.292989)"><g><path d="M 36.1875 -50.765625 C 42.0625 -50.765625 46.753906 -48.859375 50.265625 -45.046875 C 53.773438 -41.234375 55.53125 -36 55.53125 -29.34375 L 55.53125 0 L 40.234375 0 L 40.234375 -27.265625 C 40.234375 -30.628906 39.363281 -33.238281 37.625 -35.09375 C 35.882812 -36.957031 33.539062 -37.890625 30.59375 -37.890625 C 27.65625 -37.890625 25.316406 -36.957031 23.578125 -35.09375 C 21.835938 -33.238281 20.96875 -30.628906 20.96875 -27.265625 L 20.96875 0 L 5.578125 0 L 5.578125 -50.21875 L 20.96875 -50.21875 L 20.96875 -43.5625 C 22.53125 -45.78125 24.628906 -47.535156 27.265625 -48.828125 C 29.910156 -50.117188 32.882812 -50.765625 36.1875 -50.765625 Z M 36.1875 -50.765625 "/></g></g></g><g fill="#ffffff" fill-opacity="1"><g transform="translate(892.078634, 767.292989)"><g><path d="M 2.515625 -25.203125 C 2.515625 -30.359375 3.488281 -34.882812 5.4375 -38.78125 C 7.394531 -42.6875 10.050781 -45.6875 13.40625 -47.78125 C 16.769531 -49.882812 20.519531 -50.9375 24.65625 -50.9375 C 27.957031 -50.9375 30.972656 -50.242188 33.703125 -48.859375 C 36.429688 -47.484375 38.578125 -45.628906 40.140625 -43.296875 L 40.140625 -66.59375 L 55.53125 -66.59375 L 55.53125 0 L 40.140625 0 L 40.140625 -7.203125 C 38.703125 -4.796875 36.644531 -2.875 33.96875 -1.4375 C 31.300781 0 28.195312 0.71875 24.65625 0.71875 C 20.519531 0.71875 16.769531 -0.34375 13.40625 -2.46875 C 10.050781 -4.601562 7.394531 -7.632812 5.4375 -11.5625 C 3.488281 -15.488281 2.515625 -20.035156 2.515625 -25.203125 Z M 40.140625 -25.109375 C 40.140625 -28.953125 39.070312 -31.984375 36.9375 -34.203125 C 34.8125 -36.421875 32.21875 -37.53125 29.15625 -37.53125 C 26.09375 -37.53125 23.5 -36.429688 21.375 -34.234375 C 19.25 -32.046875 18.1875 -29.035156 18.1875 -25.203125 C 18.1875 -21.359375 19.25 -18.3125 21.375 -16.0625 C 23.5 -13.8125 26.09375 -12.6875 29.15625 -12.6875 C 32.21875 -12.6875 34.8125 -13.796875 36.9375 -16.015625 C 39.070312 -18.234375 40.140625 -21.265625 40.140625 -25.109375 Z M 40.140625 -25.109375 "/></g></g></g><g fill="#ffffff" fill-opacity="1"><g transform="translate(953.188525, 767.292989)"><g><path d="M 55.171875 -50.21875 L 55.171875 0 L 39.78125 0 L 39.78125 -6.84375 C 38.21875 -4.625 36.101562 -2.835938 33.4375 -1.484375 C 30.769531 -0.128906 27.8125 0.546875 24.5625 0.546875 C 20.726562 0.546875 17.335938 -0.304688 14.390625 -2.015625 C 11.453125 -3.734375 9.171875 -6.210938 7.546875 -9.453125 C 5.929688 -12.691406 5.125 -16.5 5.125 -20.875 L 5.125 -50.21875 L 20.4375 -50.21875 L 20.4375 -22.953125 C 20.4375 -19.585938 21.304688 -16.972656 23.046875 -15.109375 C 24.785156 -13.253906 27.125 -12.328125 30.0625 -12.328125 C 33.0625 -12.328125 35.429688 -13.253906 37.171875 -15.109375 C 38.910156 -16.972656 39.78125 -19.585938 39.78125 -22.953125 L 39.78125 -50.21875 Z M 55.171875 -50.21875 "/></g></g></g><g fill="#ffffff" fill-opacity="1"><g transform="translate(1013.84848, 767.292989)"><g><path d="M 2.515625 -25.109375 C 2.515625 -30.328125 3.578125 -34.882812 5.703125 -38.78125 C 7.835938 -42.6875 10.8125 -45.6875 14.625 -47.78125 C 18.4375 -49.882812 22.800781 -50.9375 27.71875 -50.9375 C 34.019531 -50.9375 39.285156 -49.285156 43.515625 -45.984375 C 47.742188 -42.691406 50.519531 -38.046875 51.84375 -32.046875 L 35.453125 -32.046875 C 34.078125 -35.878906 31.410156 -37.796875 27.453125 -37.796875 C 24.628906 -37.796875 22.378906 -36.703125 20.703125 -34.515625 C 19.023438 -32.328125 18.1875 -29.191406 18.1875 -25.109375 C 18.1875 -21.023438 19.023438 -17.890625 20.703125 -15.703125 C 22.378906 -13.515625 24.628906 -12.421875 27.453125 -12.421875 C 31.410156 -12.421875 34.078125 -14.34375 35.453125 -18.1875 L 51.84375 -18.1875 C 50.519531 -12.300781 47.726562 -7.675781 43.46875 -4.3125 C 39.207031 -0.957031 33.957031 0.71875 27.71875 0.71875 C 22.800781 0.71875 18.4375 -0.328125 14.625 -2.421875 C 10.8125 -4.523438 7.835938 -7.523438 5.703125 -11.421875 C 3.578125 -15.328125 2.515625 -19.890625 2.515625 -25.109375 Z M 2.515625 -25.109375 "/></g></g></g><g fill="#ffffff" fill-opacity="1"><g transform="translate(1068.298413, 767.292989)"><g><path d="M 33.5625 -13.046875 L 33.5625 0 L 25.734375 0 C 20.160156 0 15.8125 -1.363281 12.6875 -4.09375 C 9.570312 -6.820312 8.015625 -11.273438 8.015625 -17.453125 L 8.015625 -37.4375 L 1.890625 -37.4375 L 1.890625 -50.21875 L 8.015625 -50.21875 L 8.015625 -62.453125 L 23.40625 -62.453125 L 23.40625 -50.21875 L 33.484375 -50.21875 L 33.484375 -37.4375 L 23.40625 -37.4375 L 23.40625 -17.28125 C 23.40625 -15.78125 23.765625 -14.695312 24.484375 -14.03125 C 25.203125 -13.375 26.398438 -13.046875 28.078125 -13.046875 Z M 33.5625 -13.046875 "/></g></g></g></svg>