<svg xmlns="http://www.w3.org/2000/svg" xmlns:xlink="http://www.w3.org/1999/xlink" width="1920" zoomAndPan="magnify" viewBox="0 0 1440 809.999993" height="1080" preserveAspectRatio="xMidYMid meet" version="1.0"><defs><g/><clipPath id="9d312fa589"><rect x="0" width="1440" y="0" height="810"/></clipPath><clipPath id="beb294ec28"><path d="M 56.25 0 L 1383.75 0 C 1398.667969 0 1412.976562 5.925781 1423.523438 16.476562 C 1434.074219 27.023438 1440 41.332031 1440 56.25 L 1440 753.84375 C 1440 768.761719 1434.074219 783.070312 1423.523438 793.617188 C 1412.976562 804.167969 1398.667969 810.09375 1383.75 810.09375 L 56.25 810.09375 C 41.332031 810.09375 27.023438 804.167969 16.476562 793.617188 C 5.925781 783.070312 0 768.761719 0 753.84375 L 0 56.25 C 0 41.332031 5.925781 27.023438 16.476562 16.476562 C 27.023438 5.925781 41.332031 0 56.25 0 Z M 56.25 0 " clip-rule="nonzero"/></clipPath><clipPath id="29d1f98bdb"><path d="M 0 0 L 1440 0 L 1440 810 L 0 810 Z M 0 0 " clip-rule="nonzero"/></clipPath><clipPath id="4ed7816401"><path d="M 56.25 0 L 1383.75 0 C 1398.667969 0 1412.976562 5.925781 1423.523438 16.476562 C 1434.074219 27.023438 1440 41.332031 1440 56.25 L 1440 753.84375 C 1440 768.761719 1434.074219 783.070312 1423.523438 793.617188 C 1412.976562 804.167969 1398.667969 810.09375 1383.75 810.09375 L 56.25 810.09375 C 41.332031 810.09375 27.023438 804.167969 16.476562 793.617188 C 5.925781 783.070312 0 768.761719 0 753.84375 L 0 56.25 C 0 41.332031 5.925781 27.023438 16.476562 16.476562 C 27.023438 5.925781 41.332031 0 56.25 0 Z M 56.25 0 " clip-rule="nonzero"/></clipPath><clipPath id="58c70e8552"><rect x="0" width="1440" y="0" height="810"/></clipPath><clipPath id="ff34fac8e1"><path d="M 549 51.128906 L 892 51.128906 L 892 571.628906 L 549 571.628906 Z M 549 51.128906 " clip-rule="nonzero"/></clipPath></defs><rect x="-144" width="1728" fill="#ffffff" y="-80.999999" height="971.999992" fill-opacity="1"/><rect x="-144" width="1728" fill="#ffffff" y="-80.999999" height="971.999992" fill-opacity="1"/><g transform="matrix(1, 0, 0, 1, 0, 0.000000000000039746)"><g clip-path="url(#9d312fa589)"><path fill="#eae8e5" d="M 0 0 L 1439.648438 0 L 1439.648438 810 L 0 810 Z M 0 0 " fill-opacity="1" fill-rule="nonzero"/></g></g><g clip-path="url(#beb294ec28)"><g transform="matrix(1, 0, 0, 1, 0, 0.000000000000039746)"><g clip-path="url(#58c70e8552)"><g clip-path="url(#29d1f98bdb)"><g clip-path="url(#4ed7816401)"><path fill="#00885f" d="M 0 0 L 1439.816406 0 L 1439.816406 810.09375 L 0 810.09375 Z M 0 0 " fill-opacity="1" fill-rule="nonzero"/></g></g></g></g></g><g clip-path="url(#ff34fac8e1)"><path fill="#ffffff" d="M 599.160156 555.589844 C 599.261719 556.667969 599.464844 557.730469 599.765625 558.773438 C 600.066406 559.816406 600.460938 560.820312 600.945312 561.792969 C 601.433594 562.761719 602.003906 563.679688 602.660156 564.542969 C 603.316406 565.40625 604.046875 566.203125 604.851562 566.933594 C 605.65625 567.660156 606.519531 568.308594 607.445312 568.878906 C 608.367188 569.449219 609.335938 569.925781 610.347656 570.316406 C 611.363281 570.707031 612.402344 571 613.46875 571.195312 C 614.535156 571.394531 615.613281 571.492188 616.695312 571.488281 L 825.128906 571.488281 C 826.214844 571.488281 827.289062 571.386719 828.355469 571.1875 C 829.417969 570.988281 830.457031 570.691406 831.46875 570.300781 C 832.480469 569.910156 833.445312 569.429688 834.371094 568.859375 C 835.292969 568.289062 836.15625 567.640625 836.957031 566.914062 C 837.761719 566.1875 838.492188 565.390625 839.148438 564.527344 C 839.804688 563.664062 840.378906 562.75 840.867188 561.78125 C 841.351562 560.8125 841.75 559.808594 842.050781 558.769531 C 842.355469 557.726562 842.558594 556.667969 842.667969 555.589844 L 879.960938 189.988281 L 561.867188 189.988281 Z M 781.765625 357.851562 L 804.988281 398.132812 C 805.601562 399.167969 806.144531 400.238281 806.613281 401.34375 C 807.082031 402.453125 807.472656 403.585938 807.792969 404.746094 C 808.109375 405.90625 808.347656 407.082031 808.507812 408.273438 C 808.667969 409.464844 808.746094 410.660156 808.746094 411.863281 C 808.746094 413.066406 808.667969 414.261719 808.507812 415.457031 C 808.347656 416.648438 808.109375 417.824219 807.792969 418.980469 C 807.472656 420.140625 807.082031 421.277344 806.613281 422.382812 C 806.144531 423.488281 805.601562 424.5625 804.988281 425.597656 C 804.394531 426.640625 803.734375 427.644531 803.007812 428.601562 C 802.28125 429.558594 801.492188 430.464844 800.644531 431.320312 C 799.796875 432.175781 798.898438 432.96875 797.945312 433.703125 C 796.992188 434.4375 795.996094 435.105469 794.957031 435.710938 C 793.914062 436.3125 792.839844 436.84375 791.726562 437.304688 C 790.613281 437.765625 789.476562 438.148438 788.316406 438.457031 C 787.152344 438.769531 785.976562 439 784.78125 439.152344 C 783.589844 439.304688 782.390625 439.378906 781.1875 439.375 L 759.890625 439.375 C 760.140625 440.125 760.292969 440.890625 760.34375 441.675781 C 760.398438 442.464844 760.355469 443.242188 760.210938 444.019531 C 760.066406 444.792969 759.832031 445.539062 759.5 446.253906 C 759.167969 446.96875 758.753906 447.632812 758.253906 448.242188 C 757.351562 449.398438 756.242188 450.300781 754.921875 450.945312 C 753.601562 451.585938 752.207031 451.90625 750.738281 451.902344 C 749.65625 451.90625 748.605469 451.734375 747.582031 451.390625 C 746.558594 451.042969 745.617188 450.539062 744.761719 449.878906 L 729.441406 437.832031 L 728.765625 437.253906 C 727.589844 436.316406 726.691406 435.160156 726.070312 433.785156 C 725.449219 432.507812 725.128906 431.160156 725.105469 429.738281 L 725.105469 429.546875 C 725.121094 428.304688 725.375 427.117188 725.875 425.980469 C 726.070312 425.382812 726.359375 424.835938 726.742188 424.34375 C 727.019531 423.859375 727.375 423.441406 727.804688 423.089844 C 727.898438 422.800781 728.09375 422.703125 728.1875 422.703125 C 728.550781 422.355469 728.9375 422.035156 729.34375 421.742188 L 745.050781 409.597656 C 745.554688 409.21875 746.09375 408.890625 746.660156 408.613281 C 747.226562 408.335938 747.816406 408.117188 748.429688 407.957031 C 749.039062 407.796875 749.660156 407.699219 750.292969 407.660156 C 750.921875 407.621094 751.550781 407.644531 752.175781 407.730469 C 752.800781 407.8125 753.414062 407.960938 754.011719 408.164062 C 754.609375 408.371094 755.179688 408.628906 755.726562 408.949219 C 756.273438 409.265625 756.78125 409.632812 757.257812 410.050781 C 757.730469 410.46875 758.160156 410.929688 758.542969 411.429688 C 759.023438 412.03125 759.421875 412.683594 759.738281 413.382812 C 760.054688 414.085938 760.277344 414.8125 760.414062 415.570312 C 760.546875 416.328125 760.585938 417.089844 760.53125 417.855469 C 760.476562 418.625 760.328125 419.371094 760.085938 420.101562 L 781.1875 420.101562 C 781.914062 420.117188 782.628906 420.03125 783.335938 419.847656 C 784.039062 419.667969 784.703125 419.394531 785.332031 419.027344 C 785.960938 418.664062 786.53125 418.21875 787.035156 417.699219 C 787.542969 417.175781 787.972656 416.597656 788.320312 415.960938 C 788.679688 415.335938 788.953125 414.679688 789.136719 413.984375 C 789.324219 413.289062 789.417969 412.582031 789.417969 411.863281 C 789.417969 411.144531 789.324219 410.4375 789.136719 409.742188 C 788.953125 409.050781 788.679688 408.390625 788.320312 407.769531 L 765.097656 367.488281 C 764.773438 366.945312 764.507812 366.378906 764.296875 365.78125 C 764.085938 365.1875 763.9375 364.574219 763.851562 363.949219 C 763.765625 363.324219 763.738281 362.699219 763.777344 362.066406 C 763.816406 361.4375 763.914062 360.816406 764.074219 360.207031 C 764.238281 359.597656 764.457031 359.007812 764.738281 358.441406 C 765.015625 357.875 765.347656 357.34375 765.734375 356.84375 C 766.117188 356.34375 766.550781 355.886719 767.027344 355.472656 C 767.503906 355.058594 768.015625 354.695312 768.566406 354.382812 C 769.113281 354.0625 769.683594 353.796875 770.285156 353.589844 C 770.882812 353.378906 771.496094 353.234375 772.125 353.144531 C 772.753906 353.058594 773.382812 353.035156 774.015625 353.074219 C 774.652344 353.109375 775.273438 353.210938 775.886719 353.371094 C 776.5 353.53125 777.09375 353.753906 777.664062 354.03125 C 778.234375 354.308594 778.769531 354.640625 779.273438 355.023438 C 779.777344 355.410156 780.242188 355.839844 780.660156 356.316406 C 781.078125 356.792969 781.449219 357.304688 781.765625 357.851562 Z M 673.839844 333.953125 L 697.160156 293.675781 C 697.757812 292.632812 698.417969 291.632812 699.144531 290.679688 C 699.871094 289.722656 700.660156 288.820312 701.503906 287.96875 C 702.351562 287.117188 703.25 286.324219 704.199219 285.59375 C 705.148438 284.859375 706.144531 284.191406 707.183594 283.589844 C 708.222656 282.988281 709.292969 282.457031 710.402344 281.996094 C 711.511719 281.535156 712.644531 281.148438 713.804688 280.835938 C 714.964844 280.523438 716.136719 280.289062 717.328125 280.132812 C 718.519531 279.972656 719.714844 279.894531 720.914062 279.894531 C 722.113281 279.894531 723.308594 279.972656 724.5 280.132812 C 725.6875 280.289062 726.863281 280.523438 728.023438 280.835938 C 729.183594 281.148438 730.316406 281.535156 731.425781 281.996094 C 732.53125 282.457031 733.605469 282.988281 734.644531 283.589844 C 735.683594 284.191406 736.675781 284.859375 737.628906 285.59375 C 738.578125 286.324219 739.476562 287.117188 740.320312 287.96875 C 741.167969 288.820312 741.953125 289.722656 742.683594 290.679688 C 743.410156 291.632812 744.070312 292.632812 744.667969 293.675781 L 755.363281 312.273438 C 755.703125 311.878906 756.070312 311.511719 756.46875 311.175781 C 756.863281 310.84375 757.285156 310.539062 757.730469 310.273438 C 758.179688 310.007812 758.644531 309.777344 759.125 309.585938 C 759.609375 309.390625 760.105469 309.238281 760.613281 309.128906 C 761.121094 309.015625 761.636719 308.945312 762.152344 308.917969 C 762.671875 308.886719 763.191406 308.902344 763.707031 308.957031 C 764.226562 309.011719 764.734375 309.109375 765.238281 309.246094 C 765.738281 309.382812 766.226562 309.558594 766.699219 309.777344 C 767.171875 309.992188 767.625 310.246094 768.054688 310.535156 C 768.488281 310.824219 768.894531 311.144531 769.273438 311.5 C 769.65625 311.855469 770.003906 312.238281 770.320312 312.652344 C 770.640625 313.0625 770.921875 313.496094 771.171875 313.953125 C 771.417969 314.410156 771.628906 314.886719 771.796875 315.378906 C 771.96875 315.867188 772.097656 316.371094 772.1875 316.882812 C 772.277344 317.394531 772.328125 317.910156 772.332031 318.429688 C 772.339844 318.949219 772.304688 319.46875 772.226562 319.980469 L 769.335938 340.121094 C 769.238281 340.507812 769.046875 340.796875 768.949219 341.183594 L 768.949219 341.277344 C 768.855469 342.113281 768.535156 342.855469 767.988281 343.496094 C 767.878906 343.839844 767.6875 344.128906 767.410156 344.359375 C 767.535156 344.183594 767.628906 343.992188 767.699219 343.785156 C 767.410156 344.453125 766.992188 345.03125 766.445312 345.519531 C 766.75 345.308594 767.007812 345.054688 767.214844 344.746094 C 766.871094 345.265625 766.457031 345.714844 765.964844 346.097656 C 766.152344 345.925781 766.3125 345.734375 766.445312 345.519531 C 765.828125 346.109375 765.15625 346.625 764.421875 347.058594 C 763.003906 347.929688 761.460938 348.378906 759.796875 348.410156 C 759.148438 348.386719 758.507812 348.324219 757.867188 348.214844 C 757.234375 348.097656 756.625 347.90625 756.039062 347.636719 L 754.6875 347.058594 L 737.246094 339.832031 C 736.316406 339.441406 735.46875 338.914062 734.699219 338.257812 C 733.933594 337.597656 733.285156 336.839844 732.753906 335.976562 C 732.226562 335.117188 731.839844 334.195312 731.597656 333.214844 C 731.355469 332.234375 731.269531 331.238281 731.339844 330.230469 C 731.40625 329.222656 731.628906 328.25 732.003906 327.308594 C 732.375 326.371094 732.882812 325.511719 733.523438 324.730469 C 734.167969 323.949219 734.914062 323.285156 735.761719 322.738281 C 736.609375 322.191406 737.523438 321.785156 738.5 321.523438 L 727.996094 303.3125 C 727.644531 302.683594 727.214844 302.113281 726.707031 301.597656 C 726.203125 301.082031 725.636719 300.644531 725.015625 300.28125 C 724.394531 299.914062 723.734375 299.640625 723.039062 299.449219 C 722.34375 299.261719 721.632812 299.167969 720.914062 299.167969 C 720.191406 299.167969 719.484375 299.261719 718.789062 299.449219 C 718.09375 299.640625 717.433594 299.914062 716.8125 300.28125 C 716.1875 300.644531 715.625 301.082031 715.117188 301.597656 C 714.613281 302.113281 714.183594 302.683594 713.832031 303.3125 L 690.605469 343.589844 C 690.289062 344.132812 689.917969 344.640625 689.5 345.113281 C 689.078125 345.585938 688.617188 346.011719 688.117188 346.390625 C 687.613281 346.773438 687.078125 347.101562 686.511719 347.378906 C 685.945312 347.652344 685.355469 347.871094 684.746094 348.035156 C 684.136719 348.195312 683.515625 348.296875 682.886719 348.335938 C 682.257812 348.375 681.632812 348.355469 681.007812 348.269531 C 680.378906 348.1875 679.769531 348.046875 679.171875 347.84375 C 678.574219 347.640625 678.003906 347.382812 677.457031 347.070312 C 676.910156 346.753906 676.398438 346.390625 675.921875 345.976562 C 675.445312 345.5625 675.015625 345.105469 674.628906 344.605469 C 674.242188 344.109375 673.910156 343.578125 673.625 343.011719 C 673.34375 342.449219 673.121094 341.863281 672.953125 341.253906 C 672.785156 340.648438 672.675781 340.027344 672.628906 339.398438 C 672.585938 338.769531 672.597656 338.144531 672.675781 337.515625 C 672.75 336.890625 672.886719 336.277344 673.082031 335.679688 C 673.28125 335.078125 673.53125 334.503906 673.839844 333.953125 Z M 636.835938 398.132812 L 647.4375 379.628906 C 646.636719 379.503906 645.863281 379.273438 645.125 378.945312 C 644.382812 378.617188 643.695312 378.199219 643.0625 377.691406 C 642.429688 377.183594 641.871094 376.605469 641.386719 375.957031 C 640.902344 375.304688 640.511719 374.601562 640.210938 373.847656 C 639.976562 373.261719 639.804688 372.65625 639.691406 372.03125 C 639.578125 371.410156 639.527344 370.78125 639.535156 370.148438 C 639.546875 369.515625 639.617188 368.890625 639.75 368.273438 C 639.882812 367.652344 640.074219 367.054688 640.324219 366.472656 C 640.574219 365.890625 640.878906 365.339844 641.238281 364.816406 C 641.59375 364.296875 642 363.816406 642.453125 363.375 C 642.90625 362.933594 643.398438 362.539062 643.929688 362.191406 C 644.460938 361.847656 645.019531 361.558594 645.605469 361.320312 L 664.589844 353.710938 C 664.992188 353.535156 665.410156 353.40625 665.84375 353.324219 C 667.457031 352.914062 669.0625 352.945312 670.660156 353.421875 C 671.519531 353.597656 672.324219 353.921875 673.070312 354.382812 C 674.328125 355.152344 675.359375 356.152344 676.167969 357.382812 C 676.980469 358.613281 677.488281 359.960938 677.695312 361.417969 L 677.984375 363.441406 L 680.296875 381.65625 C 680.382812 382.28125 680.402344 382.910156 680.363281 383.542969 C 680.324219 384.171875 680.222656 384.792969 680.058594 385.40625 C 679.898438 386.015625 679.675781 386.605469 679.398438 387.171875 C 679.117188 387.738281 678.785156 388.273438 678.398438 388.777344 C 678.015625 389.277344 677.585938 389.738281 677.109375 390.152344 C 676.632812 390.570312 676.121094 390.933594 675.570312 391.25 C 675.023438 391.566406 674.449219 391.824219 673.851562 392.023438 C 673.25 392.226562 672.636719 392.367188 672.007812 392.445312 C 671.59375 392.527344 671.179688 392.558594 670.757812 392.542969 C 669.472656 392.527344 668.238281 392.265625 667.054688 391.765625 C 665.871094 391.265625 664.824219 390.5625 663.914062 389.652344 L 653.507812 407.769531 C 653.328125 408.082031 653.171875 408.402344 653.035156 408.734375 C 652.898438 409.066406 652.785156 409.40625 652.691406 409.753906 C 652.601562 410.101562 652.53125 410.453125 652.484375 410.808594 C 652.441406 411.164062 652.417969 411.519531 652.417969 411.878906 C 652.417969 412.238281 652.441406 412.597656 652.492188 412.953125 C 652.539062 413.308594 652.609375 413.660156 652.703125 414.007812 C 652.796875 414.351562 652.910156 414.691406 653.046875 415.023438 C 653.1875 415.355469 653.34375 415.675781 653.523438 415.988281 C 653.703125 416.296875 653.902344 416.597656 654.121094 416.882812 C 654.339844 417.164062 654.578125 417.433594 654.832031 417.6875 C 655.085938 417.941406 655.355469 418.179688 655.636719 418.398438 C 655.921875 418.617188 656.222656 418.816406 656.53125 418.996094 C 656.84375 419.175781 657.164062 419.335938 657.496094 419.472656 C 657.828125 419.609375 658.167969 419.726562 658.511719 419.820312 C 658.859375 419.914062 659.210938 419.984375 659.566406 420.03125 C 659.921875 420.078125 660.28125 420.101562 660.640625 420.101562 L 707.085938 420.101562 C 707.71875 420.101562 708.34375 420.164062 708.964844 420.289062 C 709.585938 420.410156 710.1875 420.59375 710.773438 420.835938 C 711.359375 421.078125 711.914062 421.375 712.441406 421.726562 C 712.964844 422.078125 713.453125 422.476562 713.898438 422.925781 C 714.347656 423.371094 714.746094 423.859375 715.097656 424.386719 C 715.449219 424.910156 715.746094 425.46875 715.988281 426.050781 C 716.230469 426.636719 716.414062 427.238281 716.535156 427.859375 C 716.660156 428.480469 716.722656 429.105469 716.722656 429.738281 C 716.722656 430.371094 716.660156 431 716.535156 431.621094 C 716.414062 432.238281 716.230469 432.84375 715.988281 433.425781 C 715.746094 434.011719 715.449219 434.566406 715.097656 435.09375 C 714.746094 435.617188 714.347656 436.105469 713.898438 436.554688 C 713.453125 437 712.964844 437.398438 712.441406 437.75 C 711.914062 438.101562 711.359375 438.398438 710.773438 438.640625 C 710.1875 438.882812 709.585938 439.066406 708.964844 439.191406 C 708.34375 439.3125 707.71875 439.375 707.085938 439.375 L 660.636719 439.375 C 660.039062 439.375 659.441406 439.355469 658.839844 439.3125 C 658.242188 439.273438 657.644531 439.214844 657.050781 439.136719 C 656.457031 439.058594 655.867188 438.957031 655.277344 438.839844 C 654.691406 438.722656 654.105469 438.585938 653.527344 438.429688 C 652.949219 438.273438 652.375 438.101562 651.808594 437.90625 C 651.238281 437.714844 650.679688 437.5 650.125 437.273438 C 649.570312 437.042969 649.023438 436.792969 648.488281 436.527344 C 647.949219 436.261719 647.421875 435.980469 646.902344 435.679688 C 646.382812 435.378906 645.875 435.0625 645.375 434.726562 C 644.878906 434.394531 644.390625 434.046875 643.914062 433.679688 C 643.4375 433.3125 642.976562 432.933594 642.523438 432.539062 C 642.074219 432.140625 641.636719 431.734375 641.214844 431.308594 C 640.789062 430.882812 640.378906 430.445312 639.984375 429.996094 C 639.589844 429.542969 639.210938 429.082031 638.84375 428.605469 C 638.480469 428.128906 638.128906 427.640625 637.796875 427.144531 C 637.464844 426.644531 637.148438 426.136719 636.847656 425.617188 C 636.546875 425.097656 636.265625 424.566406 636 424.03125 C 635.734375 423.492188 635.488281 422.945312 635.257812 422.390625 C 635.03125 421.835938 634.816406 421.277344 634.625 420.707031 C 634.433594 420.140625 634.257812 419.566406 634.101562 418.988281 C 633.949219 418.410156 633.8125 417.824219 633.695312 417.238281 C 633.578125 416.648438 633.480469 416.058594 633.402344 415.460938 C 633.324219 414.867188 633.265625 414.269531 633.222656 413.671875 C 633.183594 413.074219 633.164062 412.476562 633.164062 411.875 C 633.164062 411.277344 633.183594 410.675781 633.222656 410.078125 C 633.261719 409.480469 633.320312 408.882812 633.398438 408.289062 C 633.476562 407.695312 633.574219 407.101562 633.691406 406.515625 C 633.808594 405.925781 633.941406 405.34375 634.097656 404.761719 C 634.253906 404.183594 634.425781 403.609375 634.617188 403.042969 C 634.808594 402.472656 635.019531 401.910156 635.25 401.359375 C 635.480469 400.804688 635.726562 400.257812 635.992188 399.71875 C 636.253906 399.179688 636.539062 398.652344 636.835938 398.132812 Z M 667.769531 106.441406 L 648.496094 106.441406 L 648.496094 81.773438 C 648.5 80.769531 648.550781 79.769531 648.652344 78.773438 C 648.75 77.773438 648.902344 76.785156 649.097656 75.800781 C 649.296875 74.816406 649.539062 73.84375 649.832031 72.886719 C 650.125 71.925781 650.464844 70.984375 650.851562 70.058594 C 651.234375 69.132812 651.664062 68.226562 652.136719 67.34375 C 652.609375 66.460938 653.128906 65.601562 653.683594 64.765625 C 654.242188 63.933594 654.839844 63.128906 655.476562 62.355469 C 656.113281 61.578125 656.785156 60.835938 657.496094 60.128906 C 658.203125 59.417969 658.945312 58.746094 659.722656 58.109375 C 660.496094 57.472656 661.300781 56.875 662.132812 56.316406 C 662.96875 55.761719 663.824219 55.246094 664.710938 54.769531 C 665.59375 54.296875 666.5 53.867188 667.425781 53.484375 C 668.351562 53.097656 669.292969 52.757812 670.253906 52.464844 C 671.210938 52.171875 672.183594 51.929688 673.167969 51.730469 C 674.152344 51.535156 675.140625 51.382812 676.140625 51.285156 C 677.136719 51.183594 678.136719 51.132812 679.140625 51.128906 L 762.6875 51.128906 C 763.691406 51.132812 764.691406 51.183594 765.6875 51.285156 C 766.6875 51.382812 767.675781 51.535156 768.660156 51.730469 C 769.644531 51.929688 770.613281 52.175781 771.574219 52.464844 C 772.53125 52.757812 773.476562 53.097656 774.402344 53.484375 C 775.328125 53.867188 776.234375 54.296875 777.117188 54.769531 C 778 55.246094 778.859375 55.761719 779.691406 56.316406 C 780.527344 56.875 781.332031 57.472656 782.105469 58.109375 C 782.882812 58.746094 783.625 59.417969 784.332031 60.128906 C 785.042969 60.835938 785.714844 61.578125 786.351562 62.355469 C 786.988281 63.128906 787.585938 63.933594 788.140625 64.765625 C 788.699219 65.601562 789.214844 66.460938 789.6875 67.34375 C 790.164062 68.226562 790.59375 69.132812 790.976562 70.058594 C 791.363281 70.984375 791.699219 71.925781 791.992188 72.886719 C 792.285156 73.84375 792.53125 74.816406 792.730469 75.800781 C 792.925781 76.785156 793.074219 77.773438 793.175781 78.773438 C 793.277344 79.769531 793.328125 80.769531 793.332031 81.773438 L 793.332031 106.441406 L 774.058594 106.441406 L 774.058594 81.773438 C 774.054688 81.027344 773.980469 80.289062 773.835938 79.554688 C 773.6875 78.824219 773.472656 78.113281 773.1875 77.425781 C 772.898438 76.734375 772.550781 76.082031 772.136719 75.460938 C 771.71875 74.839844 771.25 74.265625 770.722656 73.738281 C 770.195312 73.210938 769.621094 72.738281 769 72.324219 C 768.378906 71.910156 767.722656 71.558594 767.035156 71.273438 C 766.347656 70.988281 765.636719 70.769531 764.902344 70.625 C 764.171875 70.476562 763.433594 70.402344 762.6875 70.402344 L 679.140625 70.402344 C 678.394531 70.402344 677.65625 70.476562 676.921875 70.625 C 676.191406 70.769531 675.480469 70.988281 674.792969 71.273438 C 674.101562 71.558594 673.449219 71.910156 672.828125 72.324219 C 672.207031 72.738281 671.632812 73.210938 671.105469 73.738281 C 670.578125 74.265625 670.105469 74.839844 669.691406 75.460938 C 669.277344 76.082031 668.925781 76.734375 668.640625 77.425781 C 668.355469 78.113281 668.136719 78.824219 667.992188 79.554688 C 667.84375 80.289062 667.769531 81.027344 667.769531 81.773438 Z M 768.757812 341.472656 L 768.949219 341.277344 C 768.761719 341.964844 768.46875 342.609375 768.082031 343.207031 C 768.351562 342.644531 768.574219 342.066406 768.757812 341.472656 Z M 891.621094 168.210938 C 891.613281 168.539062 891.546875 168.859375 891.417969 169.164062 C 891.289062 169.464844 891.105469 169.734375 890.875 169.96875 C 890.640625 170.203125 890.371094 170.382812 890.066406 170.511719 C 889.761719 170.644531 889.445312 170.710938 889.113281 170.714844 L 551.84375 170.714844 C 551.507812 170.714844 551.179688 170.652344 550.867188 170.523438 C 550.554688 170.390625 550.277344 170.207031 550.039062 169.96875 C 549.800781 169.730469 549.613281 169.453125 549.484375 169.140625 C 549.355469 168.828125 549.292969 168.5 549.292969 168.164062 C 549.292969 167.824219 549.355469 167.496094 549.484375 167.183594 C 549.613281 166.871094 549.800781 166.597656 550.039062 166.355469 C 550.277344 166.117188 550.554688 165.933594 550.867188 165.804688 C 551.179688 165.671875 551.507812 165.609375 551.84375 165.609375 L 889.113281 165.609375 C 889.453125 165.617188 889.777344 165.691406 890.085938 165.828125 C 890.394531 165.960938 890.667969 166.152344 890.902344 166.394531 C 891.136719 166.640625 891.316406 166.917969 891.441406 167.230469 C 891.5625 167.546875 891.625 167.871094 891.621094 168.210938 Z M 891.621094 131.6875 L 891.621094 140.457031 C 891.617188 140.847656 891.578125 141.234375 891.496094 141.613281 C 891.417969 141.996094 891.304688 142.363281 891.152344 142.722656 C 891 143.082031 890.816406 143.421875 890.597656 143.742188 C 890.378906 144.066406 890.128906 144.363281 889.851562 144.636719 C 889.574219 144.910156 889.273438 145.152344 888.945312 145.367188 C 888.621094 145.578125 888.277344 145.757812 887.917969 145.90625 C 887.558594 146.050781 887.183594 146.160156 886.804688 146.230469 C 886.421875 146.304688 886.035156 146.339844 885.644531 146.335938 L 555.3125 146.335938 C 554.925781 146.339844 554.539062 146.304688 554.15625 146.230469 C 553.773438 146.160156 553.402344 146.050781 553.042969 145.90625 C 552.679688 145.757812 552.335938 145.578125 552.011719 145.367188 C 551.6875 145.152344 551.386719 144.910156 551.109375 144.636719 C 550.832031 144.363281 550.582031 144.066406 550.363281 143.742188 C 550.144531 143.421875 549.960938 143.082031 549.808594 142.722656 C 549.65625 142.363281 549.539062 141.996094 549.460938 141.613281 C 549.382812 141.234375 549.34375 140.847656 549.339844 140.457031 L 549.339844 131.6875 C 549.339844 131.296875 549.382812 130.910156 549.460938 130.527344 C 549.535156 130.140625 549.652344 129.769531 549.800781 129.40625 C 549.953125 129.046875 550.136719 128.703125 550.355469 128.375 C 550.574219 128.050781 550.820312 127.75 551.097656 127.472656 C 551.375 127.195312 551.675781 126.949219 552 126.730469 C 552.328125 126.511719 552.671875 126.328125 553.03125 126.175781 C 553.394531 126.027344 553.765625 125.914062 554.152344 125.835938 C 554.535156 125.757812 554.921875 125.714844 555.3125 125.714844 L 885.644531 125.714844 C 886.039062 125.714844 886.425781 125.757812 886.808594 125.835938 C 887.191406 125.914062 887.566406 126.027344 887.925781 126.175781 C 888.289062 126.328125 888.632812 126.511719 888.957031 126.730469 C 889.285156 126.949219 889.585938 127.195312 889.863281 127.472656 C 890.136719 127.75 890.386719 128.050781 890.605469 128.375 C 890.820312 128.703125 891.007812 129.046875 891.15625 129.40625 C 891.308594 129.769531 891.421875 130.140625 891.5 130.527344 C 891.578125 130.910156 891.617188 131.296875 891.621094 131.6875 Z M 891.621094 131.6875 " fill-opacity="1" fill-rule="nonzero"/></g><g fill="#ffffff" fill-opacity="1"><g transform="translate(246.462884, 722.292992)"><g><path d="M 92.515625 -63.1875 L 76.046875 0 L 57.421875 0 L 47.34375 -41.578125 L 36.90625 0 L 18.265625 0 L 2.25 -63.1875 L 18.71875 -63.1875 L 27.8125 -17.1875 L 39.0625 -63.1875 L 55.984375 -63.1875 L 66.78125 -17.1875 L 75.953125 -63.1875 Z M 92.515625 -63.1875 "/></g></g></g><g fill="#ffffff" fill-opacity="1"><g transform="translate(341.142792, 722.292992)"><g><path d="M 2.515625 -25.203125 C 2.515625 -30.359375 3.488281 -34.882812 5.4375 -38.78125 C 7.394531 -42.6875 10.050781 -45.6875 13.40625 -47.78125 C 16.769531 -49.882812 20.519531 -50.9375 24.65625 -50.9375 C 28.195312 -50.9375 31.300781 -50.21875 33.96875 -48.78125 C 36.644531 -47.34375 38.703125 -45.453125 40.140625 -43.109375 L 40.140625 -50.21875 L 55.53125 -50.21875 L 55.53125 0 L 40.140625 0 L 40.140625 -7.109375 C 38.640625 -4.765625 36.550781 -2.875 33.875 -1.4375 C 31.207031 0 28.101562 0.71875 24.5625 0.71875 C 20.488281 0.71875 16.769531 -0.34375 13.40625 -2.46875 C 10.050781 -4.601562 7.394531 -7.632812 5.4375 -11.5625 C 3.488281 -15.488281 2.515625 -20.035156 2.515625 -25.203125 Z M 40.140625 -25.109375 C 40.140625 -28.953125 39.070312 -31.984375 36.9375 -34.203125 C 34.8125 -36.421875 32.21875 -37.53125 29.15625 -37.53125 C 26.09375 -37.53125 23.5 -36.429688 21.375 -34.234375 C 19.25 -32.046875 18.1875 -29.035156 18.1875 -25.203125 C 18.1875 -21.359375 19.25 -18.3125 21.375 -16.0625 C 23.5 -13.8125 26.09375 -12.6875 29.15625 -12.6875 C 32.21875 -12.6875 34.8125 -13.796875 36.9375 -16.015625 C 39.070312 -18.234375 40.140625 -21.265625 40.140625 -25.109375 Z M 40.140625 -25.109375 "/></g></g></g><g fill="#ffffff" fill-opacity="1"><g transform="translate(402.252728, 722.292992)"><g><path d="M 26.015625 0.71875 C 21.628906 0.71875 17.726562 -0.03125 14.3125 -1.53125 C 10.894531 -3.03125 8.191406 -5.082031 6.203125 -7.6875 C 4.222656 -10.300781 3.113281 -13.226562 2.875 -16.46875 L 18.09375 -16.46875 C 18.269531 -14.726562 19.078125 -13.316406 20.515625 -12.234375 C 21.960938 -11.160156 23.734375 -10.625 25.828125 -10.625 C 27.742188 -10.625 29.226562 -11 30.28125 -11.75 C 31.332031 -12.5 31.859375 -13.472656 31.859375 -14.671875 C 31.859375 -16.109375 31.109375 -17.171875 29.609375 -17.859375 C 28.109375 -18.554688 25.675781 -19.320312 22.3125 -20.15625 C 18.71875 -21 15.71875 -21.882812 13.3125 -22.8125 C 10.914062 -23.738281 8.847656 -25.207031 7.109375 -27.21875 C 5.367188 -29.226562 4.5 -31.945312 4.5 -35.375 C 4.5 -38.25 5.289062 -40.867188 6.875 -43.234375 C 8.46875 -45.609375 10.8125 -47.484375 13.90625 -48.859375 C 17 -50.242188 20.675781 -50.9375 24.9375 -50.9375 C 31.226562 -50.9375 36.1875 -49.375 39.8125 -46.25 C 43.445312 -43.132812 45.535156 -39 46.078125 -33.84375 L 31.859375 -33.84375 C 31.617188 -35.582031 30.851562 -36.960938 29.5625 -37.984375 C 28.269531 -39.003906 26.578125 -39.515625 24.484375 -39.515625 C 22.679688 -39.515625 21.300781 -39.164062 20.34375 -38.46875 C 19.382812 -37.78125 18.90625 -36.835938 18.90625 -35.640625 C 18.90625 -34.203125 19.664062 -33.117188 21.1875 -32.390625 C 22.71875 -31.671875 25.101562 -30.953125 28.34375 -30.234375 C 32.070312 -29.273438 35.101562 -28.332031 37.4375 -27.40625 C 39.78125 -26.476562 41.835938 -24.976562 43.609375 -22.90625 C 45.378906 -20.832031 46.289062 -18.054688 46.34375 -14.578125 C 46.34375 -11.640625 45.519531 -9.015625 43.875 -6.703125 C 42.226562 -4.390625 39.859375 -2.570312 36.765625 -1.25 C 33.671875 0.0585938 30.085938 0.71875 26.015625 0.71875 Z M 26.015625 0.71875 "/></g></g></g><g fill="#ffffff" fill-opacity="1"><g transform="translate(452.472685, 722.292992)"><g><path d="M 33.5625 -13.046875 L 33.5625 0 L 25.734375 0 C 20.160156 0 15.8125 -1.363281 12.6875 -4.09375 C 9.570312 -6.820312 8.015625 -11.273438 8.015625 -17.453125 L 8.015625 -37.4375 L 1.890625 -37.4375 L 1.890625 -50.21875 L 8.015625 -50.21875 L 8.015625 -62.453125 L 23.40625 -62.453125 L 23.40625 -50.21875 L 33.484375 -50.21875 L 33.484375 -37.4375 L 23.40625 -37.4375 L 23.40625 -17.28125 C 23.40625 -15.78125 23.765625 -14.695312 24.484375 -14.03125 C 25.203125 -13.375 26.398438 -13.046875 28.078125 -13.046875 Z M 33.5625 -13.046875 "/></g></g></g><g fill="#ffffff" fill-opacity="1"><g transform="translate(489.012638, 722.292992)"><g><path d="M 52.921875 -25.921875 C 52.921875 -24.484375 52.832031 -22.984375 52.65625 -21.421875 L 17.8125 -21.421875 C 18.0625 -18.296875 19.066406 -15.910156 20.828125 -14.265625 C 22.597656 -12.617188 24.773438 -11.796875 27.359375 -11.796875 C 31.203125 -11.796875 33.875 -13.414062 35.375 -16.65625 L 51.75 -16.65625 C 50.90625 -13.351562 49.390625 -10.378906 47.203125 -7.734375 C 45.015625 -5.097656 42.269531 -3.03125 38.96875 -1.53125 C 35.664062 -0.03125 31.976562 0.71875 27.90625 0.71875 C 22.976562 0.71875 18.59375 -0.328125 14.75 -2.421875 C 10.914062 -4.523438 7.914062 -7.523438 5.75 -11.421875 C 3.59375 -15.328125 2.515625 -19.890625 2.515625 -25.109375 C 2.515625 -30.328125 3.578125 -34.882812 5.703125 -38.78125 C 7.835938 -42.6875 10.828125 -45.6875 14.671875 -47.78125 C 18.515625 -49.882812 22.925781 -50.9375 27.90625 -50.9375 C 32.757812 -50.9375 37.078125 -49.914062 40.859375 -47.875 C 44.640625 -45.832031 47.59375 -42.921875 49.71875 -39.140625 C 51.851562 -35.367188 52.921875 -30.960938 52.921875 -25.921875 Z M 37.171875 -29.96875 C 37.171875 -32.613281 36.269531 -34.710938 34.46875 -36.265625 C 32.664062 -37.828125 30.414062 -38.609375 27.71875 -38.609375 C 25.132812 -38.609375 22.957031 -37.859375 21.1875 -36.359375 C 19.425781 -34.859375 18.332031 -32.726562 17.90625 -29.96875 Z M 37.171875 -29.96875 "/></g></g></g><g fill="#ffffff" fill-opacity="1"><g transform="translate(544.452599, 722.292992)"><g/></g></g><g fill="#ffffff" fill-opacity="1"><g transform="translate(563.532554, 722.292992)"><g><path d="M 77.125 -63.1875 L 77.125 0 L 61.734375 0 L 61.734375 -37.890625 L 47.609375 0 L 35.1875 0 L 20.96875 -37.984375 L 20.96875 0 L 5.578125 0 L 5.578125 -63.1875 L 23.765625 -63.1875 L 41.484375 -19.4375 L 59.046875 -63.1875 Z M 77.125 -63.1875 "/></g></g></g><g fill="#ffffff" fill-opacity="1"><g transform="translate(646.152484, 722.292992)"><g><path d="M 2.515625 -25.203125 C 2.515625 -30.359375 3.488281 -34.882812 5.4375 -38.78125 C 7.394531 -42.6875 10.050781 -45.6875 13.40625 -47.78125 C 16.769531 -49.882812 20.519531 -50.9375 24.65625 -50.9375 C 28.195312 -50.9375 31.300781 -50.21875 33.96875 -48.78125 C 36.644531 -47.34375 38.703125 -45.453125 40.140625 -43.109375 L 40.140625 -50.21875 L 55.53125 -50.21875 L 55.53125 0 L 40.140625 0 L 40.140625 -7.109375 C 38.640625 -4.765625 36.550781 -2.875 33.875 -1.4375 C 31.207031 0 28.101562 0.71875 24.5625 0.71875 C 20.488281 0.71875 16.769531 -0.34375 13.40625 -2.46875 C 10.050781 -4.601562 7.394531 -7.632812 5.4375 -11.5625 C 3.488281 -15.488281 2.515625 -20.035156 2.515625 -25.203125 Z M 40.140625 -25.109375 C 40.140625 -28.953125 39.070312 -31.984375 36.9375 -34.203125 C 34.8125 -36.421875 32.21875 -37.53125 29.15625 -37.53125 C 26.09375 -37.53125 23.5 -36.429688 21.375 -34.234375 C 19.25 -32.046875 18.1875 -29.035156 18.1875 -25.203125 C 18.1875 -21.359375 19.25 -18.3125 21.375 -16.0625 C 23.5 -13.8125 26.09375 -12.6875 29.15625 -12.6875 C 32.21875 -12.6875 34.8125 -13.796875 36.9375 -16.015625 C 39.070312 -18.234375 40.140625 -21.265625 40.140625 -25.109375 Z M 40.140625 -25.109375 "/></g></g></g><g fill="#ffffff" fill-opacity="1"><g transform="translate(707.26242, 722.292992)"><g><path d="M 36.1875 -50.765625 C 42.0625 -50.765625 46.753906 -48.859375 50.265625 -45.046875 C 53.773438 -41.234375 55.53125 -36 55.53125 -29.34375 L 55.53125 0 L 40.234375 0 L 40.234375 -27.265625 C 40.234375 -30.628906 39.363281 -33.238281 37.625 -35.09375 C 35.882812 -36.957031 33.539062 -37.890625 30.59375 -37.890625 C 27.65625 -37.890625 25.316406 -36.957031 23.578125 -35.09375 C 21.835938 -33.238281 20.96875 -30.628906 20.96875 -27.265625 L 20.96875 0 L 5.578125 0 L 5.578125 -50.21875 L 20.96875 -50.21875 L 20.96875 -43.5625 C 22.53125 -45.78125 24.628906 -47.535156 27.265625 -48.828125 C 29.910156 -50.117188 32.882812 -50.765625 36.1875 -50.765625 Z M 36.1875 -50.765625 "/></g></g></g><g fill="#ffffff" fill-opacity="1"><g transform="translate(767.922375, 722.292992)"><g><path d="M 2.515625 -25.203125 C 2.515625 -30.359375 3.488281 -34.882812 5.4375 -38.78125 C 7.394531 -42.6875 10.050781 -45.6875 13.40625 -47.78125 C 16.769531 -49.882812 20.519531 -50.9375 24.65625 -50.9375 C 28.195312 -50.9375 31.300781 -50.21875 33.96875 -48.78125 C 36.644531 -47.34375 38.703125 -45.453125 40.140625 -43.109375 L 40.140625 -50.21875 L 55.53125 -50.21875 L 55.53125 0 L 40.140625 0 L 40.140625 -7.109375 C 38.640625 -4.765625 36.550781 -2.875 33.875 -1.4375 C 31.207031 0 28.101562 0.71875 24.5625 0.71875 C 20.488281 0.71875 16.769531 -0.34375 13.40625 -2.46875 C 10.050781 -4.601562 7.394531 -7.632812 5.4375 -11.5625 C 3.488281 -15.488281 2.515625 -20.035156 2.515625 -25.203125 Z M 40.140625 -25.109375 C 40.140625 -28.953125 39.070312 -31.984375 36.9375 -34.203125 C 34.8125 -36.421875 32.21875 -37.53125 29.15625 -37.53125 C 26.09375 -37.53125 23.5 -36.429688 21.375 -34.234375 C 19.25 -32.046875 18.1875 -29.035156 18.1875 -25.203125 C 18.1875 -21.359375 19.25 -18.3125 21.375 -16.0625 C 23.5 -13.8125 26.09375 -12.6875 29.15625 -12.6875 C 32.21875 -12.6875 34.8125 -13.796875 36.9375 -16.015625 C 39.070312 -18.234375 40.140625 -21.265625 40.140625 -25.109375 Z M 40.140625 -25.109375 "/></g></g></g><g fill="#ffffff" fill-opacity="1"><g transform="translate(829.032311, 722.292992)"><g><path d="M 24.65625 -50.9375 C 28.195312 -50.9375 31.300781 -50.21875 33.96875 -48.78125 C 36.644531 -47.34375 38.703125 -45.453125 40.140625 -43.109375 L 40.140625 -50.21875 L 55.53125 -50.21875 L 55.53125 -0.09375 C 55.53125 4.53125 54.613281 8.71875 52.78125 12.46875 C 50.957031 16.21875 48.171875 19.203125 44.421875 21.421875 C 40.671875 23.640625 36.003906 24.75 30.421875 24.75 C 22.984375 24.75 16.953125 22.992188 12.328125 19.484375 C 7.710938 15.972656 5.070312 11.21875 4.40625 5.21875 L 19.625 5.21875 C 20.101562 7.132812 21.238281 8.648438 23.03125 9.765625 C 24.832031 10.878906 27.054688 11.4375 29.703125 11.4375 C 32.878906 11.4375 35.410156 10.519531 37.296875 8.6875 C 39.191406 6.851562 40.140625 3.925781 40.140625 -0.09375 L 40.140625 -7.203125 C 38.640625 -4.859375 36.566406 -2.953125 33.921875 -1.484375 C 31.285156 -0.015625 28.195312 0.71875 24.65625 0.71875 C 20.519531 0.71875 16.769531 -0.34375 13.40625 -2.46875 C 10.050781 -4.601562 7.394531 -7.632812 5.4375 -11.5625 C 3.488281 -15.488281 2.515625 -20.035156 2.515625 -25.203125 C 2.515625 -30.359375 3.488281 -34.882812 5.4375 -38.78125 C 7.394531 -42.6875 10.050781 -45.6875 13.40625 -47.78125 C 16.769531 -49.882812 20.519531 -50.9375 24.65625 -50.9375 Z M 40.140625 -25.109375 C 40.140625 -28.953125 39.070312 -31.984375 36.9375 -34.203125 C 34.8125 -36.421875 32.21875 -37.53125 29.15625 -37.53125 C 26.09375 -37.53125 23.5 -36.429688 21.375 -34.234375 C 19.25 -32.046875 18.1875 -29.035156 18.1875 -25.203125 C 18.1875 -21.359375 19.25 -18.3125 21.375 -16.0625 C 23.5 -13.8125 26.09375 -12.6875 29.15625 -12.6875 C 32.21875 -12.6875 34.8125 -13.796875 36.9375 -16.015625 C 39.070312 -18.234375 40.140625 -21.265625 40.140625 -25.109375 Z M 40.140625 -25.109375 "/></g></g></g><g fill="#ffffff" fill-opacity="1"><g transform="translate(890.142247, 722.292992)"><g><path d="M 52.921875 -25.921875 C 52.921875 -24.484375 52.832031 -22.984375 52.65625 -21.421875 L 17.8125 -21.421875 C 18.0625 -18.296875 19.066406 -15.910156 20.828125 -14.265625 C 22.597656 -12.617188 24.773438 -11.796875 27.359375 -11.796875 C 31.203125 -11.796875 33.875 -13.414062 35.375 -16.65625 L 51.75 -16.65625 C 50.90625 -13.351562 49.390625 -10.378906 47.203125 -7.734375 C 45.015625 -5.097656 42.269531 -3.03125 38.96875 -1.53125 C 35.664062 -0.03125 31.976562 0.71875 27.90625 0.71875 C 22.976562 0.71875 18.59375 -0.328125 14.75 -2.421875 C 10.914062 -4.523438 7.914062 -7.523438 5.75 -11.421875 C 3.59375 -15.328125 2.515625 -19.890625 2.515625 -25.109375 C 2.515625 -30.328125 3.578125 -34.882812 5.703125 -38.78125 C 7.835938 -42.6875 10.828125 -45.6875 14.671875 -47.78125 C 18.515625 -49.882812 22.925781 -50.9375 27.90625 -50.9375 C 32.757812 -50.9375 37.078125 -49.914062 40.859375 -47.875 C 44.640625 -45.832031 47.59375 -42.921875 49.71875 -39.140625 C 51.851562 -35.367188 52.921875 -30.960938 52.921875 -25.921875 Z M 37.171875 -29.96875 C 37.171875 -32.613281 36.269531 -34.710938 34.46875 -36.265625 C 32.664062 -37.828125 30.414062 -38.609375 27.71875 -38.609375 C 25.132812 -38.609375 22.957031 -37.859375 21.1875 -36.359375 C 19.425781 -34.859375 18.332031 -32.726562 17.90625 -29.96875 Z M 37.171875 -29.96875 "/></g></g></g><g fill="#ffffff" fill-opacity="1"><g transform="translate(945.582186, 722.292992)"><g><path d="M 69.65625 -50.765625 C 75.894531 -50.765625 80.859375 -48.875 84.546875 -45.09375 C 88.242188 -41.3125 90.09375 -36.0625 90.09375 -29.34375 L 90.09375 0 L 74.796875 0 L 74.796875 -27.265625 C 74.796875 -30.503906 73.9375 -33.007812 72.21875 -34.78125 C 70.507812 -36.550781 68.15625 -37.4375 65.15625 -37.4375 C 62.15625 -37.4375 59.800781 -36.550781 58.09375 -34.78125 C 56.382812 -33.007812 55.53125 -30.503906 55.53125 -27.265625 L 55.53125 0 L 40.234375 0 L 40.234375 -27.265625 C 40.234375 -30.503906 39.375 -33.007812 37.65625 -34.78125 C 35.945312 -36.550781 33.59375 -37.4375 30.59375 -37.4375 C 27.59375 -37.4375 25.238281 -36.550781 23.53125 -34.78125 C 21.820312 -33.007812 20.96875 -30.503906 20.96875 -27.265625 L 20.96875 0 L 5.578125 0 L 5.578125 -50.21875 L 20.96875 -50.21875 L 20.96875 -43.921875 C 22.53125 -46.015625 24.570312 -47.675781 27.09375 -48.90625 C 29.613281 -50.144531 32.460938 -50.765625 35.640625 -50.765625 C 39.421875 -50.765625 42.796875 -49.953125 45.765625 -48.328125 C 48.734375 -46.710938 51.054688 -44.40625 52.734375 -41.40625 C 54.472656 -44.164062 56.84375 -46.414062 59.84375 -48.15625 C 62.84375 -49.894531 66.113281 -50.765625 69.65625 -50.765625 Z M 69.65625 -50.765625 "/></g></g></g><g fill="#ffffff" fill-opacity="1"><g transform="translate(1040.892103, 722.292992)"><g><path d="M 52.921875 -25.921875 C 52.921875 -24.484375 52.832031 -22.984375 52.65625 -21.421875 L 17.8125 -21.421875 C 18.0625 -18.296875 19.066406 -15.910156 20.828125 -14.265625 C 22.597656 -12.617188 24.773438 -11.796875 27.359375 -11.796875 C 31.203125 -11.796875 33.875 -13.414062 35.375 -16.65625 L 51.75 -16.65625 C 50.90625 -13.351562 49.390625 -10.378906 47.203125 -7.734375 C 45.015625 -5.097656 42.269531 -3.03125 38.96875 -1.53125 C 35.664062 -0.03125 31.976562 0.71875 27.90625 0.71875 C 22.976562 0.71875 18.59375 -0.328125 14.75 -2.421875 C 10.914062 -4.523438 7.914062 -7.523438 5.75 -11.421875 C 3.59375 -15.328125 2.515625 -19.890625 2.515625 -25.109375 C 2.515625 -30.328125 3.578125 -34.882812 5.703125 -38.78125 C 7.835938 -42.6875 10.828125 -45.6875 14.671875 -47.78125 C 18.515625 -49.882812 22.925781 -50.9375 27.90625 -50.9375 C 32.757812 -50.9375 37.078125 -49.914062 40.859375 -47.875 C 44.640625 -45.832031 47.59375 -42.921875 49.71875 -39.140625 C 51.851562 -35.367188 52.921875 -30.960938 52.921875 -25.921875 Z M 37.171875 -29.96875 C 37.171875 -32.613281 36.269531 -34.710938 34.46875 -36.265625 C 32.664062 -37.828125 30.414062 -38.609375 27.71875 -38.609375 C 25.132812 -38.609375 22.957031 -37.859375 21.1875 -36.359375 C 19.425781 -34.859375 18.332031 -32.726562 17.90625 -29.96875 Z M 37.171875 -29.96875 "/></g></g></g><g fill="#ffffff" fill-opacity="1"><g transform="translate(1096.332041, 722.292992)"><g><path d="M 36.1875 -50.765625 C 42.0625 -50.765625 46.753906 -48.859375 50.265625 -45.046875 C 53.773438 -41.234375 55.53125 -36 55.53125 -29.34375 L 55.53125 0 L 40.234375 0 L 40.234375 -27.265625 C 40.234375 -30.628906 39.363281 -33.238281 37.625 -35.09375 C 35.882812 -36.957031 33.539062 -37.890625 30.59375 -37.890625 C 27.65625 -37.890625 25.316406 -36.957031 23.578125 -35.09375 C 21.835938 -33.238281 20.96875 -30.628906 20.96875 -27.265625 L 20.96875 0 L 5.578125 0 L 5.578125 -50.21875 L 20.96875 -50.21875 L 20.96875 -43.5625 C 22.53125 -45.78125 24.628906 -47.535156 27.265625 -48.828125 C 29.910156 -50.117188 32.882812 -50.765625 36.1875 -50.765625 Z M 36.1875 -50.765625 "/></g></g></g><g fill="#ffffff" fill-opacity="1"><g transform="translate(1156.99195, 722.292992)"><g><path d="M 33.5625 -13.046875 L 33.5625 0 L 25.734375 0 C 20.160156 0 15.8125 -1.363281 12.6875 -4.09375 C 9.570312 -6.820312 8.015625 -11.273438 8.015625 -17.453125 L 8.015625 -37.4375 L 1.890625 -37.4375 L 1.890625 -50.21875 L 8.015625 -50.21875 L 8.015625 -62.453125 L 23.40625 -62.453125 L 23.40625 -50.21875 L 33.484375 -50.21875 L 33.484375 -37.4375 L 23.40625 -37.4375 L 23.40625 -17.28125 C 23.40625 -15.78125 23.765625 -14.695312 24.484375 -14.03125 C 25.203125 -13.375 26.398438 -13.046875 28.078125 -13.046875 Z M 33.5625 -13.046875 "/></g></g></g></svg>